<svg width="36" height="37" viewBox="0 0 36 37" fill="none" xmlns="http://www.w3.org/2000/svg">
<circle cx="27" cy="21.0557" r="7" stroke="#2160FD" stroke-width="2.3" stroke-linecap="round" stroke-linejoin="round"/>
<path d="M24.4 10.5559V8.25586C24.4 6.599 23.0569 5.25586 21.4 5.25586H20M24.4 30.5559V31.0559C24.4 32.7127 23.0569 34.0559 21.4 34.0559H5C3.34314 34.0559 2 32.7127 2 31.0559V8.25586C2 6.59901 3.34315 5.25586 5 5.25586H7.5M24.4 21.5559L26 24.0559L30 19.0559" stroke="#2160FD" stroke-width="2.3" stroke-linecap="round" stroke-linejoin="round"/>
<rect x="7.33398" y="2.05566" width="12.8" height="6.4" rx="2" stroke="#2160FD" stroke-width="2.3" stroke-linecap="round" stroke-linejoin="round"/>
<line x1="7.15" y1="12.9057" x2="18.85" y2="12.9057" stroke="#2160FD" stroke-width="2.3" stroke-linecap="round" stroke-linejoin="round"/>
<path d="M7.15039 16.9053L16.5004 16.9053" stroke="#2160FD" stroke-width="2.3" stroke-linecap="round" stroke-linejoin="round"/>
<path d="M7.15039 21.0557L16.5004 21.0557" stroke="#2160FD" stroke-width="2.3" stroke-linecap="round" stroke-linejoin="round"/>
<path d="M7.15039 25.0557L15.0004 25.0557" stroke="#2160FD" stroke-width="2.3" stroke-linecap="round" stroke-linejoin="round"/>
</svg>
