<svg width="40" height="39" viewBox="0 0 40 39" fill="none" xmlns="http://www.w3.org/2000/svg">
<path d="M37.5859 19.8486C37.5859 10.0218 29.6196 2.05566 19.7929 2.05566C9.96617 2.05566 2 10.0218 2 19.8486C2 29.6753 9.96617 37.6416 19.7929 37.6416" stroke="#2160FD" stroke-width="2.5" stroke-linecap="round" stroke-linejoin="round"/>
<path d="M21.5723 2.14355C21.5723 2.14355 26.9102 9.17287 26.9102 19.8486" stroke="#2160FD" stroke-width="2.5" stroke-linecap="round" stroke-linejoin="round"/>
<path d="M18.0137 37.5538C18.0137 37.5538 12.6758 30.5243 12.6758 19.8486C12.6758 9.17287 18.0137 2.14355 18.0137 2.14355" stroke="#2160FD" stroke-width="2.5" stroke-linecap="round" stroke-linejoin="round"/>
<path d="M3.11914 26.0762H19.7918" stroke="#2160FD" stroke-width="2.5" stroke-linecap="round" stroke-linejoin="round"/>
<path d="M3.11914 13.6211H36.4645" stroke="#2160FD" stroke-width="2.5" stroke-linecap="round" stroke-linejoin="round"/>
<path fill-rule="evenodd" clip-rule="evenodd" d="M37.3691 30.3773C38.2477 30.9176 38.1936 32.2331 37.2887 32.3357L32.7219 32.8533L30.6736 36.9676C30.2677 37.7829 29.0132 37.3838 28.8057 36.3733L26.5721 25.4911C26.3969 24.6371 27.1645 24.0996 27.907 24.5565L37.3691 30.3773Z" stroke="#2160FD" stroke-width="2.5"/>
</svg>
