<svg width="30" height="31" viewBox="0 0 30 31" fill="none" xmlns="http://www.w3.org/2000/svg">
<path fill-rule="evenodd" clip-rule="evenodd" d="M15 3.05566C8.09644 3.05566 2.5 8.6521 2.5 15.5557C2.5 22.4592 8.09644 28.0557 15 28.0557C21.9036 28.0557 27.5 22.4592 27.5 15.5557C27.5 8.65211 21.9036 3.05566 15 3.05566ZM15 18.3682C14.7514 18.3682 14.5129 18.2694 14.3371 18.0936L10.5871 14.3436C10.221 13.9775 10.221 13.3839 10.5871 13.0177C10.9532 12.6516 11.5468 12.6516 11.9129 13.0177L15 16.1048L18.0871 13.0178C18.4532 12.6516 19.0468 12.6516 19.4129 13.0178C19.779 13.3839 19.779 13.9775 19.4129 14.3436L15.6629 18.0936C15.4871 18.2694 15.2486 18.3682 15 18.3682Z" fill="#2D79FB"/>
</svg>
