<svg width="234" height="137" viewBox="0 0 234 137" fill="none" xmlns="http://www.w3.org/2000/svg">
<path d="M127.777 11.3622L129.553 15.6562L133.4 16.6357L133.4 19.8387L129.539 20.8444L127.763 25.1397L130.164 27.9757L126.928 31.2157C126.928 31.2157 124.82 29.3224 124.105 28.8108L119.816 30.589L118.838 34.4557H115.602L114.627 30.5876L110.41 28.851L107.512 31.2157L104.276 27.9757L106.637 25.1397L104.861 20.8444L101 19.8387L101 16.6357L104.847 15.6562L106.628 11.4336L104.276 8.53566L107.512 5.29566L110.27 7.75152L114.549 5.9455L115.572 2.05566H118.734L119.741 5.89464L124.12 7.69804L126.928 5.29566L130.164 8.53566L127.777 11.3622Z" stroke="#2160FD" stroke-width="2.3" stroke-linecap="round" stroke-linejoin="round"/>
<circle cx="117" cy="18.0557" r="5" stroke="#2160FD" stroke-width="2.3" stroke-linecap="round" stroke-linejoin="round"/>
<path d="M41.5348 56.1863V54.4193H50.8189V56.1863H47.2223V66.0557H45.1314V56.1863H41.5348ZM54.5746 60.942V66.0557H52.5178V54.4193H54.5291V58.8113H54.6314C54.8359 58.3189 55.1522 57.9307 55.5803 57.6466C56.0121 57.3587 56.5613 57.2148 57.228 57.2148C57.834 57.2148 58.3625 57.3416 58.8132 57.5954C59.264 57.8492 59.6125 58.2204 59.8587 58.7091C60.1087 59.1977 60.2337 59.7943 60.2337 60.4988V66.0557H58.1768V60.817C58.1768 60.2299 58.0253 59.7735 57.7223 59.4477C57.4231 59.1182 57.0026 58.9534 56.4609 58.9534C56.0973 58.9534 55.7715 59.0329 55.4837 59.192C55.1996 59.3473 54.9761 59.5727 54.8132 59.8682C54.6541 60.1636 54.5746 60.5216 54.5746 60.942ZM62.3303 66.0557V57.3284H64.3871V66.0557H62.3303ZM63.3643 56.0898C63.0386 56.0898 62.7583 55.9818 62.5234 55.7659C62.2886 55.5462 62.1712 55.2829 62.1712 54.9761C62.1712 54.6655 62.2886 54.4023 62.5234 54.1863C62.7583 53.9666 63.0386 53.8568 63.3643 53.8568C63.6939 53.8568 63.9742 53.9666 64.2053 54.1863C64.4401 54.4023 64.5575 54.6655 64.5575 54.9761C64.5575 55.2829 64.4401 55.5462 64.2053 55.7659C63.9742 55.9818 63.6939 56.0898 63.3643 56.0898ZM70.3658 66.2261C69.4908 66.2261 68.7351 66.0443 68.0987 65.6807C67.4661 65.3132 66.9794 64.7943 66.6385 64.1238C66.2976 63.4496 66.1271 62.656 66.1271 61.7432C66.1271 60.8454 66.2976 60.0576 66.6385 59.3795C66.9832 58.6977 67.4643 58.1674 68.0817 57.7886C68.6991 57.406 69.4245 57.2148 70.2578 57.2148C70.7957 57.2148 71.3033 57.3019 71.7805 57.4761C72.2616 57.6466 72.6858 57.9117 73.0533 58.2716C73.4245 58.6314 73.7161 59.0898 73.9283 59.6466C74.1404 60.1996 74.2464 60.8587 74.2464 61.6238V62.2545H67.093V60.8682H72.2749C72.2711 60.4742 72.1858 60.1238 72.0192 59.817C71.8525 59.5064 71.6196 59.2621 71.3203 59.0841C71.0249 58.906 70.6802 58.817 70.2862 58.817C69.8658 58.817 69.4964 58.9193 69.1783 59.1238C68.8601 59.3246 68.612 59.5898 68.4339 59.9193C68.2597 60.2451 68.1707 60.603 68.1669 60.9932V62.2034C68.1669 62.711 68.2597 63.1466 68.4453 63.5102C68.6309 63.8701 68.8904 64.1466 69.2237 64.3398C69.5571 64.5291 69.9472 64.6238 70.3942 64.6238C70.6934 64.6238 70.9643 64.5822 71.2067 64.4988C71.4491 64.4117 71.6593 64.2848 71.8374 64.1182C72.0154 63.9515 72.1499 63.7451 72.2408 63.4988L74.1612 63.7148C74.04 64.2223 73.8089 64.6655 73.468 65.0443C73.1309 65.4193 72.6991 65.711 72.1726 65.9193C71.6461 66.1238 71.0438 66.2261 70.3658 66.2261ZM67.2464 56.3284L69.5476 54.4591H70.8317L73.1442 56.3284H71.4339L70.201 55.2829L68.9624 56.3284H67.2464ZM72.5362 55.192L73.7976 53.0954H75.6044L73.8487 55.192H72.5362ZM80.3445 57.3284V58.9193H75.3274V57.3284H80.3445ZM76.5661 55.2375H78.6229V63.4307C78.6229 63.7072 78.6645 63.9193 78.7479 64.067C78.835 64.211 78.9486 64.3095 79.0888 64.3625C79.2289 64.4155 79.3842 64.442 79.5547 64.442C79.6835 64.442 79.8009 64.4326 79.907 64.4136C80.0168 64.3947 80.1001 64.3776 80.157 64.3625L80.5036 65.9704C80.3937 66.0083 80.2365 66.05 80.032 66.0954C79.8312 66.1409 79.585 66.1674 79.2933 66.175C78.7782 66.1901 78.3142 66.1125 77.9013 65.942C77.4884 65.7678 77.1607 65.4988 76.9183 65.1352C76.6797 64.7716 76.5623 64.317 76.5661 63.7716V55.2375ZM88.0902 54.4193V66.0557H86.0334V54.4193H88.0902ZM92.7166 66.2318C92.1636 66.2318 91.6655 66.1333 91.2223 65.9363C90.7829 65.7356 90.4344 65.4401 90.1768 65.05C89.9231 64.6598 89.7962 64.1788 89.7962 63.6068C89.7962 63.1144 89.8871 62.7072 90.0689 62.3852C90.2507 62.0632 90.4988 61.8057 90.8132 61.6125C91.1276 61.4193 91.4818 61.2735 91.8757 61.175C92.2734 61.0727 92.6844 60.9988 93.1087 60.9534C93.62 60.9004 94.0348 60.853 94.353 60.8113C94.6712 60.7659 94.9022 60.6977 95.0462 60.6068C95.1939 60.5121 95.2678 60.3663 95.2678 60.1693V60.1352C95.2678 59.7072 95.1409 59.3757 94.8871 59.1409C94.6333 58.906 94.2678 58.7886 93.7905 58.7886C93.2867 58.7886 92.8871 58.8985 92.5916 59.1182C92.3 59.3379 92.103 59.5973 92.0007 59.8966L90.0803 59.6238C90.2318 59.0935 90.4818 58.6504 90.8303 58.2943C91.1787 57.9345 91.6049 57.6655 92.1087 57.4875C92.6125 57.3057 93.1693 57.2148 93.7791 57.2148C94.1996 57.2148 94.6181 57.264 95.0348 57.3625C95.4515 57.461 95.8321 57.6238 96.1768 57.8511C96.5215 58.0746 96.7981 58.3795 97.0064 58.7659C97.2185 59.1523 97.3246 59.6352 97.3246 60.2148V66.0557H95.3473V64.8568H95.2791C95.1541 65.0992 94.978 65.3265 94.7507 65.5386C94.5272 65.747 94.245 65.9155 93.9041 66.0443C93.567 66.1693 93.1712 66.2318 92.7166 66.2318ZM93.2507 64.7204C93.6636 64.7204 94.0215 64.639 94.3246 64.4761C94.6276 64.3095 94.8606 64.0898 95.0234 63.817C95.1901 63.5443 95.2734 63.247 95.2734 62.925V61.8966C95.209 61.9496 95.0992 61.9988 94.9439 62.0443C94.7924 62.0898 94.6219 62.1295 94.4325 62.1636C94.2431 62.1977 94.0556 62.228 93.87 62.2545C93.6844 62.281 93.5234 62.3038 93.3871 62.3227C93.0803 62.3644 92.8056 62.4326 92.5632 62.5273C92.3208 62.622 92.1295 62.7545 91.9893 62.925C91.8492 63.0916 91.7791 63.3076 91.7791 63.5727C91.7791 63.9515 91.9174 64.2375 92.1939 64.4307C92.4704 64.6238 92.8227 64.7204 93.2507 64.7204ZM95.0234 56.2829L93.87 54.8284L92.7166 56.2829H90.9155V56.2034L93.0689 53.7488H94.6768L96.8246 56.2034V56.2829H95.0234ZM93.7905 69.1977C93.4609 69.1977 93.1787 69.0879 92.9439 68.8682C92.7128 68.6485 92.5973 68.3852 92.5973 68.0784C92.5973 67.7716 92.7128 67.5083 92.9439 67.2886C93.1787 67.0689 93.459 66.9591 93.7848 66.9591C94.1143 66.9591 94.3946 67.0689 94.6257 67.2886C94.8606 67.5083 94.978 67.7716 94.978 68.0784C94.978 68.3852 94.8606 68.6485 94.6257 68.8682C94.3946 69.0879 94.1162 69.1977 93.7905 69.1977ZM99.3928 69.3284V57.3284H101.415V58.7716H101.535C101.641 58.5595 101.79 58.3341 101.984 58.0954C102.177 57.853 102.438 57.6466 102.768 57.4761C103.097 57.3019 103.518 57.2148 104.029 57.2148C104.703 57.2148 105.311 57.3871 105.853 57.7318C106.398 58.0727 106.83 58.5784 107.148 59.2488C107.47 59.9155 107.631 60.7337 107.631 61.7034C107.631 62.6617 107.474 63.4761 107.16 64.1466C106.845 64.817 106.417 65.3284 105.876 65.6807C105.334 66.0329 104.72 66.2091 104.035 66.2091C103.535 66.2091 103.12 66.1257 102.79 65.9591C102.461 65.7924 102.196 65.5916 101.995 65.3568C101.798 65.1182 101.645 64.8928 101.535 64.6807H101.45V69.3284H99.3928ZM101.41 61.692C101.41 62.2564 101.489 62.7507 101.648 63.175C101.811 63.5992 102.044 63.9307 102.347 64.1693C102.654 64.4041 103.025 64.5216 103.461 64.5216C103.915 64.5216 104.296 64.4004 104.603 64.1579C104.91 63.9117 105.141 63.5765 105.296 63.1523C105.455 62.7242 105.535 62.2375 105.535 61.692C105.535 61.1504 105.457 60.6693 105.302 60.2488C105.147 59.8284 104.915 59.4988 104.609 59.2602C104.302 59.0216 103.919 58.9023 103.461 58.9023C103.022 58.9023 102.648 59.0178 102.342 59.2488C102.035 59.4799 101.802 59.8038 101.643 60.2204C101.487 60.6371 101.41 61.1276 101.41 61.692ZM119.185 69.3284V64.6807H119.1C118.994 64.8928 118.841 65.1182 118.64 65.3568C118.439 65.5916 118.174 65.7924 117.844 65.9591C117.515 66.1257 117.1 66.2091 116.6 66.2091C115.915 66.2091 115.301 66.0329 114.759 65.6807C114.218 65.3284 113.79 64.817 113.475 64.1466C113.161 63.4761 113.004 62.6617 113.004 61.7034C113.004 60.7337 113.163 59.9155 113.481 59.2488C113.803 58.5784 114.237 58.0727 114.782 57.7318C115.327 57.3871 115.935 57.2148 116.606 57.2148C117.117 57.2148 117.538 57.3019 117.867 57.4761C118.197 57.6466 118.458 57.853 118.651 58.0954C118.844 58.3341 118.994 58.5595 119.1 58.7716H119.225V57.3284H121.248V69.3284H119.185ZM117.174 64.5216C117.61 64.5216 117.981 64.4041 118.288 64.1693C118.594 63.9307 118.827 63.5992 118.987 63.175C119.146 62.7507 119.225 62.2564 119.225 61.692C119.225 61.1276 119.146 60.6371 118.987 60.2204C118.831 59.8038 118.6 59.4799 118.293 59.2488C117.99 59.0178 117.617 58.9023 117.174 58.9023C116.716 58.9023 116.333 59.0216 116.026 59.2602C115.719 59.4988 115.488 59.8284 115.333 60.2488C115.178 60.6693 115.1 61.1504 115.1 61.692C115.1 62.2375 115.178 62.7242 115.333 63.1523C115.492 63.5765 115.725 63.9117 116.032 64.1579C116.343 64.4004 116.723 64.5216 117.174 64.5216ZM128.924 62.3852V57.3284H130.981V66.0557H128.987V64.5045H128.896C128.699 64.9932 128.375 65.3928 127.924 65.7034C127.477 66.014 126.926 66.1693 126.271 66.1693C125.699 66.1693 125.193 66.0424 124.754 65.7886C124.318 65.531 123.977 65.1579 123.731 64.6693C123.485 64.1769 123.362 63.5822 123.362 62.8852V57.3284H125.418V62.567C125.418 63.1201 125.57 63.5595 125.873 63.8852C126.176 64.211 126.574 64.3738 127.066 64.3738C127.369 64.3738 127.663 64.3 127.947 64.1523C128.231 64.0045 128.464 63.7848 128.646 63.4932C128.831 63.1977 128.924 62.8284 128.924 62.3852ZM135.607 66.2318C135.054 66.2318 134.556 66.1333 134.113 65.9363C133.674 65.7356 133.325 65.4401 133.067 65.05C132.814 64.6598 132.687 64.1788 132.687 63.6068C132.687 63.1144 132.778 62.7072 132.96 62.3852C133.141 62.0632 133.389 61.8057 133.704 61.6125C134.018 61.4193 134.372 61.2735 134.766 61.175C135.164 61.0727 135.575 60.9988 135.999 60.9534C136.511 60.9004 136.925 60.853 137.244 60.8113C137.562 60.7659 137.793 60.6977 137.937 60.6068C138.085 60.5121 138.158 60.3663 138.158 60.1693V60.1352C138.158 59.7072 138.031 59.3757 137.778 59.1409C137.524 58.906 137.158 58.7886 136.681 58.7886C136.177 58.7886 135.778 58.8985 135.482 59.1182C135.191 59.3379 134.994 59.5973 134.891 59.8966L132.971 59.6238C133.122 59.0935 133.372 58.6504 133.721 58.2943C134.069 57.9345 134.496 57.6655 134.999 57.4875C135.503 57.3057 136.06 57.2148 136.67 57.2148C137.09 57.2148 137.509 57.264 137.925 57.3625C138.342 57.461 138.723 57.6238 139.067 57.8511C139.412 58.0746 139.689 58.3795 139.897 58.7659C140.109 59.1523 140.215 59.6352 140.215 60.2148V66.0557H138.238V64.8568H138.17C138.045 65.0992 137.869 65.3265 137.641 65.5386C137.418 65.747 137.136 65.9155 136.795 66.0443C136.458 66.1693 136.062 66.2318 135.607 66.2318ZM136.141 64.7204C136.554 64.7204 136.912 64.639 137.215 64.4761C137.518 64.3095 137.751 64.0898 137.914 63.817C138.081 63.5443 138.164 63.247 138.164 62.925V61.8966C138.1 61.9496 137.99 61.9988 137.835 62.0443C137.683 62.0898 137.513 62.1295 137.323 62.1636C137.134 62.1977 136.946 62.228 136.761 62.2545C136.575 62.281 136.414 62.3038 136.278 62.3227C135.971 62.3644 135.696 62.4326 135.454 62.5273C135.211 62.622 135.02 62.7545 134.88 62.925C134.74 63.0916 134.67 63.3076 134.67 63.5727C134.67 63.9515 134.808 64.2375 135.085 64.4307C135.361 64.6238 135.713 64.7204 136.141 64.7204ZM137.55 56.1011H135.982L135.903 55.0102C136.304 54.9951 136.588 54.9439 136.755 54.8568C136.922 54.7659 137.003 54.6409 136.999 54.4818C137.003 54.2773 136.893 54.1352 136.67 54.0557C136.446 53.9761 136.17 53.9363 135.84 53.9363L135.891 52.9193C136.831 52.9193 137.543 53.0557 138.028 53.3284C138.513 53.6011 138.753 53.9723 138.749 54.442C138.753 54.8019 138.63 55.0708 138.38 55.2488C138.13 55.4231 137.853 55.5329 137.55 55.5784V56.1011ZM144.34 60.942V66.0557H142.283V57.3284H144.249V58.8113H144.352C144.552 58.3227 144.872 57.9345 145.312 57.6466C145.755 57.3587 146.302 57.2148 146.954 57.2148C147.556 57.2148 148.081 57.3435 148.528 57.6011C148.978 57.8587 149.327 58.2318 149.573 58.7204C149.823 59.2091 149.946 59.8019 149.942 60.4988V66.0557H147.886V60.817C147.886 60.2337 147.734 59.7773 147.431 59.4477C147.132 59.1182 146.717 58.9534 146.187 58.9534C145.827 58.9534 145.507 59.0329 145.227 59.192C144.95 59.3473 144.732 59.5727 144.573 59.8682C144.418 60.1636 144.34 60.5216 144.34 60.942ZM155.829 69.5102C155.09 69.5102 154.456 69.4098 153.925 69.2091C153.395 69.0121 152.969 68.747 152.647 68.4136C152.325 68.0803 152.102 67.711 151.977 67.3057L153.829 66.8568C153.912 67.0273 154.033 67.1958 154.192 67.3625C154.352 67.5329 154.566 67.6731 154.835 67.7829C155.107 67.8966 155.45 67.9534 155.863 67.9534C156.446 67.9534 156.929 67.8113 157.312 67.5273C157.694 67.247 157.886 66.7848 157.886 66.1409V64.4875H157.783C157.677 64.6996 157.522 64.9174 157.317 65.1409C157.117 65.3644 156.85 65.5519 156.516 65.7034C156.187 65.8549 155.772 65.9307 155.272 65.9307C154.602 65.9307 153.994 65.7735 153.448 65.4591C152.906 65.1409 152.475 64.6674 152.153 64.0386C151.835 63.406 151.675 62.6144 151.675 61.6636C151.675 60.7053 151.835 59.8966 152.153 59.2375C152.475 58.5746 152.908 58.0727 153.454 57.7318C153.999 57.3871 154.607 57.2148 155.278 57.2148C155.789 57.2148 156.21 57.3019 156.539 57.4761C156.872 57.6466 157.138 57.853 157.335 58.0954C157.531 58.3341 157.681 58.5595 157.783 58.7716H157.897V57.3284H159.925V66.1977C159.925 66.9439 159.747 67.5613 159.391 68.05C159.035 68.5386 158.549 68.9041 157.931 69.1466C157.314 69.389 156.613 69.5102 155.829 69.5102ZM155.846 64.317C156.281 64.317 156.653 64.211 156.96 63.9988C157.266 63.7867 157.499 63.4818 157.658 63.0841C157.817 62.6863 157.897 62.2091 157.897 61.6523C157.897 61.103 157.817 60.622 157.658 60.2091C157.503 59.7962 157.272 59.4761 156.965 59.2488C156.662 59.0178 156.289 58.9023 155.846 58.9023C155.388 58.9023 155.005 59.0216 154.698 59.2602C154.391 59.4988 154.16 59.8265 154.005 60.2432C153.85 60.656 153.772 61.1257 153.772 61.6523C153.772 62.1863 153.85 62.6541 154.005 63.0557C154.164 63.4534 154.397 63.764 154.704 63.9875C155.014 64.2072 155.395 64.317 155.846 64.317ZM169.809 66.2261C168.938 66.2261 168.19 66.0348 167.565 65.6523C166.943 65.2697 166.464 64.7413 166.127 64.067C165.794 63.389 165.627 62.6087 165.627 61.7261C165.627 60.8398 165.798 60.0576 166.138 59.3795C166.479 58.6977 166.96 58.1674 167.582 57.7886C168.207 57.406 168.945 57.2148 169.798 57.2148C170.506 57.2148 171.133 57.3454 171.678 57.6068C172.228 57.8644 172.665 58.2299 172.991 58.7034C173.317 59.1731 173.502 59.7223 173.548 60.3511H171.582C171.502 59.9307 171.313 59.5803 171.013 59.3C170.718 59.0159 170.322 58.8738 169.826 58.8738C169.406 58.8738 169.036 58.9875 168.718 59.2148C168.4 59.4382 168.152 59.7602 167.974 60.1807C167.799 60.6011 167.712 61.1049 167.712 61.692C167.712 62.2867 167.799 62.7981 167.974 63.2261C168.148 63.6504 168.392 63.978 168.707 64.2091C169.025 64.4363 169.398 64.55 169.826 64.55C170.129 64.55 170.4 64.4932 170.638 64.3795C170.881 64.2621 171.084 64.0935 171.246 63.8738C171.409 63.6541 171.521 63.3871 171.582 63.0727H173.548C173.498 63.6901 173.317 64.2375 173.002 64.7148C172.688 65.1882 172.26 65.5595 171.718 65.8284C171.176 66.0935 170.54 66.2261 169.809 66.2261ZM177.748 66.2318C177.195 66.2318 176.697 66.1333 176.254 65.9363C175.814 65.7356 175.466 65.4401 175.208 65.05C174.954 64.6598 174.827 64.1788 174.827 63.6068C174.827 63.1144 174.918 62.7072 175.1 62.3852C175.282 62.0632 175.53 61.8057 175.844 61.6125C176.159 61.4193 176.513 61.2735 176.907 61.175C177.305 61.0727 177.716 60.9988 178.14 60.9534C178.651 60.9004 179.066 60.853 179.384 60.8113C179.702 60.7659 179.933 60.6977 180.077 60.6068C180.225 60.5121 180.299 60.3663 180.299 60.1693V60.1352C180.299 59.7072 180.172 59.3757 179.918 59.1409C179.665 58.906 179.299 58.7886 178.822 58.7886C178.318 58.7886 177.918 58.8985 177.623 59.1182C177.331 59.3379 177.134 59.5973 177.032 59.8966L175.112 59.6238C175.263 59.0935 175.513 58.6504 175.862 58.2943C176.21 57.9345 176.636 57.6655 177.14 57.4875C177.644 57.3057 178.201 57.2148 178.81 57.2148C179.231 57.2148 179.649 57.264 180.066 57.3625C180.483 57.461 180.863 57.6238 181.208 57.8511C181.553 58.0746 181.829 58.3795 182.038 58.7659C182.25 59.1523 182.356 59.6352 182.356 60.2148V66.0557H180.379V64.8568H180.31C180.185 65.0992 180.009 65.3265 179.782 65.5386C179.558 65.747 179.276 65.9155 178.935 66.0443C178.598 66.1693 178.202 66.2318 177.748 66.2318ZM178.282 64.7204C178.695 64.7204 179.053 64.639 179.356 64.4761C179.659 64.3095 179.892 64.0898 180.055 63.817C180.221 63.5443 180.305 63.247 180.305 62.925V61.8966C180.24 61.9496 180.13 61.9988 179.975 62.0443C179.824 62.0898 179.653 62.1295 179.464 62.1636C179.274 62.1977 179.087 62.228 178.901 62.2545C178.716 62.281 178.555 62.3038 178.418 62.3227C178.112 62.3644 177.837 62.4326 177.594 62.5273C177.352 62.622 177.161 62.7545 177.021 62.925C176.88 63.0916 176.81 63.3076 176.81 63.5727C176.81 63.9515 176.949 64.2375 177.225 64.4307C177.502 64.6238 177.854 64.7204 178.282 64.7204ZM178.112 56.1807L179.384 53.5841H181.396L179.651 56.1807H178.112ZM188.231 66.2261C187.379 66.2261 186.64 66.0386 186.015 65.6636C185.39 65.2886 184.905 64.764 184.56 64.0898C184.219 63.4155 184.049 62.6276 184.049 61.7261C184.049 60.8246 184.219 60.0348 184.56 59.3568C184.905 58.6788 185.39 58.1523 186.015 57.7773C186.64 57.4023 187.379 57.2148 188.231 57.2148C189.083 57.2148 189.822 57.4023 190.447 57.7773C191.072 58.1523 191.555 58.6788 191.896 59.3568C192.24 60.0348 192.413 60.8246 192.413 61.7261C192.413 62.6276 192.24 63.4155 191.896 64.0898C191.555 64.764 191.072 65.2886 190.447 65.6636C189.822 66.0386 189.083 66.2261 188.231 66.2261ZM188.242 64.5784C188.704 64.5784 189.091 64.4515 189.401 64.1977C189.712 63.9401 189.943 63.5954 190.094 63.1636C190.25 62.7318 190.327 62.2507 190.327 61.7204C190.327 61.1863 190.25 60.7034 190.094 60.2716C189.943 59.836 189.712 59.4894 189.401 59.2318C189.091 58.9742 188.704 58.8454 188.242 58.8454C187.769 58.8454 187.375 58.9742 187.06 59.2318C186.75 59.4894 186.517 59.836 186.362 60.2716C186.21 60.7034 186.134 61.1863 186.134 61.7204C186.134 62.2507 186.21 62.7318 186.362 63.1636C186.517 63.5954 186.75 63.9401 187.06 64.1977C187.375 64.4515 187.769 64.5784 188.242 64.5784Z" fill="#101828"/>
<path d="M5.59411 81.9676V80.8738H13.2305V81.9676H10.0288V91.0557H8.79581V81.9676H5.59411ZM16.1475 86.4619V91.0557H14.9743V80.8738H16.1475V84.6125H16.247C16.426 84.2181 16.6944 83.9049 17.0524 83.6729C17.4136 83.4375 17.8942 83.3199 18.4941 83.3199C19.0145 83.3199 19.4702 83.4243 19.8613 83.6331C20.2524 83.8386 20.5557 84.1551 20.7711 84.5827C20.9899 85.0069 21.0993 85.5471 21.0993 86.2034V91.0557H19.926V86.2829C19.926 85.6764 19.7685 85.2074 19.4537 84.876C19.1421 84.5412 18.7096 84.3738 18.1561 84.3738C17.7716 84.3738 17.4269 84.455 17.122 84.6175C16.8204 84.7799 16.5817 85.0168 16.4061 85.3284C16.2337 85.6399 16.1475 86.0178 16.1475 86.4619ZM23.2457 91.0557V83.4193H24.419V91.0557H23.2457ZM23.8423 82.1466C23.6136 82.1466 23.4164 82.0687 23.2507 81.9129C23.0883 81.7571 23.0071 81.5699 23.0071 81.3511C23.0071 81.1324 23.0883 80.9451 23.2507 80.7893C23.4164 80.6336 23.6136 80.5557 23.8423 80.5557C24.071 80.5557 24.2666 80.6336 24.429 80.7893C24.5947 80.9451 24.6776 81.1324 24.6776 81.3511C24.6776 81.5699 24.5947 81.7571 24.429 81.9129C24.2666 82.0687 24.071 82.1466 23.8423 82.1466ZM29.7697 91.2148C29.0339 91.2148 28.3992 91.0523 27.8656 90.7275C27.3353 90.3994 26.926 89.942 26.6376 89.3554C26.3526 88.7654 26.21 88.0793 26.21 87.2971C26.21 86.5149 26.3526 85.8256 26.6376 85.229C26.926 84.6291 27.327 84.1617 27.8407 83.827C28.3578 83.4889 28.961 83.3199 29.6504 83.3199C30.0481 83.3199 30.4409 83.3862 30.8287 83.5187C31.2164 83.6513 31.5694 83.8667 31.8876 84.165C32.2058 84.46 32.4593 84.8511 32.6483 85.3383C32.8372 85.8256 32.9316 86.4255 32.9316 87.1381V87.6352H27.0453V86.621H31.7385C31.7385 86.1901 31.6523 85.8057 31.4799 85.4676C31.3109 85.1295 31.069 84.8627 30.7541 84.6672C30.4425 84.4716 30.0746 84.3738 29.6504 84.3738C29.1831 84.3738 28.7787 84.4898 28.4373 84.7219C28.0993 84.9506 27.8391 85.2488 27.6568 85.6167C27.4745 85.9846 27.3833 86.3791 27.3833 86.8V87.4761C27.3833 88.0528 27.4828 88.5417 27.6816 88.9427C27.8838 89.3405 28.1639 89.6437 28.5218 89.8525C28.8798 90.058 29.2958 90.1608 29.7697 90.1608C30.0779 90.1608 30.3564 90.1177 30.6049 90.0315C30.8568 89.942 31.0739 89.8095 31.2562 89.6338C31.4385 89.4548 31.5794 89.2327 31.6788 88.9676L32.8123 89.2858C32.693 89.6702 32.4925 90.0083 32.2108 90.3C31.929 90.5883 31.581 90.8137 31.1667 90.9761C30.7524 91.1352 30.2868 91.2148 29.7697 91.2148ZM27.0254 82.4648L29.0538 80.6551H30.1475L32.176 82.4648H30.7441L29.6106 81.4108L28.4771 82.4648H27.0254ZM31.639 81.2517L32.6135 79.4619H34.0652L32.6731 81.2517H31.639ZM38.0375 83.4193V84.4136H34.0801V83.4193H38.0375ZM35.2335 81.5898H36.4068V88.8682C36.4068 89.1996 36.4548 89.4482 36.551 89.6139C36.6504 89.7763 36.7763 89.8857 36.9288 89.942C37.0846 89.9951 37.2486 90.0216 37.421 90.0216C37.5502 90.0216 37.6563 90.0149 37.7392 90.0017C37.822 89.9851 37.8883 89.9719 37.938 89.9619L38.1767 91.0159C38.0971 91.0457 37.9861 91.0756 37.8436 91.1054C37.7011 91.1385 37.5204 91.1551 37.3017 91.1551C36.9702 91.1551 36.6454 91.0838 36.3272 90.9413C36.0124 90.7988 35.7505 90.5817 35.5417 90.29C35.3362 89.9984 35.2335 89.6305 35.2335 89.1863V81.5898ZM44.9132 80.8738V91.0557H43.7399V80.8738H44.9132ZM49.3093 91.2346C48.8254 91.2346 48.3862 91.1435 47.9918 90.9612C47.5974 90.7756 47.2842 90.5088 47.0522 90.1608C46.8202 89.8095 46.7042 89.3852 46.7042 88.8881C46.7042 88.4506 46.7904 88.0959 46.9627 87.8241C47.1351 87.549 47.3654 87.3336 47.6538 87.1778C47.9421 87.022 48.2603 86.906 48.6083 86.8298C48.9596 86.7503 49.3126 86.6873 49.6673 86.6409C50.1313 86.5812 50.5075 86.5365 50.7958 86.5067C51.0875 86.4735 51.2996 86.4188 51.4322 86.3426C51.5681 86.2664 51.636 86.1338 51.636 85.9449V85.9051C51.636 85.4146 51.5018 85.0334 51.2333 84.7616C50.9682 84.4898 50.5655 84.354 50.0252 84.354C49.4651 84.354 49.0259 84.4766 48.7077 84.7219C48.3896 84.9671 48.1658 85.229 48.0366 85.5074L46.9229 85.1096C47.1218 84.6456 47.387 84.2844 47.7184 84.0258C48.0531 83.764 48.4177 83.5817 48.8121 83.479C49.2099 83.3729 49.601 83.3199 49.9854 83.3199C50.2307 83.3199 50.5124 83.3497 50.8306 83.4094C51.1521 83.4657 51.462 83.5834 51.7603 83.7623C52.0619 83.9413 52.3121 84.2114 52.511 84.5727C52.7099 84.934 52.8093 85.4179 52.8093 86.0244V91.0557H51.636V90.0216H51.5763C51.4968 90.1873 51.3642 90.3646 51.1786 90.5535C50.993 90.7425 50.7461 90.9032 50.4379 91.0358C50.1296 91.1684 49.7534 91.2346 49.3093 91.2346ZM49.4883 90.1807C49.9523 90.1807 50.3434 90.0895 50.6616 89.9072C50.9831 89.7249 51.225 89.4896 51.3874 89.2013C51.5531 88.9129 51.636 88.6096 51.636 88.2915V87.2176C51.5863 87.2773 51.4769 87.3319 51.3079 87.3817C51.1422 87.4281 50.9499 87.4695 50.7312 87.5059C50.5157 87.5391 50.3053 87.5689 50.0998 87.5954C49.8976 87.6186 49.7335 87.6385 49.6076 87.6551C49.3027 87.6949 49.0176 87.7595 48.7525 87.849C48.4906 87.9352 48.2785 88.0661 48.1161 88.2417C47.957 88.4141 47.8775 88.6494 47.8775 88.9477C47.8775 89.3554 48.0283 89.6636 48.3299 89.8724C48.6348 90.0779 49.021 90.1807 49.4883 90.1807ZM51.0991 82.5045L50.065 81.1125L49.0309 82.5045H47.9173V82.425L49.5281 80.3568H50.6019L52.2127 82.425V82.5045H51.0991ZM50.0053 93.5812C49.7766 93.5812 49.5794 93.5033 49.4137 93.3476C49.2513 93.1918 49.1701 93.0045 49.1701 92.7858C49.1701 92.567 49.2513 92.3798 49.4137 92.224C49.5794 92.0682 49.7766 91.9903 50.0053 91.9903C50.234 91.9903 50.4296 92.0682 50.592 92.224C50.7577 92.3798 50.8406 92.567 50.8406 92.7858C50.8406 93.0045 50.7577 93.1918 50.592 93.3476C50.4296 93.5033 50.234 93.5812 50.0053 93.5812ZM54.9508 93.9193V83.4193H56.0843V84.6324H56.2235C56.3097 84.4998 56.429 84.3308 56.5815 84.1253C56.7373 83.9165 56.9593 83.7309 57.2477 83.5684C57.5394 83.4027 57.9338 83.3199 58.4309 83.3199C59.0739 83.3199 59.6407 83.4806 60.1312 83.8021C60.6217 84.1236 61.0046 84.5793 61.2797 85.1693C61.5547 85.7593 61.6923 86.4553 61.6923 87.2574C61.6923 88.0661 61.5547 88.7671 61.2797 89.3604C61.0046 89.9503 60.6234 90.4077 60.1362 90.7325C59.649 91.054 59.0872 91.2148 58.4508 91.2148C57.9603 91.2148 57.5675 91.1336 57.2725 90.9711C56.9776 90.8054 56.7505 90.6182 56.5914 90.4094C56.4324 90.1972 56.3097 90.0216 56.2235 89.8824H56.1241V93.9193H54.9508ZM56.1042 87.2375C56.1042 87.8142 56.1887 88.3229 56.3578 88.7638C56.5268 89.2013 56.7737 89.5443 57.0985 89.7929C57.4234 90.0381 57.8211 90.1608 58.2917 90.1608C58.7823 90.1608 59.1916 90.0315 59.5197 89.773C59.8511 89.5112 60.0997 89.1598 60.2654 88.719C60.4345 88.2749 60.519 87.781 60.519 87.2375C60.519 86.7006 60.4361 86.2166 60.2704 85.7858C60.108 85.3516 59.8611 85.0086 59.5297 84.7567C59.2015 84.5014 58.7889 84.3738 58.2917 84.3738C57.8145 84.3738 57.4134 84.4948 57.0886 84.7368C56.7638 84.9754 56.5185 85.3102 56.3528 85.741C56.1871 86.1686 56.1042 86.6674 56.1042 87.2375ZM70.5218 91.2148C69.8059 91.2148 69.1895 91.0457 68.6724 90.7077C68.1554 90.3696 67.7576 89.9039 67.4792 89.3106C67.2008 88.7174 67.0616 88.0396 67.0616 87.2773C67.0616 86.5017 67.2041 85.8173 67.4892 85.224C67.7775 84.6274 68.1786 84.1617 68.6923 83.827C69.2093 83.4889 69.8126 83.3199 70.502 83.3199C71.0389 83.3199 71.5228 83.4193 71.9537 83.6182C72.3845 83.817 72.7375 84.0954 73.0126 84.4534C73.2877 84.8113 73.4584 85.229 73.5247 85.7062H72.3514C72.2619 85.3582 72.063 85.05 71.7548 84.7815C71.4499 84.5097 71.0389 84.3738 70.5218 84.3738C70.0645 84.3738 69.6634 84.4932 69.3187 84.7318C68.9773 84.9671 68.7105 85.3002 68.5183 85.7311C68.3294 86.1586 68.2349 86.6608 68.2349 87.2375C68.2349 87.8274 68.3277 88.3412 68.5133 88.7787C68.7022 89.2162 68.9674 89.5559 69.3088 89.7979C69.6535 90.0398 70.0578 90.1608 70.5218 90.1608C70.8268 90.1608 71.1035 90.1077 71.3521 90.0017C71.6007 89.8956 71.8111 89.7432 71.9835 89.5443C72.1558 89.3454 72.2785 89.1068 72.3514 88.8284H73.5247C73.4584 89.2791 73.2943 89.6852 73.0325 90.0464C72.774 90.4044 72.4309 90.6894 72.0034 90.9015C71.5791 91.1104 71.0853 91.2148 70.5218 91.2148ZM77.487 91.2346C77.0031 91.2346 76.564 91.1435 76.1696 90.9612C75.7752 90.7756 75.4619 90.5088 75.2299 90.1608C74.9979 89.8095 74.8819 89.3852 74.8819 88.8881C74.8819 88.4506 74.9681 88.0959 75.1404 87.8241C75.3128 87.549 75.5431 87.3336 75.8315 87.1778C76.1199 87.022 76.438 86.906 76.786 86.8298C77.1374 86.7503 77.4904 86.6873 77.845 86.6409C78.309 86.5812 78.6852 86.5365 78.9735 86.5067C79.2652 86.4735 79.4773 86.4188 79.6099 86.3426C79.7458 86.2664 79.8137 86.1338 79.8137 85.9449V85.9051C79.8137 85.4146 79.6795 85.0334 79.411 84.7616C79.1459 84.4898 78.7432 84.354 78.2029 84.354C77.6428 84.354 77.2037 84.4766 76.8855 84.7219C76.5673 84.9671 76.3436 85.229 76.2143 85.5074L75.1007 85.1096C75.2995 84.6456 75.5647 84.2844 75.8961 84.0258C76.2309 83.764 76.5955 83.5817 76.9899 83.479C77.3876 83.3729 77.7787 83.3199 78.1632 83.3199C78.4084 83.3199 78.6902 83.3497 79.0083 83.4094C79.3298 83.4657 79.6397 83.5834 79.938 83.7623C80.2396 83.9413 80.4899 84.2114 80.6887 84.5727C80.8876 84.934 80.987 85.4179 80.987 86.0244V91.0557H79.8137V90.0216H79.7541C79.6745 90.1873 79.542 90.3646 79.3564 90.5535C79.1708 90.7425 78.9238 90.9032 78.6156 91.0358C78.3074 91.1684 77.9312 91.2346 77.487 91.2346ZM77.666 90.1807C78.13 90.1807 78.5211 90.0895 78.8393 89.9072C79.1608 89.7249 79.4028 89.4896 79.5652 89.2013C79.7309 88.9129 79.8137 88.6096 79.8137 88.2915V87.2176C79.764 87.2773 79.6547 87.3319 79.4856 87.3817C79.3199 87.4281 79.1277 87.4695 78.9089 87.5059C78.6935 87.5391 78.483 87.5689 78.2775 87.5954C78.0753 87.6186 77.9113 87.6385 77.7853 87.6551C77.4804 87.6949 77.1954 87.7595 76.9302 87.849C76.6684 87.9352 76.4563 88.0661 76.2939 88.2417C76.1348 88.4141 76.0552 88.6494 76.0552 88.9477C76.0552 89.3554 76.206 89.6636 76.5076 89.8724C76.8126 90.0779 77.1987 90.1807 77.666 90.1807ZM77.7058 82.3852L78.9189 80.0784H80.291L78.7399 82.3852H77.7058ZM86.2308 91.2148C85.5149 91.2148 84.8984 91.0457 84.3814 90.7077C83.8643 90.3696 83.4666 89.9039 83.1882 89.3106C82.9098 88.7174 82.7706 88.0396 82.7706 87.2773C82.7706 86.5017 82.9131 85.8173 83.1982 85.224C83.4865 84.6274 83.8875 84.1617 84.4013 83.827C84.9183 83.4889 85.5215 83.3199 86.2109 83.3199C86.7479 83.3199 87.2318 83.4193 87.6626 83.6182C88.0935 83.817 88.4465 84.0954 88.7216 84.4534C88.9967 84.8113 89.1674 85.229 89.2337 85.7062H88.0604C87.9709 85.3582 87.772 85.05 87.4638 84.7815C87.1589 84.5097 86.7479 84.3738 86.2308 84.3738C85.7734 84.3738 85.3724 84.4932 85.0277 84.7318C84.6863 84.9671 84.4195 85.3002 84.2273 85.7311C84.0384 86.1586 83.9439 86.6608 83.9439 87.2375C83.9439 87.8274 84.0367 88.3412 84.2223 88.7787C84.4112 89.2162 84.6764 89.5559 85.0178 89.7979C85.3625 90.0398 85.7668 90.1608 86.2308 90.1608C86.5357 90.1608 86.8125 90.1077 87.0611 90.0017C87.3097 89.8956 87.5201 89.7432 87.6925 89.5443C87.8648 89.3454 87.9875 89.1068 88.0604 88.8284H89.2337C89.1674 89.2791 89.0033 89.6852 88.7415 90.0464C88.483 90.4044 88.1399 90.6894 87.7124 90.9015C87.2881 91.1104 86.7943 91.2148 86.2308 91.2148ZM98.2074 83.4193V84.4136H94.25V83.4193H98.2074ZM95.4034 81.5898H96.5767V88.8682C96.5767 89.1996 96.6248 89.4482 96.7209 89.6139C96.8203 89.7763 96.9463 89.8857 97.0987 89.942C97.2545 89.9951 97.4186 90.0216 97.5909 90.0216C97.7202 90.0216 97.8262 90.0149 97.9091 90.0017C97.992 89.9851 98.0582 89.9719 98.108 89.9619L98.3466 91.0159C98.267 91.0457 98.156 91.0756 98.0135 91.1054C97.871 91.1385 97.6903 91.1551 97.4716 91.1551C97.1402 91.1551 96.8153 91.0838 96.4972 90.9413C96.1823 90.7988 95.9205 90.5817 95.7116 90.29C95.5062 89.9984 95.4034 89.6305 95.4034 89.1863V81.5898ZM101.31 86.4619V91.0557H100.136V80.8738H101.31V84.6125H101.409C101.588 84.2181 101.857 83.9049 102.214 83.6729C102.576 83.4375 103.056 83.3199 103.656 83.3199C104.177 83.3199 104.632 83.4243 105.023 83.6331C105.415 83.8386 105.718 84.1551 105.933 84.5827C106.152 85.0069 106.261 85.5471 106.261 86.2034V91.0557H105.088V86.2829C105.088 85.6764 104.931 85.2074 104.616 84.876C104.304 84.5412 103.872 84.3738 103.318 84.3738C102.934 84.3738 102.589 84.455 102.284 84.6175C101.982 84.7799 101.744 85.0168 101.568 85.3284C101.396 85.6399 101.31 86.0178 101.31 86.4619ZM111.51 91.2148C110.821 91.2148 110.216 91.0507 109.695 90.7226C109.178 90.3944 108.774 89.9354 108.482 89.3454C108.194 88.7555 108.05 88.0661 108.05 87.2773C108.05 86.4818 108.194 85.7874 108.482 85.1942C108.774 84.6009 109.178 84.1402 109.695 83.8121C110.216 83.4839 110.821 83.3199 111.51 83.3199C112.2 83.3199 112.803 83.4839 113.32 83.8121C113.84 84.1402 114.244 84.6009 114.533 85.1942C114.825 85.7874 114.97 86.4818 114.97 87.2773C114.97 88.0661 114.825 88.7555 114.533 89.3454C114.244 89.9354 113.84 90.3944 113.32 90.7226C112.803 91.0507 112.2 91.2148 111.51 91.2148ZM111.51 90.1608C112.034 90.1608 112.465 90.0265 112.803 89.7581C113.141 89.4896 113.391 89.1366 113.553 88.6991C113.716 88.2616 113.797 87.7877 113.797 87.2773C113.797 86.7668 113.716 86.2912 113.553 85.8504C113.391 85.4096 113.141 85.0533 112.803 84.7815C112.465 84.5097 112.034 84.3738 111.51 84.3738C110.986 84.3738 110.556 84.5097 110.218 84.7815C109.879 85.0533 109.629 85.4096 109.467 85.8504C109.304 86.2912 109.223 86.7668 109.223 87.2773C109.223 87.7877 109.304 88.2616 109.467 88.6991C109.629 89.1366 109.879 89.4896 110.218 89.7581C110.556 90.0265 110.986 90.1608 111.51 90.1608ZM112.544 82.5045L111.51 81.1125L110.476 82.5045H109.362V82.425L110.973 80.3568H112.047L113.658 82.425V82.5045H112.544ZM117.935 86.4619V91.0557H116.761V83.4193H117.895V84.6125H117.994C118.173 84.2247 118.445 83.9131 118.81 83.6778C119.174 83.4392 119.645 83.3199 120.222 83.3199C120.739 83.3199 121.191 83.4259 121.579 83.6381C121.967 83.8469 122.268 84.165 122.484 84.5926C122.699 85.0168 122.807 85.5538 122.807 86.2034V91.0557H121.634V86.2829C121.634 85.683 121.478 85.2157 121.166 84.8809C120.855 84.5429 120.427 84.3738 119.884 84.3738C119.509 84.3738 119.174 84.455 118.879 84.6175C118.588 84.7799 118.357 85.0168 118.188 85.3284C118.019 85.6399 117.935 86.0178 117.935 86.4619ZM128.033 94.0784C127.466 94.0784 126.979 94.0055 126.572 93.8596C126.164 93.7171 125.824 93.5282 125.552 93.2929C125.284 93.0609 125.07 92.8123 124.911 92.5471L125.846 91.8909C125.952 92.0301 126.086 92.1892 126.248 92.3682C126.411 92.5505 126.633 92.7079 126.915 92.8405C127.2 92.9764 127.573 93.0443 128.033 93.0443C128.65 93.0443 129.158 92.8952 129.559 92.5969C129.961 92.2986 130.161 91.8312 130.161 91.1949V89.6437H130.062C129.975 89.7829 129.853 89.9553 129.694 90.1608C129.538 90.363 129.313 90.5436 129.018 90.7027C128.726 90.8585 128.331 90.9363 127.834 90.9363C127.218 90.9363 126.664 90.7905 126.174 90.4988C125.687 90.2072 125.3 89.7829 125.015 89.2261C124.734 88.6693 124.593 87.9932 124.593 87.1977C124.593 86.4155 124.73 85.7344 125.006 85.1544C125.281 84.5711 125.663 84.1203 126.154 83.8021C126.644 83.4806 127.211 83.3199 127.854 83.3199C128.351 83.3199 128.746 83.4027 129.037 83.5684C129.332 83.7309 129.558 83.9165 129.714 84.1253C129.873 84.3308 129.995 84.4998 130.081 84.6324H130.201V83.4193H131.334V91.2744C131.334 91.9307 131.185 92.4643 130.887 92.8753C130.592 93.2896 130.194 93.5928 129.694 93.7851C129.197 93.9806 128.643 94.0784 128.033 94.0784ZM127.993 89.8824C128.464 89.8824 128.862 89.7747 129.187 89.5592C129.511 89.3438 129.758 89.0339 129.927 88.6295C130.096 88.2252 130.181 87.7413 130.181 87.1778C130.181 86.6276 130.098 86.1421 129.932 85.7211C129.767 85.3002 129.521 84.9704 129.197 84.7318C128.872 84.4932 128.471 84.3738 127.993 84.3738C127.496 84.3738 127.082 84.4998 126.751 84.7517C126.422 85.0036 126.175 85.3416 126.01 85.7659C125.847 86.1901 125.766 86.6608 125.766 87.1778C125.766 87.7081 125.849 88.1771 126.015 88.5848C126.184 88.9891 126.432 89.3073 126.76 89.5393C127.092 89.768 127.503 89.8824 127.993 89.8824ZM142.829 85.1295L141.775 85.4278C141.708 85.2522 141.611 85.0815 141.481 84.9157C141.355 84.7467 141.183 84.6075 140.964 84.4981C140.746 84.3888 140.465 84.3341 140.124 84.3341C139.657 84.3341 139.267 84.4418 138.956 84.6572C138.648 84.8693 138.493 85.1395 138.493 85.4676C138.493 85.7593 138.599 85.9896 138.812 86.1586C139.024 86.3277 139.355 86.4685 139.806 86.5812L140.939 86.8596C141.622 87.0254 142.131 87.2789 142.466 87.6203C142.8 87.9584 142.968 88.3942 142.968 88.9278C142.968 89.3653 142.842 89.7564 142.59 90.1011C142.341 90.4458 141.993 90.7176 141.546 90.9165C141.099 91.1153 140.578 91.2148 139.985 91.2148C139.206 91.2148 138.561 91.0457 138.051 90.7077C137.541 90.3696 137.217 89.8757 137.081 89.2261L138.195 88.9477C138.301 89.3587 138.502 89.6669 138.797 89.8724C139.095 90.0779 139.484 90.1807 139.965 90.1807C140.512 90.1807 140.946 90.0647 141.268 89.8327C141.592 89.5973 141.755 89.3156 141.755 88.9875C141.755 88.7223 141.662 88.5003 141.476 88.3213C141.291 88.139 141.006 88.0031 140.621 87.9136L139.349 87.6153C138.649 87.4496 138.135 87.1927 137.807 86.8447C137.483 86.4934 137.32 86.0542 137.32 85.5273C137.32 85.0964 137.441 84.7152 137.683 84.3838C137.928 84.0523 138.261 83.7922 138.682 83.6032C139.107 83.4143 139.587 83.3199 140.124 83.3199C140.88 83.3199 141.473 83.4856 141.904 83.817C142.338 84.1485 142.646 84.586 142.829 85.1295ZM147.836 91.2148C147.147 91.2148 146.542 91.0507 146.022 90.7226C145.505 90.3944 145.1 89.9354 144.809 89.3454C144.52 88.7555 144.376 88.0661 144.376 87.2773C144.376 86.4818 144.52 85.7874 144.809 85.1942C145.1 84.6009 145.505 84.1402 146.022 83.8121C146.542 83.4839 147.147 83.3199 147.836 83.3199C148.526 83.3199 149.129 83.4839 149.646 83.8121C150.166 84.1402 150.571 84.6009 150.859 85.1942C151.151 85.7874 151.297 86.4818 151.297 87.2773C151.297 88.0661 151.151 88.7555 150.859 89.3454C150.571 89.9354 150.166 90.3944 149.646 90.7226C149.129 91.0507 148.526 91.2148 147.836 91.2148ZM147.836 90.1608C148.36 90.1608 148.791 90.0265 149.129 89.7581C149.467 89.4896 149.717 89.1366 149.88 88.6991C150.042 88.2616 150.123 87.7877 150.123 87.2773C150.123 86.7668 150.042 86.2912 149.88 85.8504C149.717 85.4096 149.467 85.0533 149.129 84.7815C148.791 84.5097 148.36 84.3738 147.836 84.3738C147.313 84.3738 146.882 84.5097 146.544 84.7815C146.206 85.0533 145.955 85.4096 145.793 85.8504C145.631 86.2912 145.549 86.7668 145.549 87.2773C145.549 87.7877 145.631 88.2616 145.793 88.6991C145.955 89.1366 146.206 89.4896 146.544 89.7581C146.882 90.0265 147.313 90.1608 147.836 90.1608ZM145.271 82.4648L147.299 80.6551H148.393L150.422 82.4648H148.99L147.856 81.4108L146.723 82.4648H145.271ZM149.885 81.2517L150.859 79.4619H152.311L150.919 81.2517H149.885ZM162.235 93.9193V89.8824H162.136C162.05 90.0216 161.927 90.1972 161.768 90.4094C161.609 90.6182 161.382 90.8054 161.087 90.9711C160.792 91.1336 160.399 91.2148 159.909 91.2148C159.272 91.2148 158.71 91.054 158.223 90.7325C157.736 90.4077 157.355 89.9503 157.08 89.3604C156.805 88.7671 156.667 88.0661 156.667 87.2574C156.667 86.4553 156.805 85.7593 157.08 85.1693C157.355 84.5793 157.738 84.1236 158.228 83.8021C158.719 83.4806 159.285 83.3199 159.928 83.3199C160.426 83.3199 160.818 83.4027 161.107 83.5684C161.398 83.7309 161.62 83.9165 161.773 84.1253C161.929 84.3308 162.05 84.4998 162.136 84.6324H162.275V83.4193H163.409V93.9193H162.235ZM160.068 90.1608C160.538 90.1608 160.936 90.0381 161.261 89.7929C161.586 89.5443 161.833 89.2013 162.002 88.7638C162.171 88.3229 162.255 87.8142 162.255 87.2375C162.255 86.6674 162.172 86.1686 162.007 85.741C161.841 85.3102 161.596 84.9754 161.271 84.7368C160.946 84.4948 160.545 84.3738 160.068 84.3738C159.57 84.3738 159.156 84.5014 158.825 84.7567C158.497 85.0086 158.25 85.3516 158.084 85.7858C157.922 86.2166 157.84 86.7006 157.84 87.2375C157.84 87.781 157.923 88.2749 158.089 88.719C158.258 89.1598 158.507 89.5112 158.835 89.773C159.166 90.0315 159.577 90.1608 160.068 90.1608ZM170.369 87.9335V83.4193H171.542V91.0557H170.369V89.7631H170.289C170.11 90.1508 169.832 90.4806 169.454 90.7524C169.076 91.0209 168.599 91.1551 168.022 91.1551C167.545 91.1551 167.121 91.0507 166.749 90.8419C166.378 90.6298 166.087 90.3116 165.874 89.8873C165.662 89.4598 165.556 88.9212 165.556 88.2716V83.4193H166.73V88.192C166.73 88.7488 166.885 89.193 167.197 89.5244C167.512 89.8559 167.913 90.0216 168.4 90.0216C168.692 90.0216 168.988 89.947 169.29 89.7979C169.595 89.6487 169.85 89.42 170.056 89.1118C170.264 88.8035 170.369 88.4108 170.369 87.9335ZM175.938 91.2346C175.454 91.2346 175.015 91.1435 174.621 90.9612C174.226 90.7756 173.913 90.5088 173.681 90.1608C173.449 89.8095 173.333 89.3852 173.333 88.8881C173.333 88.4506 173.419 88.0959 173.592 87.8241C173.764 87.549 173.994 87.3336 174.283 87.1778C174.571 87.022 174.889 86.906 175.237 86.8298C175.589 86.7503 175.942 86.6873 176.296 86.6409C176.76 86.5812 177.136 86.5365 177.425 86.5067C177.716 86.4735 177.929 86.4188 178.061 86.3426C178.197 86.2664 178.265 86.1338 178.265 85.9449V85.9051C178.265 85.4146 178.131 85.0334 177.862 84.7616C177.597 84.4898 177.194 84.354 176.654 84.354C176.094 84.354 175.655 84.4766 175.337 84.7219C175.018 84.9671 174.795 85.229 174.665 85.5074L173.552 85.1096C173.751 84.6456 174.016 84.2844 174.347 84.0258C174.682 83.764 175.047 83.5817 175.441 83.479C175.839 83.3729 176.23 83.3199 176.614 83.3199C176.86 83.3199 177.141 83.3497 177.46 83.4094C177.781 83.4657 178.091 83.5834 178.389 83.7623C178.691 83.9413 178.941 84.2114 179.14 84.5727C179.339 84.934 179.438 85.4179 179.438 86.0244V91.0557H178.265V90.0216H178.205C178.126 90.1873 177.993 90.3646 177.808 90.5535C177.622 90.7425 177.375 90.9032 177.067 91.0358C176.759 91.1684 176.382 91.2346 175.938 91.2346ZM176.117 90.1807C176.581 90.1807 176.972 90.0895 177.29 89.9072C177.612 89.7249 177.854 89.4896 178.016 89.2013C178.182 88.9129 178.265 88.6096 178.265 88.2915V87.2176C178.215 87.2773 178.106 87.3319 177.937 87.3817C177.771 87.4281 177.579 87.4695 177.36 87.5059C177.145 87.5391 176.934 87.5689 176.729 87.5954C176.527 87.6186 176.362 87.6385 176.237 87.6551C175.932 87.6949 175.647 87.7595 175.381 87.849C175.12 87.9352 174.907 88.0661 174.745 88.2417C174.586 88.4141 174.506 88.6494 174.506 88.9477C174.506 89.3554 174.657 89.6636 174.959 89.8724C175.264 90.0779 175.65 90.1807 176.117 90.1807ZM177.211 82.3852H176.237V81.3113C176.585 81.2915 176.83 81.2434 176.972 81.1672C177.118 81.0909 177.191 80.9733 177.191 80.8142C177.191 80.6352 177.087 80.5043 176.878 80.4214C176.669 80.3386 176.415 80.2971 176.117 80.2971L176.157 79.5415C176.843 79.5415 177.362 79.6608 177.713 79.8994C178.068 80.1381 178.245 80.4562 178.245 80.854C178.245 81.192 178.137 81.4389 177.922 81.5947C177.706 81.7505 177.469 81.8483 177.211 81.8881V82.3852ZM182.753 86.4619V91.0557H181.58V83.4193H182.713V84.6125H182.813C182.992 84.2247 183.263 83.9131 183.628 83.6778C183.993 83.4392 184.463 83.3199 185.04 83.3199C185.557 83.3199 186.009 83.4259 186.397 83.6381C186.785 83.8469 187.087 84.165 187.302 84.5926C187.517 85.0168 187.625 85.5538 187.625 86.2034V91.0557H186.452V86.2829C186.452 85.683 186.296 85.2157 185.985 84.8809C185.673 84.5429 185.245 84.3738 184.702 84.3738C184.327 84.3738 183.993 84.455 183.698 84.6175C183.406 84.7799 183.176 85.0168 183.007 85.3284C182.838 85.6399 182.753 86.0178 182.753 86.4619ZM192.852 94.0784C192.285 94.0784 191.798 94.0055 191.39 93.8596C190.982 93.7171 190.643 93.5282 190.371 93.2929C190.102 93.0609 189.888 92.8123 189.729 92.5471L190.664 91.8909C190.77 92.0301 190.904 92.1892 191.067 92.3682C191.229 92.5505 191.451 92.7079 191.733 92.8405C192.018 92.9764 192.391 93.0443 192.852 93.0443C193.468 93.0443 193.977 92.8952 194.378 92.5969C194.779 92.2986 194.979 91.8312 194.979 91.1949V89.6437H194.88C194.794 89.7829 194.671 89.9553 194.512 90.1608C194.356 90.363 194.131 90.5436 193.836 90.7027C193.544 90.8585 193.15 90.9363 192.653 90.9363C192.036 90.9363 191.483 90.7905 190.992 90.4988C190.505 90.2072 190.119 89.7829 189.834 89.2261C189.552 88.6693 189.411 87.9932 189.411 87.1977C189.411 86.4155 189.549 85.7344 189.824 85.1544C190.099 84.5711 190.482 84.1203 190.972 83.8021C191.463 83.4806 192.03 83.3199 192.673 83.3199C193.17 83.3199 193.564 83.4027 193.856 83.5684C194.151 83.7309 194.376 83.9165 194.532 84.1253C194.691 84.3308 194.814 84.4998 194.9 84.6324H195.019V83.4193H196.153V91.2744C196.153 91.9307 196.004 92.4643 195.705 92.8753C195.41 93.2896 195.013 93.5928 194.512 93.7851C194.015 93.9806 193.461 94.0784 192.852 94.0784ZM192.812 89.8824C193.282 89.8824 193.68 89.7747 194.005 89.5592C194.33 89.3438 194.577 89.0339 194.746 88.6295C194.915 88.2252 194.999 87.7413 194.999 87.1778C194.999 86.6276 194.916 86.1421 194.751 85.7211C194.585 85.3002 194.34 84.9704 194.015 84.7318C193.69 84.4932 193.289 84.3738 192.812 84.3738C192.315 84.3738 191.9 84.4998 191.569 84.7517C191.241 85.0036 190.994 85.3416 190.828 85.7659C190.666 86.1901 190.585 86.6608 190.585 87.1778C190.585 87.7081 190.667 88.1771 190.833 88.5848C191.002 88.9891 191.251 89.3073 191.579 89.5393C191.91 89.768 192.321 89.8824 192.812 89.8824ZM205.34 91.2148C204.624 91.2148 204.008 91.0457 203.491 90.7077C202.974 90.3696 202.576 89.9039 202.298 89.3106C202.019 88.7174 201.88 88.0396 201.88 87.2773C201.88 86.5017 202.022 85.8173 202.308 85.224C202.596 84.6274 202.997 84.1617 203.511 83.827C204.028 83.4889 204.631 83.3199 205.32 83.3199C205.857 83.3199 206.341 83.4193 206.772 83.6182C207.203 83.817 207.556 84.0954 207.831 84.4534C208.106 84.8113 208.277 85.229 208.343 85.7062H207.17C207.08 85.3582 206.881 85.05 206.573 84.7815C206.268 84.5097 205.857 84.3738 205.34 84.3738C204.883 84.3738 204.482 84.4932 204.137 84.7318C203.796 84.9671 203.529 85.3002 203.337 85.7311C203.148 86.1586 203.053 86.6608 203.053 87.2375C203.053 87.8274 203.146 88.3412 203.332 88.7787C203.521 89.2162 203.786 89.5559 204.127 89.7979C204.472 90.0398 204.876 90.1608 205.34 90.1608C205.645 90.1608 205.922 90.1077 206.17 90.0017C206.419 89.8956 206.629 89.7432 206.802 89.5443C206.974 89.3454 207.097 89.1068 207.17 88.8284H208.343C208.277 89.2791 208.113 89.6852 207.851 90.0464C207.592 90.4044 207.249 90.6894 206.822 90.9015C206.397 91.1104 205.904 91.2148 205.34 91.2148ZM212.305 91.2346C211.821 91.2346 211.382 91.1435 210.988 90.9612C210.594 90.7756 210.28 90.5088 210.048 90.1608C209.816 89.8095 209.7 89.3852 209.7 88.8881C209.7 88.4506 209.786 88.0959 209.959 87.8241C210.131 87.549 210.362 87.3336 210.65 87.1778C210.938 87.022 211.256 86.906 211.604 86.8298C211.956 86.7503 212.309 86.6873 212.663 86.6409C213.127 86.5812 213.504 86.5365 213.792 86.5067C214.084 86.4735 214.296 86.4188 214.428 86.3426C214.564 86.2664 214.632 86.1338 214.632 85.9449V85.9051C214.632 85.4146 214.498 85.0334 214.229 84.7616C213.964 84.4898 213.562 84.354 213.021 84.354C212.461 84.354 212.022 84.4766 211.704 84.7219C211.386 84.9671 211.162 85.229 211.033 85.5074L209.919 85.1096C210.118 84.6456 210.383 84.2844 210.714 84.0258C211.049 83.764 211.414 83.5817 211.808 83.479C212.206 83.3729 212.597 83.3199 212.982 83.3199C213.227 83.3199 213.509 83.3497 213.827 83.4094C214.148 83.4657 214.458 83.5834 214.756 83.7623C215.058 83.9413 215.308 84.2114 215.507 84.5727C215.706 84.934 215.805 85.4179 215.805 86.0244V91.0557H214.632V90.0216H214.572C214.493 90.1873 214.36 90.3646 214.175 90.5535C213.989 90.7425 213.742 90.9032 213.434 91.0358C213.126 91.1684 212.75 91.2346 212.305 91.2346ZM212.484 90.1807C212.948 90.1807 213.339 90.0895 213.658 89.9072C213.979 89.7249 214.221 89.4896 214.384 89.2013C214.549 88.9129 214.632 88.6096 214.632 88.2915V87.2176C214.582 87.2773 214.473 87.3319 214.304 87.3817C214.138 87.4281 213.946 87.4695 213.727 87.5059C213.512 87.5391 213.301 87.5689 213.096 87.5954C212.894 87.6186 212.73 87.6385 212.604 87.6551C212.299 87.6949 212.014 87.7595 211.749 87.849C211.487 87.9352 211.275 88.0661 211.112 88.2417C210.953 88.4141 210.874 88.6494 210.874 88.9477C210.874 89.3554 211.024 89.6636 211.326 89.8724C211.631 90.0779 212.017 90.1807 212.484 90.1807ZM212.524 82.3852L213.737 80.0784H215.109L213.558 82.3852H212.524ZM221.049 91.2148C220.36 91.2148 219.755 91.0507 219.235 90.7226C218.718 90.3944 218.313 89.9354 218.021 89.3454C217.733 88.7555 217.589 88.0661 217.589 87.2773C217.589 86.4818 217.733 85.7874 218.021 85.1942C218.313 84.6009 218.718 84.1402 219.235 83.8121C219.755 83.4839 220.36 83.3199 221.049 83.3199C221.739 83.3199 222.342 83.4839 222.859 83.8121C223.379 84.1402 223.784 84.6009 224.072 85.1942C224.364 85.7874 224.509 86.4818 224.509 87.2773C224.509 88.0661 224.364 88.7555 224.072 89.3454C223.784 89.9354 223.379 90.3944 222.859 90.7226C222.342 91.0507 221.739 91.2148 221.049 91.2148ZM221.049 90.1608C221.573 90.1608 222.004 90.0265 222.342 89.7581C222.68 89.4896 222.93 89.1366 223.093 88.6991C223.255 88.2616 223.336 87.7877 223.336 87.2773C223.336 86.7668 223.255 86.2912 223.093 85.8504C222.93 85.4096 222.68 85.0533 222.342 84.7815C222.004 84.5097 221.573 84.3738 221.049 84.3738C220.526 84.3738 220.095 84.5097 219.757 84.7815C219.419 85.0533 219.168 85.4096 219.006 85.8504C218.843 86.2912 218.762 86.7668 218.762 87.2773C218.762 87.7877 218.843 88.2616 219.006 88.6991C219.168 89.1366 219.419 89.4896 219.757 89.7581C220.095 90.0265 220.526 90.1608 221.049 90.1608ZM227.156 91.1352C226.91 91.1352 226.7 91.0474 226.524 90.8717C226.348 90.6961 226.261 90.4856 226.261 90.2403C226.261 89.9951 226.348 89.7846 226.524 89.6089C226.7 89.4333 226.91 89.3454 227.156 89.3454C227.401 89.3454 227.611 89.4333 227.787 89.6089C227.963 89.7846 228.05 89.9951 228.05 90.2403C228.05 90.4027 228.009 90.5519 227.926 90.6878C227.847 90.8237 227.739 90.933 227.603 91.0159C227.47 91.0954 227.321 91.1352 227.156 91.1352ZM227.156 85.4676C226.91 85.4676 226.7 85.3798 226.524 85.2041C226.348 85.0284 226.261 84.818 226.261 84.5727C226.261 84.3274 226.348 84.117 226.524 83.9413C226.7 83.7657 226.91 83.6778 227.156 83.6778C227.401 83.6778 227.611 83.7657 227.787 83.9413C227.963 84.117 228.05 84.3274 228.05 84.5727C228.05 84.7351 228.009 84.8843 227.926 85.0202C227.847 85.156 227.739 85.2654 227.603 85.3483C227.47 85.4278 227.321 85.4676 227.156 85.4676ZM6.25036 111.215C5.53445 111.215 4.91797 111.046 4.40092 110.708C3.88388 110.37 3.48615 109.904 3.20774 109.311C2.92933 108.717 2.79013 108.04 2.79013 107.277C2.79013 106.502 2.93265 105.817 3.21768 105.224C3.50604 104.627 3.90708 104.162 4.42081 103.827C4.93786 103.489 5.54107 103.32 6.23047 103.32C6.7674 103.32 7.2513 103.419 7.68217 103.618C8.11304 103.817 8.46603 104.095 8.74112 104.453C9.01622 104.811 9.18691 105.229 9.2532 105.706H8.0799C7.99041 105.358 7.79155 105.05 7.48331 104.782C7.17839 104.51 6.7674 104.374 6.25036 104.374C5.79297 104.374 5.39193 104.493 5.04723 104.732C4.70585 104.967 4.43904 105.3 4.2468 105.731C4.05788 106.159 3.96342 106.661 3.96342 107.237C3.96342 107.827 4.05623 108.341 4.24183 108.779C4.43075 109.216 4.6959 109.556 5.03729 109.798C5.38198 110.04 5.78634 110.161 6.25036 110.161C6.55528 110.161 6.83203 110.108 7.08061 110.002C7.32919 109.896 7.53965 109.743 7.712 109.544C7.88435 109.345 8.00698 109.107 8.0799 108.828H9.2532C9.18691 109.279 9.02285 109.685 8.76101 110.046C8.50249 110.404 8.15945 110.689 7.73189 110.902C7.30765 111.11 6.8138 111.215 6.25036 111.215ZM12.1417 106.462V111.056H10.9684V100.874H12.1417V104.612H12.2411C12.4201 104.218 12.6886 103.905 13.0465 103.673C13.4078 103.438 13.8884 103.32 14.4883 103.32C15.0086 103.32 15.4644 103.424 15.8555 103.633C16.2466 103.839 16.5498 104.155 16.7653 104.583C16.984 105.007 17.0934 105.547 17.0934 106.203V111.056H15.9201V106.283C15.9201 105.676 15.7627 105.207 15.4478 104.876C15.1362 104.541 14.7037 104.374 14.1502 104.374C13.7657 104.374 13.421 104.455 13.1161 104.617C12.8145 104.78 12.5759 105.017 12.4002 105.328C12.2279 105.64 12.1417 106.018 12.1417 106.462ZM22.3422 111.215C21.6528 111.215 21.0479 111.051 20.5275 110.723C20.0105 110.394 19.6061 109.935 19.3145 109.345C19.0261 108.755 18.8819 108.066 18.8819 107.277C18.8819 106.482 19.0261 105.787 19.3145 105.194C19.6061 104.601 20.0105 104.14 20.5275 103.812C21.0479 103.484 21.6528 103.32 22.3422 103.32C23.0315 103.32 23.6348 103.484 24.1518 103.812C24.6722 104.14 25.0765 104.601 25.3649 105.194C25.6565 105.787 25.8024 106.482 25.8024 107.277C25.8024 108.066 25.6565 108.755 25.3649 109.345C25.0765 109.935 24.6722 110.394 24.1518 110.723C23.6348 111.051 23.0315 111.215 22.3422 111.215ZM22.3422 110.161C22.8658 110.161 23.2967 110.027 23.6348 109.758C23.9728 109.49 24.2231 109.137 24.3855 108.699C24.5479 108.262 24.6291 107.788 24.6291 107.277C24.6291 106.767 24.5479 106.291 24.3855 105.85C24.2231 105.41 23.9728 105.053 23.6348 104.782C23.2967 104.51 22.8658 104.374 22.3422 104.374C21.8185 104.374 21.3876 104.51 21.0495 104.782C20.7115 105.053 20.4612 105.41 20.2988 105.85C20.1364 106.291 20.0552 106.767 20.0552 107.277C20.0552 107.788 20.1364 108.262 20.2988 108.699C20.4612 109.137 20.7115 109.49 21.0495 109.758C21.3876 110.027 21.8185 110.161 22.3422 110.161ZM22.3422 113.581C22.1135 113.581 21.9163 113.503 21.7505 113.348C21.5881 113.192 21.5069 113.005 21.5069 112.786C21.5069 112.567 21.5881 112.38 21.7505 112.224C21.9163 112.068 22.1135 111.99 22.3422 111.99C22.5708 111.99 22.7664 112.068 22.9288 112.224C23.0945 112.38 23.1774 112.567 23.1774 112.786C23.1774 113.005 23.0945 113.192 22.9288 113.348C22.7664 113.503 22.5708 113.581 22.3422 113.581ZM28.7667 106.462V111.056H27.5934V103.419H28.7269V104.612H28.8263C29.0053 104.225 29.2771 103.913 29.6417 103.678C30.0063 103.439 30.4769 103.32 31.0536 103.32C31.5707 103.32 32.0231 103.426 32.4109 103.638C32.7987 103.847 33.1003 104.165 33.3157 104.593C33.5311 105.017 33.6388 105.554 33.6388 106.203V111.056H32.4656V106.283C32.4656 105.683 32.3098 105.216 31.9982 104.881C31.6867 104.543 31.2591 104.374 30.7156 104.374C30.341 104.374 30.0063 104.455 29.7113 104.617C29.4196 104.78 29.1893 105.017 29.0202 105.328C28.8512 105.64 28.7667 106.018 28.7667 106.462ZM40.8141 108.272L40.7942 106.82H41.0328L44.3738 103.419H45.8255L42.2658 107.019H42.1664L40.8141 108.272ZM39.7203 111.056V100.874H40.8936V111.056H39.7203ZM44.5726 111.056L41.5897 107.277L42.4249 106.462L46.0641 111.056H44.5726ZM48.5089 106.462V111.056H47.3356V100.874H48.5089V104.612H48.6083C48.7873 104.218 49.0558 103.905 49.4137 103.673C49.775 103.438 50.2556 103.32 50.8555 103.32C51.3758 103.32 51.8316 103.424 52.2227 103.633C52.6138 103.839 52.917 104.155 53.1325 104.583C53.3512 105.007 53.4606 105.547 53.4606 106.203V111.056H52.2873V106.283C52.2873 105.676 52.1299 105.207 51.815 104.876C51.5034 104.541 51.0709 104.374 50.5174 104.374C50.1329 104.374 49.7882 104.455 49.4833 104.617C49.1817 104.78 48.9431 105.017 48.7674 105.328C48.5951 105.64 48.5089 106.018 48.5089 106.462ZM60.4196 107.934V103.419H61.5929V111.056H60.4196V109.763H60.34C60.161 110.151 59.8826 110.481 59.5048 110.752C59.127 111.021 58.6497 111.155 58.073 111.155C57.5957 111.155 57.1715 111.051 56.8002 110.842C56.429 110.63 56.1374 110.312 55.9252 109.887C55.7131 109.46 55.6071 108.921 55.6071 108.272V103.419H56.7804V108.192C56.7804 108.749 56.9361 109.193 57.2477 109.524C57.5626 109.856 57.9636 110.022 58.4508 110.022C58.7425 110.022 59.0391 109.947 59.3407 109.798C59.6457 109.649 59.9009 109.42 60.1064 109.112C60.3152 108.804 60.4196 108.411 60.4196 107.934ZM73.9237 103.419L71.0998 111.056H69.9066L67.0827 103.419H68.3555L70.4634 109.505H70.543L72.6509 103.419H73.9237ZM82.353 103.081H83.3871C83.3871 103.585 83.3208 104.008 83.1882 104.349C83.0556 104.687 82.8236 104.942 82.4922 105.115C82.1607 105.284 81.6967 105.368 81.1001 105.368V104.553C81.5111 104.553 81.8028 104.503 81.9751 104.404C82.1508 104.301 82.2569 104.142 82.2933 103.926C82.3331 103.708 82.353 103.426 82.353 103.081ZM80.2848 107.934V103.419H81.4581V111.056H80.2848V109.763H80.2053C80.0263 110.151 79.7479 110.481 79.37 110.752C78.9922 111.021 78.5149 111.155 77.9382 111.155C77.4609 111.155 77.0367 111.051 76.6655 110.842C76.2943 110.63 76.0026 110.312 75.7905 109.887C75.5784 109.46 75.4723 108.921 75.4723 108.272V103.419H76.6456V108.192C76.6456 108.749 76.8014 109.193 77.1129 109.524C77.4278 109.856 77.8288 110.022 78.3161 110.022C78.6077 110.022 78.9044 109.947 79.206 109.798C79.5109 109.649 79.7661 109.42 79.9716 109.112C80.1804 108.804 80.2848 108.411 80.2848 107.934ZM78.4751 113.581C78.2464 113.581 78.0492 113.503 77.8835 113.348C77.7211 113.192 77.6399 113.005 77.6399 112.786C77.6399 112.567 77.7211 112.38 77.8835 112.224C78.0492 112.068 78.2464 111.99 78.4751 111.99C78.7038 111.99 78.8994 112.068 79.0618 112.224C79.2275 112.38 79.3104 112.567 79.3104 112.786C79.3104 113.005 79.2275 113.192 79.0618 113.348C78.8994 113.503 78.7038 113.581 78.4751 113.581ZM87.2836 111.215C86.5676 111.215 85.9512 111.046 85.4341 110.708C84.9171 110.37 84.5194 109.904 84.2409 109.311C83.9625 108.717 83.8233 108.04 83.8233 107.277C83.8233 106.502 83.9658 105.817 84.2509 105.224C84.5392 104.627 84.9403 104.162 85.454 103.827C85.9711 103.489 86.5743 103.32 87.2637 103.32C87.8006 103.32 88.2845 103.419 88.7154 103.618C89.1462 103.817 89.4992 104.095 89.7743 104.453C90.0494 104.811 90.2201 105.229 90.2864 105.706H89.1131C89.0236 105.358 88.8248 105.05 88.5165 104.782C88.2116 104.51 87.8006 104.374 87.2836 104.374C86.8262 104.374 86.4251 104.493 86.0804 104.732C85.7391 104.967 85.4722 105.3 85.28 105.731C85.0911 106.159 84.9966 106.661 84.9966 107.237C84.9966 107.827 85.0894 108.341 85.275 108.779C85.464 109.216 85.7291 109.556 86.0705 109.798C86.4152 110.04 86.8195 110.161 87.2836 110.161C87.5885 110.161 87.8652 110.108 88.1138 110.002C88.3624 109.896 88.5729 109.743 88.7452 109.544C88.9176 109.345 89.0402 109.107 89.1131 108.828H90.2864C90.2201 109.279 90.056 109.685 89.7942 110.046C89.5357 110.404 89.1926 110.689 88.7651 110.902C88.3409 111.11 87.847 111.215 87.2836 111.215ZM93.7516 109.664L93.6721 110.201C93.6157 110.578 93.5295 110.983 93.4135 111.414C93.3008 111.844 93.1832 112.251 93.0605 112.632C92.9379 113.013 92.8368 113.316 92.7573 113.541H91.8624C91.9055 113.329 91.9618 113.049 92.0314 112.701C92.101 112.353 92.1706 111.964 92.2402 111.533C92.3132 111.105 92.3728 110.668 92.4192 110.22L92.4789 109.664H93.7516ZM106.107 103.419L103.283 111.056H102.09L99.2663 103.419H100.539L102.647 109.505H102.727L104.835 103.419H106.107ZM107.656 111.056V103.419H108.829V111.056H107.656ZM108.252 102.147C108.024 102.147 107.827 102.069 107.661 101.913C107.498 101.757 107.417 101.57 107.417 101.351C107.417 101.132 107.498 100.945 107.661 100.789C107.827 100.634 108.024 100.556 108.252 100.556C108.481 100.556 108.677 100.634 108.839 100.789C109.005 100.945 109.088 101.132 109.088 101.351C109.088 101.57 109.005 101.757 108.839 101.913C108.677 102.069 108.481 102.147 108.252 102.147ZM108.252 113.581C108.024 113.581 107.827 113.503 107.661 113.348C107.498 113.192 107.417 113.005 107.417 112.786C107.417 112.567 107.498 112.38 107.661 112.224C107.827 112.068 108.024 111.99 108.252 111.99C108.481 111.99 108.677 112.068 108.839 112.224C109.005 112.38 109.088 112.567 109.088 112.786C109.088 113.005 109.005 113.192 108.839 113.348C108.677 113.503 108.481 113.581 108.252 113.581ZM118.237 103.419V104.414H114.279V103.419H118.237ZM115.433 101.59H116.606V108.868C116.606 109.2 116.654 109.448 116.75 109.614C116.85 109.776 116.976 109.886 117.128 109.942C117.284 109.995 117.448 110.022 117.62 110.022C117.749 110.022 117.856 110.015 117.938 110.002C118.021 109.985 118.088 109.972 118.137 109.962L118.376 111.016C118.296 111.046 118.185 111.076 118.043 111.105C117.9 111.139 117.72 111.155 117.501 111.155C117.169 111.155 116.845 111.084 116.526 110.941C116.212 110.799 115.95 110.582 115.741 110.29C115.535 109.998 115.433 109.63 115.433 109.186V101.59ZM120.002 111.056V103.419H121.135V104.573H121.215C121.354 104.195 121.606 103.888 121.97 103.653C122.335 103.418 122.746 103.3 123.203 103.3C123.289 103.3 123.397 103.302 123.526 103.305C123.656 103.308 123.753 103.313 123.82 103.32V104.513C123.78 104.503 123.689 104.488 123.546 104.468C123.407 104.445 123.26 104.434 123.104 104.434C122.733 104.434 122.401 104.511 122.11 104.667C121.821 104.82 121.593 105.032 121.423 105.304C121.258 105.572 121.175 105.879 121.175 106.223V111.056H120.002ZM125.211 111.056V103.419H126.384V111.056H125.211ZM125.27 102.385L126.483 100.078H127.855L126.304 102.385H125.27ZM130.283 109.664L130.203 110.201C130.147 110.578 130.061 110.983 129.945 111.414C129.832 111.844 129.714 112.251 129.592 112.632C129.469 113.013 129.368 113.316 129.289 113.541H128.394C128.437 113.329 128.493 113.049 128.563 112.701C128.632 112.353 128.702 111.964 128.771 111.533C128.844 111.105 128.904 110.668 128.95 110.22L129.01 109.664H130.283ZM137.567 106.462V111.056H136.394V103.419H137.528V104.612H137.627C137.806 104.225 138.078 103.913 138.442 103.678C138.807 103.439 139.278 103.32 139.854 103.32C140.371 103.32 140.824 103.426 141.212 103.638C141.599 103.847 141.901 104.165 142.116 104.593C142.332 105.017 142.44 105.554 142.44 106.203V111.056H141.266V106.283C141.266 105.683 141.111 105.216 140.799 104.881C140.487 104.543 140.06 104.374 139.516 104.374C139.142 104.374 138.807 104.455 138.512 104.617C138.22 104.78 137.99 105.017 137.821 105.328C137.652 105.64 137.567 106.018 137.567 106.462ZM147.666 114.078C147.099 114.078 146.612 114.005 146.204 113.86C145.797 113.717 145.457 113.528 145.185 113.293C144.917 113.061 144.703 112.812 144.544 112.547L145.479 111.891C145.585 112.03 145.719 112.189 145.881 112.368C146.044 112.55 146.266 112.708 146.547 112.84C146.832 112.976 147.205 113.044 147.666 113.044C148.282 113.044 148.791 112.895 149.192 112.597C149.593 112.299 149.794 111.831 149.794 111.195V109.644H149.694C149.608 109.783 149.486 109.955 149.327 110.161C149.171 110.363 148.945 110.544 148.65 110.703C148.359 110.858 147.964 110.936 147.467 110.936C146.851 110.936 146.297 110.791 145.807 110.499C145.319 110.207 144.933 109.783 144.648 109.226C144.367 108.669 144.226 107.993 144.226 107.198C144.226 106.416 144.363 105.734 144.638 105.154C144.913 104.571 145.296 104.12 145.787 103.802C146.277 103.481 146.844 103.32 147.487 103.32C147.984 103.32 148.379 103.403 148.67 103.568C148.965 103.731 149.191 103.916 149.346 104.125C149.506 104.331 149.628 104.5 149.714 104.632H149.834V103.419H150.967V111.274C150.967 111.931 150.818 112.464 150.52 112.875C150.225 113.29 149.827 113.593 149.327 113.785C148.829 113.981 148.276 114.078 147.666 114.078ZM147.626 109.882C148.097 109.882 148.495 109.775 148.819 109.559C149.144 109.344 149.391 109.034 149.56 108.63C149.729 108.225 149.814 107.741 149.814 107.178C149.814 106.628 149.731 106.142 149.565 105.721C149.399 105.3 149.154 104.97 148.829 104.732C148.505 104.493 148.104 104.374 147.626 104.374C147.129 104.374 146.715 104.5 146.383 104.752C146.055 105.004 145.808 105.342 145.643 105.766C145.48 106.19 145.399 106.661 145.399 107.178C145.399 107.708 145.482 108.177 145.648 108.585C145.817 108.989 146.065 109.307 146.393 109.539C146.725 109.768 147.136 109.882 147.626 109.882ZM155.362 111.235C154.878 111.235 154.439 111.143 154.045 110.961C153.65 110.776 153.337 110.509 153.105 110.161C152.873 109.809 152.757 109.385 152.757 108.888C152.757 108.451 152.843 108.096 153.015 107.824C153.188 107.549 153.418 107.334 153.706 107.178C153.995 107.022 154.313 106.906 154.661 106.83C155.012 106.75 155.365 106.687 155.72 106.641C156.184 106.581 156.56 106.536 156.849 106.507C157.14 106.474 157.352 106.419 157.485 106.343C157.621 106.266 157.689 106.134 157.689 105.945V105.905C157.689 105.415 157.555 105.033 157.286 104.762C157.021 104.49 156.618 104.354 156.078 104.354C155.518 104.354 155.079 104.477 154.76 104.722C154.442 104.967 154.219 105.229 154.089 105.507L152.976 105.11C153.175 104.646 153.44 104.284 153.771 104.026C154.106 103.764 154.47 103.582 154.865 103.479C155.263 103.373 155.654 103.32 156.038 103.32C156.283 103.32 156.565 103.35 156.883 103.409C157.205 103.466 157.515 103.583 157.813 103.762C158.115 103.941 158.365 104.211 158.564 104.573C158.763 104.934 158.862 105.418 158.862 106.024V111.056H157.689V110.022H157.629C157.55 110.187 157.417 110.365 157.231 110.554C157.046 110.742 156.799 110.903 156.491 111.036C156.182 111.168 155.806 111.235 155.362 111.235ZM155.541 110.181C156.005 110.181 156.396 110.09 156.714 109.907C157.036 109.725 157.278 109.49 157.44 109.201C157.606 108.913 157.689 108.61 157.689 108.291V107.218C157.639 107.277 157.53 107.332 157.361 107.382C157.195 107.428 157.003 107.469 156.784 107.506C156.568 107.539 156.358 107.569 156.153 107.595C155.95 107.619 155.786 107.639 155.66 107.655C155.355 107.695 155.07 107.759 154.805 107.849C154.543 107.935 154.331 108.066 154.169 108.242C154.01 108.414 153.93 108.649 153.93 108.948C153.93 109.355 154.081 109.664 154.383 109.872C154.688 110.078 155.074 110.181 155.541 110.181ZM155.621 102.385L154.069 100.078H155.442L156.655 102.385H155.621ZM161.486 113.919C161.287 113.919 161.11 113.903 160.954 113.87C160.798 113.84 160.69 113.81 160.631 113.78L160.929 112.746C161.214 112.819 161.466 112.845 161.685 112.826C161.903 112.806 162.097 112.708 162.266 112.532C162.439 112.36 162.596 112.08 162.739 111.692L162.957 111.095L160.134 103.419H161.406L163.514 109.505H163.594L165.702 103.419H166.974L163.733 112.169C163.587 112.564 163.406 112.89 163.191 113.149C162.976 113.411 162.725 113.604 162.44 113.73C162.159 113.856 161.84 113.919 161.486 113.919ZM173.336 103.419L175.165 106.541L176.995 103.419H178.347L175.881 107.237L178.347 111.056H176.995L175.165 108.093L173.336 111.056H171.983L174.409 107.237L171.983 103.419H173.336ZM184.834 107.934V103.419H186.007V111.056H184.834V109.763H184.754C184.575 110.151 184.297 110.481 183.919 110.752C183.541 111.021 183.064 111.155 182.487 111.155C182.01 111.155 181.586 111.051 181.214 110.842C180.843 110.63 180.551 110.312 180.339 109.887C180.127 109.46 180.021 108.921 180.021 108.272V103.419H181.194V108.192C181.194 108.749 181.35 109.193 181.662 109.524C181.977 109.856 182.378 110.022 182.865 110.022C183.157 110.022 183.453 109.947 183.755 109.798C184.06 109.649 184.315 109.42 184.52 109.112C184.729 108.804 184.834 108.411 184.834 107.934ZM190.403 111.235C189.919 111.235 189.48 111.143 189.086 110.961C188.691 110.776 188.378 110.509 188.146 110.161C187.914 109.809 187.798 109.385 187.798 108.888C187.798 108.451 187.884 108.096 188.056 107.824C188.229 107.549 188.459 107.334 188.748 107.178C189.036 107.022 189.354 106.906 189.702 106.83C190.053 106.75 190.406 106.687 190.761 106.641C191.225 106.581 191.601 106.536 191.89 106.507C192.181 106.474 192.393 106.419 192.526 106.343C192.662 106.266 192.73 106.134 192.73 105.945V105.905C192.73 105.415 192.596 105.033 192.327 104.762C192.062 104.49 191.659 104.354 191.119 104.354C190.559 104.354 190.12 104.477 189.801 104.722C189.483 104.967 189.26 105.229 189.13 105.507L188.017 105.11C188.216 104.646 188.481 104.284 188.812 104.026C189.147 103.764 189.511 103.582 189.906 103.479C190.304 103.373 190.695 103.32 191.079 103.32C191.324 103.32 191.606 103.35 191.924 103.409C192.246 103.466 192.556 103.583 192.854 103.762C193.156 103.941 193.406 104.211 193.605 104.573C193.804 104.934 193.903 105.418 193.903 106.024V111.056H192.73V110.022H192.67C192.591 110.187 192.458 110.365 192.272 110.554C192.087 110.742 191.84 110.903 191.532 111.036C191.223 111.168 190.847 111.235 190.403 111.235ZM190.582 110.181C191.046 110.181 191.437 110.09 191.755 109.907C192.077 109.725 192.319 109.49 192.481 109.201C192.647 108.913 192.73 108.61 192.73 108.291V107.218C192.68 107.277 192.571 107.332 192.402 107.382C192.236 107.428 192.044 107.469 191.825 107.506C191.609 107.539 191.399 107.569 191.194 107.595C190.991 107.619 190.827 107.639 190.701 107.655C190.396 107.695 190.111 107.759 189.846 107.849C189.584 107.935 189.372 108.066 189.21 108.242C189.051 108.414 188.971 108.649 188.971 108.948C188.971 109.355 189.122 109.664 189.424 109.872C189.729 110.078 190.115 110.181 190.582 110.181ZM188.593 102.465L190.622 100.655H191.716L193.744 102.465H192.312L191.179 101.411L190.045 102.465H188.593ZM193.207 101.252L194.181 99.4619H195.633L194.241 101.252H193.207ZM199.366 103.419V104.414H195.408V103.419H199.366ZM196.562 101.59H197.735V108.868C197.735 109.2 197.783 109.448 197.879 109.614C197.979 109.776 198.104 109.886 198.257 109.942C198.413 109.995 198.577 110.022 198.749 110.022C198.878 110.022 198.984 110.015 199.067 110.002C199.15 109.985 199.216 109.972 199.266 109.962L199.505 111.016C199.425 111.046 199.314 111.076 199.172 111.105C199.029 111.139 198.849 111.155 198.63 111.155C198.298 111.155 197.974 111.084 197.655 110.941C197.34 110.799 197.079 110.582 196.87 110.29C196.664 109.998 196.562 109.63 196.562 109.186V101.59ZM206.241 106.462V111.056H205.068V100.874H206.241V104.612H206.341C206.52 104.218 206.788 103.905 207.146 103.673C207.507 103.438 207.988 103.32 208.588 103.32C209.108 103.32 209.564 103.424 209.955 103.633C210.346 103.839 210.649 104.155 210.865 104.583C211.084 105.007 211.193 105.547 211.193 106.203V111.056H210.02V106.283C210.02 105.676 209.862 105.207 209.547 104.876C209.236 104.541 208.803 104.374 208.25 104.374C207.865 104.374 207.521 104.455 207.216 104.617C206.914 104.78 206.675 105.017 206.5 105.328C206.327 105.64 206.241 106.018 206.241 106.462ZM213.339 111.056V103.419H214.513V111.056H213.339ZM213.936 102.147C213.707 102.147 213.51 102.069 213.344 101.913C213.182 101.757 213.101 101.57 213.101 101.351C213.101 101.132 213.182 100.945 213.344 100.789C213.51 100.634 213.707 100.556 213.936 100.556C214.165 100.556 214.36 100.634 214.523 100.789C214.688 100.945 214.771 101.132 214.771 101.351C214.771 101.57 214.688 101.757 214.523 101.913C214.36 102.069 214.165 102.147 213.936 102.147ZM219.863 111.215C219.128 111.215 218.493 111.052 217.959 110.728C217.429 110.399 217.02 109.942 216.731 109.355C216.446 108.765 216.304 108.079 216.304 107.297C216.304 106.515 216.446 105.826 216.731 105.229C217.02 104.629 217.421 104.162 217.934 103.827C218.452 103.489 219.055 103.32 219.744 103.32C220.142 103.32 220.535 103.386 220.922 103.519C221.31 103.651 221.663 103.867 221.981 104.165C222.3 104.46 222.553 104.851 222.742 105.338C222.931 105.826 223.025 106.425 223.025 107.138V107.635H217.139V106.621H221.832C221.832 106.19 221.746 105.806 221.574 105.468C221.405 105.13 221.163 104.863 220.848 104.667C220.536 104.472 220.168 104.374 219.744 104.374C219.277 104.374 218.872 104.49 218.531 104.722C218.193 104.951 217.933 105.249 217.751 105.617C217.568 105.985 217.477 106.379 217.477 106.8V107.476C217.477 108.053 217.577 108.542 217.775 108.943C217.978 109.34 218.258 109.644 218.616 109.853C218.974 110.058 219.39 110.161 219.863 110.161C220.172 110.161 220.45 110.118 220.699 110.032C220.951 109.942 221.168 109.809 221.35 109.634C221.532 109.455 221.673 109.233 221.773 108.968L222.906 109.286C222.787 109.67 222.586 110.008 222.305 110.3C222.023 110.588 221.675 110.814 221.26 110.976C220.846 111.135 220.381 111.215 219.863 111.215ZM220.719 102.505L219.684 101.112L218.65 102.505H217.537V102.425L219.148 100.357H220.221L221.832 102.425V102.505H220.719ZM219.684 113.581C219.456 113.581 219.259 113.503 219.093 113.348C218.93 113.192 218.849 113.005 218.849 112.786C218.849 112.567 218.93 112.38 219.093 112.224C219.259 112.068 219.456 111.99 219.684 111.99C219.913 111.99 220.109 112.068 220.271 112.224C220.437 112.38 220.52 112.567 220.52 112.786C220.52 113.005 220.437 113.192 220.271 113.348C220.109 113.503 219.913 113.581 219.684 113.581ZM225.983 106.462V111.056H224.81V103.419H225.944V104.612H226.043C226.222 104.225 226.494 103.913 226.858 103.678C227.223 103.439 227.694 103.32 228.27 103.32C228.787 103.32 229.24 103.426 229.628 103.638C230.015 103.847 230.317 104.165 230.532 104.593C230.748 105.017 230.856 105.554 230.856 106.203V111.056H229.682V106.283C229.682 105.683 229.527 105.216 229.215 104.881C228.903 104.543 228.476 104.374 227.932 104.374C227.558 104.374 227.223 104.455 226.928 104.617C226.636 104.78 226.406 105.017 226.237 105.328C226.068 105.64 225.983 106.018 225.983 106.462ZM25.373 133.919V129.882H25.2735C25.1874 130.022 25.0647 130.197 24.9056 130.409C24.7465 130.618 24.5195 130.805 24.2245 130.971C23.9295 131.134 23.5368 131.215 23.0463 131.215C22.4099 131.215 21.8481 131.054 21.3609 130.733C20.8737 130.408 20.4925 129.95 20.2174 129.36C19.9423 128.767 19.8048 128.066 19.8048 127.257C19.8048 126.455 19.9423 125.759 20.2174 125.169C20.4925 124.579 20.8753 124.124 21.3659 123.802C21.8564 123.481 22.4231 123.32 23.0661 123.32C23.5633 123.32 23.9561 123.403 24.2444 123.568C24.5361 123.731 24.7581 123.916 24.9106 124.125C25.0664 124.331 25.1874 124.5 25.2735 124.632H25.4127V123.419H26.5463V133.919H25.373ZM23.2053 130.161C23.676 130.161 24.0737 130.038 24.3985 129.793C24.7233 129.544 24.9703 129.201 25.1393 128.764C25.3083 128.323 25.3928 127.814 25.3928 127.237C25.3928 126.667 25.31 126.169 25.1443 125.741C24.9785 125.31 24.7333 124.975 24.4085 124.737C24.0837 124.495 23.6826 124.374 23.2053 124.374C22.7082 124.374 22.2939 124.501 21.9624 124.757C21.6343 125.009 21.3874 125.352 21.2217 125.786C21.0593 126.217 20.9781 126.701 20.9781 127.237C20.9781 127.781 21.0609 128.275 21.2267 128.719C21.3957 129.16 21.6443 129.511 21.9724 129.773C22.3038 130.032 22.7148 130.161 23.2053 130.161ZM33.5065 127.934V123.419H34.6798V131.056H33.5065V129.763H33.4269C33.248 130.151 32.9695 130.481 32.5917 130.752C32.2139 131.021 31.7366 131.155 31.1599 131.155C30.6826 131.155 30.2584 131.051 29.8872 130.842C29.516 130.63 29.2243 130.312 29.0122 129.887C28.8 129.46 28.694 128.921 28.694 128.272V123.419H29.8673V128.192C29.8673 128.749 30.0231 129.193 30.3346 129.524C30.6495 129.856 31.0505 130.022 31.5377 130.022C31.8294 130.022 32.126 129.947 32.4276 129.798C32.7326 129.649 32.9878 129.42 33.1933 129.112C33.4021 128.804 33.5065 128.411 33.5065 127.934ZM39.0759 131.235C38.592 131.235 38.1528 131.143 37.7584 130.961C37.364 130.776 37.0508 130.509 36.8188 130.161C36.5868 129.809 36.4708 129.385 36.4708 128.888C36.4708 128.451 36.557 128.096 36.7293 127.824C36.9017 127.549 37.132 127.334 37.4204 127.178C37.7087 127.022 38.0269 126.906 38.3749 126.83C38.7262 126.75 39.0792 126.687 39.4339 126.641C39.8979 126.581 40.2741 126.536 40.5624 126.507C40.8541 126.474 41.0662 126.419 41.1988 126.343C41.3347 126.266 41.4026 126.134 41.4026 125.945V125.905C41.4026 125.415 41.2684 125.033 40.9999 124.762C40.7348 124.49 40.3321 124.354 39.7918 124.354C39.2317 124.354 38.7925 124.477 38.4743 124.722C38.1562 124.967 37.9324 125.229 37.8032 125.507L36.6895 125.11C36.8884 124.646 37.1536 124.284 37.485 124.026C37.8198 123.764 38.1843 123.582 38.5787 123.479C38.9765 123.373 39.3676 123.32 39.752 123.32C39.9973 123.32 40.279 123.35 40.5972 123.409C40.9187 123.466 41.2286 123.583 41.5269 123.762C41.8285 123.941 42.0787 124.211 42.2776 124.573C42.4765 124.934 42.5759 125.418 42.5759 126.024V131.056H41.4026V130.022H41.343C41.2634 130.187 41.1308 130.365 40.9452 130.554C40.7596 130.742 40.5127 130.903 40.2045 131.036C39.8962 131.168 39.52 131.235 39.0759 131.235ZM39.2549 130.181C39.7189 130.181 40.11 130.09 40.4282 129.907C40.7497 129.725 40.9916 129.49 41.154 129.201C41.3198 128.913 41.4026 128.61 41.4026 128.291V127.218C41.3529 127.277 41.2435 127.332 41.0745 127.382C40.9088 127.428 40.7165 127.469 40.4978 127.506C40.2823 127.539 40.0719 127.569 39.8664 127.595C39.6642 127.619 39.5001 127.639 39.3742 127.655C39.0693 127.695 38.7842 127.759 38.5191 127.849C38.2573 127.935 38.0451 128.066 37.8827 128.242C37.7236 128.414 37.6441 128.649 37.6441 128.948C37.6441 129.355 37.7949 129.664 38.0965 129.872C38.4014 130.078 38.7876 130.181 39.2549 130.181ZM40.3486 122.385H39.3742V121.311C39.7222 121.291 39.9675 121.243 40.11 121.167C40.2558 121.091 40.3287 120.973 40.3287 120.814C40.3287 120.635 40.2243 120.504 40.0155 120.421C39.8067 120.339 39.5532 120.297 39.2549 120.297L39.2947 119.541C39.9807 119.541 40.4994 119.661 40.8508 119.899C41.2054 120.138 41.3827 120.456 41.3827 120.854C41.3827 121.192 41.275 121.439 41.0596 121.595C40.8441 121.751 40.6072 121.848 40.3486 121.888V122.385ZM45.8907 126.462V131.056H44.7174V123.419H45.8509V124.612H45.9504C46.1294 124.225 46.4011 123.913 46.7657 123.678C47.1303 123.439 47.6009 123.32 48.1776 123.32C48.6947 123.32 49.1471 123.426 49.5349 123.638C49.9227 123.847 50.2243 124.165 50.4397 124.593C50.6552 125.017 50.7629 125.554 50.7629 126.203V131.056H49.5896V126.283C49.5896 125.683 49.4338 125.216 49.1222 124.881C48.8107 124.543 48.3831 124.374 47.8396 124.374C47.4651 124.374 47.1303 124.455 46.8353 124.617C46.5436 124.78 46.3133 125.017 46.1443 125.328C45.9752 125.64 45.8907 126.018 45.8907 126.462ZM55.9893 134.078C55.4225 134.078 54.9353 134.005 54.5276 133.86C54.1199 133.717 53.7802 133.528 53.5084 133.293C53.24 133.061 53.0262 132.812 52.8671 132.547L53.8018 131.891C53.9078 132.03 54.0421 132.189 54.2045 132.368C54.3669 132.55 54.5889 132.708 54.8706 132.84C55.1557 132.976 55.5286 133.044 55.9893 133.044C56.6057 133.044 57.1145 132.895 57.5155 132.597C57.9166 132.299 58.1171 131.831 58.1171 131.195V129.644H58.0177C57.9315 129.783 57.8089 129.955 57.6498 130.161C57.494 130.363 57.2686 130.544 56.9736 130.703C56.682 130.858 56.2876 130.936 55.7904 130.936C55.1739 130.936 54.6204 130.791 54.1299 130.499C53.6427 130.207 53.2565 129.783 52.9715 129.226C52.6898 128.669 52.5489 127.993 52.5489 127.198C52.5489 126.416 52.6865 125.734 52.9616 125.154C53.2367 124.571 53.6195 124.12 54.11 123.802C54.6005 123.481 55.1673 123.32 55.8103 123.32C56.3074 123.32 56.7019 123.403 56.9935 123.568C57.2885 123.731 57.5139 123.916 57.6697 124.125C57.8287 124.331 57.9514 124.5 58.0376 124.632H58.1569V123.419H59.2904V131.274C59.2904 131.931 59.1412 132.464 58.843 132.875C58.548 133.29 58.1502 133.593 57.6498 133.785C57.1526 133.981 56.5991 134.078 55.9893 134.078ZM55.9495 129.882C56.4201 129.882 56.8179 129.775 57.1427 129.559C57.4675 129.344 57.7144 129.034 57.8834 128.63C58.0525 128.225 58.137 127.741 58.137 127.178C58.137 126.628 58.0541 126.142 57.8884 125.721C57.7227 125.3 57.4774 124.97 57.1526 124.732C56.8278 124.493 56.4268 124.374 55.9495 124.374C55.4523 124.374 55.038 124.5 54.7066 124.752C54.3785 125.004 54.1315 125.342 53.9658 125.766C53.8034 126.19 53.7222 126.661 53.7222 127.178C53.7222 127.708 53.8051 128.177 53.9708 128.585C54.1398 128.989 54.3884 129.307 54.7165 129.539C55.048 129.768 55.459 129.882 55.9495 129.882ZM68.4779 131.215C67.762 131.215 67.1455 131.046 66.6285 130.708C66.1114 130.37 65.7137 129.904 65.4353 129.311C65.1569 128.717 65.0177 128.04 65.0177 127.277C65.0177 126.502 65.1602 125.817 65.4452 125.224C65.7336 124.627 66.1346 124.162 66.6483 123.827C67.1654 123.489 67.7686 123.32 68.458 123.32C68.9949 123.32 69.4788 123.419 69.9097 123.618C70.3406 123.817 70.6936 124.095 70.9687 124.453C71.2438 124.811 71.4144 125.229 71.4807 125.706H70.3074C70.218 125.358 70.0191 125.05 69.7108 124.782C69.4059 124.51 68.9949 124.374 68.4779 124.374C68.0205 124.374 67.6195 124.493 67.2748 124.732C66.9334 124.967 66.6666 125.3 66.4743 125.731C66.2854 126.159 66.191 126.661 66.191 127.237C66.191 127.827 66.2838 128.341 66.4694 128.779C66.6583 129.216 66.9234 129.556 67.2648 129.798C67.6095 130.04 68.0139 130.161 68.4779 130.161C68.7828 130.161 69.0596 130.108 69.3081 130.002C69.5567 129.896 69.7672 129.743 69.9395 129.544C70.1119 129.345 70.2345 129.107 70.3074 128.828H71.4807C71.4144 129.279 71.2504 129.685 70.9885 130.046C70.73 130.404 70.387 130.689 69.9594 130.902C69.5352 131.11 69.0413 131.215 68.4779 131.215ZM75.4431 131.235C74.9592 131.235 74.52 131.143 74.1256 130.961C73.7312 130.776 73.418 130.509 73.186 130.161C72.954 129.809 72.838 129.385 72.838 128.888C72.838 128.451 72.9242 128.096 73.0965 127.824C73.2689 127.549 73.4992 127.334 73.7876 127.178C74.0759 127.022 74.3941 126.906 74.7421 126.83C75.0934 126.75 75.4464 126.687 75.801 126.641C76.2651 126.581 76.6412 126.536 76.9296 126.507C77.2213 126.474 77.4334 126.419 77.566 126.343C77.7019 126.266 77.7698 126.134 77.7698 125.945V125.905C77.7698 125.415 77.6356 125.033 77.3671 124.762C77.1019 124.49 76.6992 124.354 76.159 124.354C75.5989 124.354 75.1597 124.477 74.8415 124.722C74.5233 124.967 74.2996 125.229 74.1704 125.507L73.0567 125.11C73.2556 124.646 73.5207 124.284 73.8522 124.026C74.1869 123.764 74.5515 123.582 74.9459 123.479C75.3437 123.373 75.7348 123.32 76.1192 123.32C76.3645 123.32 76.6462 123.35 76.9644 123.409C77.2859 123.466 77.5958 123.583 77.8941 123.762C78.1957 123.941 78.4459 124.211 78.6448 124.573C78.8437 124.934 78.9431 125.418 78.9431 126.024V131.056H77.7698V130.022H77.7101C77.6306 130.187 77.498 130.365 77.3124 130.554C77.1268 130.742 76.8799 130.903 76.5716 131.036C76.2634 131.168 75.8872 131.235 75.4431 131.235ZM75.6221 130.181C76.0861 130.181 76.4772 130.09 76.7954 129.907C77.1169 129.725 77.3588 129.49 77.5212 129.201C77.6869 128.913 77.7698 128.61 77.7698 128.291V127.218C77.7201 127.277 77.6107 127.332 77.4417 127.382C77.276 127.428 77.0837 127.469 76.865 127.506C76.6495 127.539 76.4391 127.569 76.2336 127.595C76.0314 127.619 75.8673 127.639 75.7414 127.655C75.4365 127.695 75.1514 127.759 74.8863 127.849C74.6244 127.935 74.4123 128.066 74.2499 128.242C74.0908 128.414 74.0113 128.649 74.0113 128.948C74.0113 129.355 74.1621 129.664 74.4637 129.872C74.7686 130.078 75.1547 130.181 75.6221 130.181ZM75.6618 122.385L76.8749 120.078H78.2471L76.6959 122.385H75.6618ZM84.1869 131.215C83.4975 131.215 82.8926 131.051 82.3722 130.723C81.8552 130.394 81.4508 129.935 81.1592 129.345C80.8708 128.755 80.7267 128.066 80.7267 127.277C80.7267 126.482 80.8708 125.787 81.1592 125.194C81.4508 124.601 81.8552 124.14 82.3722 123.812C82.8926 123.484 83.4975 123.32 84.1869 123.32C84.8763 123.32 85.4795 123.484 85.9965 123.812C86.5169 124.14 86.9213 124.601 87.2096 125.194C87.5013 125.787 87.6471 126.482 87.6471 127.277C87.6471 128.066 87.5013 128.755 87.2096 129.345C86.9213 129.935 86.5169 130.394 85.9965 130.723C85.4795 131.051 84.8763 131.215 84.1869 131.215ZM84.1869 130.161C84.7106 130.161 85.1414 130.027 85.4795 129.758C85.8176 129.49 86.0678 129.137 86.2302 128.699C86.3926 128.262 86.4738 127.788 86.4738 127.277C86.4738 126.767 86.3926 126.291 86.2302 125.85C86.0678 125.41 85.8176 125.053 85.4795 124.782C85.1414 124.51 84.7106 124.374 84.1869 124.374C83.6632 124.374 83.2323 124.51 82.8943 124.782C82.5562 125.053 82.306 125.41 82.1436 125.85C81.9811 126.291 81.8999 126.767 81.8999 127.277C81.8999 127.788 81.9811 128.262 82.1436 128.699C82.306 129.137 82.5562 129.49 82.8943 129.758C83.2323 130.027 83.6632 130.161 84.1869 130.161ZM91.1881 129.664L91.1086 130.201C91.0522 130.578 90.9661 130.983 90.8501 131.414C90.7374 131.844 90.6197 132.251 90.4971 132.632C90.3744 133.013 90.2733 133.316 90.1938 133.541H89.2989C89.342 133.329 89.3983 133.049 89.468 132.701C89.5376 132.353 89.6072 131.964 89.6768 131.533C89.7497 131.105 89.8093 130.668 89.8557 130.22L89.9154 129.664H91.1881ZM102.112 127.934V123.419H103.285V131.056H102.112V129.763H102.032C101.853 130.151 101.575 130.481 101.197 130.752C100.819 131.021 100.342 131.155 99.7654 131.155C99.2881 131.155 98.8638 131.051 98.4926 130.842C98.1214 130.63 97.8298 130.312 97.6176 129.887C97.4055 129.46 97.2994 128.921 97.2994 128.272V123.419H98.4727V128.192C98.4727 128.749 98.6285 129.193 98.9401 129.524C99.2549 129.856 99.656 130.022 100.143 130.022C100.435 130.022 100.732 129.947 101.033 129.798C101.338 129.649 101.593 129.42 101.799 129.112C102.008 128.804 102.112 128.411 102.112 127.934ZM105.434 133.919V123.419H106.568V124.632H106.707C106.793 124.5 106.912 124.331 107.065 124.125C107.221 123.916 107.443 123.731 107.731 123.568C108.023 123.403 108.417 123.32 108.914 123.32C109.557 123.32 110.124 123.481 110.615 123.802C111.105 124.124 111.488 124.579 111.763 125.169C112.038 125.759 112.176 126.455 112.176 127.257C112.176 128.066 112.038 128.767 111.763 129.36C111.488 129.95 111.107 130.408 110.62 130.733C110.132 131.054 109.571 131.215 108.934 131.215C108.444 131.215 108.051 131.134 107.756 130.971C107.461 130.805 107.234 130.618 107.075 130.409C106.916 130.197 106.793 130.022 106.707 129.882H106.608V133.919H105.434ZM106.588 127.237C106.588 127.814 106.672 128.323 106.841 128.764C107.01 129.201 107.257 129.544 107.582 129.793C107.907 130.038 108.304 130.161 108.775 130.161C109.266 130.161 109.675 130.032 110.003 129.773C110.335 129.511 110.583 129.16 110.749 128.719C110.918 128.275 111.002 127.781 111.002 127.237C111.002 126.701 110.92 126.217 110.754 125.786C110.591 125.352 110.344 125.009 110.013 124.757C109.685 124.501 109.272 124.374 108.775 124.374C108.298 124.374 107.897 124.495 107.572 124.737C107.247 124.975 107.002 125.31 106.836 125.741C106.67 126.169 106.588 126.667 106.588 127.237ZM115.139 120.874V131.056H113.965V120.874H115.139ZM120.39 131.215C119.701 131.215 119.096 131.051 118.575 130.723C118.058 130.394 117.654 129.935 117.362 129.345C117.074 128.755 116.93 128.066 116.93 127.277C116.93 126.482 117.074 125.787 117.362 125.194C117.654 124.601 118.058 124.14 118.575 123.812C119.096 123.484 119.701 123.32 120.39 123.32C121.079 123.32 121.683 123.484 122.2 123.812C122.72 124.14 123.124 124.601 123.413 125.194C123.704 125.787 123.85 126.482 123.85 127.277C123.85 128.066 123.704 128.755 123.413 129.345C123.124 129.935 122.72 130.394 122.2 130.723C121.683 131.051 121.079 131.215 120.39 131.215ZM120.39 130.161C120.914 130.161 121.345 130.027 121.683 129.758C122.021 129.49 122.271 129.137 122.433 128.699C122.596 128.262 122.677 127.788 122.677 127.277C122.677 126.767 122.596 126.291 122.433 125.85C122.271 125.41 122.021 125.053 121.683 124.782C121.345 124.51 120.914 124.374 120.39 124.374C119.866 124.374 119.435 124.51 119.097 124.782C118.759 125.053 118.509 125.41 118.347 125.85C118.184 126.291 118.103 126.767 118.103 127.277C118.103 127.788 118.184 128.262 118.347 128.699C118.509 129.137 118.759 129.49 119.097 129.758C119.435 130.027 119.866 130.161 120.39 130.161ZM127.888 131.235C127.405 131.235 126.965 131.143 126.571 130.961C126.177 130.776 125.863 130.509 125.631 130.161C125.399 129.809 125.283 129.385 125.283 128.888C125.283 128.451 125.369 128.096 125.542 127.824C125.714 127.549 125.945 127.334 126.233 127.178C126.521 127.022 126.839 126.906 127.187 126.83C127.539 126.75 127.892 126.687 128.246 126.641C128.71 126.581 129.087 126.536 129.375 126.507C129.667 126.474 129.879 126.419 130.011 126.343C130.147 126.266 130.215 126.134 130.215 125.945V125.905C130.215 125.415 130.081 125.033 129.812 124.762C129.547 124.49 129.145 124.354 128.604 124.354C128.044 124.354 127.605 124.477 127.287 124.722C126.969 124.967 126.745 125.229 126.616 125.507L125.502 125.11C125.701 124.646 125.966 124.284 126.297 124.026C126.632 123.764 126.997 123.582 127.391 123.479C127.789 123.373 128.18 123.32 128.565 123.32C128.81 123.32 129.092 123.35 129.41 123.409C129.731 123.466 130.041 123.583 130.339 123.762C130.641 123.941 130.891 124.211 131.09 124.573C131.289 124.934 131.388 125.418 131.388 126.024V131.056H130.215V130.022H130.155C130.076 130.187 129.943 130.365 129.758 130.554C129.572 130.742 129.325 130.903 129.017 131.036C128.709 131.168 128.333 131.235 127.888 131.235ZM128.067 130.181C128.531 130.181 128.922 130.09 129.241 129.907C129.562 129.725 129.804 129.49 129.967 129.201C130.132 128.913 130.215 128.61 130.215 128.291V127.218C130.165 127.277 130.056 127.332 129.887 127.382C129.721 127.428 129.529 127.469 129.31 127.506C129.095 127.539 128.884 127.569 128.679 127.595C128.477 127.619 128.313 127.639 128.187 127.655C127.882 127.695 127.597 127.759 127.332 127.849C127.07 127.935 126.858 128.066 126.695 128.242C126.536 128.414 126.457 128.649 126.457 128.948C126.457 129.355 126.607 129.664 126.909 129.872C127.214 130.078 127.6 130.181 128.067 130.181ZM136.413 131.215C135.777 131.215 135.215 131.054 134.728 130.733C134.241 130.408 133.86 129.95 133.585 129.36C133.31 128.767 133.172 128.066 133.172 127.257C133.172 126.455 133.31 125.759 133.585 125.169C133.86 124.579 134.243 124.124 134.733 123.802C135.224 123.481 135.79 123.32 136.433 123.32C136.93 123.32 137.323 123.403 137.612 123.568C137.903 123.731 138.125 123.916 138.278 124.125C138.434 124.331 138.555 124.5 138.641 124.632H138.74V120.874H139.913V131.056H138.78V129.882H138.641C138.555 130.022 138.432 130.197 138.273 130.409C138.114 130.618 137.887 130.805 137.592 130.971C137.297 131.134 136.904 131.215 136.413 131.215ZM136.573 130.161C137.043 130.161 137.441 130.038 137.766 129.793C138.091 129.544 138.337 129.201 138.506 128.764C138.676 128.323 138.76 127.814 138.76 127.237C138.76 126.667 138.677 126.169 138.511 125.741C138.346 125.31 138.1 124.975 137.776 124.737C137.451 124.495 137.05 124.374 136.573 124.374C136.075 124.374 135.661 124.501 135.33 124.757C135.002 125.009 134.755 125.352 134.589 125.786C134.426 126.217 134.345 126.701 134.345 127.237C134.345 127.781 134.428 128.275 134.594 128.719C134.763 129.16 135.011 129.511 135.34 129.773C135.671 130.032 136.082 130.161 136.573 130.161ZM148.41 131.235C147.926 131.235 147.487 131.143 147.092 130.961C146.698 130.776 146.385 130.509 146.153 130.161C145.921 129.809 145.805 129.385 145.805 128.888C145.805 128.451 145.891 128.096 146.063 127.824C146.236 127.549 146.466 127.334 146.754 127.178C147.043 127.022 147.361 126.906 147.709 126.83C148.06 126.75 148.413 126.687 148.768 126.641C149.232 126.581 149.608 126.536 149.896 126.507C150.188 126.474 150.4 126.419 150.533 126.343C150.669 126.266 150.737 126.134 150.737 125.945V125.905C150.737 125.415 150.602 125.033 150.334 124.762C150.069 124.49 149.666 124.354 149.126 124.354C148.566 124.354 148.127 124.477 147.808 124.722C147.49 124.967 147.266 125.229 147.137 125.507L146.024 125.11C146.222 124.646 146.488 124.284 146.819 124.026C147.154 123.764 147.518 123.582 147.913 123.479C148.31 123.373 148.702 123.32 149.086 123.32C149.331 123.32 149.613 123.35 149.931 123.409C150.253 123.466 150.563 123.583 150.861 123.762C151.162 123.941 151.413 124.211 151.612 124.573C151.81 124.934 151.91 125.418 151.91 126.024V131.056H150.737V130.022H150.677C150.597 130.187 150.465 130.365 150.279 130.554C150.094 130.742 149.847 130.903 149.538 131.036C149.23 131.168 148.854 131.235 148.41 131.235ZM148.589 130.181C149.053 130.181 149.444 130.09 149.762 129.907C150.084 129.725 150.326 129.49 150.488 129.201C150.654 128.913 150.737 128.61 150.737 128.291V127.218C150.687 127.277 150.578 127.332 150.408 127.382C150.243 127.428 150.051 127.469 149.832 127.506C149.616 127.539 149.406 127.569 149.2 127.595C148.998 127.619 148.834 127.639 148.708 127.655C148.403 127.695 148.118 127.759 147.853 127.849C147.591 127.935 147.379 128.066 147.217 128.242C147.058 128.414 146.978 128.649 146.978 128.948C146.978 129.355 147.129 129.664 147.43 129.872C147.735 130.078 148.122 130.181 148.589 130.181ZM156.935 131.215C156.299 131.215 155.737 131.054 155.25 130.733C154.762 130.408 154.381 129.95 154.106 129.36C153.831 128.767 153.693 128.066 153.693 127.257C153.693 126.455 153.831 125.759 154.106 125.169C154.381 124.579 154.764 124.124 155.255 123.802C155.745 123.481 156.312 123.32 156.955 123.32C157.452 123.32 157.845 123.403 158.133 123.568C158.425 123.731 158.647 123.916 158.799 124.125C158.955 124.331 159.076 124.5 159.162 124.632H159.262V120.874H160.435V131.056H159.301V129.882H159.162C159.076 130.022 158.953 130.197 158.794 130.409C158.635 130.618 158.408 130.805 158.113 130.971C157.818 131.134 157.425 131.215 156.935 131.215ZM157.094 130.161C157.565 130.161 157.962 130.038 158.287 129.793C158.612 129.544 158.859 129.201 159.028 128.764C159.197 128.323 159.282 127.814 159.282 127.237C159.282 126.667 159.199 126.169 159.033 125.741C158.867 125.31 158.622 124.975 158.297 124.737C157.972 124.495 157.571 124.374 157.094 124.374C156.597 124.374 156.183 124.501 155.851 124.757C155.523 125.009 155.276 125.352 155.11 125.786C154.948 126.217 154.867 126.701 154.867 127.237C154.867 127.781 154.95 128.275 155.115 128.719C155.284 129.16 155.533 129.511 155.861 129.773C156.193 130.032 156.603 130.161 157.094 130.161ZM166.843 131.056V120.874H168.017V124.632H168.116C168.202 124.5 168.322 124.331 168.474 124.125C168.63 123.916 168.852 123.731 169.14 123.568C169.432 123.403 169.826 123.32 170.323 123.32C170.966 123.32 171.533 123.481 172.024 123.802C172.514 124.124 172.897 124.579 173.172 125.169C173.447 125.759 173.585 126.455 173.585 127.257C173.585 128.066 173.447 128.767 173.172 129.36C172.897 129.95 172.516 130.408 172.029 130.733C171.541 131.054 170.98 131.215 170.343 131.215C169.853 131.215 169.46 131.134 169.165 130.971C168.87 130.805 168.643 130.618 168.484 130.409C168.325 130.197 168.202 130.022 168.116 129.882H167.977V131.056H166.843ZM167.997 127.237C167.997 127.814 168.081 128.323 168.25 128.764C168.419 129.201 168.666 129.544 168.991 129.793C169.316 130.038 169.714 130.161 170.184 130.161C170.675 130.161 171.084 130.032 171.412 129.773C171.744 129.511 171.992 129.16 172.158 128.719C172.327 128.275 172.411 127.781 172.411 127.237C172.411 126.701 172.329 126.217 172.163 125.786C172.001 125.352 171.754 125.009 171.422 124.757C171.094 124.501 170.681 124.374 170.184 124.374C169.707 124.374 169.306 124.495 168.981 124.737C168.656 124.975 168.411 125.31 168.245 125.741C168.08 126.169 167.997 126.667 167.997 127.237ZM177.627 131.235C177.143 131.235 176.704 131.143 176.309 130.961C175.915 130.776 175.602 130.509 175.37 130.161C175.138 129.809 175.022 129.385 175.022 128.888C175.022 128.451 175.108 128.096 175.28 127.824C175.452 127.549 175.683 127.334 175.971 127.178C176.259 127.022 176.578 126.906 176.926 126.83C177.277 126.75 177.63 126.687 177.985 126.641C178.449 126.581 178.825 126.536 179.113 126.507C179.405 126.474 179.617 126.419 179.75 126.343C179.885 126.266 179.953 126.134 179.953 125.945V125.905C179.953 125.415 179.819 125.033 179.551 124.762C179.286 124.49 178.883 124.354 178.343 124.354C177.782 124.354 177.343 124.477 177.025 124.722C176.707 124.967 176.483 125.229 176.354 125.507L175.24 125.11C175.439 124.646 175.704 124.284 176.036 124.026C176.371 123.764 176.735 123.582 177.13 123.479C177.527 123.373 177.918 123.32 178.303 123.32C178.548 123.32 178.83 123.35 179.148 123.409C179.469 123.466 179.779 123.583 180.078 123.762C180.379 123.941 180.63 124.211 180.828 124.573C181.027 124.934 181.127 125.418 181.127 126.024V131.056H179.953V130.022H179.894C179.814 130.187 179.682 130.365 179.496 130.554C179.31 130.742 179.063 130.903 178.755 131.036C178.447 131.168 178.071 131.235 177.627 131.235ZM177.806 130.181C178.27 130.181 178.661 130.09 178.979 129.907C179.3 129.725 179.542 129.49 179.705 129.201C179.871 128.913 179.953 128.61 179.953 128.291V127.218C179.904 127.277 179.794 127.332 179.625 127.382C179.46 127.428 179.267 127.469 179.049 127.506C178.833 127.539 178.623 127.569 178.417 127.595C178.215 127.619 178.051 127.639 177.925 127.655C177.62 127.695 177.335 127.759 177.07 127.849C176.808 127.935 176.596 128.066 176.434 128.242C176.274 128.414 176.195 128.649 176.195 128.948C176.195 129.355 176.346 129.664 176.647 129.872C176.952 130.078 177.338 130.181 177.806 130.181ZM184.441 126.462V131.056H183.268V123.419H184.402V124.612H184.501C184.68 124.225 184.952 123.913 185.316 123.678C185.681 123.439 186.152 123.32 186.728 123.32C187.245 123.32 187.698 123.426 188.086 123.638C188.473 123.847 188.775 124.165 188.991 124.593C189.206 125.017 189.314 125.554 189.314 126.203V131.056H188.14V126.283C188.14 125.683 187.985 125.216 187.673 124.881C187.361 124.543 186.934 124.374 186.39 124.374C186.016 124.374 185.681 124.455 185.386 124.617C185.094 124.78 184.864 125.017 184.695 125.328C184.526 125.64 184.441 126.018 184.441 126.462ZM192.631 126.462V131.056H191.458V123.419H192.591V124.612H192.691C192.87 124.225 193.141 123.913 193.506 123.678C193.871 123.439 194.341 123.32 194.918 123.32C195.435 123.32 195.887 123.426 196.275 123.638C196.663 123.847 196.965 124.165 197.18 124.593C197.395 125.017 197.503 125.554 197.503 126.203V131.056H196.33V126.283C196.33 125.683 196.174 125.216 195.862 124.881C195.551 124.543 195.123 124.374 194.58 124.374C194.205 124.374 193.871 124.455 193.576 124.617C193.284 124.78 193.054 125.017 192.884 125.328C192.715 125.64 192.631 126.018 192.631 126.462ZM202.849 131.215C202.113 131.215 201.478 131.052 200.945 130.728C200.414 130.399 200.005 129.942 199.717 129.355C199.432 128.765 199.289 128.079 199.289 127.297C199.289 126.515 199.432 125.826 199.717 125.229C200.005 124.629 200.406 124.162 200.92 123.827C201.437 123.489 202.04 123.32 202.729 123.32C203.127 123.32 203.52 123.386 203.908 123.519C204.296 123.651 204.649 123.867 204.967 124.165C205.285 124.46 205.538 124.851 205.727 125.338C205.916 125.826 206.011 126.425 206.011 127.138V127.635H200.124V126.621H204.818C204.818 126.19 204.731 125.806 204.559 125.468C204.39 125.13 204.148 124.863 203.833 124.667C203.522 124.472 203.154 124.374 202.729 124.374C202.262 124.374 201.858 124.49 201.516 124.722C201.178 124.951 200.918 125.249 200.736 125.617C200.554 125.985 200.462 126.379 200.462 126.8V127.476C200.462 128.053 200.562 128.542 200.761 128.943C200.963 129.34 201.243 129.644 201.601 129.853C201.959 130.058 202.375 130.161 202.849 130.161C203.157 130.161 203.435 130.118 203.684 130.032C203.936 129.942 204.153 129.809 204.335 129.634C204.518 129.455 204.658 129.233 204.758 128.968L205.891 129.286C205.772 129.67 205.572 130.008 205.29 130.3C205.008 130.588 204.66 130.814 204.246 130.976C203.832 131.135 203.366 131.215 202.849 131.215ZM207.796 131.056V123.419H208.929V124.573H209.009C209.148 124.195 209.4 123.888 209.764 123.653C210.129 123.418 210.54 123.3 210.997 123.3C211.083 123.3 211.191 123.302 211.32 123.305C211.45 123.308 211.547 123.313 211.614 123.32V124.513C211.574 124.503 211.483 124.488 211.34 124.468C211.201 124.445 211.054 124.434 210.898 124.434C210.527 124.434 210.195 124.511 209.903 124.667C209.615 124.82 209.386 125.032 209.217 125.304C209.052 125.572 208.969 125.879 208.969 126.223V131.056H207.796ZM212.985 131.135C212.739 131.135 212.529 131.047 212.353 130.872C212.178 130.696 212.09 130.486 212.09 130.24C212.09 129.995 212.178 129.785 212.353 129.609C212.529 129.433 212.739 129.345 212.985 129.345C213.23 129.345 213.44 129.433 213.616 129.609C213.792 129.785 213.88 129.995 213.88 130.24C213.88 130.403 213.838 130.552 213.755 130.688C213.676 130.824 213.568 130.933 213.432 131.016C213.3 131.095 213.15 131.135 212.985 131.135Z" fill="#101828"/>
</svg>
