<svg width="48" height="49" viewBox="0 0 48 49" fill="none" xmlns="http://www.w3.org/2000/svg">
<rect y="0.555664" width="48" height="48" rx="24" fill="#E6EDFA"/>
<path d="M18.7658 34.6108C20.9782 36.9272 24.5147 35.1883 21.6652 39.2509C19.3865 42.5024 16.2215 38.9349 15.2599 36.5825C16.8998 36.2933 18.2508 35.1665 18.7658 34.6108Z" fill="#004DD1"/>
<path d="M16.8091 16.5371C15.17 21.8173 13.8038 23.7472 12.49 24.6285C11.1761 25.5099 5.71038 28.1629 9.08193 33.1222C11.7792 37.0897 15.9954 35.285 17.7634 33.8861C13.6438 31.2782 13.0102 28.0801 13.2635 26.5167C15.08 31.2522 17.9011 32.4003 19.0772 33.0048C21.5036 31.8839 22.3545 31.8224 26.7543 32.2913C34.3908 33.1051 29.9906 24.6704 27.2105 20.5812C24.6671 16.84 18.4483 11.2569 16.8091 16.5371ZM28.2222 29.4793C27.3927 30.0973 24.4399 28.84 21.7935 24.9474C19.1472 21.0548 18.4755 17.9435 19.5124 17.3256C20.5493 16.7076 23.2959 18.3786 25.9411 22.2695C28.5863 26.1603 29.0517 28.8613 28.2222 29.4793Z" fill="#004DD1"/>
<path fill-rule="evenodd" clip-rule="evenodd" d="M37.4672 13.724C37.9041 14.419 37.7114 15.3502 37.0368 15.8039L31.1149 19.7867C30.4403 20.2404 29.5392 20.0448 29.1023 19.3499C28.6654 18.655 28.8581 17.7238 29.5327 17.2701L35.4546 13.2872C36.1293 12.8335 37.0303 13.0291 37.4672 13.724Z" fill="#004DD1"/>
<path fill-rule="evenodd" clip-rule="evenodd" d="M39.8985 23.1526C39.9113 23.9619 39.2613 24.6266 38.4467 24.6373L32.2611 24.7182C31.4465 24.7288 30.7759 24.0814 30.7631 23.2721C30.7503 22.4628 31.4003 21.7981 32.2149 21.7874L38.4005 21.7066C39.2151 21.6959 39.8857 22.3433 39.8985 23.1526Z" fill="#004DD1"/>
<path fill-rule="evenodd" clip-rule="evenodd" d="M29.8197 8.67342C30.5288 8.98927 30.8573 9.84274 30.5534 10.5797L28.5522 15.4328C28.2483 16.1698 27.4271 16.5112 26.7181 16.1953C26.009 15.8795 25.6805 15.026 25.9844 14.289L27.9856 9.43594C28.2895 8.69897 29.1106 8.35758 29.8197 8.67342Z" fill="#004DD1"/>
</svg>
