<svg width="21" height="20" viewBox="0 0 21 20" fill="none" xmlns="http://www.w3.org/2000/svg">
<path fill-rule="evenodd" clip-rule="evenodd" d="M2.32384 5.00033C2.32384 3.50455 3.55309 2.29199 5.06945 2.29199H10.1383C10.4882 2.29199 10.7719 2.01217 10.7719 1.66699C10.7719 1.32181 10.4882 1.04199 10.1383 1.04199H5.06945C2.85323 1.04199 1.05664 2.8142 1.05664 5.00033V15.0003C1.05664 17.1865 2.85323 18.9587 5.06945 18.9587H15.2071C17.4233 18.9587 19.2199 17.1865 19.2199 15.0003V10.0003C19.2199 9.65515 18.9362 9.37533 18.5863 9.37533C18.2363 9.37533 17.9527 9.65515 17.9527 10.0003V15.0003C17.9527 16.4961 16.7234 17.7087 15.2071 17.7087H5.06945C3.55309 17.7087 2.32384 16.4961 2.32384 15.0003V5.00033ZM13.8715 2.23123C14.6341 1.47891 15.8707 1.47891 16.6333 2.23123L18.0143 3.59342C18.7769 4.34573 18.7769 5.56548 18.0143 6.31779L16.7899 7.52556C16.6938 7.47861 16.5926 7.42784 16.4878 7.37339C15.782 7.00687 14.9445 6.49246 14.3195 5.8759C13.6944 5.25934 13.1729 4.4332 12.8014 3.73702C12.7462 3.63357 12.6947 3.5338 12.6471 3.43898L13.8715 2.23123ZM13.4234 6.75979C14.1631 7.48939 15.1037 8.06361 15.8487 8.454L11.0338 13.2035C10.735 13.4983 10.3473 13.6894 9.92903 13.7484L7.02907 14.1571C6.38463 14.2479 5.83226 13.703 5.92432 13.0673L6.3386 10.2067C6.39836 9.79408 6.59218 9.41169 6.89098 9.11696L11.7059 4.36743C12.1016 5.10228 12.6838 6.03018 13.4234 6.75979Z" fill="#EC221F"/>
</svg>
