<svg width="120" height="120" viewBox="0 0 120 120" fill="none" xmlns="http://www.w3.org/2000/svg">
<rect x="0.388889" y="0.388889" width="119.222" height="119.222" rx="59.6111" fill="#004DD1"/>
<rect x="0.388889" y="0.388889" width="119.222" height="119.222" rx="59.6111" stroke="#D0D5DD" stroke-width="0.777778"/>
<path d="M71.7517 44.7103C76.2533 36.1537 82.582 35.5954 89.9052 36.1546C78.5136 44.0855 78.442 53.3874 76.2533 60.8837C73.1154 71.6313 71.7058 76.7586 66.2812 78.4746C63.0339 79.5018 59.5727 78.0286 57.7344 75.2711C68.7644 59.1856 66.5228 54.6493 71.7517 44.7103Z" fill="#FCFCFD"/>
<path d="M56.9987 76.6898C61.1817 81.8709 66.5818 80.2865 67.844 79.1772C62.705 85.8335 47.796 87.5145 42.5669 71.594C38.3836 58.8577 37.4928 55.1228 29.4688 52.9809C50.6096 48.8463 48.6176 66.309 56.9987 76.6898Z" fill="#FCFCFD"/>
</svg>
