<svg width="24" height="24" viewBox="0 0 24 24" fill="none" xmlns="http://www.w3.org/2000/svg">
<path d="M0 12C0 18.6274 5.37258 24 12 24C18.6274 24 24 18.6274 24 12C24 5.37258 18.6274 0 12 0C5.37258 0 0 5.37258 0 12Z" fill="white"/>
<path d="M17.7 9.07481C17.55 8.54981 17.175 8.1748 16.65 8.0248C15.75 7.7998 11.925 7.7998 11.925 7.7998C11.925 7.7998 8.175 7.7998 7.2 8.0248C6.675 8.1748 6.3 8.54981 6.15 9.07481C6 10.0498 6 11.9998 6 11.9998C6 11.9998 6 13.9498 6.225 14.9248C6.375 15.4498 6.75 15.8248 7.275 15.9748C8.175 16.1998 12 16.1998 12 16.1998C12 16.1998 15.75 16.1998 16.725 15.9748C17.25 15.8248 17.625 15.4498 17.775 14.9248C18 13.9498 18 11.9998 18 11.9998C18 11.9998 18 10.0498 17.7 9.07481ZM10.8 13.7998V10.1998L13.95 11.9998L10.8 13.7998Z" fill="#004DD1"/>
</svg>
