<svg width="24" height="24" viewBox="0 0 24 24" fill="none" xmlns="http://www.w3.org/2000/svg">
<path d="M0 12C0 18.6274 5.37258 24 12 24C18.6274 24 24 18.6274 24 12C24 5.37258 18.6274 0 12 0C5.37258 0 0 5.37258 0 12Z" fill="white"/>
<path d="M13.1416 11.0812L17.6089 6H16.5503L12.6714 10.4119L9.57328 6H6L10.6849 12.6716L6 18H7.05866L11.1549 13.3409L14.4267 18H18L13.1414 11.0812H13.1416ZM11.6916 12.7304L11.217 12.066L7.44011 6.77981H9.06615L12.1141 11.046L12.5888 11.7103L16.5508 17.2557H14.9248L11.6916 12.7306V12.7304Z" fill="#004DD1"/>
</svg>
