<svg width="24" height="24" viewBox="0 0 24 24" fill="none" xmlns="http://www.w3.org/2000/svg">
<path d="M0 12C0 18.6274 5.37258 24 12 24C18.6274 24 24 18.6274 24 12C24 5.37258 18.6274 0 12 0C5.37258 0 0 5.37258 0 12Z" fill="white"/>
<path d="M12.0004 6.90039C13.6504 6.90039 13.8754 6.90039 14.5504 6.90039C15.1504 6.90039 15.4504 7.05039 15.6754 7.12539C15.9754 7.27539 16.2004 7.35039 16.4254 7.57539C16.6504 7.80039 16.8004 8.02539 16.8754 8.32539C16.9504 8.55039 17.0254 8.85039 17.1004 9.45039C17.1004 10.1254 17.1004 10.2754 17.1004 12.0004C17.1004 13.7254 17.1004 13.8754 17.1004 14.5504C17.1004 15.1504 16.9504 15.4504 16.8754 15.6754C16.7254 15.9754 16.6504 16.2004 16.4254 16.4254C16.2004 16.6504 15.9754 16.8004 15.6754 16.8754C15.4504 16.9504 15.1504 17.0254 14.5504 17.1004C13.8754 17.1004 13.7254 17.1004 12.0004 17.1004C10.2754 17.1004 10.1254 17.1004 9.45039 17.1004C8.85039 17.1004 8.55039 16.9504 8.32539 16.8754C8.02539 16.7254 7.80039 16.6504 7.57539 16.4254C7.35039 16.2004 7.20039 15.9754 7.12539 15.6754C7.05039 15.4504 6.97539 15.1504 6.90039 14.5504C6.90039 13.8754 6.90039 13.7254 6.90039 12.0004C6.90039 10.2754 6.90039 10.1254 6.90039 9.45039C6.90039 8.85039 7.05039 8.55039 7.12539 8.32539C7.27539 8.02539 7.35039 7.80039 7.57539 7.57539C7.80039 7.35039 8.02539 7.20039 8.32539 7.12539C8.55039 7.05039 8.85039 6.97539 9.45039 6.90039C10.1254 6.90039 10.3504 6.90039 12.0004 6.90039ZM12.0004 5.77539C10.2754 5.77539 10.1254 5.77539 9.45039 5.77539C8.77539 5.77539 8.32539 5.92539 7.95039 6.07539C7.57539 6.22539 7.20039 6.45039 6.82539 6.82539C6.45039 7.20039 6.30039 7.50039 6.07539 7.95039C5.92539 8.32539 5.85039 8.77539 5.77539 9.45039C5.77539 10.1254 5.77539 10.3504 5.77539 12.0004C5.77539 13.7254 5.77539 13.8754 5.77539 14.5504C5.77539 15.2254 5.92539 15.6754 6.07539 16.0504C6.22539 16.4254 6.45039 16.8004 6.82539 17.1754C7.20039 17.5504 7.50039 17.7004 7.95039 17.9254C8.32539 18.0754 8.77539 18.1504 9.45039 18.2254C10.1254 18.2254 10.3504 18.2254 12.0004 18.2254C13.6504 18.2254 13.8754 18.2254 14.5504 18.2254C15.2254 18.2254 15.6754 18.0754 16.0504 17.9254C16.4254 17.7754 16.8004 17.5504 17.1754 17.1754C17.5504 16.8004 17.7004 16.5004 17.9254 16.0504C18.0754 15.6754 18.1504 15.2254 18.2254 14.5504C18.2254 13.8754 18.2254 13.6504 18.2254 12.0004C18.2254 10.3504 18.2254 10.1254 18.2254 9.45039C18.2254 8.77539 18.0754 8.32539 17.9254 7.95039C17.7754 7.57539 17.5504 7.20039 17.1754 6.82539C16.8004 6.45039 16.5004 6.30039 16.0504 6.07539C15.6754 5.92539 15.2254 5.85039 14.5504 5.77539C13.8754 5.77539 13.7254 5.77539 12.0004 5.77539Z" fill="#004DD1"/>
<path d="M12.0004 8.77539C10.2004 8.77539 8.77539 10.2004 8.77539 12.0004C8.77539 13.8004 10.2004 15.2254 12.0004 15.2254C13.8004 15.2254 15.2254 13.8004 15.2254 12.0004C15.2254 10.2004 13.8004 8.77539 12.0004 8.77539ZM12.0004 14.1004C10.8754 14.1004 9.90039 13.2004 9.90039 12.0004C9.90039 10.8754 10.8004 9.90039 12.0004 9.90039C13.1254 9.90039 14.1004 10.8004 14.1004 12.0004C14.1004 13.1254 13.1254 14.1004 12.0004 14.1004Z" fill="#004DD1"/>
<path d="M15.3004 9.45039C15.7146 9.45039 16.0504 9.1146 16.0504 8.70039C16.0504 8.28618 15.7146 7.95039 15.3004 7.95039C14.8862 7.95039 14.5504 8.28618 14.5504 8.70039C14.5504 9.1146 14.8862 9.45039 15.3004 9.45039Z" fill="#004DD1"/>
</svg>
