<svg width="25" height="24" viewBox="0 0 25 24" fill="none" xmlns="http://www.w3.org/2000/svg">
<path d="M5.15234 15H4.15234C3.62191 15 3.1132 14.7893 2.73813 14.4142C2.36306 14.0391 2.15234 13.5304 2.15234 13V4C2.15234 3.46957 2.36306 2.96086 2.73813 2.58579C3.1132 2.21071 3.62191 2 4.15234 2H13.1523C13.6828 2 14.1915 2.21071 14.5666 2.58579C14.9416 2.96086 15.1523 3.46957 15.1523 4V5M11.1523 9H20.1523C21.2569 9 22.1523 9.89543 22.1523 11V20C22.1523 21.1046 21.2569 22 20.1523 22H11.1523C10.0478 22 9.15234 21.1046 9.15234 20V11C9.15234 9.89543 10.0478 9 11.1523 9Z" stroke="#667085" stroke-width="2" stroke-linecap="round" stroke-linejoin="round"/>
</svg>
