<svg width="120" height="121" viewBox="0 0 120 121" fill="none" xmlns="http://www.w3.org/2000/svg">
<rect y="0.555664" width="120" height="120" rx="60" fill="white"/>
<path d="M71.7439 45.266C76.2455 36.7094 82.5742 36.1511 89.8974 36.7103C78.5058 44.6412 78.4342 53.9431 76.2455 61.4393C73.1075 72.187 71.698 77.3142 66.2734 79.0303C63.0261 80.0575 59.5649 78.5843 57.7266 75.8267C68.7566 59.7413 66.515 55.2049 71.7439 45.266Z" fill="#004DD1"/>
<path d="M56.9948 77.2455C61.1778 82.4266 66.5779 80.8422 67.8401 79.7328C62.7011 86.3892 47.7921 88.0701 42.563 72.1497C38.3797 59.4134 37.4889 55.6784 29.4648 53.5366C50.6057 49.402 48.6137 66.8647 56.9948 77.2455Z" fill="#004DD1"/>
</svg>
