<svg width="56" height="37" viewBox="0 0 56 37" fill="none" xmlns="http://www.w3.org/2000/svg">
<rect x="0.86925" y="0.86925" width="54.6535" height="35.3025" rx="6.40675" fill="white"/>
<rect x="0.86925" y="0.86925" width="54.6535" height="35.3025" rx="6.40675" stroke="#E5E7EB" stroke-width="0.2615"/>
<path d="M18.5928 13.9302C18.9557 13.4763 19.202 12.8669 19.137 12.2441C18.6058 12.2706 17.9576 12.5946 17.5823 13.0488C17.2453 13.4378 16.9471 14.0728 17.0248 14.6694C17.6211 14.7212 18.2169 14.3714 18.5928 13.9302Z" fill="#000008"/>
<path d="M19.1303 14.786C18.2643 14.7344 17.528 15.2774 17.1144 15.2774C16.7007 15.2774 16.0674 14.8119 15.3824 14.8245C14.4909 14.8376 13.6637 15.3416 13.2113 16.1433C12.2808 17.7471 12.9658 20.1261 13.8706 21.4323C14.3101 22.0785 14.8396 22.79 15.5375 22.7645C16.1968 22.7386 16.4552 22.3376 17.2566 22.3376C18.0574 22.3376 18.2902 22.7645 18.9881 22.7515C19.7119 22.7386 20.1644 22.105 20.6038 21.4582C21.1079 20.7215 21.3142 20.0102 21.3272 19.9712C21.3142 19.9582 19.9316 19.4278 19.9188 17.8374C19.9057 16.5057 21.0043 15.8722 21.056 15.8329C20.4356 14.9154 19.4663 14.8119 19.1303 14.786Z" fill="#000008"/>
<path d="M26.6705 12.9837C28.5527 12.9837 29.8634 14.2811 29.8634 16.1701C29.8634 18.0657 28.5258 19.3699 26.6234 19.3699H24.5394V22.684H23.0337V12.9837L26.6705 12.9837ZM24.5394 18.1061H26.267C27.5779 18.1061 28.324 17.4003 28.324 16.1768C28.324 14.9534 27.5779 14.2543 26.2738 14.2543H24.5394V18.1061Z" fill="#000008"/>
<path d="M30.2568 20.674C30.2568 19.437 31.2046 18.6775 32.8853 18.5833L34.8212 18.4691V17.9247C34.8212 17.1381 34.2901 16.6676 33.4029 16.6676C32.5624 16.6676 32.0381 17.0708 31.9105 17.7028H30.5392C30.6198 16.4255 31.7087 15.4844 33.4566 15.4844C35.1708 15.4844 36.2664 16.3919 36.2664 17.8103V22.684H34.8749V21.521H34.8414C34.4314 22.3075 33.5373 22.8049 32.6096 22.8049C31.2248 22.8049 30.2568 21.9445 30.2568 20.674ZM34.8212 20.0354V19.4775L33.0801 19.585C32.2129 19.6456 31.7222 20.0287 31.7222 20.6337C31.7222 21.2521 32.2331 21.6555 33.0129 21.6555C34.0279 21.6555 34.8212 20.9563 34.8212 20.0354Z" fill="#000008"/>
<path d="M37.5802 25.2855V24.1091C37.6875 24.1359 37.9295 24.1359 38.0506 24.1359C38.7228 24.1359 39.0858 23.8537 39.3075 23.1277C39.3075 23.1142 39.4354 22.6974 39.4354 22.6907L36.881 15.6121H38.4538L40.2422 21.3664H40.2689L42.0572 15.6121H43.5898L40.941 23.0536C40.3363 24.7679 39.6371 25.3191 38.1717 25.3191C38.0506 25.3191 37.6875 25.3056 37.5802 25.2855Z" fill="#000008"/>
</svg>
