<svg width="56" height="37" viewBox="0 0 56 37" fill="none" xmlns="http://www.w3.org/2000/svg">
<rect x="0.86925" y="0.86925" width="54.6535" height="35.3025" rx="6.40675" fill="white"/>
<rect x="0.86925" y="0.86925" width="54.6535" height="35.3025" rx="6.40675" stroke="#E5E7EB" stroke-width="0.2615"/>
<path d="M20.0178 18.6098C20.0178 20.5466 21.5389 22.048 23.4954 22.048C24.0489 22.048 24.522 21.9389 25.1064 21.6642V20.1517C24.5928 20.6653 24.1378 20.8728 23.555 20.8728C22.2606 20.8728 21.342 19.9345 21.342 18.6003C21.342 17.3357 22.2904 16.3378 23.4954 16.3378C24.1085 16.3378 24.5726 16.556 25.1064 17.0786V15.5666C24.5428 15.2808 24.0787 15.1621 23.5257 15.1621C21.5788 15.1621 20.0178 16.6944 20.0178 18.6098Z" fill="#251F1F"/>
<path d="M16.7196 17.01C16.7196 17.3655 16.9464 17.5539 17.7176 17.8392C19.1796 18.3741 19.6128 18.8477 19.6128 19.8946C19.6128 21.1698 18.6756 22.0576 17.3402 22.0576C16.3625 22.0576 15.6515 21.6728 15.0591 20.8036L15.8894 20.0042C16.1853 20.5764 16.6792 20.8829 17.2918 20.8829C17.8655 20.8829 18.2897 20.4875 18.2897 19.9537C18.2897 19.6769 18.1609 19.439 17.9044 19.2719C17.775 19.1926 17.519 19.0739 17.0161 18.8967C15.809 18.4624 15.3949 17.9978 15.3949 17.0898C15.3949 16.0115 16.2843 15.202 17.4498 15.202C18.1721 15.202 18.8331 15.449 19.3861 15.9328L18.7133 16.8131C18.3786 16.4378 18.0624 16.2792 17.6771 16.2792C17.1231 16.2792 16.7196 16.5948 16.7196 17.01Z" fill="#251F1F"/>
<path fill-rule="evenodd" clip-rule="evenodd" d="M9.16211 15.3111H7.27539V21.8995H9.152C10.1494 21.8995 10.8705 21.6643 11.5028 21.139C12.2543 20.5168 12.6987 19.579 12.6987 18.6098C12.6987 16.6656 11.2458 15.3111 9.16211 15.3111ZM10.663 20.2608C10.259 20.6248 9.73478 20.784 8.90452 20.784H8.55964V16.4277H8.90452C9.73478 16.4277 10.2383 16.5757 10.663 16.9605C11.1079 17.3559 11.3746 17.969 11.3746 18.6003C11.3746 19.2325 11.1079 19.8653 10.663 20.2608Z" fill="#251F1F"/>
<path d="M14.5753 15.3111H13.29V21.8995H14.5753V15.3111Z" fill="#251F1F"/>
<path d="M33.5389 15.3111L35.2963 19.736L37.076 15.3111H38.4689L35.6225 22.0687H34.9312L32.1354 15.3111H33.5389Z" fill="#251F1F"/>
<path d="M39.05 21.8995H42.6947V20.784H40.3343V19.0058H42.6074V17.8897H40.3343V16.4277H42.6947V15.3111H39.05V21.8995Z" fill="#251F1F"/>
<path fill-rule="evenodd" clip-rule="evenodd" d="M45.451 15.3111C46.9333 15.3111 47.7838 16.0227 47.7838 17.2559C47.7838 18.265 47.2499 18.927 46.2818 19.124L48.3559 21.8995H46.7757L44.9971 19.2528H44.8289V21.8995H43.5457V15.3111H45.451ZM44.8289 18.3443H45.2052C46.0258 18.3443 46.4607 17.9877 46.4607 17.3256C46.4607 16.6843 46.0258 16.3484 45.2248 16.3484H44.8289V18.3443Z" fill="#251F1F"/>
<path fill-rule="evenodd" clip-rule="evenodd" d="M48.8078 15.6566C48.8078 15.5405 48.7274 15.4772 48.5874 15.4772H48.4012V16.0584H48.5395V15.8333L48.7019 16.0584H48.8716L48.6806 15.8189C48.762 15.7965 48.8078 15.7369 48.8078 15.6566ZM48.563 15.7359H48.5395V15.5836H48.5646C48.6332 15.5836 48.6689 15.6087 48.6689 15.6587C48.6689 15.7098 48.6327 15.7359 48.563 15.7359Z" fill="#251F1F"/>
<path fill-rule="evenodd" clip-rule="evenodd" d="M48.109 15.7667C48.109 15.4852 48.3336 15.26 48.6151 15.26C48.8897 15.26 49.1154 15.4894 49.1154 15.7667C49.1154 16.0456 48.8897 16.2734 48.6151 16.2734C48.3357 16.2734 48.109 16.0477 48.109 15.7667ZM48.2095 15.7672C48.2095 15.9982 48.391 16.1829 48.613 16.1829C48.8344 16.1829 49.0143 15.9961 49.0143 15.7672C49.0143 15.5405 48.8344 15.351 48.613 15.351C48.3894 15.351 48.2095 15.5363 48.2095 15.7672Z" fill="#251F1F"/>
<g filter="url(#filter0_i_2002_13151)">
<path d="M29.0008 22.1C27.0752 22.1 25.5137 20.5385 25.5137 18.6129V18.6082C25.5137 17.6501 25.9016 16.7784 26.5291 16.1509C26.5291 16.1461 26.5339 16.1461 26.5339 16.1414C26.5387 16.1414 26.5387 16.1365 26.5435 16.1365C27.171 15.509 28.0428 15.1211 29.0008 15.1211H29.0056C30.9312 15.1211 32.4927 16.6826 32.4927 18.6082V18.6129C32.4927 19.571 32.1046 20.438 31.4772 21.0703C31.4772 21.075 31.4724 21.075 31.4724 21.0799C31.4676 21.0799 31.4676 21.0846 31.4629 21.0846C30.8305 21.7121 29.9636 22.1 29.0056 22.1H29.0008Z" fill="url(#paint0_linear_2002_13151)"/>
</g>
<defs>
<filter id="filter0_i_2002_13151" x="25.5137" y="15.1211" width="7.23398" height="7.36171" filterUnits="userSpaceOnUse" color-interpolation-filters="sRGB">
<feFlood flood-opacity="0" result="BackgroundImageFix"/>
<feBlend mode="normal" in="SourceGraphic" in2="BackgroundImageFix" result="shape"/>
<feColorMatrix in="SourceAlpha" type="matrix" values="0 0 0 0 0 0 0 0 0 0 0 0 0 0 0 0 0 0 127 0" result="hardAlpha"/>
<feOffset dx="0.255466" dy="0.383198"/>
<feGaussianBlur stdDeviation="0.255466"/>
<feComposite in2="hardAlpha" operator="arithmetic" k2="-1" k3="1"/>
<feColorMatrix type="matrix" values="0 0 0 0 0 0 0 0 0 0 0 0 0 0 0 0 0 0 0.35 0"/>
<feBlend mode="normal" in2="shape" result="effect1_innerShadow_2002_13151"/>
</filter>
<linearGradient id="paint0_linear_2002_13151" x1="27.1742" y1="15.1211" x2="32.9087" y2="19.9735" gradientUnits="userSpaceOnUse">
<stop stop-color="#EF3823"/>
<stop offset="0.489583" stop-color="#F04D22"/>
<stop offset="1" stop-color="#F7911D"/>
</linearGradient>
</defs>
</svg>
