<svg width="56" height="37" viewBox="0 0 56 37" fill="none" xmlns="http://www.w3.org/2000/svg">
<rect x="0.86925" y="0.86925" width="54.6535" height="35.3025" rx="6.40675" fill="white"/>
<rect x="0.86925" y="0.86925" width="54.6535" height="35.3025" rx="6.40675" stroke="#E5E7EB" stroke-width="0.2615"/>
<path d="M27.8637 12.8088L25.3267 24.6681H22.2589L24.7963 12.8088H27.8637ZM40.7711 20.4664L42.3862 16.0128L43.3156 20.4664H40.7711ZM44.194 24.6681H47.0316L44.5554 12.8088H41.9362C41.3476 12.8088 40.851 13.1511 40.63 13.6788L36.0273 24.6681H39.249L39.8886 22.8972H43.8246L44.194 24.6681ZM36.1873 20.7959C36.2004 17.6659 31.8587 17.4936 31.8887 16.0954C31.8977 15.6693 32.3034 15.2174 33.1897 15.1014C33.63 15.044 34.8405 15.0001 36.215 15.6326L36.7533 13.1177C36.015 12.8497 35.0649 12.5918 33.8833 12.5918C30.8512 12.5918 28.7169 14.204 28.6989 16.5124C28.6798 18.2195 30.2225 19.1722 31.385 19.7397C32.5801 20.3211 32.9817 20.6935 32.9765 21.2133C32.9686 22.0095 32.0231 22.3601 31.141 22.3739C29.5983 22.3983 28.703 21.9577 27.9895 21.6251L27.4336 24.2237C28.1501 24.5529 29.4733 24.8389 30.8459 24.8535C34.0684 24.8535 36.1767 23.2613 36.1873 20.7959ZM23.48 12.8088L18.5095 24.6681H15.2661L12.8203 15.2035C12.6716 14.6206 12.5425 14.4074 12.0909 14.1615C11.3541 13.7618 10.1361 13.386 9.06445 13.1533L9.13765 12.8088H14.3577C15.0228 12.8088 15.6215 13.2517 15.7724 14.0178L17.0644 20.8808L20.2568 12.8088H23.48Z" fill="#1434CB"/>
</svg>
