<svg width="56" height="37" viewBox="0 0 56 37" fill="none" xmlns="http://www.w3.org/2000/svg">
<rect x="0.86925" y="0.86925" width="54.6535" height="35.3025" rx="6.40675" fill="white"/>
<rect x="0.86925" y="0.86925" width="54.6535" height="35.3025" rx="6.40675" stroke="#E5E7EB" stroke-width="0.2615"/>
<path d="M41.6606 24.6444C41.6606 26.9488 39.7842 28.8252 37.4799 28.8252H14.7324V12.2667C14.7324 9.96235 16.6088 8.08594 18.9132 8.08594H41.6606V24.6444Z" fill="white"/>
<path d="M35.7856 9.48438C34.1396 9.48438 32.7899 10.8176 32.7899 12.48V15.5909H37.0201C37.1188 15.5909 37.234 15.5909 37.3163 15.6074C38.271 15.6568 38.9788 16.1506 38.9788 17.0065C38.9788 17.6813 38.5014 18.2574 37.6126 18.3726V18.4056C38.5837 18.4714 39.3244 19.0146 39.3244 19.854C39.3244 20.7593 38.5014 21.3518 37.4151 21.3518H32.7734V27.442H37.1682C38.8142 27.442 40.1639 26.1087 40.1639 24.4463V9.48438H35.7856Z" fill="url(#paint0_linear_2002_13145)"/>
<path d="M34.2549 20.3972H35.9832C36.0079 20.3972 36.049 20.3931 36.0902 20.389C36.1313 20.3848 36.1725 20.3807 36.1972 20.3807C36.5264 20.3149 36.8062 20.0186 36.8062 19.6071C36.8062 19.2121 36.5264 18.9158 36.1972 18.8335C36.1478 18.8171 36.049 18.8171 35.9832 18.8171H34.2549V20.3972Z" fill="url(#paint1_linear_2002_13145)"/>
<path d="M35.9832 16.4962C36.3124 16.5456 36.5922 16.809 36.5922 17.204C36.5922 17.599 36.3124 17.8624 35.9832 17.9118C35.9668 17.9282 35.868 17.9282 35.8186 17.9282H34.2549V16.4798H35.8186C35.8458 16.4798 35.883 16.4848 35.9164 16.4893C35.9436 16.4929 35.9684 16.4962 35.9832 16.4962Z" fill="url(#paint2_linear_2002_13145)"/>
<path d="M19.225 9.48438C17.5791 9.48438 16.2294 10.8176 16.2294 12.48V19.8705C17.0688 20.282 17.9412 20.5453 18.8135 20.5453C19.8505 20.5453 20.4101 19.9199 20.4101 19.0639V15.5745H22.9779V19.0475C22.9779 20.3972 22.1384 21.5 19.2909 21.5C17.5626 21.5 16.2129 21.1214 16.2129 21.1214V27.4255H20.6077C22.2536 27.4255 23.6033 26.0923 23.6033 24.4298V9.48438H19.225Z" fill="url(#paint3_linear_2002_13145)"/>
<path d="M27.5054 9.48438C25.8595 9.48438 24.5098 10.8176 24.5098 12.48V16.3975C25.2669 15.7555 26.5837 15.344 28.707 15.4428C29.8427 15.4922 31.0608 15.8049 31.0608 15.8049V17.0723C30.4518 16.7596 29.7275 16.4798 28.7893 16.4139C27.1763 16.2987 26.2051 17.0888 26.2051 18.4714C26.2051 19.8705 27.1763 20.6605 28.7893 20.5289C29.7275 20.463 30.4518 20.1667 31.0608 19.8705V21.1379C31.0608 21.1379 29.8592 21.4506 28.707 21.5C26.5837 21.5987 25.2669 21.1873 24.5098 20.5453V27.4584H28.9045C30.5505 27.4584 31.9002 26.1252 31.9002 24.4627V9.48438H27.5054Z" fill="url(#paint4_linear_2002_13145)"/>
<defs>
<linearGradient id="paint0_linear_2002_13145" x1="32.7871" y1="17.202" x2="40.184" y2="17.202" gradientUnits="userSpaceOnUse">
<stop stop-color="#007940"/>
<stop offset="0.2285" stop-color="#00873F"/>
<stop offset="0.7433" stop-color="#40A737"/>
<stop offset="1" stop-color="#5CB531"/>
</linearGradient>
<linearGradient id="paint1_linear_2002_13145" x1="32.7871" y1="17.202" x2="40.184" y2="17.202" gradientUnits="userSpaceOnUse">
<stop stop-color="#007940"/>
<stop offset="0.2285" stop-color="#00873F"/>
<stop offset="0.7433" stop-color="#40A737"/>
<stop offset="1" stop-color="#5CB531"/>
</linearGradient>
<linearGradient id="paint2_linear_2002_13145" x1="32.7871" y1="17.202" x2="40.184" y2="17.202" gradientUnits="userSpaceOnUse">
<stop stop-color="#007940"/>
<stop offset="0.2285" stop-color="#00873F"/>
<stop offset="0.7433" stop-color="#40A737"/>
<stop offset="1" stop-color="#5CB531"/>
</linearGradient>
<linearGradient id="paint3_linear_2002_13145" x1="16.2259" y1="18.456" x2="23.737" y2="18.456" gradientUnits="userSpaceOnUse">
<stop stop-color="#1F286F"/>
<stop offset="0.4751" stop-color="#004E94"/>
<stop offset="0.8261" stop-color="#0066B1"/>
<stop offset="1" stop-color="#006FBC"/>
</linearGradient>
<linearGradient id="paint4_linear_2002_13145" x1="24.4672" y1="18.456" x2="31.7622" y2="18.456" gradientUnits="userSpaceOnUse">
<stop stop-color="#6C2C2F"/>
<stop offset="0.1735" stop-color="#882730"/>
<stop offset="0.5731" stop-color="#BE1833"/>
<stop offset="0.8585" stop-color="#DC0436"/>
<stop offset="1" stop-color="#E60039"/>
</linearGradient>
</defs>
</svg>
