<svg width="56" height="37" viewBox="0 0 56 37" fill="none" xmlns="http://www.w3.org/2000/svg">
<rect x="0.86925" y="0.86925" width="54.6535" height="35.3025" rx="6.40675" fill="white"/>
<rect x="0.86925" y="0.86925" width="54.6535" height="35.3025" rx="6.40675" stroke="#E5E7EB" stroke-width="0.2615"/>
<path fill-rule="evenodd" clip-rule="evenodd" d="M55.4139 7.60414H50.9118L48.5586 14.3573L46.1028 7.60414H41.4986V18.1193L36.7918 7.60414H33.0062L28.2995 18.3475H31.5735L32.4944 16.199H37.4058L38.3267 18.3475H44.4658V10.8782L47.2284 18.3475H49.7863L52.5488 10.8782V18.3475H55.4139V19.9846H51.628L48.5586 23.3612L45.3867 19.9846H32.3922V30.728H45.2845L48.4561 27.2492L51.628 30.728H55.4139V32.0579H50.9118L48.4561 29.3978L46.0004 32.0579H30.7552V19.7799H25.8438L31.9829 5.9668H37.9173L40.0659 10.6736V5.9668H47.433L48.6607 9.54803L49.8887 5.9668H55.4139V7.60414ZM55.4139 22.3378L52.6513 25.3051L55.4139 28.2723V30.728L50.4003 25.3051L55.4139 19.9846V22.3378ZM41.4986 30.728V28.1701H35.3594V26.5331H41.3961V24.0773H35.3594V22.4403H41.4986V19.9846L46.6144 25.3051L41.4986 30.728ZM33.4153 13.8455L34.8479 10.3667L36.2803 13.8455H33.4153Z" fill="#006FCF"/>
</svg>
