<svg width="160" height="67" viewBox="0 0 160 67" fill="none" xmlns="http://www.w3.org/2000/svg">
<path d="M150.612 49.6475C148.563 51.6967 146.032 52.7012 143.058 52.7012C140.085 52.7012 137.553 51.6967 135.504 49.6475C133.455 47.5983 132.451 45.0669 132.451 42.0935C132.451 39.1201 133.455 36.6288 135.504 34.5796C137.553 32.5304 140.085 31.4857 143.058 31.4857C146.032 31.4857 148.563 32.5304 150.612 34.5796C152.662 36.6288 153.706 39.1201 153.706 42.0935C153.706 45.0669 152.662 47.5983 150.612 49.6475ZM139.161 46.0714C140.205 47.1161 141.491 47.6384 143.058 47.6384C144.625 47.6384 145.911 47.1161 146.956 46.0714C148.001 45.0267 148.523 43.7007 148.523 42.0935C148.523 40.4863 148.001 39.1603 146.956 38.1156C145.911 37.0709 144.625 36.5485 143.058 36.5485C141.491 36.5485 140.205 37.0709 139.161 38.1156C138.156 39.1603 137.634 40.4863 137.634 42.0935C137.634 43.7007 138.156 45.0267 139.161 46.0714Z" fill="#004DD1"/>
<path d="M131.274 23.4504V28.4328C128.421 28.2319 126.86 29.357 126.86 31.8482V32.0491H131.274V37.0316H126.86V52.1396H121.677V37.0316H117.894V33.9778C117.894 32.9126 118.757 32.0491 119.822 32.0491H121.677V31.8482C121.677 26.1827 125.006 23.0888 131.274 23.4504Z" fill="#004DD1"/>
<path d="M108.291 31.4857C110.501 31.4857 112.309 32.209 113.715 33.6957C115.162 35.1824 115.885 37.1914 115.885 39.8032V52.1387H110.702V40.446C110.702 37.7539 109.135 36.3074 106.724 36.3074C104.032 36.3074 102.304 37.9549 102.304 41.2899V52.1387H97.1205V36.7664C97.1205 36.5432 97.3443 36.3806 97.5624 36.4279C98.1228 36.5495 99.1224 36.6628 100.004 36.2218C101.316 35.5659 101.32 34.582 102.304 33.2701C103.288 31.9582 105.558 31.4857 108.291 31.4857Z" fill="#004DD1"/>
<path d="M93.6646 52.1393H88.2V31.6145C88.2 31.2676 88.7401 31.1338 88.941 31.4165C89.8137 32.6441 91.0428 33.5216 92.6358 33.7852C93.1986 33.8784 93.6646 34.3301 93.6646 34.9006V52.1393Z" fill="#004DD1"/>
<path d="M84.2507 32.0483V37.0307H79.7102V45.3883C79.7102 47.5581 81.2773 47.5983 84.2507 47.4375V52.1387C77.1386 52.9423 74.5269 50.8931 74.5269 45.3883V37.0307H71.0311V32.0483H74.5269V29.899C74.5269 28.7654 75.2692 27.7656 76.3543 27.4375L79.7102 26.4229V32.0483H84.2507Z" fill="#004DD1"/>
<path d="M69.5281 44.2231H54.3799C55.063 46.7545 56.9515 48.0001 60.0454 48.0001C62.0143 48.0001 63.5412 47.317 64.5457 45.991L68.7245 48.4019C66.7556 51.2547 63.8224 52.7012 59.9651 52.7012C56.63 52.7012 53.9781 51.6967 51.9691 49.6877C49.96 47.6786 48.9555 45.1472 48.9555 42.0935C48.9555 39.0799 49.96 36.5485 51.9289 34.5395C53.8977 32.4902 56.4693 31.4857 59.5633 31.4857C62.4965 31.4857 64.9475 32.4902 66.836 34.5395C68.7647 36.5887 69.729 39.0799 69.729 42.0935C69.729 42.7766 69.6487 43.4596 69.5281 44.2231ZM54.2996 40.205H64.5457C63.943 37.4727 61.9339 36.1467 59.5633 36.1467C56.7908 36.1467 54.9023 37.6334 54.2996 40.205Z" fill="#004DD1"/>
<path d="M46.0067 52.4497L40.2852 52.5099V42.0935C41.968 37.4728 41.6335 36.1467 42.6411 34.2754C43.4154 32.8373 44.9874 32.4424 45.6736 32.3366C45.8548 32.3087 46.0067 32.4522 46.0067 32.6355V52.4497Z" fill="#004DD1"/>
<path d="M97.2006 30.574C98.7137 32.1409 101.132 30.9646 99.1835 33.7127C97.6251 35.9122 95.4606 33.499 94.803 31.9077C95.9245 31.7121 96.8484 30.9499 97.2006 30.574Z" fill="#004DD1"/>
<path d="M95.8625 18.348C94.7414 21.9198 93.8071 23.2253 92.9086 23.8214C92.0101 24.4176 88.272 26.2123 90.5778 29.567C92.4225 32.2508 95.3059 31.03 96.5151 30.0838C93.6977 28.3196 93.2644 26.1562 93.4376 25.0987C94.6799 28.302 96.6092 29.0786 97.4136 29.4876C99.073 28.7293 99.6549 28.6877 102.664 29.0049C107.887 29.5554 104.877 23.8498 102.976 21.0836C101.237 18.5529 96.9835 14.7762 95.8625 18.348ZM103.668 27.1028C103.101 27.5208 101.081 26.6703 99.2713 24.0371C97.4614 21.404 97.0021 19.2994 97.7112 18.8813C98.4204 18.4633 100.299 19.5936 102.108 22.2256C103.917 24.8576 104.235 26.6847 103.668 27.1028Z" fill="#004DD1"/>
<path d="M35.8666 25.4673C39.0152 19.4825 43.4417 19.092 48.5638 19.4831C40.5961 25.0303 40.5461 31.5363 39.0152 36.7794C36.8204 44.2967 35.8345 47.8828 32.0404 49.0831C29.7692 49.8015 27.3483 48.7711 26.0625 46.8424C33.7772 35.5918 32.2094 32.4189 35.8666 25.4673Z" fill="#004DD1"/>
<path d="M25.5483 47.8358C28.474 51.4597 32.251 50.3515 33.1338 49.5756C29.5395 54.2312 19.1116 55.407 15.4542 44.2717C12.5283 35.3635 11.9052 32.7512 6.29297 31.2531C21.0795 28.3612 19.6863 40.5752 25.5483 47.8358Z" fill="#004DD1"/>
<path fill-rule="evenodd" clip-rule="evenodd" d="M109.993 16.4445C110.292 16.9146 110.16 17.5445 109.699 17.8514L105.649 20.5456C105.187 20.8525 104.571 20.7202 104.272 20.2501C103.973 19.7801 104.105 19.1502 104.567 18.8432L108.617 16.1491C109.078 15.8421 109.694 15.9744 109.993 16.4445Z" fill="#004DD1"/>
<path fill-rule="evenodd" clip-rule="evenodd" d="M111.656 22.8234C111.664 23.3708 111.22 23.8205 110.663 23.8277L106.432 23.8824C105.875 23.8896 105.417 23.4516 105.408 22.9042C105.399 22.3567 105.844 21.9071 106.401 21.8999L110.631 21.8452C111.188 21.838 111.647 22.2759 111.656 22.8234Z" fill="#004DD1"/>
<path fill-rule="evenodd" clip-rule="evenodd" d="M104.761 13.0289C105.246 13.2425 105.471 13.8199 105.263 14.3184L103.894 17.6013C103.686 18.0998 103.125 18.3307 102.64 18.1171C102.155 17.9034 101.93 17.3261 102.138 16.8276L103.507 13.5447C103.714 13.0462 104.276 12.8152 104.761 13.0289Z" fill="#004DD1"/>
</svg>
