<svg width="56" height="37" viewBox="0 0 56 37" fill="none" xmlns="http://www.w3.org/2000/svg">
<rect x="0.86925" y="0.86925" width="54.6535" height="35.3025" rx="6.40675" fill="white"/>
<rect x="0.86925" y="0.86925" width="54.6535" height="35.3025" rx="6.40675" stroke="#E5E7EB" stroke-width="0.2615"/>
<path d="M14.4186 23.7755C14.4186 24.2645 14.7681 24.3211 15.0788 24.3211C16.4499 24.3211 16.8996 23.2872 16.8996 22.3413C16.8996 21.1553 16.1385 20.2986 14.9137 20.2986C14.6534 20.2986 14.5335 20.3168 14.4186 20.3237V23.7755ZM13.7971 20.799C13.7971 20.2284 13.4985 20.266 13.2136 20.2595V20.0956C13.4606 20.107 13.7144 20.107 13.9621 20.107C14.2285 20.107 14.5905 20.0956 15.0602 20.0956C16.703 20.0956 17.598 21.1925 17.598 22.3163C17.598 22.9445 17.2304 24.5245 14.9839 24.5245C14.661 24.5245 14.3617 24.5123 14.0639 24.5123C13.7782 24.5123 13.4985 24.5188 13.2136 24.5245V24.359C13.5934 24.3211 13.7782 24.3085 13.7971 23.8772V20.799Z" fill="#231F20"/>
<path d="M18.4999 20.6475C18.3341 20.6475 18.1884 20.4948 18.1884 20.3302C18.1884 20.1713 18.3406 20.0248 18.4999 20.0248C18.6642 20.0248 18.8111 20.1584 18.8111 20.3302C18.8111 20.5014 18.671 20.6475 18.4999 20.6475ZM17.8204 24.3592H17.9411C18.1186 24.3592 18.2453 24.3592 18.2453 24.149V22.4303C18.2453 22.151 18.1508 22.1128 17.9152 21.9867V21.885C18.2139 21.7955 18.569 21.676 18.5948 21.6559C18.6392 21.6312 18.6767 21.6247 18.709 21.6247C18.7405 21.6247 18.753 21.6623 18.753 21.7132V24.149C18.753 24.3592 18.8934 24.3592 19.0701 24.3592H19.1783V24.5246C18.9624 24.5246 18.7405 24.5121 18.5121 24.5121C18.2836 24.5121 18.0552 24.5185 17.8204 24.5246V24.3592Z" fill="#231F20"/>
<path d="M19.7812 22.468C19.7812 22.2339 19.7114 22.1702 19.4136 22.0502V21.9289C19.686 21.8401 19.9458 21.757 20.251 21.6245C20.2699 21.6245 20.2885 21.6371 20.2885 21.6871V22.1007C20.6508 21.8401 20.962 21.6245 21.3873 21.6245C21.9264 21.6245 22.1169 22.0176 22.1169 22.5128V24.1491C22.1169 24.3594 22.2569 24.3594 22.434 24.3594H22.5483V24.5244C22.3255 24.5244 22.1036 24.5123 21.8759 24.5123C21.6471 24.5123 21.4187 24.5187 21.1904 24.5244V24.3594H21.3045C21.4825 24.3594 21.6085 24.3594 21.6085 24.1491V22.5067C21.6085 22.1444 21.3873 21.9672 21.025 21.9672C20.822 21.9672 20.4987 22.1319 20.2885 22.2718V24.1491C20.2885 24.3594 20.4292 24.3594 20.6068 24.3594H20.721V24.5244C20.4987 24.5244 20.276 24.5123 20.0472 24.5123C19.8195 24.5123 19.5908 24.5187 19.3623 24.5244V24.3594H19.4774C19.6545 24.3594 19.7812 24.3594 19.7812 24.1491V22.468Z" fill="#231F20"/>
<path d="M24.1544 22.5697C24.3122 22.5697 24.3308 22.4875 24.3308 22.4115C24.3308 22.0872 24.1343 21.8272 23.7792 21.8272C23.3925 21.8272 23.1259 22.1126 23.0496 22.5697H24.1544ZM23.031 22.7735C23.0177 22.8304 23.0177 22.9253 23.031 23.1411C23.0682 23.7444 23.4559 24.2392 23.9632 24.2392C24.3122 24.2392 24.5862 24.0483 24.8203 23.8138L24.9091 23.9026C24.617 24.2896 24.2558 24.6193 23.7356 24.6193C22.726 24.6193 22.5233 23.6424 22.5233 23.2364C22.5233 21.9926 23.3607 21.6246 23.8042 21.6246C24.3187 21.6246 24.8715 21.9479 24.8772 22.6202C24.8772 22.6593 24.8772 22.6968 24.8715 22.7352L24.8134 22.7735H23.031Z" fill="#231F20"/>
<path d="M25.0231 24.3592H25.1949C25.3724 24.3592 25.4985 24.3592 25.4985 24.149V22.3665C25.4985 22.1704 25.2643 22.1321 25.1691 22.0808V21.9868C25.6318 21.7895 25.8866 21.6248 25.9438 21.6248C25.9814 21.6248 26.0003 21.643 26.0003 21.7071V22.2778H26.014C26.1718 22.0307 26.4385 21.6248 26.8256 21.6248C26.9842 21.6248 27.1868 21.7319 27.1868 21.9606C27.1868 22.1321 27.0672 22.285 26.889 22.285C26.6916 22.285 26.6916 22.1321 26.4701 22.1321C26.3623 22.1321 26.0068 22.2778 26.0068 22.6594V24.149C26.0068 24.3592 26.1335 24.3592 26.3111 24.3592H26.6665V24.5247C26.3176 24.5186 26.0516 24.5121 25.7788 24.5121C25.5181 24.5121 25.2518 24.5186 25.0231 24.5247V24.3592Z" fill="#231F20"/>
<path d="M27.4658 23.6425C27.5489 24.061 27.8028 24.4168 28.2661 24.4168C28.6401 24.4168 28.779 24.1881 28.779 23.9661C28.779 23.2175 27.3968 23.4577 27.3968 22.4367C27.3968 22.0808 27.6825 21.6247 28.3806 21.6247C28.5832 21.6247 28.856 21.6817 29.1035 21.8084L29.1482 22.4557H29.0025C28.9391 22.0562 28.7163 21.827 28.3104 21.827C28.0563 21.827 27.8157 21.9734 27.8157 22.2462C27.8157 22.9892 29.2874 22.7603 29.2874 23.7566C29.2874 24.1751 28.9512 24.6194 28.1966 24.6194C27.9416 24.6194 27.6438 24.531 27.4218 24.4044L27.3521 23.6743L27.4658 23.6425Z" fill="#231F20"/>
<path d="M35.0174 21.2435H34.8588C34.7385 20.5014 34.2115 20.2032 33.5017 20.2032C32.7709 20.2032 31.7109 20.6914 31.7109 22.2136C31.7109 23.4964 32.6264 24.4168 33.6026 24.4168C34.2309 24.4168 34.7515 23.9855 34.8785 23.3188L35.0239 23.3564L34.8785 24.2833C34.6118 24.4487 33.894 24.6194 33.4751 24.6194C31.9905 24.6194 31.0522 23.6614 31.0522 22.2337C31.0522 20.9328 32.2128 19.9997 33.4569 19.9997C33.971 19.9997 34.4654 20.1648 34.9541 20.3359L35.0174 21.2435Z" fill="#231F20"/>
<path d="M35.2457 24.3592H35.3668C35.5447 24.3592 35.6717 24.3592 35.6717 24.149V20.6164C35.6717 20.2032 35.5765 20.1903 35.3353 20.1209V20.0191C35.5887 19.9365 35.8555 19.8232 35.989 19.7459C36.0584 19.7081 36.1096 19.6757 36.1283 19.6757C36.167 19.6757 36.1791 19.7141 36.1791 19.7653V24.149C36.1791 24.3592 36.3191 24.3592 36.4967 24.3592H36.6044V24.5247C36.3897 24.5247 36.167 24.5121 35.9378 24.5121C35.7101 24.5121 35.4817 24.5186 35.2457 24.5247V24.3592Z" fill="#231F20"/>
<path d="M39.3209 24.175C39.3209 24.29 39.3899 24.2957 39.4984 24.2957C39.5739 24.2957 39.67 24.29 39.7526 24.29V24.4235C39.4786 24.4486 38.9589 24.5818 38.8374 24.6197L38.8064 24.6007V24.0874C38.4263 24.3981 38.1334 24.6197 37.6823 24.6197C37.34 24.6197 36.9853 24.3981 36.9853 23.8655V22.2405C36.9853 22.075 36.9594 21.916 36.6051 21.8849V21.7643C36.8338 21.7574 37.34 21.7202 37.423 21.7202C37.4937 21.7202 37.4937 21.7643 37.4937 21.9039V23.5406C37.4937 23.7308 37.4937 24.2767 38.0453 24.2767C38.2604 24.2767 38.5461 24.1113 38.8125 23.8909V22.1824C38.8125 22.056 38.5082 21.9866 38.2801 21.9225V21.8083C38.8512 21.7699 39.2071 21.7202 39.27 21.7202C39.3209 21.7202 39.3209 21.7643 39.3209 21.8345V24.175Z" fill="#231F20"/>
<path d="M40.5831 23.8073C40.5831 24.0486 40.8115 24.4546 41.2371 24.4546C41.9167 24.4546 42.202 23.7879 42.202 23.2229C42.202 22.5382 41.6815 21.9672 41.1867 21.9672C40.9507 21.9672 40.7546 22.1197 40.5831 22.2661V23.8073ZM40.5831 22.0809C40.8368 21.8658 41.1803 21.6249 41.529 21.6249C42.265 21.6249 42.7093 22.2661 42.7093 22.957C42.7093 23.7879 42.1003 24.6196 41.192 24.6196C40.7223 24.6196 40.4756 24.4674 40.3103 24.398L40.1201 24.5433L39.9873 24.4739C40.0431 24.0998 40.0753 23.731 40.0753 23.3444V20.6164C40.0753 20.2033 39.9805 20.19 39.7392 20.1206V20.0189C39.9939 19.9365 40.2594 19.8232 40.3929 19.7457C40.4625 19.7082 40.5132 19.6759 40.533 19.6759C40.5709 19.6759 40.5831 19.7142 40.5831 19.7655V22.0809Z" fill="#231F20"/>
<path d="M13.2064 28.2137H13.2547C13.3787 28.2137 13.5104 28.1973 13.5104 28.0171V26.2085C13.5104 26.0283 13.3787 26.012 13.2547 26.012H13.2064V25.9069C13.3415 25.9069 13.5484 25.9213 13.7179 25.9213C13.8905 25.9213 14.0973 25.9069 14.2594 25.9069V26.012H14.2111C14.0871 26.012 13.9554 26.0283 13.9554 26.2085V28.0171C13.9554 28.1973 14.0871 28.2137 14.2111 28.2137H14.2594V28.318C14.0939 28.318 13.8864 28.3044 13.7141 28.3044C13.5445 28.3044 13.3415 28.318 13.2064 28.318V28.2137Z" fill="#231F20"/>
<path d="M14.2446 28.3031L14.2449 28.2295H14.2116C14.0883 28.2295 13.9411 28.2079 13.9403 28.017V26.2083C13.9411 26.0176 14.0883 25.9963 14.2116 25.9963H14.2446V25.9231C14.0852 25.9231 13.8853 25.9364 13.718 25.9364C13.5541 25.9364 13.3553 25.9234 13.2217 25.9231V25.9963H13.2547C13.3777 25.9963 13.5248 26.0176 13.5248 26.2083V28.017C13.5248 28.2079 13.3777 28.2295 13.2547 28.2295H13.2217V28.3031C13.3553 28.3012 13.5507 28.2891 13.7142 28.2891C13.8822 28.2891 14.0822 28.302 14.2446 28.3031ZM14.2594 28.3327C14.0928 28.3327 13.8857 28.3191 13.7142 28.3191C13.545 28.3191 13.342 28.3327 13.2065 28.3327H13.1914V28.1995H13.2547C13.38 28.1965 13.4941 28.1863 13.4949 28.017V26.2083C13.4941 26.0396 13.38 26.0281 13.2547 26.0259H13.1914V25.8931H13.2065C13.342 25.8931 13.5487 25.9064 13.718 25.9064C13.8898 25.9064 14.0963 25.8931 14.2594 25.8931H14.2746V26.0259H14.2116C14.086 26.0281 13.9711 26.0396 13.9707 26.2083V28.017C13.9711 28.1863 14.086 28.1965 14.2116 28.1995H14.2746V28.3327H14.2594Z" fill="#231F20"/>
<path d="M16.6319 27.6376L16.6387 27.6308V26.3358C16.6387 26.0528 16.4417 26.0118 16.3378 26.0118H16.2623V25.9072C16.4242 25.9072 16.5837 25.9212 16.7457 25.9212C16.8868 25.9212 17.0291 25.9072 17.1699 25.9072V26.0118H17.119C16.9733 26.0118 16.8105 26.0388 16.8105 26.4497V28.0212C16.8105 28.1418 16.8147 28.2624 16.8318 28.3695H16.7005L14.9222 26.3879V27.8098C14.9222 28.1111 14.9807 28.2135 15.2467 28.2135H15.305V28.3178C15.1571 28.3178 15.0084 28.3042 14.8596 28.3042C14.7052 28.3042 14.5458 28.3178 14.3906 28.3178V28.2135H14.4388C14.6771 28.2135 14.75 28.0523 14.75 27.7757V26.3218C14.75 26.1283 14.5903 26.0118 14.4354 26.0118H14.3906V25.9072C14.5212 25.9072 14.6562 25.9212 14.7871 25.9212C14.891 25.9212 14.9916 25.9072 15.0948 25.9072L16.6319 27.6376Z" fill="#231F20"/>
<path d="M16.6236 27.6306V27.6294L16.6205 27.6272L16.6236 27.6306ZM16.7002 28.3545H16.8148C16.7993 28.2509 16.7966 28.1355 16.7966 28.0214V26.4495C16.7966 26.0352 16.9701 25.9965 17.1187 25.9965H17.1552V25.9228C17.0189 25.9236 16.8827 25.9365 16.7458 25.9365C16.5876 25.9365 16.4335 25.9236 16.2772 25.9228V25.9965H16.3375C16.4441 25.9965 16.6532 26.0435 16.6532 26.336L16.649 27.6412L16.6419 27.6477L16.63 27.6586L15.095 25.9228C14.9921 25.9228 14.892 25.9365 14.7873 25.9365C14.6609 25.9365 14.5307 25.9236 14.4056 25.9228L14.4052 25.9965H14.4355C14.5976 25.9965 14.7645 26.1202 14.7645 26.322V27.7759C14.7645 28.0525 14.6875 28.2285 14.439 28.2296L14.4056 28.2285V28.3032C14.5551 28.3014 14.7087 28.2889 14.8597 28.2889C15.0043 28.2889 15.1477 28.3014 15.2899 28.3032V28.2296H15.2464C14.9747 28.2285 14.9071 28.1109 14.9071 27.81V26.3489L16.7002 28.3545ZM16.8315 28.3848L16.6893 28.3795L14.9367 26.4267V27.81C14.9412 28.1109 14.9868 28.1959 15.2464 28.1996H15.3207V28.3324H15.3051C15.1561 28.3324 15.0073 28.3192 14.8597 28.3192C14.7057 28.3192 14.5471 28.3324 14.3901 28.3324H14.3749V28.1996H14.439C14.6674 28.1978 14.7323 28.0514 14.7353 27.7759V26.322C14.7345 26.1383 14.5835 26.0264 14.4355 26.026H14.3749V25.8929H14.3901C14.5224 25.8929 14.6571 25.9066 14.7873 25.9066C14.8897 25.9066 14.9899 25.8929 15.1064 25.8982L16.6236 27.6059V26.336C16.6218 26.0613 16.4389 26.0283 16.3375 26.026H16.2464V25.8929H16.262C16.4248 25.8929 16.5842 25.9066 16.7458 25.9066C16.8858 25.9066 17.0277 25.8929 17.17 25.8929H17.1855V26.026H17.1187C16.9757 26.0302 16.83 26.0431 16.8258 26.4495V28.0214C16.8258 28.1413 16.8293 28.2619 16.8459 28.3673L16.849 28.3848H16.8315Z" fill="#231F20"/>
<path d="M17.687 26.0801C17.4278 26.0801 17.4183 26.1423 17.366 26.3941H17.2628C17.2768 26.2979 17.2935 26.201 17.3045 26.1005C17.3178 26.0042 17.3249 25.9071 17.3249 25.8076H17.4081C17.4358 25.9112 17.5219 25.9071 17.6152 25.9071H19.3969C19.4899 25.9071 19.5764 25.904 19.5836 25.8004L19.6656 25.8148C19.653 25.9071 19.6389 26.0007 19.6284 26.0941C19.6212 26.187 19.6212 26.2807 19.6212 26.3737L19.518 26.4124C19.5111 26.2841 19.4933 26.0801 19.2622 26.0801H18.6962V27.9171C18.6962 28.1839 18.8172 28.2138 18.9826 28.2138H19.0478V28.3177C18.9136 28.3177 18.6715 28.3042 18.4852 28.3042C18.2785 28.3042 18.036 28.3177 17.9013 28.3177V28.2138H17.967C18.1574 28.2138 18.2534 28.1971 18.2534 27.9247V26.0801H17.687Z" fill="#231F20"/>
<path d="M19.0487 28.3325C18.9124 28.3325 18.6708 28.3189 18.4853 28.3189C18.2785 28.3189 18.0375 28.3325 17.9014 28.3325H17.8869V28.1994H17.9673C18.1578 28.1948 18.2345 28.1925 18.2382 27.9246V26.0948H17.6869V26.0655H18.2686V27.9246C18.2686 28.2013 18.1571 28.2297 17.9673 28.2297H17.9165V28.3025C18.0531 28.3014 18.2849 28.289 18.4853 28.289C18.6655 28.289 18.8962 28.3014 19.0327 28.3025V28.2297H18.9826C18.8157 28.2297 18.6807 28.1891 18.6807 27.9171V26.0655H19.2622C19.4941 26.0659 19.5245 26.2625 19.5317 26.3908L19.6072 26.3631C19.6072 26.2735 19.6076 26.1832 19.6132 26.0917C19.623 26.0037 19.636 25.9153 19.6489 25.827L19.5965 25.8182C19.5795 25.9184 19.4826 25.9241 19.3966 25.9229H17.5974C17.5159 25.9229 17.4278 25.9188 17.3971 25.8227H17.3394C17.3394 25.9184 17.3326 26.0105 17.3189 26.1031C17.309 26.1977 17.2939 26.289 17.2809 26.3793H17.3546C17.4006 26.1396 17.4297 26.0614 17.6869 26.0655V26.0948C17.432 26.1001 17.4377 26.1426 17.3808 26.398L17.3789 26.4097H17.2454L17.2476 26.3919C17.2609 26.2956 17.2791 26.1987 17.2897 26.0982C17.3033 26.0026 17.3102 25.9066 17.3102 25.8075V25.7924H17.4199L17.4221 25.8034C17.446 25.8907 17.5094 25.8911 17.5974 25.8929H19.3966C19.4922 25.8911 19.5627 25.8896 19.5684 25.7992L19.5696 25.7833L19.5851 25.7864L19.6823 25.8015L19.6807 25.8163C19.6671 25.9093 19.6534 26.0027 19.6435 26.0948C19.6364 26.1874 19.6364 26.2807 19.6364 26.3736V26.3842L19.6265 26.3884L19.504 26.4333L19.5036 26.4123C19.4941 26.283 19.4804 26.0948 19.2622 26.0948H18.711V27.9171C18.7144 28.1777 18.818 28.196 18.9826 28.1994H19.0627V28.3325H19.0487Z" fill="#231F20"/>
<path d="M19.7765 28.2137H19.8247C19.9487 28.2137 20.08 28.1973 20.08 28.0171V26.2085C20.08 26.0283 19.9487 26.012 19.8247 26.012H19.7765V25.9069C19.9863 25.9069 20.3467 25.9213 20.6359 25.9213C20.9265 25.9213 21.2851 25.9069 21.5191 25.9069C21.5135 26.0559 21.5168 26.2844 21.5271 26.4361L21.4228 26.4638C21.4064 26.2396 21.3647 26.0602 21.002 26.0602H20.5232V26.9639H20.9329C21.1405 26.9639 21.1857 26.8474 21.2058 26.6608H21.3089C21.3025 26.7954 21.2987 26.9297 21.2987 27.0645C21.2987 27.1961 21.3025 27.327 21.3089 27.4579L21.2058 27.4787C21.1857 27.2716 21.175 27.137 20.9364 27.137H20.5232V27.9413C20.5232 28.1659 20.7227 28.1659 20.9431 28.1659C21.3583 28.1659 21.5408 28.1382 21.6443 27.7447L21.7407 27.769C21.696 27.9526 21.6545 28.1343 21.6235 28.318C21.4031 28.318 21.0054 28.3044 20.6947 28.3044C20.3836 28.3044 19.9731 28.318 19.7765 28.318V28.2137Z" fill="#231F20"/>
<path d="M21.611 28.3025C21.6405 28.1284 21.68 27.9539 21.7229 27.7801L21.6545 27.763C21.551 28.1496 21.3511 28.1838 20.9431 28.1808C20.7254 28.1808 20.508 28.1808 20.5069 27.9414V27.1222H20.9364C21.1777 27.1192 21.2015 27.2652 21.2186 27.4618L21.2934 27.4462C21.2873 27.3191 21.2839 27.1909 21.2839 27.0646C21.2839 26.9351 21.2873 26.8058 21.2934 26.6748H21.2186C21.1997 26.8555 21.1439 26.9814 20.9326 26.9792H20.5069V26.0443H21.002C21.3613 26.0424 21.4212 26.228 21.4361 26.4441L21.5104 26.424C21.5047 26.3265 21.5013 26.2025 21.5013 26.0872C21.5013 26.0269 21.5024 25.9718 21.5039 25.9229C21.2695 25.9236 20.9197 25.9366 20.6359 25.9366C20.3524 25.9366 20.0027 25.9236 19.7913 25.9229V25.9965H19.8247C19.948 25.9965 20.0948 26.0177 20.0957 26.2081V28.0172C20.0948 28.2076 19.948 28.2282 19.8247 28.2296H19.7913V28.3025C19.992 28.3018 20.3916 28.2889 20.6947 28.2889C20.9993 28.2889 21.3879 28.3018 21.611 28.3025ZM21.6235 28.3325C21.4019 28.3325 21.0051 28.3185 20.6947 28.3185C20.3836 28.3185 19.9738 28.3325 19.7765 28.3325H19.7613V28.1997H19.8247C19.9495 28.1974 20.0637 28.1861 20.0649 28.0172V26.2081C20.0637 26.0402 19.9495 26.0287 19.8247 26.0257H19.7613V25.8929H19.7765C19.9867 25.8929 20.3467 25.9066 20.6359 25.9066C20.9257 25.9066 21.2843 25.8929 21.5191 25.8929H21.5347V25.9081C21.5316 25.9601 21.5305 26.0212 21.5305 26.0872C21.5305 26.2059 21.5347 26.3364 21.5412 26.4347V26.4472L21.5301 26.4507L21.4087 26.4825L21.4084 26.4643C21.3879 26.2408 21.3583 26.0777 21.002 26.0747H20.5369V26.9488H20.9326C21.1321 26.9472 21.1671 26.8452 21.1906 26.6589L21.1921 26.6457H21.3249V26.6608C21.3177 26.7955 21.3135 26.9298 21.3135 27.0646C21.3135 27.195 21.3177 27.3263 21.3249 27.4579V27.4698L21.3124 27.4728L21.1921 27.4963L21.1906 27.4804C21.1671 27.2698 21.1659 27.1545 20.9364 27.1518L20.5369 27.151V27.9414C20.5372 28.1512 20.7178 28.15 20.9431 28.1512C21.3594 28.1489 21.5256 28.1284 21.6295 27.7406L21.633 27.7265L21.6478 27.7296L21.7582 27.7581L21.7551 27.7725C21.7104 27.9546 21.6693 28.1379 21.6383 28.3199L21.636 28.3325H21.6235Z" fill="#231F20"/>
<path d="M22.6492 27.0745H22.8178C23.1634 27.0745 23.3497 26.944 23.3497 26.5362C23.3497 26.2295 23.1527 26.0319 22.8455 26.0319C22.7411 26.0319 22.697 26.0428 22.6492 26.0459V27.0745ZM22.2072 26.2735C22.2072 26.0212 22.0691 26.0117 21.9622 26.0117H21.8992V25.9071C22.0096 25.9071 22.2239 25.9211 22.4349 25.9211C22.6412 25.9211 22.8074 25.9071 22.9911 25.9071C23.4251 25.9071 23.8118 26.0247 23.8118 26.5156C23.8118 26.826 23.6054 27.0156 23.3326 27.1238L23.9234 28.0066C24.0197 28.1531 24.088 28.1937 24.2576 28.2138V28.3177C24.1438 28.3177 24.0334 28.3042 23.9195 28.3042C23.8118 28.3042 23.7017 28.3177 23.5948 28.3177C23.3292 27.9695 23.1008 27.5961 22.8765 27.1985H22.6492V27.9376C22.6492 28.2044 22.7729 28.2138 22.9316 28.2138H22.9945V28.3177C22.7968 28.3177 22.5969 28.3042 22.4 28.3042C22.2346 28.3042 22.0722 28.3177 21.8992 28.3177V28.2138H21.9622C22.0889 28.2138 22.2072 28.1558 22.2072 28.0275V26.2735Z" fill="#231F20"/>
<path d="M22.8179 27.0597C23.1594 27.0564 23.332 26.938 23.3349 26.5365C23.3335 26.2354 23.1457 26.0482 22.8452 26.0464C22.7518 26.0464 22.7082 26.0548 22.6641 26.0597V27.0597H22.8179ZM22.8179 27.089H22.6338V26.0316L22.6467 26.0304C22.6941 26.0267 22.7404 26.0176 22.8452 26.0176C23.1594 26.0176 23.3642 26.222 23.3649 26.5365C23.3638 26.9486 23.1658 27.089 22.8179 27.089ZM22.6338 27.1838H22.8846L22.8888 27.1914C23.1134 27.5886 23.3407 27.9613 23.5949 28.3031C23.7004 28.3031 23.8115 28.2891 23.9185 28.2891C24.0289 28.2891 24.1356 28.3008 24.2429 28.3023V28.2265C24.0805 28.207 24.005 28.1586 23.911 28.0155L23.3096 27.1163L23.327 27.1091C23.5972 27.0029 23.7971 26.8185 23.7975 26.5149C23.7971 26.0365 23.4246 25.9246 22.9913 25.9231C22.8088 25.9231 22.6421 25.9364 22.435 25.9364C22.2312 25.9364 22.0271 25.9234 21.9141 25.9231V25.9967H21.9619C22.0689 25.9967 22.221 26.0141 22.221 26.2736V28.0276C22.221 28.1666 22.092 28.2295 21.9619 28.2295H21.9141V28.3023C22.0806 28.302 22.2373 28.2891 22.3993 28.2891C22.5928 28.2891 22.7875 28.302 22.9787 28.3023V28.2295H22.9316C22.7741 28.2295 22.6338 28.2101 22.6338 27.9377V27.1838ZM24.2577 28.3323C24.142 28.3323 24.0323 28.3191 23.9185 28.3191C23.8137 28.3191 23.7031 28.3323 23.5824 28.3273C23.3183 27.9794 23.0914 27.6087 22.868 27.2138H22.6641V27.9377C22.6676 28.1976 22.7719 28.1953 22.9316 28.1995H23.0091V28.3323H22.9935C22.7958 28.3323 22.5951 28.3191 22.3993 28.3191C22.2343 28.3191 22.0726 28.3323 21.8989 28.3323H21.8848V28.1995H21.9619C22.0863 28.1984 22.1902 28.1442 22.1914 28.0276V26.2736C22.1892 26.0289 22.0689 26.0293 21.9619 26.0259H21.8848V25.8931H21.8989C22.0116 25.8931 22.2244 25.9064 22.435 25.9064C22.6407 25.9064 22.8068 25.8931 22.9913 25.8931C23.4256 25.8931 23.8267 26.0141 23.8278 26.5149C23.8278 26.8268 23.6214 27.0215 23.3554 27.1299L23.9352 27.9985C24.0316 28.1418 24.0915 28.1779 24.2596 28.1995L24.2721 28.2007V28.3323H24.2577Z" fill="#231F20"/>
<path d="M26.6017 27.6376L26.6082 27.6308V26.3358C26.6082 26.0528 26.4116 26.0118 26.3084 26.0118H26.2322V25.9072C26.395 25.9072 26.5528 25.9212 26.716 25.9212C26.8578 25.9212 26.999 25.9072 27.1409 25.9072V26.0118H27.0896C26.9444 26.0118 26.7815 26.0388 26.7815 26.4497V28.0212C26.7815 28.1418 26.7846 28.2624 26.8016 28.3695H26.6712L24.8929 26.3879V27.8098C24.8929 28.1111 24.9517 28.2135 25.2177 28.2135H25.2768V28.3178C25.1278 28.3178 24.979 28.3042 24.8306 28.3042C24.6751 28.3042 24.5165 28.3178 24.3613 28.3178V28.2135H24.4087C24.6477 28.2135 24.7199 28.0523 24.7199 27.7757V26.3218C24.7199 26.1283 24.5609 26.0118 24.4061 26.0118H24.3613V25.9072C24.4919 25.9072 24.6276 25.9212 24.7582 25.9212C24.8614 25.9212 24.9616 25.9072 25.0652 25.9072L26.6017 27.6376Z" fill="#231F20"/>
<path d="M26.5935 27.6306V27.6294L26.5915 27.6272L26.5935 27.6306ZM26.6713 28.3545H26.784C26.7695 28.2513 26.7665 28.1355 26.7665 28.0214V26.4495C26.7665 26.0352 26.9414 25.9973 27.0894 25.9965H27.1253V25.9228C26.9895 25.9236 26.8529 25.9365 26.716 25.9365C26.5578 25.9365 26.403 25.9236 26.2475 25.9228V25.9965H26.3085C26.4147 25.9973 26.6242 26.0435 26.6242 26.336L26.6192 27.6412L26.6128 27.6477L26.6018 27.6594L25.0652 25.9228C24.9628 25.9228 24.8618 25.9365 24.7582 25.9365C24.63 25.9365 24.501 25.9236 24.3758 25.9228V25.9965H24.4058C24.5682 25.9973 24.7348 26.1194 24.7348 26.322V27.7755C24.7348 28.0525 24.6562 28.2285 24.4085 28.2296H24.3758V28.3025C24.5253 28.3014 24.679 28.2889 24.8307 28.2889C24.9749 28.2889 25.1183 28.3014 25.2613 28.3025V28.2296H25.2178C24.9456 28.2296 24.8778 28.1113 24.877 27.81V26.3489L26.6713 28.3545ZM26.8017 28.3848L26.6598 28.3795L24.9078 26.4267V27.81C24.9119 28.1113 24.9575 28.1959 25.2178 28.1996H25.291V28.3324H25.2761C25.1266 28.3324 24.9783 28.3184 24.8307 28.3184C24.6763 28.3184 24.5162 28.3324 24.3614 28.3324H24.345V28.1996H24.4085C24.6365 28.1986 24.7025 28.0514 24.7048 27.7755V26.322C24.704 26.1376 24.5542 26.0264 24.4058 26.026H24.345V25.8929H24.3614C24.4927 25.8929 24.6281 25.9066 24.7582 25.9066C24.86 25.9066 24.9597 25.8929 25.0755 25.8971L26.5935 27.6059V26.336C26.5931 26.0613 26.4086 26.0276 26.3085 26.026H26.2171V25.8929H26.2323C26.3958 25.8929 26.5547 25.9066 26.716 25.9066C26.8564 25.9066 26.9983 25.8929 27.1405 25.8929H27.1553V26.026H27.0894C26.947 26.0295 26.8002 26.0431 26.7965 26.4495V28.0214C26.7965 28.1413 26.7994 28.2608 26.8169 28.3673L26.8185 28.3848H26.8017Z" fill="#231F20"/>
<path d="M28.2005 26.2942H28.1937L27.8723 27.2716H28.5176L28.2005 26.2942ZM27.697 27.824C27.6617 27.9413 27.6196 28.0319 27.6196 28.093C27.6196 28.197 27.7657 28.2137 27.8791 28.2137H27.9174V28.3176C27.7785 28.3108 27.6375 28.3044 27.4989 28.3044C27.3745 28.3044 27.2508 28.3108 27.1268 28.3176V28.2137H27.1469C27.2815 28.2137 27.3961 28.1343 27.4466 27.9894L27.9997 26.4055C28.0445 26.2772 28.1075 26.105 28.1276 25.9763C28.2381 25.9388 28.3765 25.87 28.4422 25.8283C28.4527 25.8246 28.4581 25.8219 28.4695 25.8219C28.4794 25.8219 28.4866 25.8219 28.4938 25.8318C28.504 25.8595 28.5143 25.8905 28.5252 25.9182L29.16 27.7242C29.2013 27.8449 29.2431 27.9731 29.2875 28.0767C29.3291 28.1731 29.402 28.2137 29.5159 28.2137H29.536V28.3176C29.3812 28.3108 29.2256 28.3044 29.0603 28.3044C28.8914 28.3044 28.7184 28.3108 28.5427 28.3176V28.2137H28.5806C28.6596 28.2137 28.7943 28.2008 28.7943 28.1142C28.7943 28.0692 28.7635 27.9758 28.7244 27.8654L28.5901 27.4647H27.8063L27.697 27.824Z" fill="#231F20"/>
<path d="M27.8923 27.257H28.4967L28.1962 26.3311L27.8923 27.257ZM27.851 27.2869L28.1818 26.2796H28.2106L28.5384 27.2869H27.851ZM28.557 28.3014C28.7274 28.2961 28.8955 28.289 29.0602 28.289C29.221 28.289 29.3709 28.2961 29.5211 28.3014V28.2297H29.5158C29.3981 28.2309 29.3169 28.1834 29.2737 28.0825C29.2288 27.9778 29.1868 27.8495 29.1462 27.7289L28.5107 25.9229C28.5 25.8952 28.4895 25.8641 28.4811 25.8395C28.4777 25.836 28.4789 25.836 28.4758 25.836H28.4694C28.4625 25.836 28.4584 25.8379 28.4497 25.8406C28.3829 25.8834 28.244 25.9518 28.1416 25.9787C28.1207 26.11 28.0585 26.2818 28.0134 26.4097L27.4613 27.9948C27.4085 28.1447 27.2876 28.2297 27.1468 28.2297H27.1414V28.3014C27.2595 28.2961 27.3794 28.289 27.4992 28.289C27.6328 28.289 27.7689 28.2961 27.901 28.3014V28.2297H27.879C27.7663 28.2282 27.6092 28.2161 27.6055 28.0935C27.6055 28.0248 27.6472 27.9361 27.6817 27.82L27.697 27.824L27.6817 27.8196L27.7956 27.4505H28.5999L28.7383 27.8606C28.7775 27.9717 28.8089 28.0636 28.8089 28.1143C28.8036 28.2202 28.6583 28.2278 28.5805 28.2297H28.557V28.3014ZM29.5351 28.3325C29.3808 28.3261 29.2255 28.3185 29.0602 28.3185C28.8913 28.3185 28.7194 28.3261 28.5426 28.3325L28.5271 28.3337V28.1982H28.5805C28.6598 28.1982 28.7782 28.1808 28.7782 28.1143C28.779 28.0749 28.749 27.9801 28.7107 27.8705L28.5795 27.48H27.8176L27.7098 27.8284C27.6745 27.9466 27.6339 28.0377 27.6339 28.0935C27.6351 28.1777 27.7644 28.1982 27.879 28.1982H27.9317V28.3337L27.9162 28.3325C27.7781 28.3261 27.6365 28.3185 27.4992 28.3185C27.3752 28.3185 27.2507 28.3261 27.1271 28.3325L27.1119 28.3337V28.1982H27.1468C27.2754 28.1982 27.3824 28.1246 27.4321 27.9846L27.9853 26.4002C28.0308 26.272 28.0926 26.1001 28.1226 25.9627C28.2308 25.9252 28.3692 25.8557 28.4363 25.8141C28.4462 25.8106 28.4553 25.8057 28.4694 25.8057C28.4777 25.8053 28.4967 25.8079 28.507 25.8266C28.5175 25.8547 28.5281 25.8853 28.5384 25.9131L29.1747 27.7194C29.2153 27.8401 29.2566 27.9675 29.3014 28.0692C29.3412 28.1619 29.405 28.1982 29.5158 28.1982H29.5515V28.3337L29.5351 28.3325Z" fill="#231F20"/>
<path d="M29.6887 26.0801C29.4291 26.0801 29.4192 26.1423 29.3673 26.3941H29.2634C29.2773 26.2979 29.2948 26.201 29.305 26.1005C29.319 26.0042 29.3259 25.9071 29.3259 25.8076H29.4087C29.4364 25.9112 29.5228 25.9071 29.6158 25.9071H31.3975C31.4905 25.9071 31.5762 25.904 31.5834 25.8004L31.6664 25.8148C31.6532 25.9071 31.64 26.0007 31.6285 26.0941C31.6202 26.187 31.6202 26.2807 31.6202 26.3737L31.5178 26.4124C31.5121 26.2841 31.4938 26.0801 31.2628 26.0801H30.6964V27.9171C30.6964 28.1839 30.8173 28.2138 30.9832 28.2138H31.0484V28.3177C30.9142 28.3177 30.6724 28.3042 30.4858 28.3042C30.2789 28.3042 30.0366 28.3177 29.9015 28.3177V28.2138H29.9675C30.1583 28.2138 30.2551 28.1971 30.2551 27.9247V26.0801H29.6887Z" fill="#231F20"/>
<path d="M31.0481 28.3325C30.9134 28.3325 30.6717 28.3189 30.4859 28.3189C30.2794 28.3189 30.0381 28.3325 29.9016 28.3325H29.8871V28.1994H29.9676C30.1581 28.1948 30.234 28.1925 30.2389 27.9246V26.0948H29.6883V26.0655H30.2689V27.9246C30.2689 28.2013 30.1577 28.2282 29.9676 28.2297H29.9167V28.3029C30.0534 28.3014 30.2851 28.289 30.4859 28.289C30.6661 28.289 30.8971 28.3014 31.0337 28.3029L31.033 28.2297H30.9825C30.8163 28.2282 30.6821 28.1891 30.6817 27.9171V26.0655H31.2625C31.4951 26.0659 31.5246 26.2625 31.5316 26.3908L31.6067 26.3631C31.6067 26.2735 31.6067 26.1832 31.6138 26.0926C31.6233 26.0037 31.6369 25.9153 31.6491 25.8276L31.5975 25.8182C31.5808 25.9184 31.4841 25.9241 31.3971 25.9229H29.598C29.5165 25.9233 29.4289 25.9188 29.3973 25.8216H29.3408C29.3397 25.9184 29.3336 26.0105 29.3196 26.1031C29.31 26.1983 29.2933 26.289 29.2805 26.3793H29.3549C29.4004 26.1396 29.4296 26.0606 29.6883 26.0655V26.0948C29.4319 26.0994 29.4379 26.1426 29.3818 26.398L29.3791 26.4097H29.2455L29.2478 26.3919C29.2619 26.2956 29.2794 26.1987 29.2896 26.0994C29.3036 26.0027 29.31 25.9066 29.31 25.8075V25.7924H29.4194L29.4224 25.8034C29.4467 25.8907 29.5103 25.8911 29.598 25.8929H31.3971C31.4928 25.8911 31.563 25.8896 31.5687 25.7992L31.5691 25.7833L31.5857 25.7864L31.6841 25.8015L31.681 25.8163C31.6662 25.9093 31.6537 26.0027 31.6435 26.0948C31.6369 26.1874 31.6369 26.2807 31.6369 26.3736V26.3842L31.6264 26.3884L31.5039 26.4333V26.4123C31.4951 26.283 31.481 26.0948 31.2625 26.0948H30.7112V27.9171C30.7147 28.1777 30.8182 28.196 30.9825 28.1994H31.0633V28.3325H31.0481Z" fill="#231F20"/>
<path d="M31.7937 28.2137H31.8419C31.9671 28.2137 32.0976 28.1973 32.0976 28.0171V26.2085C32.0976 26.0283 31.9671 26.012 31.8419 26.012H31.7937V25.9069C31.9285 25.9069 32.1352 25.9213 32.3045 25.9213C32.4771 25.9213 32.6842 25.9069 32.8473 25.9069V26.012H32.7991C32.674 26.012 32.5423 26.0283 32.5423 26.2085V28.0171C32.5423 28.1973 32.674 28.2137 32.7991 28.2137H32.8473V28.318C32.6812 28.318 32.4741 28.3044 32.3014 28.3044C32.1318 28.3044 31.9285 28.318 31.7937 28.318V28.2137Z" fill="#231F20"/>
<path d="M32.8313 28.3025V28.2296H32.7991C32.6751 28.2296 32.5282 28.2076 32.5282 28.0172V26.2081C32.5282 26.0177 32.6751 25.9965 32.7991 25.9965H32.8313V25.9229C32.672 25.9236 32.4728 25.9366 32.3044 25.9366C32.1405 25.9366 31.9424 25.9236 31.8089 25.9229V25.9965H31.8418C31.9644 25.9965 32.1124 26.0177 32.1124 26.2081V28.0172C32.1124 28.2076 31.9644 28.2296 31.8418 28.2296H31.8089V28.3025C31.9424 28.3006 32.1371 28.2889 32.3014 28.2889C32.4691 28.2889 32.669 28.3014 32.8313 28.3025ZM32.8473 28.3325C32.6804 28.3325 32.4736 28.3185 32.3014 28.3185C32.1325 28.3185 31.9284 28.3325 31.7937 28.3325H31.7793V28.1997H31.8418C31.967 28.1974 32.0814 28.1861 32.0817 28.0172V26.2081C32.0814 26.0402 31.967 26.0283 31.8418 26.0257H31.7793V25.8929H31.7937C31.9284 25.8929 32.1359 25.9066 32.3044 25.9066C32.4771 25.9066 32.6837 25.8929 32.8473 25.8929H32.8613V26.0257H32.7991C32.6728 26.0283 32.5589 26.0402 32.5578 26.2081V28.0172C32.5589 28.1861 32.6728 28.1974 32.7991 28.1997H32.8613V28.3325H32.8473Z" fill="#231F20"/>
<path d="M34.276 28.2177C34.9467 28.2177 35.0625 27.627 35.0625 27.1239C35.0625 26.6189 34.7908 26.0081 34.2175 26.0081C33.6135 26.0081 33.4341 26.5464 33.4341 27.0086C33.4341 27.627 33.7171 28.2177 34.276 28.2177ZM34.2244 25.8559C34.96 25.8559 35.547 26.312 35.547 27.0476C35.547 27.8418 34.9775 28.3696 34.2418 28.3696C33.5088 28.3696 32.951 27.8729 32.951 27.1297C32.951 26.4126 33.5066 25.8559 34.2244 25.8559Z" fill="#231F20"/>
<path d="M33.4184 27.0086C33.4195 26.5442 33.6016 25.9926 34.2174 25.9926C34.8044 25.9936 35.0776 26.6163 35.0779 27.1239C35.0776 27.627 34.9587 28.2321 34.2759 28.2321V28.203C34.9334 28.2025 35.0468 27.627 35.0483 27.1239C35.0483 26.6231 34.7785 26.0236 34.2174 26.0228C33.6251 26.0236 33.4498 26.5491 33.4487 27.0086C33.4495 27.6243 33.7299 28.2014 34.2759 28.203V28.2321C33.7033 28.2314 33.4195 27.6304 33.4184 27.0086ZM32.935 27.1299C32.9369 26.4038 33.4988 25.8419 34.2242 25.8403V25.8711C33.5136 25.8711 32.9642 26.4197 32.9642 27.1299C32.9654 27.8641 33.5166 28.354 34.2416 28.3544C34.9698 28.354 35.5309 27.8334 35.5328 27.0469C35.5324 26.3207 34.9543 25.8719 34.2242 25.8711V25.8403C34.9656 25.8419 35.5601 26.3025 35.5612 27.0469C35.5609 27.8493 34.9846 28.3832 34.2416 28.3847C33.5034 28.3832 32.9369 27.8801 32.935 27.1299Z" fill="#231F20"/>
<path d="M37.8743 27.6376L37.8809 27.6308V26.3358C37.8809 26.0528 37.6841 26.0118 37.5794 26.0118H37.505V25.9072C37.6664 25.9072 37.826 25.9212 37.9877 25.9212C38.1304 25.9212 38.2715 25.9072 38.4126 25.9072V26.0118H38.3609C38.2154 26.0118 38.0529 26.0388 38.0529 26.4497V28.0212C38.0529 28.1418 38.0571 28.2624 38.0742 28.3695H37.9426L36.1646 26.3879V27.8098C36.1646 28.1111 36.223 28.2135 36.4894 28.2135H36.5479V28.3178C36.3995 28.3178 36.2515 28.3042 36.1024 28.3042C35.9472 28.3042 35.7878 28.3178 35.6323 28.3178V28.2135H35.6813C35.9202 28.2135 35.9913 28.0523 35.9913 27.7757V26.3218C35.9913 26.1283 35.8334 26.0118 35.6771 26.0118H35.6323V25.9072C35.7639 25.9072 35.8983 25.9212 36.0299 25.9212C36.1331 25.9212 36.2333 25.9072 36.3369 25.9072L37.8743 27.6376Z" fill="#231F20"/>
<path d="M37.8654 27.6306V27.6294L37.8623 27.6272L37.8654 27.6306ZM37.9425 28.3545H38.0566C38.0413 28.2509 38.0384 28.1355 38.0384 28.0214V26.4495C38.0384 26.0348 38.2129 25.9973 38.3609 25.9965H38.3981V25.9228C38.261 25.9236 38.1249 25.9365 37.9868 25.9365C37.8305 25.9365 37.676 25.9236 37.5194 25.9228V25.9965H37.5793C37.6871 25.9973 37.8954 26.0443 37.8954 26.336L37.8912 27.6412L37.8851 27.6477L37.8741 27.6594L36.3367 25.9228C36.2351 25.9228 36.1342 25.9365 36.0298 25.9365C35.9023 25.9365 35.7721 25.9236 35.6474 25.9228V25.9965H35.6769C35.8398 25.9973 36.0067 26.1194 36.0067 26.322V27.7759C36.0067 28.0525 35.9296 28.2285 35.6812 28.2296H35.6474V28.3025C35.7972 28.3014 35.9505 28.2889 36.1026 28.2889C36.2469 28.2889 36.3902 28.3014 36.5329 28.3025V28.2296H36.4881C36.2173 28.2296 36.1497 28.1113 36.1497 27.81V26.3489L37.9425 28.3545ZM38.074 28.3848L37.931 28.3795L36.179 26.4267V27.81C36.1831 28.1113 36.229 28.1955 36.4881 28.1986H36.5632V28.3324H36.5481C36.3986 28.3324 36.2502 28.3192 36.1026 28.3192C35.9479 28.3192 35.7892 28.3324 35.6322 28.3324H35.6182V28.1986H35.6812C35.9088 28.1978 35.9744 28.0514 35.9763 27.7759V26.322C35.9763 26.1376 35.8261 26.0264 35.6769 26.026H35.6182V25.8929H35.6322C35.7646 25.8929 35.8993 25.9066 36.0298 25.9066C36.132 25.9066 36.2313 25.8929 36.3489 25.8982L37.8654 27.6059V26.336C37.8646 26.0613 37.6814 26.0283 37.5793 26.026H37.4895V25.8929H37.5046C37.6669 25.8929 37.827 25.9066 37.9868 25.9066C38.129 25.9066 38.269 25.8929 38.4124 25.8929H38.4273V26.026H38.3609C38.219 26.0302 38.0717 26.0431 38.0686 26.4495V28.0214C38.0686 28.1413 38.0717 28.2619 38.0877 28.3673L38.0907 28.3848H38.074Z" fill="#231F20"/>
<path d="M39.4717 26.2942H39.465L39.1436 27.2716H39.7904L39.4717 26.2942ZM38.9676 27.824C38.9337 27.9413 38.8921 28.0319 38.8921 28.093C38.8921 28.197 39.038 28.2137 39.1504 28.2137H39.1891V28.3176C39.0506 28.3108 38.9095 28.3044 38.771 28.3044C38.6454 28.3044 38.5221 28.3108 38.3989 28.3176V28.2137H38.4178C38.5532 28.2137 38.6678 28.1343 38.7191 27.9894L39.2722 26.4055C39.317 26.2772 39.3788 26.105 39.3993 25.9763C39.5097 25.9388 39.6478 25.87 39.7135 25.8283C39.7241 25.8246 39.7313 25.8219 39.7416 25.8219C39.7514 25.8219 39.7579 25.8219 39.7655 25.8318C39.7761 25.8595 39.786 25.8905 39.7973 25.9182L40.432 27.7242C40.4727 27.8449 40.5152 27.9731 40.5599 28.0767C40.6008 28.1731 40.6741 28.2137 40.788 28.2137H40.8084V28.3176C40.6533 28.3108 40.4973 28.3044 40.3319 28.3044C40.1627 28.3044 39.9897 28.3108 39.8137 28.3176V28.2137H39.8519C39.9308 28.2137 40.0663 28.2008 40.0663 28.1142C40.0663 28.0692 40.0348 27.9758 39.9965 27.8654L39.8625 27.4647H39.0795L38.9676 27.824Z" fill="#231F20"/>
<path d="M39.1649 27.2561H39.7692L39.468 26.3319L39.1649 27.2561ZM39.1227 27.2857L39.4555 26.2796H39.4832L39.8094 27.2857H39.1227ZM39.8288 28.3018C39.9991 28.2961 40.1675 28.289 40.3323 28.289C40.4924 28.289 40.6427 28.2961 40.7929 28.3014V28.2297H40.7876C40.6708 28.2297 40.5887 28.1834 40.5458 28.0825C40.4996 27.9778 40.4586 27.8495 40.4177 27.7289L39.7828 25.9229C39.7726 25.8952 39.7613 25.8641 39.7529 25.8406C39.7503 25.836 39.7503 25.836 39.7476 25.836H39.7416C39.7343 25.836 39.7305 25.8379 39.7215 25.8406C39.6546 25.8827 39.5169 25.9522 39.4134 25.9787C39.3929 26.11 39.3298 26.2818 39.2858 26.4097L38.7326 27.9948C38.6799 28.1447 38.5604 28.2297 38.4182 28.2297H38.4124V28.3014C38.532 28.2961 38.6511 28.289 38.7714 28.289C38.905 28.289 39.0408 28.2961 39.1747 28.3014V28.2297H39.1504C39.0385 28.2282 38.881 28.2161 38.8769 28.0931C38.8775 28.0248 38.9205 27.9364 38.9543 27.82L38.9676 27.824L38.9543 27.8196L39.0674 27.4505H39.8732L40.0109 27.8606C40.0497 27.9717 40.0803 28.0636 40.0803 28.1143C40.0754 28.2202 39.9305 28.2278 39.8512 28.2297H39.8288V28.3018ZM40.8077 28.3325C40.6521 28.3265 40.4961 28.3189 40.3323 28.3189C40.1634 28.3189 39.9904 28.3265 39.8144 28.3325L39.7992 28.3337V28.1997H39.8512C39.9316 28.1997 40.0508 28.1808 40.0515 28.1143C40.0519 28.0749 40.0212 27.9805 39.9818 27.8705L39.8508 27.48H39.0886L38.9824 27.8284C38.9478 27.947 38.906 28.0377 38.9073 28.0931C38.9073 28.1777 39.0366 28.1997 39.1504 28.1997H39.2035V28.3337L39.188 28.3325C39.0502 28.3265 38.9084 28.3189 38.7714 28.3189C38.647 28.3189 38.5233 28.3265 38.3989 28.3325L38.3837 28.3337V28.1997H38.4182C38.5468 28.1982 38.6549 28.1242 38.7049 27.9846L39.2578 26.4002C39.3017 26.272 39.364 26.1001 39.3939 25.9627C39.5029 25.9252 39.6418 25.8557 39.7082 25.8141C39.7173 25.8106 39.7279 25.8065 39.7416 25.8065C39.7503 25.8053 39.7685 25.8079 39.7794 25.827C39.7893 25.8543 39.7995 25.8853 39.8105 25.9131L40.4461 27.7194C40.4871 27.8401 40.5288 27.9675 40.5739 28.07C40.6146 28.1618 40.6763 28.1982 40.7876 28.1997H40.8229V28.3337L40.8077 28.3325Z" fill="#231F20"/>
<path d="M41.6789 27.9794C41.6789 28.1175 41.7749 28.159 41.8853 28.173C42.0268 28.1836 42.1821 28.1836 42.3418 28.1662C42.4859 28.1494 42.6111 28.066 42.6726 27.9794C42.7276 27.9032 42.758 27.8072 42.7799 27.7306H42.8801C42.8414 27.9275 42.7933 28.1214 42.7514 28.3179C42.4479 28.3179 42.1437 28.3043 41.841 28.3043C41.5367 28.3043 41.2324 28.3179 40.9288 28.3179V28.2136H40.9763C41.1018 28.2136 41.2362 28.1972 41.2362 27.9825V26.2083C41.2362 26.0281 41.1018 26.0119 40.9763 26.0119H40.9288V25.9072C41.1117 25.9072 41.2915 25.9212 41.474 25.9212C41.6505 25.9212 41.8231 25.9072 41.9995 25.9072V26.0119H41.9126C41.7817 26.0119 41.6789 26.0152 41.6789 26.1985V27.9794Z" fill="#231F20"/>
<path d="M42.7399 28.3025C42.7798 28.1155 42.8252 27.9318 42.8613 27.7452H42.7904C42.7695 27.8214 42.7388 27.9137 42.6841 27.9884C42.62 28.0783 42.4918 28.1625 42.3419 28.1808C42.2512 28.1906 42.1617 28.1948 42.0775 28.1948C42.0107 28.1948 41.9451 28.1918 41.8828 28.1875C41.7713 28.175 41.662 28.1272 41.6631 27.9796V26.1983C41.6631 26.0059 41.7842 25.9965 41.9129 25.9965H41.9841V25.9229C41.8141 25.9236 41.6456 25.9366 41.4742 25.9366C41.2947 25.9366 41.1198 25.9236 40.9435 25.9229V25.9965H40.9765C41.1001 25.9965 41.2507 26.0177 41.2507 26.2078V27.9823C41.2507 28.2058 41.1005 28.2296 40.9765 28.2296H40.9435V28.3025C41.2412 28.3018 41.5406 28.2889 41.8411 28.2889C42.1409 28.2889 42.4401 28.3018 42.7399 28.3025ZM42.7517 28.3325C42.4473 28.3325 42.1438 28.3189 41.8411 28.3189C41.5369 28.3189 41.2325 28.3325 40.9283 28.3325H40.9142V28.1997H40.9765C41.1017 28.1967 41.2208 28.1875 41.2219 27.9823V26.2078C41.2208 26.0402 41.1028 26.0283 40.9765 26.0257H40.9142V25.8929H40.9283C41.1123 25.8929 41.2918 25.9066 41.4742 25.9066C41.6499 25.9066 41.8225 25.8929 41.9997 25.8929H42.0134V26.0257H41.9129C41.7788 26.0295 41.6954 26.0234 41.6924 26.1983V27.9796C41.6938 28.1083 41.7778 28.1424 41.8866 28.1584C41.9465 28.1625 42.0114 28.1648 42.0775 28.1648C42.1617 28.1648 42.2493 28.1607 42.3396 28.1512C42.48 28.1344 42.6007 28.0537 42.6606 27.9713C42.7138 27.8969 42.7441 27.8025 42.7642 27.727L42.7679 27.7152H42.8981L42.8948 27.7342C42.856 27.9311 42.8086 28.1242 42.7669 28.3215L42.7631 28.3325H42.7517Z" fill="#231F20"/>
<path d="M42.7799 26.1742H42.8225C42.8695 26.1742 42.8911 26.1389 42.8911 26.0816C42.8911 26.0235 42.8566 26.0034 42.8198 26.0034H42.7799V26.1742ZM42.6571 26.3661V26.348C42.701 26.3419 42.7098 26.3438 42.7098 26.3153V26.0467C42.7098 26.0083 42.7056 25.9954 42.6582 25.9977V25.9788H42.8448C42.9078 25.9788 42.967 26.0099 42.967 26.0755C42.967 26.1302 42.9317 26.1693 42.8812 26.1852L42.9404 26.269C42.9689 26.3058 43.0004 26.3419 43.0212 26.3544V26.3661H42.9503C42.9165 26.3661 42.887 26.294 42.8198 26.1988H42.7799V26.3191C42.7799 26.3438 42.7882 26.3419 42.8323 26.348V26.3661H42.6571ZM42.8376 26.4689C43.0004 26.4689 43.1252 26.3308 43.1252 26.1742C43.1252 26.0175 43.0027 25.8775 42.8376 25.8775C42.6737 25.8775 42.5493 26.0175 42.5493 26.1742C42.5493 26.3308 42.6737 26.4689 42.8376 26.4689ZM42.8376 25.8099C43.0455 25.8099 43.201 25.9701 43.201 26.1742C43.201 26.3783 43.0455 26.5364 42.8376 26.5364C42.6301 26.5364 42.4738 26.3783 42.4738 26.1742C42.4738 25.9701 42.6301 25.8099 42.8376 25.8099Z" fill="#231F20"/>
<path d="M21.2818 13.6267C21.2818 10.3968 23.9001 7.77862 27.1301 7.77862C30.3601 7.77862 32.9784 10.3968 32.9784 13.6267C32.9784 16.8568 30.3601 19.475 27.1301 19.475C23.9001 19.475 21.2818 16.8568 21.2818 13.6267Z" fill="white"/>
<path d="M30.6671 13.5115C30.6644 12.0137 29.7285 10.7368 28.4093 10.2309V16.7923C29.7285 16.2856 30.6644 15.0098 30.6671 13.5115ZM25.8928 16.7907V10.2313C24.5751 10.7391 23.6403 12.0145 23.6369 13.5115C23.6403 15.0083 24.5751 16.2841 25.8928 16.7907ZM27.1518 7.96584C24.089 7.967 21.6075 10.4488 21.6071 13.5115C21.6075 16.574 24.089 19.0554 27.1518 19.0558C30.2146 19.0554 32.6968 16.574 32.6976 13.5115C32.6968 10.4488 30.2146 7.967 27.1518 7.96584ZM27.1381 19.5796C23.7866 19.5952 21.0281 16.8802 21.0281 13.5748C21.0281 9.96272 23.7866 7.46417 27.1381 7.46484H28.7091C32.0207 7.46417 35.0434 9.96118 35.0434 13.5748C35.0434 16.8787 32.0207 19.5796 28.7091 19.5796H27.1381Z" fill="#006699"/>
</svg>
