<svg width="56" height="37" viewBox="0 0 56 37" fill="none" xmlns="http://www.w3.org/2000/svg">
<rect x="0.86925" y="0.86925" width="54.6535" height="35.3025" rx="6.40675" fill="white"/>
<rect x="0.86925" y="0.86925" width="54.6535" height="35.3025" rx="6.40675" stroke="#E5E7EB" stroke-width="0.2615"/>
<path d="M32.1037 11.324H24.0952V25.7154H32.1037V11.324Z" fill="#FF5F00"/>
<path d="M24.6038 18.5197C24.6025 17.1337 24.9166 15.7656 25.5222 14.5189C26.1279 13.2722 27.0092 12.1797 28.0995 11.324C26.7493 10.2627 25.1278 9.60273 23.4202 9.41946C21.7127 9.23619 19.988 9.53702 18.4434 10.2876C16.8988 11.0382 15.5964 12.2082 14.6853 13.6639C13.7742 15.1196 13.291 16.8023 13.291 18.5197C13.291 20.237 13.7742 21.9197 14.6853 23.3755C15.5964 24.8312 16.8988 26.0012 18.4434 26.7518C19.988 27.5024 21.7127 27.8032 23.4202 27.6199C25.1278 27.4366 26.7493 26.7767 28.0995 25.7154C27.0092 24.8597 26.1279 23.7671 25.5222 22.5205C24.9166 21.2738 24.6025 19.9057 24.6038 18.5197Z" fill="#EB001B"/>
<path d="M42.9075 18.5197C42.9076 20.237 42.4245 21.9197 41.5134 23.3754C40.6023 24.8312 39.3 26.0012 37.7554 26.7518C36.2108 27.5023 34.4862 27.8032 32.7787 27.6199C31.0711 27.4366 29.4496 26.7767 28.0995 25.7154C29.1888 24.8588 30.0695 23.7661 30.675 22.5196C31.2806 21.2732 31.5952 19.9055 31.5952 18.5197C31.5952 17.1339 31.2806 15.7662 30.675 14.5198C30.0695 13.2733 29.1888 12.1806 28.0995 11.324C29.4496 10.2627 31.0711 9.60273 32.7787 9.41946C34.4862 9.23619 36.2108 9.53704 37.7554 10.2876C39.3 11.0382 40.6023 12.2082 41.5134 13.6639C42.4245 15.1197 42.9076 16.8024 42.9075 18.5197Z" fill="#F79E1B"/>
<path d="M42.0343 24.1911V23.8965H42.1531V23.8365H41.8506V23.8965H41.9694V24.1911H42.0343ZM42.6217 24.1911V23.8359H42.529L42.4223 24.0802L42.3156 23.8359H42.2228V24.1911H42.2883V23.9231L42.3884 24.1542H42.4563L42.5563 23.9226V24.1911H42.6217Z" fill="#F79E1B"/>
</svg>
