<svg width="56" height="37" viewBox="0 0 56 37" fill="none" xmlns="http://www.w3.org/2000/svg">
<rect x="0.86925" y="0.86925" width="54.6535" height="35.3025" rx="6.40675" fill="white"/>
<rect x="0.86925" y="0.86925" width="54.6535" height="35.3025" rx="6.40675" stroke="#E5E7EB" stroke-width="0.2615"/>
<path fill-rule="evenodd" clip-rule="evenodd" d="M12.8986 13.4211H9.76273C9.54813 13.4211 9.36562 13.577 9.33216 13.7888L8.06384 21.8292C8.03863 21.9879 8.16151 22.1309 8.32246 22.1309H9.81958C10.0342 22.1309 10.2167 21.975 10.2501 21.7628L10.5922 19.5942C10.6252 19.3818 10.8082 19.2261 11.0223 19.2261H12.015C14.0808 19.2261 15.2729 18.2265 15.5844 16.2459C15.7247 15.3794 15.5903 14.6985 15.1844 14.2216C14.7388 13.6982 13.9482 13.4211 12.8986 13.4211ZM13.2604 16.3577C13.089 17.4829 12.2292 17.4829 11.3979 17.4829H10.9247L11.2566 15.3815C11.2763 15.2547 11.3864 15.1611 11.5148 15.1611H11.7317C12.298 15.1611 12.8322 15.1611 13.1083 15.4838C13.2727 15.6764 13.3232 15.9625 13.2604 16.3577ZM22.2726 16.3217H20.7709C20.643 16.3217 20.5324 16.4152 20.5127 16.5423L20.4463 16.9622L20.3412 16.8101C20.0161 16.3382 19.2913 16.1806 18.5677 16.1806C16.9081 16.1806 15.4908 17.4373 15.2148 19.2002C15.0713 20.0794 15.2752 20.9203 15.7741 21.5067C16.2318 22.0459 16.8867 22.2705 17.6656 22.2705C19.0027 22.2705 19.7443 21.4108 19.7443 21.4108L19.6773 21.8282C19.652 21.9877 19.7749 22.1307 19.9349 22.1307H21.2876C21.5028 22.1307 21.6842 21.9748 21.7182 21.7626L22.5298 16.6234C22.5555 16.4653 22.4331 16.3217 22.2726 16.3217ZM20.1793 19.2441C20.0344 20.1019 19.3534 20.6778 18.4851 20.6778C18.0491 20.6778 17.7004 20.5379 17.4768 20.2729C17.2548 20.0099 17.1704 19.6352 17.241 19.218C17.3764 18.3674 18.0688 17.7729 18.924 17.7729C19.3503 17.7729 19.697 17.9144 19.9253 18.1818C20.1541 18.4519 20.2449 18.8287 20.1793 19.2441ZM28.7614 16.3215H30.2706C30.4819 16.3215 30.6052 16.5585 30.4851 16.7318L25.466 23.9758C25.3847 24.0931 25.2508 24.1629 25.1078 24.1629H23.6006C23.3884 24.1629 23.2644 23.924 23.3873 23.7502L24.9501 21.5445L23.288 16.6671C23.2305 16.4976 23.3557 16.3215 23.5361 16.3215H25.0189C25.2116 16.3215 25.3815 16.4479 25.4371 16.6323L26.3192 19.5781L28.4007 16.5126C28.4822 16.393 28.6175 16.3215 28.7614 16.3215Z" fill="#253B80"/>
<path fill-rule="evenodd" clip-rule="evenodd" d="M45.1237 21.8285L46.4106 13.641C46.4304 13.5139 46.5405 13.4203 46.6685 13.4199H48.1173C48.2773 13.4199 48.4002 13.5633 48.3749 13.7221L47.1058 21.7621C47.0727 21.9743 46.8902 22.1302 46.6752 22.1302H45.3813C45.2213 22.1302 45.0984 21.9872 45.1237 21.8285ZM35.2673 13.4203H32.1309C31.9168 13.4203 31.7343 13.5763 31.7007 13.788L30.4324 21.8285C30.4072 21.9872 30.53 22.1302 30.6903 22.1302H32.2996C32.4492 22.1302 32.5771 22.0212 32.6004 21.8726L32.9603 19.5935C32.9934 19.3811 33.1763 19.2254 33.3905 19.2254H34.3827C36.4488 19.2254 37.6408 18.2258 37.9525 16.2452C38.0932 15.3787 37.958 14.6978 37.5523 14.2209C37.1069 13.6974 36.3169 13.4203 35.2673 13.4203ZM35.6291 16.357C35.4581 17.4822 34.5983 17.4822 33.7665 17.4822H33.2937L33.6262 15.3808C33.6459 15.2539 33.755 15.1604 33.8838 15.1604H34.1007C34.6666 15.1604 35.2013 15.1604 35.4772 15.4831C35.6419 15.6757 35.6919 15.9617 35.6291 16.357ZM44.6405 16.3209H43.1398C43.0108 16.3209 42.9013 16.4145 42.882 16.5416L42.8156 16.9615L42.7101 16.8094C42.3851 16.3375 41.6606 16.1799 40.937 16.1799C39.2774 16.1799 37.8606 17.4366 37.5845 19.1995C37.4415 20.0787 37.6446 20.9196 38.1435 21.506C38.602 22.0451 39.256 22.2698 40.035 22.2698C41.372 22.2698 42.1134 21.4101 42.1134 21.4101L42.0466 21.8275C42.0213 21.987 42.1442 22.13 42.3053 22.13H43.6574C43.8715 22.13 44.054 21.9741 44.0875 21.7619L44.8996 16.6227C44.9244 16.4646 44.8016 16.3209 44.6405 16.3209ZM42.5474 19.2434C42.4033 20.1012 41.7215 20.6771 40.853 20.6771C40.4178 20.6771 40.0685 20.5372 39.8446 20.2722C39.6227 20.0091 39.5393 19.6344 39.6091 19.2173C39.7451 18.3667 40.4367 17.7722 41.2918 17.7722C41.7183 17.7722 42.0648 17.9137 42.2934 18.1811C42.523 18.4512 42.6138 18.828 42.5474 19.2434Z" fill="#179BD7"/>
</svg>
