<svg width="120" height="121" viewBox="0 0 120 121" fill="none" xmlns="http://www.w3.org/2000/svg">
<g clip-path="url(#clip0_417_40682)">
<path d="M11.4905 93.8693L30.8644 112.621C39.4062 117.661 49.3645 120.556 60.0005 120.556C68.9337 120.556 77.3902 118.516 84.93 114.877L106.753 96.4783C113.47 87.078 117.423 75.5681 117.423 63.1343C117.423 31.4207 91.7138 5.71191 60.0002 5.71191C28.2867 5.71191 2.57812 31.4205 2.57812 63.134C2.57812 74.4405 5.84789 84.9822 11.4905 93.8693Z" fill="#3371DA"/>
<path d="M25.8019 86.1851V81.6202C25.587 80.5981 25.6516 83.1563 25.6516 48.2965C25.6516 46.5453 24.232 45.124 22.4805 45.124C20.7293 45.124 19.3097 46.5436 19.3097 48.2949C19.1777 56.8674 20.152 57.4943 15.9056 66.132C14.262 69.4751 13.6964 73.1944 14.003 76.9071L14.6313 82.8242C14.7363 84.1055 14.6173 85.3955 14.2795 86.6358L12.6921 90.8C12.3007 91.8265 11.8983 92.8489 11.4902 93.8686C16.3666 101.549 23.0168 107.99 30.8641 112.621L31.9746 109.123C33.1249 105.716 36.2372 102.946 39.5081 101.564C39.5344 101.553 39.5604 101.542 39.5869 101.531C43.8204 99.7728 47.4687 96.8689 50.1352 93.1604H32.7773C28.9249 93.1606 25.8019 90.0375 25.8019 86.1851Z" fill="#F9BA8F"/>
<path d="M85.2075 0.555664H32.2922C28.4988 0.555664 25.4238 3.63066 25.4238 7.42402V86.3718C25.4238 90.1652 28.4991 93.2404 32.2924 93.2404H85.2075C89.0009 93.2404 92.0761 90.1652 92.0761 86.3718V7.42426C92.0761 3.6309 89.0009 0.555664 85.2075 0.555664Z" fill="#2A428C"/>
<path d="M32.2922 0.556133C28.4988 0.556133 25.4238 3.63113 25.4238 7.42449V86.3723C25.4238 90.1659 28.4991 93.2409 32.2924 93.2409H49.0331C47.2526 90.9211 49.4995 89.2875 49.4995 89.2875C46.023 88.4763 46.2183 85.2548 46.2183 85.2548C46.2183 85.2548 46.2183 71.8174 46.2183 68.2235C46.2183 64.6298 49.4215 63.8144 49.4215 63.8144V56.8396C46.2183 56.081 46.0188 53.9069 46.0188 53.9069C46.0188 53.9069 46.0188 47.7546 46.0188 45.1239C46.0188 42.4933 49.6823 41.414 49.6823 41.414V36.6311C46.7986 36.0548 47.5395 33.2653 47.5395 33.2653L47.7991 17.1222C41.6454 12.4275 46.0191 5.27457 46.0191 5.27457C43.9877 3.24324 45.2934 1.2152 45.8243 0.555664H32.2922V0.556133Z" fill="#142766"/>
<path d="M29.8555 87.0813C29.8555 88.2949 30.8483 89.2877 32.0619 89.2877H85.4143C86.6277 89.2877 87.6207 88.2949 87.6207 87.0813C87.6207 84.6321 87.6207 47.7497 87.6207 25.0195H29.8555V87.0813Z" fill="#73C3F9"/>
<path d="M47.6701 25.0195H29.8555V87.0811C29.8555 88.2947 30.8483 89.2875 32.0619 89.2875H49.4977C46.0212 88.4763 46.2165 85.2549 46.2165 85.2549C46.2165 85.2549 46.2165 71.8174 46.2165 68.2235C46.2165 64.6298 49.4197 63.8145 49.4197 63.8145V56.8397C46.2165 56.081 46.017 53.907 46.017 53.907C46.017 53.907 46.017 47.7546 46.017 45.124C46.017 42.4934 49.6805 41.4141 49.6805 41.4141V36.6312C46.7968 36.0548 47.5377 33.2653 47.5377 33.2653L47.6701 25.0195Z" fill="#4FABF7"/>
<path d="M85.4143 5.27539H32.0619C30.8483 5.27539 29.8555 6.2682 29.8555 7.4818V25.4647H87.6205C87.6205 15.7365 87.6205 8.5018 87.6205 7.48156C87.6205 6.2682 86.6277 5.27539 85.4143 5.27539Z" fill="#E9EFFF"/>
<path d="M46.017 5.27539H32.0619C30.8483 5.27539 29.8555 6.2682 29.8555 7.4818V25.4647H47.663L47.7971 17.1228C41.6436 12.4283 46.017 5.27539 46.017 5.27539Z" fill="#BEC8F7"/>
<path d="M74.0543 63.8144H43.4248C41.4987 63.8144 39.9375 62.2532 39.9375 60.3271C39.9375 58.401 41.4989 56.8398 43.4248 56.8398H74.0543C75.9804 56.8398 77.5416 58.401 77.5416 60.3271C77.5418 62.2532 75.9804 63.8144 74.0543 63.8144Z" fill="#E9EFFF"/>
<path d="M46.9102 60.3273C46.9102 58.4013 48.4716 56.8398 50.3974 56.8398H43.4248C41.4987 56.8398 39.9375 58.401 39.9375 60.3273C39.9375 62.2534 41.4989 63.8146 43.4248 63.8146H50.3974C48.4716 63.8146 46.9102 62.2534 46.9102 60.3273Z" fill="#BEC8F7"/>
<path d="M74.0531 56.8398H67.6113V63.8146H74.0531C75.979 63.8146 77.5404 62.2534 77.5404 60.3273C77.5404 58.4008 75.979 56.8398 74.0531 56.8398Z" fill="#9BD8F9"/>
<path d="M97.2112 41.4145H85.8445C84.5291 41.4145 83.4531 40.3382 83.4531 39.0232C83.4531 37.7079 84.5294 36.6318 85.8445 36.6318H97.2112C98.5265 36.6318 99.6025 37.7081 99.6025 39.0232C99.6025 40.3385 98.5263 41.4145 97.2112 41.4145Z" fill="#E9EFFF"/>
<path d="M74.8108 41.4145H63.4441C62.1287 41.4145 61.0527 40.3382 61.0527 39.0232C61.0527 37.7079 62.1287 36.6318 63.4441 36.6318H74.8108C76.1261 36.6318 77.2021 37.7081 77.2021 39.0232C77.2021 40.3385 76.1261 41.4145 74.8108 41.4145Z" fill="#E9EFFF"/>
<path d="M53.2209 41.4145H41.8542C40.5389 41.4145 39.4629 40.3382 39.4629 39.0232C39.4629 37.7079 40.5391 36.6318 41.8542 36.6318H53.2209C54.5362 36.6318 55.6123 37.7081 55.6123 39.0232C55.6125 40.3385 54.5362 41.4145 53.2209 41.4145Z" fill="#E9EFFF"/>
<path d="M30.8205 41.4145H19.4538C18.1385 41.4145 17.0625 40.3382 17.0625 39.0232C17.0625 37.7079 18.1385 36.6318 19.4538 36.6318H30.8205C32.1359 36.6318 33.2119 37.7081 33.2119 39.0232C33.2119 40.3385 32.1359 41.4145 30.8205 41.4145Z" fill="#E9EFFF"/>
<path d="M91.2796 39.0232C91.2796 37.7079 92.3556 36.6318 93.6709 36.6318H85.8445C84.5291 36.6318 83.4531 37.7081 83.4531 39.0232C83.4531 40.3382 84.5291 41.4145 85.8445 41.4145H93.6709C92.3559 41.4145 91.2796 40.3385 91.2796 39.0232Z" fill="#BEC8F7"/>
<path d="M68.8792 39.0232C68.8792 37.7079 69.9555 36.6318 71.2705 36.6318H63.4441C62.1288 36.6318 61.0527 37.7081 61.0527 39.0232C61.0527 40.3382 62.129 41.4145 63.4441 41.4145H71.2705C69.9555 41.4145 68.8792 40.3385 68.8792 39.0232Z" fill="#BEC8F7"/>
<path d="M47.2894 39.0232C47.2894 37.7079 48.3654 36.6318 49.6807 36.6318H41.8542C40.5389 36.6318 39.4629 37.7081 39.4629 39.0232C39.4629 40.3382 40.5391 41.4145 41.8542 41.4145H49.6807C48.3656 41.4145 47.2894 40.3385 47.2894 39.0232Z" fill="#BEC8F7"/>
<path d="M24.8887 39.0232C24.8887 37.7079 25.965 36.6318 27.2801 36.6318H19.4538C18.1385 36.6318 17.0625 37.7081 17.0625 39.0232C17.0625 40.3382 18.1387 41.4145 19.4538 41.4145H27.2803C25.9648 41.4145 24.8887 40.3385 24.8887 39.0232Z" fill="#BEC8F7"/>
<path d="M106.753 96.4774L106.268 95.6292C104.75 92.965 106.753 88.3818 102.62 81.1326C101.705 79.5267 95.2374 68.182 92.8585 64.0089C91.7194 62.0109 89.1525 61.3082 87.1545 62.4473L86.809 62.6442C84.8107 63.7832 84.1081 66.3501 85.2471 68.3482L83.8535 65.9036C82.7466 63.9618 80.3609 63.0628 78.301 63.9302C75.8456 64.9643 74.9046 67.8963 76.185 70.1421L75.7474 69.3745C74.6405 67.4329 72.2548 66.5336 70.1951 67.4011C67.7398 68.4349 66.7985 71.3669 68.0789 73.6129L61.1799 61.5114C60.0729 59.5696 57.687 58.6706 55.6273 59.5382C53.172 60.5723 52.2307 63.5043 53.5111 65.7501L65.026 85.9483C65.2528 86.3463 65.1054 86.8525 64.6997 87.0646C63.652 87.6121 62.0515 88.4772 61.5992 90.6487C60.6087 95.4042 62.6067 100.286 66.6488 102.982C70.395 105.411 65.8442 102.986 80.4452 109.052C81.4198 109.443 82.2333 110.153 82.7534 111.065L84.9293 114.875C93.6619 110.661 101.164 104.3 106.753 96.4774Z" fill="#F9BA8F"/>
<path d="M54.2563 60.2837L56.0303 59.2724C57.0491 58.6916 58.3578 59.05 58.9386 60.0686L60.8382 63.4004C61.4193 64.4195 61.0607 65.728 60.0418 66.309L58.2678 67.3204C57.249 67.9011 55.9403 67.5428 55.3595 66.524L53.4599 63.1918C52.8791 62.1732 53.2375 60.8645 54.2563 60.2837Z" fill="#F9DFCD"/>
<path d="M67.659 94.822C68.6705 94.2452 69.023 92.9577 68.4465 91.9459L65.0277 85.9492C65.2545 86.3472 65.1071 86.8534 64.7014 87.0655C63.9017 87.4834 62.7812 88.0888 62.0938 89.317L64.7832 94.0345C65.3598 95.046 66.6474 95.3985 67.659 94.822Z" fill="#FD995B"/>
<path d="M14.6313 82.8242C14.7363 84.1055 14.6173 85.3955 14.2795 86.6359L12.6921 90.8C12.3007 91.8266 11.8983 92.8489 11.4902 93.8687C16.3666 101.549 23.0168 107.99 30.8641 112.621L31.9746 109.123C33.1249 105.716 36.2372 102.946 39.5081 101.564C20.1877 101.564 14.6313 82.8242 14.6313 82.8242Z" fill="#FD995B"/>
<path d="M106.754 96.478L106.27 95.6298C105.355 94.0251 105.716 91.7228 105.247 88.5625C99.7502 108.245 77.2656 107.741 77.2656 107.741C78.2109 108.128 79.2651 108.562 80.4463 109.053C81.4209 109.444 82.2344 110.154 82.7545 111.066L84.9304 114.876C93.663 110.661 101.165 104.3 106.754 96.478Z" fill="#FD995B"/>
<path d="M92.3403 32.7621C95.5494 32.7621 98.3581 30.5743 98.3581 30.5743C99.6371 29.1455 100.415 27.259 100.415 25.1909C100.415 20.7312 96.8 17.1162 92.3405 17.1162C87.8809 17.1162 84.2656 20.7314 84.2656 25.1909C84.2656 27.2593 85.0435 29.1455 86.3225 30.5743C86.3223 30.5743 89.1312 32.7621 92.3403 32.7621Z" fill="#FF4155"/>
<path d="M94.8552 26.1472C94.8552 26.1472 93.6741 19.3704 92.7516 18.6973C91.8657 18.0509 92.5449 17.19 92.6002 17.1228C92.5138 17.1202 92.4277 17.1162 92.3405 17.1162C87.8809 17.1162 84.2656 20.7314 84.2656 25.1911C84.2656 27.2595 85.0435 29.1457 86.3225 30.5745C86.3225 30.5745 89.1313 32.7624 92.3405 32.7624C95.5496 32.7624 98.3584 30.5745 98.3584 30.5745C99.1302 29.7122 99.718 28.6824 100.064 27.5473C97.2488 28.7888 94.8552 26.1472 94.8552 26.1472Z" fill="#E80054"/>
<path d="M90.182 30.2657C90.7979 30.7441 91.558 31.0038 92.341 31.0038C93.1238 31.0038 93.8839 30.7438 94.5001 30.2657C94.786 30.0438 95.0839 29.7702 95.3715 29.4487C95.2055 29.3952 95.0368 29.346 94.8638 29.3027C94.7591 29.2764 94.6672 29.2134 94.6077 29.1297C94.3337 28.7434 94.258 28.146 94.243 27.7129C94.0508 27.9367 93.8492 28.1238 93.6566 28.2735C92.8838 28.8735 91.7973 28.8728 91.0255 28.2735C90.8328 28.124 90.6313 27.9367 90.4391 27.7129C90.4238 28.1556 90.3451 28.7699 90.0561 29.1552C90.0069 29.2209 89.9307 29.2745 89.8398 29.2973C89.66 29.3418 89.4838 29.3927 89.3105 29.4487C89.5981 29.77 89.896 30.0435 90.182 30.2657Z" fill="#FCAD6D"/>
<path d="M92.3307 28.7228C91.8692 28.7205 91.4087 28.5709 91.0257 28.2735C90.833 28.124 90.6315 27.9367 90.4393 27.7129C90.4241 28.1556 90.3451 28.7699 90.0561 29.1552C90.0066 29.2211 89.9307 29.2748 89.8398 29.2973C89.66 29.3418 89.484 29.3927 89.3105 29.4487C89.5981 29.7705 89.896 30.044 90.182 30.2659C90.5288 30.5355 90.9226 30.7326 91.3393 30.8561C92.003 30.1884 92.2444 29.3151 92.3307 28.7228Z" fill="#FD995B"/>
<path d="M97.6501 30.4402C97.4047 30.42 97.2741 30.3249 96.9849 30.1618C96.4318 29.8498 95.8606 29.5964 95.2449 29.4092C94.962 29.7305 94.6674 30.001 94.3855 30.2201C93.8019 30.6734 93.0819 30.9195 92.3403 30.9195C91.5988 30.9195 90.8785 30.6734 90.2949 30.2201C90.0127 30.001 89.7184 29.7305 89.4355 29.4092C88.8216 29.5962 88.2467 29.8507 87.6955 30.1618C87.4062 30.3249 87.2757 30.42 87.0303 30.4402C86.772 30.4613 86.537 30.5072 86.3223 30.574C87.8009 32.2259 89.949 33.2656 92.3403 33.2656C94.7316 33.2656 96.8797 32.2259 98.3584 30.574C98.1434 30.5075 97.9084 30.4613 97.6501 30.4402Z" fill="#3C58A0"/>
<path d="M91.7027 18.7145C89.7926 18.9746 89.6112 20.0577 89.6102 20.4549C89.61 20.5384 89.5638 20.6155 89.4888 20.6521C88.4953 21.1353 89.0309 23.4648 89.0309 23.4648C89.1307 23.4714 89.2802 23.5571 89.3583 23.5949C89.3773 23.4763 89.4084 23.3593 89.4525 23.2464C89.486 23.1603 89.528 23.0734 89.5802 22.9911C89.6712 22.8486 89.7124 22.6803 89.7002 22.5123C89.6646 22.0262 89.6365 21.114 90.278 20.8253C90.8215 20.5808 91.488 20.7224 91.9132 20.8637C92.1893 20.9556 92.4884 20.9556 92.7645 20.8637C93.1896 20.7224 93.8562 20.5808 94.3997 20.8253C95.0393 21.1131 95.013 22.0208 94.9777 22.5081C94.9655 22.6775 95.0055 22.8474 95.0972 22.9911C95.1513 23.076 95.1942 23.1657 95.2282 23.2546C95.2706 23.3649 95.3006 23.4791 95.3191 23.5949C95.4173 23.5473 95.603 23.4503 95.723 23.4674C95.7377 22.9581 95.7846 22.4089 95.7846 22.4089C96.3509 19.6365 93.7594 18.4342 91.7027 18.7145Z" fill="#2A428C"/>
<path d="M91.7027 18.7143C89.7926 18.9745 89.6112 20.0575 89.6102 20.4548C89.61 20.5382 89.5638 20.6153 89.4888 20.6517C88.4953 21.1349 89.0309 23.4646 89.0309 23.4646C89.1307 23.4712 89.2802 23.557 89.3583 23.5947C89.3773 23.4761 89.4084 23.3592 89.4525 23.2462C89.486 23.1602 89.528 23.0732 89.5802 22.991C89.6712 22.8485 89.7124 22.6802 89.7002 22.5121C89.6646 22.026 89.6365 21.1138 90.278 20.8251C90.8215 20.5806 91.488 20.7222 91.9132 20.8635C92.0294 20.9022 92.1499 20.9235 92.2709 20.9296C92.2523 20.8977 92.2327 20.8663 92.2104 20.8352C91.391 19.6835 92.5301 18.8442 92.7499 18.6974C92.3974 18.6625 92.0428 18.6679 91.7027 18.7143Z" fill="#1C2E7A"/>
<path d="M95.893 23.5334C95.7442 23.397 95.448 23.4661 95.3198 23.5495C95.3479 23.7244 95.3495 23.9032 95.3252 24.0797L95.174 25.181C95.174 25.2698 95.1712 25.3568 95.166 25.4423C95.5347 25.5537 95.718 25.2225 95.7487 24.9954C95.762 24.8977 95.7836 24.8013 95.8138 24.7071C95.912 24.401 96.2659 23.8748 95.893 23.5334Z" fill="#FCAD6D"/>
<path d="M88.7862 23.5334C88.935 23.397 89.2312 23.4661 89.3594 23.5495C89.3313 23.7244 89.3297 23.9032 89.3541 24.0797L89.5052 25.181C89.5052 25.2698 89.508 25.3568 89.5132 25.4423C89.1445 25.5537 88.9615 25.2225 88.9305 24.9954C88.9172 24.8977 88.8956 24.8013 88.8654 24.7071C88.7672 24.401 88.4133 23.8748 88.7862 23.5334Z" fill="#FD995B"/>
<path d="M95.2739 23.2089C95.2399 23.1201 95.197 23.0301 95.1429 22.9455C95.0513 22.8018 95.0109 22.6319 95.0234 22.4624C95.0588 21.9751 95.0398 21.0222 94.4002 20.7344C93.8567 20.4899 93.1901 20.6315 92.7649 20.7728C92.4888 20.8647 92.1898 20.8647 91.9134 20.7728C91.4883 20.6315 90.8217 20.4899 90.2782 20.7344C89.6367 21.0229 89.6196 21.9805 89.6552 22.4666C89.6677 22.6347 89.6262 22.803 89.5355 22.9455C89.4832 23.0277 89.4413 23.1147 89.4077 23.2007C89.299 23.4798 89.2674 23.7826 89.3081 24.0791L89.4593 25.1807C89.4593 26.7644 90.3047 27.8406 91.0238 28.3989C91.399 28.6902 91.8624 28.8487 92.3393 28.8487C92.8163 28.8487 93.2796 28.6905 93.6549 28.3989C94.3739 27.8406 95.2193 26.7641 95.2193 25.1807L95.3705 24.0794C95.4108 23.7859 95.3801 23.4859 95.2739 23.2089Z" fill="#F9BA8F"/>
<path d="M93.1238 28.3989C92.4047 27.8406 91.5593 26.7641 91.5593 25.1807L91.4081 24.0791C91.3674 23.7826 91.399 23.4798 91.5077 23.2007C91.5413 23.1147 91.5832 23.0277 91.6355 22.9455C91.7264 22.803 91.7677 22.6347 91.7555 22.4666C91.7231 22.0272 91.7344 21.2024 92.2109 20.8349C92.1103 20.8253 92.0105 20.8051 91.9137 20.7728C91.4885 20.6315 90.822 20.4899 90.2785 20.7344C89.637 21.0229 89.6199 21.9805 89.6555 22.4666C89.6679 22.6347 89.6264 22.803 89.5355 22.9455C89.4832 23.0277 89.4413 23.1147 89.4077 23.2007C89.299 23.4798 89.2674 23.7826 89.3081 24.0791L89.4593 25.1807C89.4593 26.7644 90.3047 27.8406 91.0235 28.3989C91.3988 28.6902 91.8621 28.8487 92.3391 28.8487C92.7089 28.8487 93.0703 28.753 93.3891 28.5744C93.297 28.5226 93.2081 28.4645 93.1238 28.3989Z" fill="#FCAD6D"/>
<path d="M90.2949 30.2199C90.0127 30.0007 89.7184 29.7303 89.4355 29.4092C88.8216 29.5962 88.2467 29.8507 87.6955 30.1618C87.4062 30.3249 87.2757 30.42 87.0303 30.4402C86.772 30.4613 86.537 30.5075 86.3223 30.574C86.9553 31.2814 87.7121 31.8753 88.5573 32.3246C88.8732 32.0646 89.315 31.8284 89.9342 31.6582C90.5825 31.4801 91.0583 31.1611 91.4087 30.7843C91.0072 30.6678 90.6282 30.4789 90.2949 30.2199Z" fill="#2A428C"/>
<path d="M47.5376 32.7621C50.7466 32.7621 53.5554 30.5743 53.5554 30.5743C54.8344 29.1455 55.6125 27.259 55.6125 25.1909C55.6125 20.7312 51.9973 17.1162 47.5376 17.1162C43.0779 17.1162 39.4629 20.7314 39.4629 25.1909C39.4629 27.2593 40.241 29.1455 41.5198 30.5743C41.5198 30.5743 44.3285 32.7621 47.5376 32.7621Z" fill="#9181F2"/>
<path d="M50.0522 26.1472C50.0522 26.1472 48.8712 19.3704 47.9487 18.6973C47.0627 18.0509 47.742 17.19 47.7973 17.1228C47.7108 17.1202 47.6248 17.1162 47.5376 17.1162C43.0779 17.1162 39.4629 20.7314 39.4629 25.1911C39.4629 27.2595 40.2408 29.1457 41.5198 30.5745C41.5198 30.5745 44.3285 32.7624 47.5378 32.7624C50.7469 32.7624 53.5556 30.5745 53.5556 30.5745C54.3274 29.7122 54.9152 28.6824 55.2612 27.5473C52.4461 28.7888 50.0522 26.1472 50.0522 26.1472Z" fill="#816AE2"/>
<path d="M45.3795 30.2657C45.9954 30.7441 46.7555 31.0038 47.5385 31.0038C48.3213 31.0038 49.0814 30.7438 49.6976 30.2657C49.9835 30.0438 50.2814 29.7702 50.569 29.4487C50.403 29.3952 50.2343 29.346 50.0613 29.3027C49.9566 29.2764 49.8647 29.2134 49.8052 29.1297C49.5312 28.7434 49.4555 28.146 49.4405 27.7129C49.2483 27.9367 49.0467 28.1238 48.8541 28.2735C48.0813 28.8735 46.9948 28.8728 46.223 28.2735C46.0303 28.124 45.8288 27.9367 45.6366 27.7129C45.6213 28.1556 45.5423 28.7699 45.2534 29.1552C45.2041 29.2209 45.128 29.2745 45.037 29.2973C44.857 29.3418 44.681 29.3927 44.5078 29.4487C44.7956 29.77 45.0935 30.0435 45.3795 30.2657Z" fill="#FCAD6D"/>
<path d="M47.528 28.7228C47.0667 28.7205 46.6059 28.5709 46.223 28.2735C46.0303 28.124 45.8288 27.9367 45.6366 27.7129C45.6213 28.1556 45.5423 28.7699 45.2534 29.1552C45.2041 29.2211 45.128 29.2748 45.037 29.2973C44.8573 29.3418 44.681 29.3927 44.5078 29.4487C44.7954 29.7705 45.0933 30.044 45.3792 30.2659C45.7261 30.5355 46.1198 30.7326 46.5366 30.8561C47.2001 30.1884 47.4415 29.3151 47.528 28.7228Z" fill="#FD995B"/>
<path d="M52.8473 30.4402C52.602 30.42 52.4714 30.3249 52.1822 30.1618C51.6291 29.8498 51.0579 29.5964 50.4422 29.4092C50.1593 29.7305 49.8647 30.001 49.5827 30.2201C48.9991 30.6734 48.2791 30.9195 47.5373 30.9195C46.7958 30.9195 46.0755 30.6734 45.4922 30.2201C45.21 30.001 44.9156 29.7305 44.6327 29.4092C44.0189 29.5962 43.444 29.8507 42.8927 30.1618C42.6035 30.3249 42.473 30.42 42.2276 30.4402C41.9693 30.4613 41.7342 30.5072 41.5195 30.574C42.9982 32.2259 45.1463 33.2656 47.5376 33.2656C49.9289 33.2656 52.077 32.2259 53.5556 30.574C53.3409 30.5075 53.1056 30.4613 52.8473 30.4402Z" fill="#3C58A0"/>
<path d="M46.9 18.7145C44.9898 18.9746 44.8084 20.0577 44.8075 20.4549C44.8073 20.5384 44.7611 20.6155 44.6861 20.6521C43.6926 21.1353 44.2281 23.4648 44.2281 23.4648C44.328 23.4714 44.4775 23.5571 44.5555 23.5949C44.5745 23.4763 44.6057 23.3593 44.6498 23.2464C44.6833 23.1603 44.7252 23.0734 44.7775 22.9911C44.8684 22.8486 44.9097 22.6803 44.8975 22.5123C44.8619 22.0262 44.8337 21.114 45.4752 20.8253C46.0187 20.5808 46.6853 20.7224 47.1105 20.8637C47.3866 20.9556 47.6856 20.9556 47.9617 20.8637C48.3869 20.7224 49.0534 20.5808 49.597 20.8253C50.2366 21.1131 50.2103 22.0208 50.1752 22.5081C50.163 22.6775 50.203 22.8474 50.2947 22.9911C50.3488 23.076 50.3917 23.1657 50.4257 23.2546C50.4679 23.3649 50.4981 23.4791 50.5166 23.5949C50.6148 23.5473 50.8005 23.4503 50.9205 23.4674C50.9352 22.9581 50.9821 22.4089 50.9821 22.4089C51.5481 19.6365 48.9566 18.4342 46.9 18.7145Z" fill="#2A428C"/>
<path d="M46.9 18.7143C44.9898 18.9745 44.8084 20.0575 44.8075 20.4548C44.8073 20.5382 44.7611 20.6153 44.6861 20.6517C43.6926 21.1349 44.2281 23.4646 44.2281 23.4646C44.328 23.4712 44.4775 23.557 44.5555 23.5947C44.5745 23.4761 44.6057 23.3592 44.6498 23.2462C44.6833 23.1602 44.7252 23.0732 44.7775 22.991C44.8684 22.8485 44.9097 22.6802 44.8975 22.5121C44.8619 22.026 44.8337 21.1138 45.4752 20.8251C46.0187 20.5806 46.6853 20.7222 47.1105 20.8635C47.2267 20.9022 47.3472 20.9235 47.4681 20.9296C47.4496 20.8977 47.4299 20.8663 47.4077 20.8352C46.5883 19.6835 47.7273 18.8442 47.9472 18.6974C47.5947 18.6625 47.2401 18.6679 46.9 18.7143Z" fill="#1C2E7A"/>
<path d="M51.0903 23.5334C50.9415 23.397 50.6452 23.4661 50.517 23.5495C50.5452 23.7244 50.5468 23.9032 50.5224 24.0797L50.3712 25.181C50.3712 25.2698 50.3684 25.3568 50.3633 25.4423C50.732 25.5537 50.9152 25.2225 50.9459 24.9954C50.9593 24.8977 50.9809 24.8013 51.0111 24.7071C51.1091 24.401 51.463 23.8748 51.0903 23.5334Z" fill="#FCAD6D"/>
<path d="M43.9833 23.5334C44.1322 23.397 44.4284 23.4661 44.5566 23.5495C44.5285 23.7244 44.5268 23.9032 44.5512 24.0797L44.7024 25.181C44.7024 25.2698 44.7052 25.3568 44.7104 25.4423C44.3417 25.5537 44.1586 25.2225 44.1277 24.9954C44.1143 24.8977 44.0928 24.8013 44.0625 24.7071C43.9643 24.401 43.6107 23.8748 43.9833 23.5334Z" fill="#FD995B"/>
<path d="M50.4712 23.2089C50.4372 23.1201 50.3943 23.0301 50.3402 22.9455C50.2485 22.8018 50.2082 22.6319 50.2206 22.4624C50.256 21.9751 50.237 21.0222 49.5974 20.7344C49.0539 20.4899 48.3874 20.6315 47.9622 20.7728C47.6861 20.8647 47.387 20.8647 47.1109 20.7728C46.6858 20.6315 46.0192 20.4899 45.4757 20.7344C44.8342 21.0229 44.8171 21.9805 44.8527 22.4666C44.8652 22.6347 44.8237 22.803 44.7327 22.9455C44.6805 23.0277 44.6385 23.1147 44.605 23.2007C44.4963 23.4798 44.4646 23.7826 44.5054 24.0791L44.6566 25.1807C44.6566 26.7644 45.502 27.8406 46.221 28.3989C46.5963 28.6902 47.0594 28.8487 47.5366 28.8487C48.0135 28.8487 48.4769 28.6905 48.8521 28.3989C49.5712 27.8406 50.4166 26.7641 50.4166 25.1807L50.5677 24.0794C50.6081 23.7859 50.5774 23.4859 50.4712 23.2089Z" fill="#F9BA8F"/>
<path d="M48.321 28.3989C47.602 27.8406 46.7566 26.7641 46.7566 25.1807L46.6054 24.0791C46.5646 23.7826 46.5963 23.4798 46.705 23.2007C46.7385 23.1147 46.7805 23.0277 46.8327 22.9455C46.9237 22.803 46.9649 22.6347 46.9527 22.4666C46.9204 22.0272 46.9317 21.2024 47.4081 20.8349C47.3076 20.8253 47.2077 20.8051 47.1109 20.7728C46.6858 20.6315 46.0192 20.4899 45.4757 20.7344C44.8342 21.0229 44.8171 21.9805 44.8527 22.4666C44.8652 22.6347 44.8237 22.803 44.7327 22.9455C44.6805 23.0277 44.6385 23.1147 44.605 23.2007C44.4963 23.4798 44.4646 23.7826 44.5054 24.0791L44.6566 25.1807C44.6566 26.7644 45.502 27.8406 46.2208 28.3989C46.596 28.6902 47.0594 28.8487 47.5363 28.8487C47.9062 28.8487 48.2676 28.753 48.5863 28.5744C48.494 28.5226 48.4052 28.4645 48.321 28.3989Z" fill="#FCAD6D"/>
<path d="M45.4922 30.2199C45.21 30.0007 44.9156 29.7303 44.6327 29.4092C44.0189 29.5962 43.444 29.8507 42.8927 30.1618C42.6035 30.3249 42.473 30.42 42.2276 30.4402C41.9693 30.4613 41.7342 30.5075 41.5195 30.574C42.1526 31.2814 42.9094 31.8753 43.7545 32.3246C44.0705 32.0646 44.5123 31.8284 45.1313 31.6582C45.7795 31.4801 46.2553 31.1611 46.6057 30.7843C46.2045 30.6678 45.8257 30.4789 45.4922 30.2199Z" fill="#2A428C"/>
<path d="M69.9399 32.9333C73.3269 32.9333 75.9807 30.5504 75.9807 30.5504C77.2459 29.125 78.0146 27.2488 78.0146 25.1929C78.0146 20.7332 74.3994 17.1182 69.9399 17.1182C65.4805 17.1182 61.8652 20.7334 61.8652 25.1929C61.8652 27.2488 62.634 29.125 63.8994 30.5504C63.8994 30.5504 66.5532 32.9333 69.9399 32.9333Z" fill="#FFDD40"/>
<path d="M73.9627 26.9985C73.9627 26.9985 69.272 19.9811 67.4063 19.9811C66.0029 19.9811 65.7884 18.8425 65.7683 18.2783C63.429 19.6925 61.8652 22.2601 61.8652 25.1933C61.8652 27.2493 62.634 29.1254 63.8994 30.5509C63.8996 30.5511 66.5532 32.9336 69.9402 32.9336C73.3271 32.9336 75.9809 30.5509 75.9809 30.5509C76.6768 29.7667 77.2215 28.8458 77.5716 27.834C75.3491 28.9935 73.9627 26.9985 73.9627 26.9985Z" fill="#FFB332"/>
<path d="M72.9048 24.0146C72.9119 24.4011 72.8737 24.797 72.8324 25.0611C72.6374 25.9208 72.3557 26.6692 71.9955 27.2858C71.8321 27.5652 71.6284 27.8195 71.3898 28.041L71.3594 28.0693V28.262C71.3594 28.4617 71.437 28.6461 71.5689 28.8161C72.3081 28.7713 72.9365 28.6218 73.4317 28.4511C74.028 28.2458 74.2891 27.5389 73.9633 26.9989C73.1962 25.7275 73.3105 24.0146 73.3105 24.0146H72.9048Z" fill="#2A428C"/>
<path d="M73.963 26.9978C73.8911 26.8785 73.8269 26.7554 73.7697 26.63C72.877 27.148 72.5202 26.4142 72.5202 26.4142C72.5202 26.4142 72.4973 26.3804 72.4548 26.3174C72.3198 26.668 72.1666 26.9914 71.9955 27.2844C71.8321 27.5638 71.6284 27.8181 71.3898 28.0396L71.3594 28.0679V28.2606C71.3594 28.46 71.437 28.6447 71.5689 28.8146C72.3081 28.7699 72.9365 28.6204 73.4317 28.4497C74.0277 28.2446 74.2888 27.5378 73.963 26.9978Z" fill="#1C2E7A"/>
<path d="M66.4485 28.4507C66.9437 28.6213 67.572 28.7708 68.3113 28.8156C68.4432 28.6457 68.5208 28.461 68.5208 28.2615V28.025L68.4915 27.9969C68.2731 27.7862 68.0851 27.5467 67.9323 27.2856C67.5718 26.6687 67.2903 25.9206 67.0956 25.0618C67.0529 24.8129 67.0145 24.4105 67.0229 24.0146H66.5694C66.5694 24.0146 66.6838 25.7275 65.9167 26.9989C65.5913 27.5385 65.8524 28.2454 66.4485 28.4507Z" fill="#1C2E7A"/>
<path d="M71.6954 19.0785C71.2358 18.8413 70.6644 18.6768 69.9634 18.6768C69.2623 18.6768 68.6909 18.8413 68.2313 19.0785C67.2254 19.5974 66.6055 20.6282 66.6055 21.74V23.1118V23.1123C66.7641 23.1086 66.9397 23.1606 67.0527 23.2361C67.0944 23.0996 67.1513 22.9818 67.2284 22.8948C67.2978 22.8165 67.3414 22.72 67.3444 22.6164C67.3562 22.2203 67.4602 21.2844 68.1575 20.9263C68.3518 20.8264 68.5892 20.9026 68.6982 21.0918C69.1182 21.82 70.0981 22.7797 72.2771 22.3707C72.4316 22.3417 72.5769 22.4568 72.5816 22.6138V22.6161C72.5846 22.7195 72.6282 22.8163 72.6976 22.8946C72.7747 22.9815 72.8316 23.0994 72.8734 23.2358C72.9863 23.1604 73.1619 23.1086 73.3205 23.1121V23.1116V21.7398C73.3213 20.6282 72.7013 19.5976 71.6954 19.0785Z" fill="#2A428C"/>
<path d="M69.9214 22.1261C68.8414 20.0629 70.8706 18.7773 70.8706 18.7773C70.5957 18.7138 70.2941 18.6768 69.9634 18.6768C69.2623 18.6768 68.6909 18.8413 68.2313 19.0785C67.2254 19.5974 66.6055 20.6282 66.6055 21.74V23.1118V23.1123C66.7641 23.1086 66.9397 23.1606 67.0527 23.2361C67.0944 23.0996 67.1513 22.9818 67.2284 22.8948C67.2978 22.8165 67.3414 22.72 67.3444 22.6164C67.3562 22.2203 67.4602 21.2844 68.1575 20.9263C68.3518 20.8264 68.5892 20.9026 68.6982 21.0918C68.9253 21.4855 69.3165 21.9465 69.9718 22.2226C69.9552 22.1903 69.9383 22.1582 69.9214 22.1261Z" fill="#1C2E7A"/>
<path d="M67.0253 25.0748C67.0253 25.0748 66.8432 23.9221 67.0529 23.2356C66.8626 23.1088 66.4949 23.0467 66.3294 23.2084C65.9907 23.5394 66.2389 24.0393 66.3575 24.3552C66.3939 24.4523 66.4175 24.5502 66.4281 24.6484C66.4513 24.862 66.5668 25.1744 67.0468 25.1669C67.0398 25.1364 67.0325 25.1059 67.0253 25.0748Z" fill="#FD995B"/>
<path d="M73.5985 23.2085C73.433 23.0468 73.0653 23.1087 72.875 23.2357C73.0848 23.9222 72.9027 25.0749 72.9027 25.0749C72.8956 25.106 72.8881 25.1365 72.8809 25.1672C73.3609 25.1745 73.4766 24.862 73.4996 24.6488C73.5102 24.5506 73.5338 24.4524 73.5702 24.3556C73.689 24.0396 73.9372 23.5397 73.5985 23.2085Z" fill="#FCAD6D"/>
<path d="M66.9071 29.7579C67.4441 30.6769 68.2571 31.3915 69.2586 31.8246C69.7072 32.0187 70.2214 32.0187 70.6698 31.8246C71.671 31.3915 72.4843 30.6766 73.0212 29.7579C73.0416 29.723 73.0611 29.6866 73.0805 29.6508C72.2377 29.3271 71.4533 28.8661 71.4533 28.2621C71.4533 28.0516 71.4533 28.1147 71.4533 27.9785C71.0862 28.3066 70.4572 28.7245 69.939 28.737C69.4208 28.7245 68.7915 28.3064 68.4247 27.9785C68.4247 28.3697 68.5285 28.8405 67.299 29.4377C67.1539 29.508 66.999 29.5744 66.8398 29.6362C66.8619 29.6768 66.8841 29.7183 66.9071 29.7579Z" fill="#FCAD6D"/>
<path d="M69.9263 28.736C69.4105 28.717 68.7887 28.3038 68.4247 27.9785C68.4247 28.3697 68.5285 28.8405 67.299 29.4377C67.1539 29.508 66.999 29.5744 66.8398 29.6362C66.8621 29.6773 66.8841 29.7185 66.9073 29.7581C67.3796 30.5665 68.0659 31.2166 68.9059 31.6563C69.6158 30.6684 69.8504 29.4881 69.9263 28.736Z" fill="#FD995B"/>
<path d="M75.1062 30.223C74.9916 30.1921 73.9032 29.9849 72.9439 29.5954C72.9158 29.646 72.8884 29.6982 72.8595 29.7477C72.3509 30.6182 71.5805 31.2953 70.6318 31.7057C70.2069 31.8894 69.7196 31.8894 69.2947 31.7057C68.3459 31.2953 67.5755 30.6182 67.0669 29.7477C67.0353 29.6936 67.0055 29.6366 66.9746 29.5811C65.9914 29.9863 64.7776 30.2216 64.7724 30.223C64.5648 30.2629 64.2409 30.3533 63.8984 30.55C65.3776 32.2166 67.5355 33.2671 69.9392 33.2671C72.343 33.2671 74.5009 32.2164 75.98 30.55C75.6376 30.3533 75.3139 30.2629 75.1062 30.223Z" fill="#FC90CE"/>
<path d="M72.6071 22.6153C72.6055 22.5649 72.6025 22.504 72.5966 22.436C72.5788 22.4105 72.5579 22.387 72.5331 22.3671C72.4578 22.3066 72.3601 22.2823 72.2654 22.3001C70.1877 22.6901 69.2134 21.8386 68.7618 21.0558C68.6793 20.9128 68.5363 20.8266 68.3849 20.8125C68.2567 20.8481 68.1388 20.9013 68.0319 20.9726C67.423 21.378 67.3325 22.2565 67.3217 22.6155C67.3189 22.7098 67.281 22.8009 67.2118 22.8787C66.8305 23.3084 66.9139 24.5634 67.003 25.0802C67.1999 25.9498 67.4853 26.7077 67.851 27.3335C68.2222 27.9689 68.7842 28.463 69.4766 28.7625C69.7867 28.8966 70.1422 28.8966 70.4523 28.7625C71.1446 28.463 71.7069 27.9689 72.0779 27.3335C72.4435 26.708 72.7288 25.9498 72.9264 25.0786C73.0119 24.5353 73.1028 23.313 72.7173 22.8787C72.6482 22.8007 72.61 22.7095 72.6071 22.6153Z" fill="#F9BA8F"/>
<path d="M70.3991 27.3335C70.0335 26.7077 69.7482 25.9495 69.5511 25.0802C69.4621 24.5634 69.3786 23.3084 69.76 22.8787C69.8291 22.8007 69.8673 22.7098 69.8701 22.6155C69.8736 22.4972 69.886 22.3221 69.9226 22.1262C69.3521 21.8646 68.99 21.4516 68.7618 21.0558C68.6793 20.9128 68.5365 20.8266 68.3849 20.8125C68.2567 20.8481 68.1388 20.9013 68.0319 20.9726C67.423 21.378 67.3325 22.2565 67.3217 22.6155C67.3189 22.7098 67.281 22.8009 67.2118 22.8787C66.8305 23.3084 66.9139 24.5634 67.003 25.0802C67.1999 25.9498 67.4853 26.7077 67.851 27.3335C68.2222 27.9689 68.7842 28.463 69.4766 28.7625C69.7867 28.8966 70.1422 28.8966 70.4523 28.7625C70.7382 28.6387 71.0014 28.4815 71.2386 28.2954C70.9014 28.0303 70.6171 27.7064 70.3991 27.3335Z" fill="#FCAD6D"/>
<path d="M68.9764 31.554C68.1734 31.1373 67.5174 30.5186 67.067 29.7477C67.0353 29.6936 67.0055 29.6366 66.9746 29.5811C65.9914 29.9863 64.7776 30.2216 64.7724 30.223C64.5648 30.2629 64.2409 30.3533 63.8984 30.55C64.8526 31.625 66.0896 32.4432 67.4923 32.889C68.143 32.5494 68.623 32.0753 68.9764 31.554Z" fill="#F964B2"/>
<path d="M25.1372 32.9302C28.5241 32.9302 31.178 30.5475 31.178 30.5475C32.4431 29.122 33.2121 27.2459 33.2121 25.1899C33.2121 20.7302 29.5969 17.1152 25.1372 17.1152C20.6775 17.1152 17.0625 20.7305 17.0625 25.1899C17.0625 27.2459 17.8312 29.122 19.0966 30.5475C19.0966 30.5475 21.7502 32.9302 25.1372 32.9302Z" fill="#4CE088"/>
<path d="M29.16 26.9955C29.16 26.9955 24.4692 19.9781 22.6036 19.9781C21.1999 19.9781 20.9857 18.8395 20.9655 18.2754C18.6263 19.6896 17.0625 22.2572 17.0625 25.1904C17.0625 27.2463 17.8312 29.1225 19.0966 30.548C19.0966 30.548 21.7505 32.9306 25.1374 32.9306C28.5244 32.9306 31.1782 30.548 31.1782 30.548C31.8741 29.7637 32.4187 28.8429 32.7689 27.8311C30.5463 28.9905 29.16 26.9955 29.16 26.9955Z" fill="#30C16B"/>
<path d="M28.1021 24.0107C28.1091 24.3972 28.0709 24.7931 28.0297 25.0572C27.8347 25.9169 27.553 26.6655 27.1927 27.2819C27.0294 27.5615 26.8257 27.8156 26.5871 28.0371L26.5566 28.0654V28.2581C26.5566 28.4575 26.6342 28.6422 26.7662 28.8121C27.5054 28.7674 28.1338 28.6179 28.629 28.4472C29.2252 28.2419 29.4861 27.535 29.1605 26.9953C28.3934 25.7238 28.5078 24.011 28.5078 24.011L28.1021 24.0107Z" fill="#2A428C"/>
<path d="M29.1603 26.9948C29.0884 26.8755 29.0241 26.7525 28.967 26.6271C28.0742 27.1451 27.7175 26.4113 27.7175 26.4113C27.7175 26.4113 27.6945 26.3775 27.6521 26.3145C27.5171 26.6651 27.3641 26.9885 27.1927 27.2815C27.0294 27.5611 26.8257 27.8152 26.5871 28.0366L26.5566 28.065V28.2577C26.5566 28.4571 26.6342 28.6418 26.7662 28.8117C27.5054 28.767 28.1338 28.6174 28.629 28.4468C29.225 28.2417 29.4861 27.5348 29.1603 26.9948Z" fill="#1C2E7A"/>
<path d="M21.6458 28.4477C22.141 28.6184 22.7694 28.7681 23.5086 28.8127C23.6405 28.6427 23.7181 28.458 23.7181 28.2586V28.0221L23.6888 27.994C23.4704 27.7833 23.2824 27.5438 23.1296 27.2827C22.7691 26.6658 22.4876 25.9177 22.2929 25.0589C22.2502 24.81 22.2115 24.4076 22.2202 24.0117H21.7667C21.7667 24.0117 21.8811 25.7245 21.114 26.996C20.7887 27.5355 21.0495 28.2424 21.6458 28.4477Z" fill="#1C2E7A"/>
<path d="M26.8927 19.0755C26.433 18.8384 25.8616 18.6738 25.1606 18.6738C24.4596 18.6738 23.8882 18.8384 23.4286 19.0755C22.4227 19.5945 21.8027 20.6252 21.8027 21.7371V23.1089V23.1094C21.9614 23.1056 22.137 23.1577 22.2499 23.2331C22.2916 23.0967 22.3486 22.9788 22.4257 22.8919C22.4951 22.8136 22.5387 22.7168 22.5417 22.6134C22.5534 22.2173 22.6575 21.2815 23.3548 20.9234C23.5491 20.8235 23.7865 20.8997 23.8955 21.0888C24.3155 21.817 25.2954 22.7768 27.4744 22.3678C27.6288 22.3387 27.7741 22.4538 27.7791 22.6109V22.6132C27.7821 22.7166 27.8257 22.8134 27.8951 22.8916C27.9722 22.9786 28.0291 23.0965 28.0709 23.2329C28.1838 23.1574 28.3594 23.1054 28.518 23.1091V23.1087V21.7369C28.5188 20.625 27.8988 19.5945 26.8927 19.0755Z" fill="#2A428C"/>
<path d="M25.1187 22.1231C24.0387 20.0599 26.0679 18.7744 26.0679 18.7744C25.793 18.7109 25.4916 18.6738 25.1606 18.6738C24.4596 18.6738 23.8882 18.8384 23.4286 19.0755C22.4227 19.5945 21.8027 20.6252 21.8027 21.7371V23.1089V23.1094C21.9614 23.1056 22.137 23.1577 22.2499 23.2331C22.2916 23.0967 22.3486 22.9788 22.4257 22.8919C22.4951 22.8136 22.5387 22.7168 22.5417 22.6134C22.5534 22.2173 22.6575 21.2815 23.3548 20.9234C23.5491 20.8235 23.7865 20.8997 23.8955 21.0888C24.1226 21.4826 24.5137 21.9436 25.1691 22.2197C25.1524 22.1873 25.1355 22.1552 25.1187 22.1231Z" fill="#1C2E7A"/>
<path d="M22.2225 25.0718C22.2225 25.0718 22.0404 23.9192 22.2502 23.2327C22.0599 23.1059 21.6921 23.0438 21.5267 23.2055C21.188 23.5365 21.4362 24.0364 21.5548 24.3523C21.5914 24.4493 21.6148 24.5473 21.6253 24.6455C21.6485 24.859 21.7641 25.1715 22.2441 25.164C22.2371 25.1335 22.2298 25.103 22.2225 25.0718Z" fill="#FD995B"/>
<path d="M28.7958 23.2056C28.6303 23.0439 28.2626 23.1057 28.0723 23.2328C28.282 23.9193 28.0999 25.0719 28.0999 25.0719C28.0929 25.1031 28.0854 25.1336 28.0781 25.1643C28.5581 25.1715 28.6739 24.8591 28.6969 24.6458C28.7074 24.5476 28.7311 24.4494 28.7674 24.3526C28.8862 24.0367 29.1345 23.5368 28.7958 23.2056Z" fill="#FCAD6D"/>
<path d="M22.1044 29.7542C22.6413 30.6732 23.4544 31.3878 24.4559 31.8209C24.9045 32.015 25.4187 32.015 25.867 31.8209C26.8683 31.3876 27.6816 30.673 28.2185 29.7542C28.2389 29.7193 28.2584 29.683 28.2778 29.6469C27.435 29.3232 26.6505 28.8622 26.6505 28.2582C26.6505 28.0477 26.6505 28.1108 26.6505 27.9746C26.2837 28.3027 25.6545 28.7206 25.1362 28.733C24.618 28.7204 23.9888 28.3025 23.622 27.9746C23.622 28.3658 23.7258 28.8366 22.4962 29.4338C22.3512 29.5041 22.1962 29.5705 22.0371 29.6323C22.0591 29.6731 22.0814 29.7146 22.1044 29.7542Z" fill="#FCAD6D"/>
<path d="M25.1236 28.7321C24.6077 28.7131 23.9859 28.2999 23.622 27.9746C23.622 28.3658 23.7258 28.8366 22.4962 29.4338C22.3512 29.5041 22.1962 29.5705 22.0371 29.6323C22.0594 29.6734 22.0814 29.7146 22.1046 29.7542C22.5769 30.5626 23.2631 31.2127 24.1031 31.6524C24.8128 30.6645 25.0477 29.4842 25.1236 28.7321Z" fill="#FD995B"/>
<path d="M30.3033 30.2201C30.1887 30.1891 29.1002 29.982 28.1409 29.5924C28.1128 29.643 28.0856 29.6953 28.0566 29.7448C27.548 30.6152 26.7776 31.2923 25.8288 31.7027C25.4039 31.8865 24.9169 31.8865 24.492 31.7027C23.5432 31.2923 22.7728 30.6152 22.2642 29.7448C22.2326 29.6906 22.2028 29.6337 22.1719 29.5781C21.1884 29.9834 19.9748 30.2187 19.9697 30.2201C19.762 30.2599 19.4381 30.3504 19.0957 30.547C20.5748 32.2137 22.7327 33.2641 25.1365 33.2641C27.5402 33.2641 29.6981 32.2134 31.1773 30.547C30.8346 30.3504 30.5109 30.2599 30.3033 30.2201Z" fill="#FC90CE"/>
<path d="M27.8044 22.6116C27.8028 22.5613 27.7997 22.5003 27.7939 22.4323C27.776 22.4068 27.755 22.3834 27.7303 22.3634C27.6551 22.303 27.5574 22.2786 27.4627 22.2962C25.385 22.6862 24.4107 21.8347 23.959 21.0519C23.8765 20.9089 23.7335 20.8227 23.5821 20.8086C23.4539 20.8442 23.336 20.8974 23.2292 20.9687C22.6203 21.3741 22.5298 22.2526 22.519 22.6116C22.5162 22.7059 22.4782 22.797 22.4091 22.8748C22.0278 23.3045 22.1112 24.5595 22.2003 25.0763C22.3971 25.9459 22.6826 26.7038 23.0482 27.3296C23.4195 27.965 23.9815 28.4591 24.6739 28.7586C24.9839 28.8927 25.3395 28.8927 25.6496 28.7586C26.3419 28.4591 26.9042 27.965 27.2752 27.3296C27.6408 26.7041 27.926 25.9459 28.1236 25.0747C28.2092 24.5314 28.3001 23.3094 27.9143 22.8748C27.8454 22.797 27.8072 22.7059 27.8044 22.6116Z" fill="#F9BA8F"/>
<path d="M25.5966 27.3306C25.231 26.7048 24.9455 25.9466 24.7486 25.0773C24.6596 24.5605 24.5761 23.3054 24.9575 22.8758C25.0266 22.798 25.0648 22.7068 25.0674 22.6126C25.0709 22.4943 25.0833 22.3192 25.1199 22.1232C24.5494 21.8617 24.1873 21.4487 23.959 21.0529C23.8765 20.9099 23.7335 20.8236 23.5821 20.8096C23.4539 20.8452 23.336 20.8984 23.2292 20.9696C22.6203 21.3751 22.5298 22.2536 22.519 22.6126C22.5162 22.7068 22.4782 22.798 22.4091 22.8758C22.0278 23.3054 22.1112 24.5605 22.2003 25.0773C22.3971 25.9468 22.6826 26.7048 23.0482 27.3306C23.4195 27.966 23.9815 28.46 24.6739 28.7596C24.9839 28.8936 25.3395 28.8936 25.6496 28.7596C25.9353 28.6358 26.1987 28.4786 26.4359 28.2925C26.0989 28.0274 25.8146 27.7035 25.5966 27.3306Z" fill="#FCAD6D"/>
<path d="M24.1737 31.5511C23.3707 31.1344 22.7147 30.5156 22.2642 29.7448C22.2326 29.6906 22.2028 29.6337 22.1719 29.5781C21.1884 29.9834 19.9748 30.2187 19.9697 30.2201C19.762 30.2599 19.4381 30.3504 19.0957 30.547C20.0498 31.6221 21.2869 32.4403 22.6896 32.8861C23.3402 32.5465 23.8202 32.0723 24.1737 31.5511Z" fill="#F964B2"/>
</g>
<defs>
<clipPath id="clip0_417_40682">
<rect width="120" height="120" fill="white" transform="translate(0 0.555664)"/>
</clipPath>
</defs>
</svg>
