<svg width="120" height="121" viewBox="0 0 120 121" fill="none" xmlns="http://www.w3.org/2000/svg">
<g clip-path="url(#clip0_456_13135)">
<path d="M57.5841 5.85645C25.9539 5.85645 0.3125 31.4979 0.3125 63.1281C0.3125 66.5067 0.607508 69.816 1.16854 73.0338L48.3786 119.66C51.3759 120.144 54.4498 120.4 57.5839 120.4C89.2141 120.4 114.856 94.7585 114.856 63.1283C114.856 31.4981 89.2143 5.85645 57.5841 5.85645Z" fill="#3371DA"/>
<path d="M73.9265 28.3979C81.5715 28.3979 87.769 22.2004 87.769 14.5554C87.769 6.91039 81.5715 0.712891 73.9265 0.712891C66.2815 0.712891 60.084 6.91039 60.084 14.5554C60.084 22.2004 66.2815 28.3979 73.9265 28.3979Z" fill="#42C3FC"/>
<path d="M79.9847 27.0038C79.8851 26.9213 79.7729 26.851 79.6434 26.8058C75.9997 25.5372 76.2999 22.6696 76.7171 21.2339C76.8548 20.7603 76.6758 20.2586 76.2746 19.9718C74.8466 18.9516 75.2973 17.3583 75.607 16.6339C75.719 16.3716 75.7318 16.0778 75.6348 15.8096L73.0992 8.79815C72.9945 8.50899 72.7743 8.27967 72.4956 8.14899C69.356 6.67605 69.8373 3.18715 70.1795 1.78176C70.2244 1.59779 70.2192 1.40938 70.1725 1.23242C64.3523 2.86923 60.084 8.21211 60.084 14.5555C60.084 22.2005 66.2815 28.398 73.9265 28.398C76.0993 28.398 78.1548 27.8961 79.9847 27.0038Z" fill="#1AA9E8"/>
<path d="M73.9264 8.28516C69.8166 8.28516 66.2309 10.5283 64.3265 13.8569C64.0787 14.2901 64.0787 14.8212 64.3265 15.2543C66.2309 18.5829 69.8168 20.8261 73.9264 20.8261C78.0362 20.8261 81.6219 18.5829 83.5266 15.2543C83.7744 14.8212 83.7744 14.2901 83.5266 13.8569C81.6219 10.5283 78.0362 8.28516 73.9264 8.28516Z" fill="#E9EFFF"/>
<path d="M76.2745 19.9721C74.8465 18.9519 75.2972 17.3586 75.6069 16.6342C75.7189 16.3719 75.7318 16.078 75.6347 15.8099L73.0991 8.79843C73.0355 8.62241 72.9252 8.47233 72.7889 8.34961C69.1621 8.72106 66.0528 10.8401 64.3265 13.8571C64.0787 14.2902 64.0787 14.8213 64.3265 15.2545C66.2309 18.583 69.8166 20.8262 73.9264 20.8262C74.8752 20.8262 75.7944 20.7016 76.6731 20.4768C76.5915 20.2795 76.4576 20.1027 76.2745 19.9721Z" fill="#BEC8F7"/>
<path d="M117.867 37.2845C119.626 29.846 115.021 22.3904 107.582 20.632C100.144 18.8737 92.6882 23.4784 90.9299 30.917C89.1715 38.3556 93.7763 45.8112 101.215 47.5695C108.653 49.3279 116.109 44.7231 117.867 37.2845Z" fill="#FF4155"/>
<path d="M108.973 38.7833C108.936 38.3233 108.597 37.9507 108.15 37.8333C107.774 37.7345 107.527 37.5016 107.402 37.3539C107.35 37.2912 107.306 37.2225 107.271 37.1489C107.053 36.7024 105.8 34.3402 102.952 32.8107C100.753 31.63 100.947 29.9777 101.266 29.0843C101.409 28.685 101.302 28.242 100.999 27.9461C98.2937 25.3055 99.5826 22.4721 100.342 21.2818C100.441 21.1263 100.495 20.9524 100.51 20.7764C94.7498 22.4517 90.5391 27.7656 90.5391 34.066C90.5391 41.711 96.7366 47.9085 104.382 47.9085C108.507 47.9085 112.208 46.1022 114.744 43.2398C109.976 43.4436 109.103 40.3961 108.973 38.7833Z" fill="#E80054"/>
<path d="M111.814 30.8778C110.562 28.5851 107.623 27.8263 105.344 29.1033L104.787 29.4154C104.536 29.5564 104.23 29.5564 103.978 29.4154L103.321 29.047C101.026 27.7613 98.1233 28.6276 96.9084 30.9601H96.9082C95.7621 33.161 96.5335 35.8843 98.6794 37.1303C100.489 38.1813 102.205 39.4981 103.647 41.071C104.041 41.5009 104.725 41.5009 105.119 41.0708C106.561 39.4981 108.276 38.1815 110.086 37.1303C112.259 35.8684 113.023 33.0925 111.814 30.8778Z" fill="#E9EFFF"/>
<path d="M98.6794 37.1298C100.489 38.1808 102.205 39.4976 103.647 41.0706C104.041 41.5005 104.725 41.5005 105.119 41.0703C106.16 39.9347 107.345 38.9349 108.604 38.07C108.476 37.9604 108.321 37.8783 108.151 37.8334C107.775 37.7345 107.529 37.5017 107.404 37.354C107.351 37.2913 107.308 37.2226 107.272 37.149C107.054 36.7025 105.801 34.3403 102.953 32.8108C100.754 31.6301 100.948 29.9778 101.268 29.0844C101.341 28.8801 101.348 28.6645 101.297 28.4628C99.5306 28.3677 97.7825 29.281 96.9084 30.9594H96.9082C95.7621 33.1605 96.5335 35.8838 98.6794 37.1298Z" fill="#BEC8F7"/>
<path d="M115.924 79.4116C121.329 74.0066 121.329 65.2434 115.924 59.8383C110.519 54.4333 101.756 54.4333 96.3511 59.8384C90.9461 65.2434 90.9461 74.0066 96.3511 79.4116C101.756 84.8167 110.519 84.8167 115.924 79.4116Z" fill="#FFB332"/>
<path d="M108.88 77.7892L105.565 62.8212C100.686 61.0037 102.651 56.2403 102.658 56.2246C96.7071 57.7749 92.3145 63.1842 92.3145 69.6201C92.3145 77.2651 98.512 83.4626 106.157 83.4626C107.962 83.4626 109.685 83.1134 111.266 82.485C107.83 81.3368 108.88 77.7892 108.88 77.7892Z" fill="#FF9100"/>
<path d="M99.9381 62.8213H112.375C113.473 62.8213 114.373 63.7206 114.373 64.8195V73.6578C114.373 74.757 113.473 75.656 112.375 75.656H110.596C110.398 75.656 110.212 75.7558 110.104 75.9218L108.879 77.7894C108.581 78.2433 107.916 78.2433 107.618 77.7894L106.393 75.9218C106.285 75.7561 106.1 75.656 105.901 75.656H99.9377C98.8387 75.656 97.9395 74.7567 97.9395 73.6578V64.8195C97.9399 63.7203 98.8392 62.8213 99.9381 62.8213Z" fill="#E9EFFF"/>
<path d="M103.568 73.6576V64.8195C103.568 63.7203 104.467 62.8213 105.566 62.8213H99.9396C98.8407 62.8213 97.9414 63.7206 97.9414 64.8195V73.6578C97.9414 74.7567 98.8407 75.656 99.9396 75.656H105.566C104.467 75.656 103.568 74.7567 103.568 73.6576Z" fill="#BEC8F7"/>
<path d="M70.4235 8.85227C69.6902 9.67885 69.2441 10.7661 69.2441 11.958C69.2441 14.5444 71.3408 16.641 73.9271 16.641C76.5135 16.641 78.6101 14.5444 78.6101 11.958C78.6101 10.7661 78.1641 9.67908 77.4307 8.8525C76.3297 8.48479 75.1518 8.28516 73.9271 8.28516C72.7024 8.28492 71.5245 8.48456 70.4235 8.85227Z" fill="#47477F"/>
<path d="M34.6117 94.5825C33.4272 95.2663 31.9162 95.076 30.9369 94.1197L30.7251 93.9126L26.0684 96.6013L35.3155 106.288C35.5192 106.19 35.7216 106.086 35.9208 105.971C40.2835 103.452 41.7781 97.8737 39.2594 93.5112C39.0221 93.1002 38.7575 92.7148 38.4695 92.3555L34.6117 94.5825Z" fill="#D3DCFB"/>
<path d="M30.9369 94.1202L30.7251 93.9131L26.0684 96.6018L35.3155 106.288C35.5194 106.19 35.7216 106.087 35.9208 105.972C37.4016 105.116 38.5511 103.908 39.3262 102.515C32.8573 100.914 34.6119 94.583 34.6119 94.583C33.4272 95.267 31.9162 95.0765 30.9369 94.1202Z" fill="#BEC8F7"/>
<path d="M26.3228 96.3037L15.8535 102.348C24.373 111.409 35.8087 117.696 48.6633 119.707L26.3228 96.3037Z" fill="#E9EFFF"/>
<path d="M35.6787 106.104L26.3228 96.3027L15.8535 102.347C19.5035 106.229 23.6899 109.6 28.2925 112.345C28.0417 105.202 35.6787 106.104 35.6787 106.104Z" fill="#D3DCFB"/>
<path d="M9.76589 68.3662L6.56568 62.8232C5.59416 61.1404 3.44261 60.5639 1.75975 61.5354C0.076891 62.5069 -0.499568 64.6585 0.47195 66.3414L3.67216 71.8843L9.76589 68.3662Z" fill="#E9EFFF"/>
<path d="M6.89018 63.3857C6.90257 63.5129 6.90959 63.6417 6.90959 63.7719C6.90959 65.9277 5.16197 67.6753 3.00622 67.6753C2.21937 67.6753 1.48816 67.4404 0.875 67.0399L3.67174 71.8842L9.76546 68.3661L6.89018 63.3857Z" fill="#D3DCFB"/>
<path d="M16.2213 102.737L31.3229 94.0185C31.1017 93.8023 30.9037 93.5555 30.7415 93.2745L14.9186 65.8688C14.7563 65.5879 14.6413 65.2928 14.5649 64.9932L1.12305 72.7539C3.07497 84.2865 8.47161 94.6469 16.2213 102.737Z" fill="#FF7186"/>
<path d="M22.0696 79.7773L22.081 78.2742L14.9188 65.8688C14.7566 65.5879 14.6415 65.2928 14.5651 64.9932L1.12305 72.7539C2.06581 78.3237 3.81436 83.6189 6.24105 88.5183C6.5585 85.5103 8.57026 84.5311 8.57026 84.5311C8.57026 84.5311 12.6611 82.135 16.223 80.1751C19.7846 78.2155 22.0696 79.7773 22.0696 79.7773Z" fill="#FF4155"/>
<path d="M48.6725 85.3092C59.327 81.0608 70.7537 80.4483 81.3843 83.0438L49.0989 27.124C46.0312 37.6282 39.7877 47.2178 30.7812 54.3207C31.4444 54.6045 32.0263 55.0937 32.4148 55.7665L48.2372 83.1719C48.6255 83.8447 48.7583 84.593 48.6725 85.3092Z" fill="#D3DCFB"/>
<path d="M60.391 46.6823L49.0989 27.124C46.0315 37.6282 39.7877 47.2178 30.7812 54.3207C31.4444 54.6045 32.0263 55.0937 32.4148 55.7665L40.1203 69.1127C49.1396 62.5875 56.0903 54.7281 60.391 46.6823Z" fill="#BEC8F7"/>
<path d="M47.4233 87.6364L34.8062 94.9209C33.1518 95.8761 31.0367 95.3092 30.0816 93.6549L14.2589 66.2494C13.3037 64.5951 13.8706 62.4798 15.525 61.5249L28.1421 54.2404C29.7964 53.2852 31.9117 53.8521 32.8666 55.5062L48.6891 82.9116C49.6443 84.5662 49.0774 86.6812 47.4233 87.6364Z" fill="#FF4155"/>
<path d="M32.8665 55.5062C31.9114 53.8519 29.7963 53.2852 28.142 54.2404L15.5249 61.5249C13.8705 62.4801 13.3039 64.5954 14.2588 66.2495L22.0693 79.7778C22.9611 75.8359 26.2317 77.6073 26.2317 77.6073L36.7159 71.5543C37.2003 67.7645 40.544 68.8048 40.544 68.8048L32.8665 55.5062Z" fill="#E80054"/>
<path d="M21.2922 67.2932C20.6863 67.2932 20.097 66.9788 19.7723 66.4163C19.2882 65.5778 19.5755 64.5056 20.414 64.0214L27.8616 59.7216C28.7001 59.2372 29.7724 59.5248 30.2565 60.3633C30.7407 61.2018 30.4534 62.2741 29.6149 62.7582L22.1672 67.058C21.8911 67.2174 21.5896 67.2932 21.2922 67.2932Z" fill="#FF7186"/>
<path d="M24.5207 72.8889C23.9148 72.8889 23.3255 72.5745 23.0008 72.012C22.5167 71.1735 22.804 70.1013 23.6425 69.6171L31.0902 65.3173C31.9287 64.833 33.0009 65.1205 33.4851 65.959C33.9692 66.7975 33.6819 67.8698 32.8434 68.3539L25.3957 72.6537C25.1196 72.8131 24.8181 72.8889 24.5207 72.8889Z" fill="#FF7186"/>
<path d="M27.7512 78.4836C27.1453 78.4836 26.556 78.1692 26.2313 77.6068C25.7471 76.7683 26.0344 75.696 26.8729 75.2119L34.3206 70.912C35.1591 70.4277 36.2314 70.7152 36.7155 71.5537C37.1996 72.3922 36.9124 73.4645 36.0738 73.9486L28.6262 78.2484C28.3501 78.4079 28.0485 78.4836 27.7512 78.4836Z" fill="#FF7186"/>
<path d="M30.9817 84.0783C30.3757 84.0783 29.7864 83.7639 29.4617 83.2015C28.9776 82.363 29.2649 81.2907 30.1034 80.8066L37.5511 76.5068C38.3896 76.0224 39.4619 76.3099 39.946 77.1484C40.4301 77.9869 40.1428 79.0592 39.3043 79.5433L31.8566 83.8432C31.5806 84.0026 31.279 84.0783 30.9817 84.0783Z" fill="#FF7186"/>
<path d="M34.2121 89.674C33.6062 89.674 33.0169 89.3596 32.6922 88.7972C32.2081 87.9587 32.4954 86.8864 33.3339 86.4023L40.7816 82.1025C41.6201 81.6181 42.6923 81.9056 43.1765 82.7441C43.6606 83.5827 43.3733 84.6549 42.5348 85.139L35.0871 89.4389C34.811 89.5983 34.5095 89.674 34.2121 89.674Z" fill="#FF7186"/>
<path d="M85.9044 84.7696C84.2217 85.7411 82.07 85.1647 81.0984 83.4818L48.5774 27.1539C47.6058 25.471 48.1825 23.3194 49.8652 22.3479C51.5478 21.3764 53.6996 21.9529 54.6711 23.6357L87.1919 79.9637C88.1637 81.6465 87.5872 83.7981 85.9044 84.7696Z" fill="#E9EFFF"/>
<path d="M62.1443 43.3368C63.3554 42.6376 64.7727 42.6247 65.9511 43.1734L54.6711 23.6357C53.6996 21.9529 51.5478 21.3764 49.8652 22.3479C48.1825 23.3194 47.6058 25.471 48.5774 27.1539L60.0874 47.0896C60.0236 45.6029 60.7662 44.1325 62.1443 43.3368Z" fill="#D3DCFB"/>
<path opacity="0.1" d="M98.9097 102.778C95.2735 97.1992 88.9102 90.778 81.2428 91.6908C68.129 93.2516 35.6345 94.985 60.2738 120.335C75.4401 119.634 89.0655 113.035 98.9097 102.778Z" fill="white"/>
<path opacity="0.1" d="M4.73828 41.0196C9.08954 65.8375 40.4219 26.2323 42.083 17.4507C42.828 13.5123 40.9079 10.8652 38.4768 9.12598C23.2324 14.5201 10.9526 26.1832 4.73828 41.0196Z" fill="white"/>
<path d="M75.2954 12.9708C76.2396 12.9708 77.005 12.2054 77.005 11.2613C77.005 10.3171 76.2396 9.55176 75.2954 9.55176C74.3513 9.55176 73.5859 10.3171 73.5859 11.2613C73.5859 12.2054 74.3513 12.9708 75.2954 12.9708Z" fill="#5F5F9B"/>
</g>
<defs>
<clipPath id="clip0_456_13135">
<rect width="120" height="120" fill="white" transform="translate(0 0.555664)"/>
</clipPath>
</defs>
</svg>
