<svg width="120" height="121" viewBox="0 0 120 121" fill="none" xmlns="http://www.w3.org/2000/svg">
<g clip-path="url(#clip0_417_40950)">
<path d="M120 60.5557C120 93.6932 93.1375 120.556 60 120.556C26.8625 120.556 0 93.6932 0 60.5557C0 27.4182 26.8625 0.555664 60 0.555664C93.1375 0.555664 120 27.4182 120 60.5557Z" fill="#3371DA"/>
<path d="M117.502 33.309L111.514 10.2221C111.129 8.73346 109.785 7.69434 108.248 7.69434H11.8446C10.3065 7.69434 8.96344 8.73346 8.57709 10.2221L2.59045 33.309C2.51904 33.5854 2.48242 33.8702 2.48242 34.1558V44.764H2.49707C2.48791 44.9526 2.48242 45.1422 2.48242 45.3335C2.48242 50.4073 5.73895 54.7177 10.2745 56.2969V94.1412C21.0603 110.08 39.3068 120.556 60.0004 120.556C80.8452 120.556 99.2042 109.925 109.959 93.7905V56.2713C113.977 54.8431 116.976 51.2643 117.57 46.9183C117.581 47.0025 117.596 47.0849 117.609 47.1682V34.1558C117.61 33.8702 117.573 33.5854 117.502 33.309Z" fill="#73C3F9"/>
<path d="M11.8445 7.69434C10.929 7.69434 10.0849 8.06421 9.46875 8.67578V55.9811C9.73242 56.0955 10.0007 56.2017 10.2744 56.296V94.1412C14.267 100.041 19.2814 105.191 25.0638 109.339V7.69434H11.8445Z" fill="#4FABF7"/>
<path d="M94.5731 42.6562C93.7994 48.317 88.9481 52.6794 83.075 52.6794C77.2018 52.6794 72.3514 48.316 71.5778 42.6562C70.8041 48.317 65.9528 52.6794 60.0797 52.6794C54.2065 52.6794 49.3552 48.316 48.5825 42.6562C47.8088 48.317 42.9575 52.6794 37.0844 52.6794C31.2112 52.6794 26.3599 48.316 25.5872 42.6562C25.1724 45.6894 23.5858 48.3499 21.2988 50.1663V92.7374C21.2988 93.3673 21.8088 93.8782 22.4387 93.8782H97.7911C98.421 93.8782 98.9319 93.3673 98.9319 92.7374V50.2203C96.6074 48.403 94.9915 45.7205 94.5731 42.6562Z" fill="#E8E8E8"/>
<path d="M27.4541 89.1614H92.777C93.8848 89.1614 94.7838 88.2623 94.7838 87.1545V43.7778C94.6959 43.4097 94.6254 43.0362 94.5732 42.6562C93.7996 48.317 88.9482 52.6794 83.0751 52.6794C77.202 52.6794 72.3516 48.316 71.5779 42.6562C70.8043 48.317 65.9529 52.6794 60.0798 52.6794C54.2067 52.6794 49.3553 48.316 48.5826 42.6562C47.809 48.317 42.9576 52.6794 37.0845 52.6794C31.2114 52.6794 26.36 48.316 25.5873 42.6562C25.5507 42.9227 25.5013 43.1863 25.4473 43.4473V87.1545C25.4473 88.2623 26.3463 89.1614 27.4541 89.1614Z" fill="#71A2EA"/>
<path d="M108.247 7.69434H11.8446C10.3065 7.69434 8.96344 8.73346 8.57709 10.2221L2.59045 33.309C2.51904 33.5854 2.48242 33.8702 2.48242 34.1558V44.764H2.49707C2.48791 44.9526 2.48242 45.1422 2.48242 45.3335C2.48242 51.7449 7.67987 56.9415 14.0904 56.9415C19.9635 56.9415 24.8149 52.579 25.5885 46.9183C26.3621 52.579 31.2126 56.9415 37.0857 56.9415C42.9588 56.9415 47.8102 52.579 48.5838 46.9183C49.3574 52.579 54.2088 56.9415 60.0819 56.9415C65.955 56.9415 70.8055 52.579 71.5791 46.9183C72.3527 52.579 77.2041 56.9415 83.0772 56.9415C88.9503 56.9415 93.8017 52.579 94.5744 46.9183C95.348 52.579 100.199 56.9415 106.073 56.9415C111.946 56.9415 116.797 52.579 117.57 46.9183C117.582 47.0025 117.597 47.0849 117.61 47.1682V34.1558C117.61 33.8702 117.573 33.5854 117.502 33.309L111.514 10.2221C111.128 8.73346 109.785 7.69434 108.247 7.69434Z" fill="#FF6C52"/>
<path d="M94.5732 42.6562C93.7996 48.3169 88.9482 52.6794 83.0751 52.6794C77.202 52.6794 72.3516 48.316 71.5779 42.6562C70.8043 48.3169 65.9529 52.6794 60.0798 52.6794C54.2067 52.6794 49.3553 48.316 48.5826 42.6562C47.809 48.3169 42.9576 52.6794 37.0845 52.6794C35.9484 52.6794 34.8516 52.5137 33.8134 52.2097C33.5543 52.1337 33.2997 52.0486 33.048 51.9552C33.037 51.9515 33.026 51.9479 33.0141 51.9433C32.9097 51.9039 32.8054 51.8618 32.7019 51.8197C32.6635 51.8041 32.625 51.7886 32.5865 51.7721C32.4877 51.7309 32.3897 51.6879 32.2927 51.6439C32.2533 51.6256 32.2148 51.6082 32.1764 51.5899C32.0766 51.5432 31.9777 51.4965 31.8807 51.4471C31.8615 51.4379 31.8422 51.4269 31.823 51.4169C31.595 51.3015 31.3716 51.1788 31.1528 51.0488C31.1501 51.047 31.1464 51.0452 31.1437 51.0433C31.0521 50.9884 30.9624 50.9316 30.8727 50.8749C30.8333 50.8492 30.7939 50.8245 30.7546 50.7989C30.6703 50.7449 30.588 50.689 30.5056 50.6323C30.4625 50.603 30.4204 50.5728 30.3774 50.5425C30.2968 50.4849 30.2172 50.4281 30.1384 50.3686C30.1 50.3402 30.0624 50.31 30.0249 50.2816C29.8555 50.1516 29.6898 50.017 29.5278 49.8788C29.5095 49.8623 29.4911 49.8477 29.4728 49.8321C29.4042 49.7717 29.3364 49.7094 29.2687 49.6481C29.2229 49.606 29.1762 49.5638 29.1304 49.5208C29.0663 49.4613 29.0041 49.4 28.9418 49.3386C28.8942 49.291 28.8457 49.2434 28.799 49.1949C28.7395 49.1345 28.6809 49.075 28.6232 49.0127C28.5729 48.9596 28.5234 48.9047 28.474 48.8497C28.4209 48.7911 28.3669 48.7325 28.3156 48.673C28.2231 48.5659 28.1325 48.4579 28.0437 48.348C27.9988 48.2931 27.9567 48.2354 27.9128 48.1796C27.8606 48.1127 27.8093 48.0459 27.7581 47.9781C27.715 47.9186 27.672 47.8591 27.6299 47.7996C27.5804 47.731 27.5328 47.6614 27.4843 47.5909C27.4449 47.5323 27.4056 47.4746 27.3662 47.4151C27.3149 47.3364 27.2655 47.2567 27.2161 47.1771C27.1831 47.1249 27.1511 47.0736 27.119 47.0205C27.0421 46.8923 26.967 46.7623 26.8956 46.6305C26.8727 46.5893 26.8508 46.5463 26.8288 46.5032C26.7775 46.4071 26.7263 46.3091 26.6777 46.2112C26.6512 46.1562 26.6246 46.1004 26.599 46.0455C26.556 45.9557 26.5148 45.866 26.4745 45.7754C26.4498 45.7195 26.425 45.6628 26.4003 45.606C26.3591 45.5081 26.3188 45.4092 26.2804 45.3103C26.2612 45.2618 26.2419 45.2133 26.2236 45.1647C26.1678 45.0182 26.1147 44.8699 26.0652 44.7207C26.0579 44.6969 26.0506 44.6722 26.0433 44.6484C26.0012 44.5202 25.9618 44.3911 25.9243 44.2611C25.9096 44.2089 25.8959 44.1567 25.8821 44.1046C25.8538 44.0002 25.8263 43.894 25.8016 43.7878C25.7878 43.7319 25.7741 43.6752 25.7622 43.6193C25.7375 43.5095 25.7146 43.4005 25.6935 43.2897C25.6835 43.2394 25.6734 43.189 25.6642 43.1387C25.6359 42.9785 25.6093 42.8173 25.5864 42.6553C25.5498 42.9226 25.5013 43.1854 25.4473 43.4463V87.1545C25.4473 88.2623 26.3454 89.1604 27.4541 89.1604H35.8239C34.7161 89.1604 33.817 87.7175 33.817 85.9377V60.8587C34.8543 61.1627 35.9502 61.3265 37.0845 61.3265C42.9576 61.3265 47.809 56.9641 48.5817 51.3033C49.3553 56.9641 54.2067 61.3265 60.0798 61.3265C65.9529 61.3265 70.8043 56.9641 71.5779 51.3033C72.3506 56.9641 77.202 61.3265 83.0751 61.3265C88.9482 61.3265 93.7996 56.9641 94.5732 51.3033C94.6245 51.6824 94.6959 52.0541 94.7829 52.4203V43.7777C94.6959 43.4106 94.6254 43.0361 94.5732 42.6562Z" fill="#578DCE"/>
<path d="M20.956 54.6924C20.6823 54.8947 20.3984 55.0851 20.1055 55.2628C20.3975 55.0851 20.6813 54.8947 20.956 54.6924Z" fill="#50309E"/>
<path d="M17.2655 56.502C16.9286 56.5972 16.5862 56.6786 16.2383 56.7437C16.5862 56.6777 16.9286 56.5972 17.2655 56.502Z" fill="#50309E"/>
<path d="M103.924 56.7437C103.575 56.6786 103.232 56.5972 102.896 56.502C103.232 56.5972 103.575 56.6777 103.924 56.7437Z" fill="#50309E"/>
<path d="M24.291 50.8721C24.942 49.6755 25.3887 48.3507 25.5837 46.9463C25.3878 48.3507 24.942 49.6755 24.291 50.8721Z" fill="#50309E"/>
<path d="M27.0552 33.8154H2.50073C2.48975 33.928 2.48242 34.0416 2.48242 34.1551V44.7633H2.49707C2.48791 44.9519 2.48242 45.1414 2.48242 45.3328C2.48242 51.7442 7.67987 56.9407 14.0904 56.9407C14.8246 56.9407 15.5424 56.873 16.2391 56.7421C16.587 56.6771 16.9294 56.5965 17.2664 56.5013C17.7708 56.3575 18.2615 56.1808 18.7349 55.9739C19.0507 55.8357 19.3602 55.6837 19.6605 55.5189C19.8106 55.4365 19.9589 55.3505 20.1054 55.2617C20.3975 55.084 20.6813 54.8945 20.9559 54.6922C22.1919 53.784 23.2411 52.6359 24.0358 51.3176C24.1237 51.1711 24.2088 51.0219 24.2912 50.8717C24.9421 49.6742 25.388 48.3494 25.583 46.945L27.0552 33.8154Z" fill="#FF432E"/>
<path d="M93.1289 33.8154L94.6505 47.3991C94.873 48.636 95.2896 49.8042 95.87 50.8717C95.9524 51.0228 96.0375 51.1711 96.1254 51.3176C96.9201 52.6359 97.9693 53.784 99.2053 54.6922C99.4799 54.8945 99.7637 55.085 100.056 55.2626C100.202 55.3514 100.351 55.4365 100.501 55.5189C100.801 55.6837 101.11 55.8357 101.426 55.9739C101.901 56.1818 102.39 56.3585 102.895 56.5013C103.232 56.5965 103.574 56.678 103.922 56.743C104.619 56.873 105.337 56.9417 106.071 56.9417C106.805 56.9417 107.523 56.873 108.22 56.743C108.567 56.678 108.91 56.5965 109.247 56.5013C109.751 56.3585 110.242 56.1818 110.715 55.9739C111.031 55.8357 111.341 55.6837 111.641 55.5189C111.791 55.4365 111.939 55.3514 112.086 55.2626C112.378 55.085 112.662 54.8945 112.936 54.6922C114.172 53.784 115.221 52.6359 116.016 51.3176C116.105 51.1711 116.189 51.0228 116.272 50.8717C116.927 49.6669 117.375 48.3329 117.569 46.9175C117.574 46.9597 117.582 47.0009 117.589 47.0421C117.595 47.0842 117.602 47.1254 117.608 47.1675V34.1551C117.608 34.0416 117.601 33.928 117.59 33.8154H93.1289Z" fill="#FF432E"/>
<path d="M63.2557 56.502C62.9188 56.5972 62.5764 56.6786 62.2285 56.7437C62.5764 56.6777 62.9197 56.5972 63.2557 56.502Z" fill="#50309E"/>
<path d="M57.9335 56.7437C57.5847 56.6786 57.2422 56.5972 56.9062 56.502C57.2422 56.5972 57.5847 56.6777 57.9335 56.7437Z" fill="#50309E"/>
<path d="M66.9453 54.693C68.1813 53.7848 69.2305 52.6367 70.0251 51.3184C69.2305 52.6367 68.1822 53.7848 66.9453 54.693Z" fill="#50309E"/>
<path d="M70.2812 50.8722C70.8983 49.7388 71.3286 48.49 71.5383 47.168C71.3277 48.49 70.8983 49.7388 70.2812 50.8722Z" fill="#50309E"/>
<path d="M71.5382 33.8154H48.6445V47.3039C48.8624 48.5756 49.2845 49.7776 49.8796 50.8726C49.962 51.0228 50.0471 51.1711 50.135 51.3176C50.9297 52.6368 51.9789 53.784 53.2148 54.6931C53.4895 54.8945 53.7733 55.085 54.0654 55.2626C54.2119 55.3514 54.3602 55.4365 54.5103 55.5198C54.8106 55.6846 55.1201 55.8357 55.4359 55.9749C55.9102 56.1818 56.4 56.3585 56.9044 56.5013C57.2413 56.5974 57.5837 56.678 57.9316 56.743C58.6284 56.873 59.3461 56.9417 60.0804 56.9417C60.8146 56.9417 61.5324 56.8739 62.2291 56.743C62.577 56.678 62.9194 56.5974 63.2563 56.5013C63.7608 56.3585 64.2515 56.1818 64.7249 55.9749C65.0407 55.8366 65.3502 55.6846 65.6505 55.5198C65.8006 55.4365 65.9489 55.3514 66.0954 55.2626C66.3875 55.085 66.6713 54.8945 66.9459 54.6931C68.1819 53.784 69.2311 52.6368 70.0258 51.3176C70.1136 51.1711 70.1988 51.0228 70.2812 50.8726C70.8973 49.7383 71.3276 48.4895 71.5382 47.1675V33.8154Z" fill="#FF432E"/>
<path d="M71.5391 33.8162H93.1299L90.203 7.69434H71.5391V33.8162Z" fill="#FDD33A"/>
<path d="M80.9276 56.7437C80.5797 56.6786 80.2364 56.5972 79.9004 56.502C80.2364 56.5972 80.5788 56.6777 80.9276 56.7437Z" fill="#50309E"/>
<path d="M86.2518 56.502C85.9149 56.5972 85.5725 56.6786 85.2246 56.7437C85.5734 56.6777 85.9158 56.5972 86.2518 56.502Z" fill="#50309E"/>
<path d="M71.5391 47.1679C71.5528 47.0846 71.5684 47.0022 71.5793 46.918C71.5674 47.0022 71.5528 47.0846 71.5391 47.1679Z" fill="#50309E"/>
<path d="M71.5391 47.1675C71.5528 47.0842 71.5684 47.0018 71.5793 46.9175C71.7725 48.3329 72.2211 49.6669 72.8757 50.8726C72.9581 51.0228 73.0433 51.1711 73.1312 51.3176C73.9268 52.6368 74.975 53.784 76.211 54.6931C76.4857 54.8945 76.7695 55.085 77.0615 55.2626C77.208 55.3514 77.3563 55.4365 77.5065 55.5198C77.8068 55.6846 78.1162 55.8357 78.4321 55.9749C78.9063 56.1818 79.397 56.3585 79.9015 56.5013C80.2375 56.5974 80.5799 56.678 80.9278 56.743C81.6245 56.873 82.3423 56.9417 83.0765 56.9417C83.8108 56.9417 84.5286 56.8739 85.2253 56.743C85.5732 56.678 85.9156 56.5974 86.2525 56.5013C86.757 56.3585 87.2477 56.1818 87.721 55.9749C88.0378 55.8366 88.3463 55.6846 88.6466 55.5198C88.7968 55.4365 88.9451 55.3514 89.0916 55.2626C89.3836 55.085 89.6674 54.8945 89.9421 54.6931C91.178 53.784 92.2272 52.6368 93.0219 51.3176C93.1107 51.1711 93.1949 51.0228 93.2773 50.8726C93.9329 49.6669 94.3806 48.3329 94.5746 46.9175C94.5966 47.0796 94.6232 47.2398 94.6516 47.3991L93.1299 33.8154H71.5391V47.1675Z" fill="#E0AF24"/>
<path d="M48.6447 33.8162V7.69434H29.9816L27.0547 33.8162H48.6447Z" fill="#FDD33A"/>
<path d="M34.9365 56.7437C34.5886 56.6786 34.2462 56.5972 33.9102 56.502C34.2462 56.5972 34.5886 56.6777 34.9365 56.7437Z" fill="#50309E"/>
<path d="M40.2616 56.502C39.9247 56.5972 39.5823 56.6786 39.2344 56.7437C39.5823 56.6777 39.9247 56.5972 40.2616 56.502Z" fill="#50309E"/>
<path d="M48.6452 47.3039V33.8154H27.0552L25.584 46.9459C25.5849 46.9359 25.5867 46.9276 25.5886 46.9175C25.7817 48.3329 26.2294 49.6669 26.8849 50.8726C26.9664 51.0228 27.0516 51.1711 27.1404 51.3176C27.9351 52.6368 28.9843 53.784 30.2202 54.6931C30.4949 54.8945 30.7787 55.085 31.0707 55.2626C31.2172 55.3514 31.3646 55.4365 31.5157 55.5198C31.816 55.6846 32.1245 55.8357 32.4404 55.9749C32.9146 56.1818 33.4053 56.3585 33.9098 56.5013C34.2467 56.5974 34.5891 56.678 34.937 56.743C35.6328 56.873 36.3515 56.9417 37.0858 56.9417C37.82 56.9417 38.5378 56.8739 39.2336 56.743C39.5815 56.678 39.9248 56.5974 40.2608 56.5013C40.7653 56.3585 41.256 56.1818 41.7302 55.9749C42.0461 55.8366 42.3546 55.6846 42.6549 55.5198C42.806 55.4365 42.9543 55.3514 43.0999 55.2626C43.3928 55.085 43.6766 54.8945 43.9513 54.6931C45.1863 53.784 46.2365 52.6368 47.0302 51.3176C47.119 51.1711 47.2042 51.0228 47.2856 50.8726C47.9412 49.6669 48.3898 48.3329 48.5829 46.9175C48.6013 47.0475 48.6232 47.1757 48.6452 47.3039Z" fill="#E0AF24"/>
<path d="M86.3086 77.5791C86.3086 80.5564 83.8953 82.9697 80.918 82.9697C77.9416 82.9697 75.5273 80.5564 75.5273 77.5791C75.5273 74.6018 77.9416 72.1885 80.918 72.1885C83.8953 72.1885 86.3086 74.6018 86.3086 77.5791Z" fill="#3371DA"/>
<path d="M90.7451 69.8506C90.7451 71.4198 89.4725 72.6924 87.9033 72.6924C86.3331 72.6924 85.0605 71.4198 85.0605 69.8506C85.0605 68.2814 86.3331 67.0088 87.9033 67.0088C89.4725 67.0088 90.7451 68.2814 90.7451 69.8506Z" fill="#3371DA"/>
</g>
<defs>
<clipPath id="clip0_417_40950">
<rect width="120" height="120" fill="white" transform="translate(0 0.555664)"/>
</clipPath>
</defs>
</svg>
