<svg width="120" height="121" viewBox="0 0 120 121" fill="none" xmlns="http://www.w3.org/2000/svg">
<g clip-path="url(#clip0_417_40844)">
<path d="M60 120.556C93.1371 120.556 120 93.6927 120 60.5557C120 27.4186 93.1371 0.555664 60 0.555664C26.8629 0.555664 0 27.4186 0 60.5557C0 93.6927 26.8629 120.556 60 120.556Z" fill="#5488E0"/>
<path d="M119.999 60.5554C119.999 52.0987 118.25 44.0505 115.093 36.7532L103.147 24.8076L16.8516 94.6628L38.9466 116.758C45.4973 119.213 52.5914 120.555 59.9993 120.555C93.1364 120.555 119.999 93.6925 119.999 60.5554Z" fill="#004DD1"/>
<path d="M16.8516 35.4424H103.147V94.6631H16.8516V35.4424Z" fill="white"/>
<path d="M16.8516 35.4424H59.963V94.6631H16.8516V35.4424Z" fill="white"/>
<path d="M59.9629 35.4424H103.147V94.6631H59.9629V35.4424Z" fill="#E9EDF5"/>
<path d="M60 45.9951H93.7941V53.0264H60V45.9951Z" fill="#AFB4C8"/>
<path d="M60 58.4463H93.7941V65.4775H60V58.4463Z" fill="#AFB4C8"/>
<path d="M60 70.8975H93.7941V77.9287H60V70.8975Z" fill="#AFB4C8"/>
<path d="M16.8516 24.8076H103.147V37.0825H16.8516V24.8076Z" fill="#DCE1EB"/>
<path d="M59.9629 24.8076H103.147V37.0825H59.9629V24.8076Z" fill="#BEC3D2"/>
<path d="M65.8004 75.8076L61.3086 81.7488L76.2085 98.444C79.4731 102.102 85.1415 102.263 88.6084 98.7961C88.6386 98.7658 88.6665 98.7339 88.6963 98.7035L76.8976 84.2543L65.8004 75.8076Z" fill="#FF432E"/>
<path d="M88.2567 86.3958L71.5615 71.4961L66.0127 75.5271L65.8008 75.8074L88.6966 98.7033C92.0705 95.2289 91.8827 89.632 88.2567 86.3958Z" fill="#FF6C52"/>
<path d="M59.3623 69.3682L54.5527 74.1775L61.3091 81.7479L66.5256 76.5316L64.3213 72.6818L59.3623 69.3682Z" fill="#004DD1"/>
<path d="M71.5625 71.4956L63.9922 64.7393L59.3633 69.3682L66.5265 76.5316L71.5625 71.4956Z" fill="#3371DA"/>
<path d="M25.3465 35.3535C25.3163 35.3835 25.2854 35.4123 25.2551 35.4426C15.6441 45.0536 15.6441 60.636 25.2551 70.247C34.8662 79.858 50.4486 79.858 60.0596 70.247C60.0898 70.2168 60.1187 70.1859 60.1487 70.1556L42.6212 50.8091L25.3465 35.3535Z" fill="#E9EDF5"/>
<path d="M60.0588 35.4429C50.478 25.8622 34.9637 25.8333 25.3457 35.3539L60.1478 70.156C69.6684 60.538 69.6395 45.024 60.0588 35.4429Z" fill="white"/>
<path d="M57.6619 67.6689C57.6319 67.6993 57.6042 67.7312 57.574 67.7614C49.3491 75.9864 35.9665 75.9861 27.7413 67.7614C19.5167 59.5365 19.5167 46.1537 27.7413 37.9288C27.7716 37.8986 27.8035 37.8709 27.8339 37.8409L26.0656 34.5456L22.861 32.8682C22.8307 32.8982 22.7998 32.927 22.7696 32.9572C11.8034 43.9236 11.8034 61.7671 22.7696 72.7335C28.2528 78.2167 35.4551 80.9582 42.6577 80.9582C49.86 80.9582 57.0626 78.2167 62.5458 72.7335C62.576 72.7032 62.6049 72.6723 62.6349 72.6421L60.8942 69.3688L57.6619 67.6689Z" fill="#555A66"/>
<path d="M42.658 31.7599C48.0599 31.7599 53.462 33.8161 57.5744 37.9284C65.7691 46.1229 65.7967 59.4363 57.6623 67.6685L62.6352 72.6415C73.5114 61.6678 73.4823 43.8928 62.5462 32.9566C51.61 22.0205 33.835 21.9914 22.8613 32.8676L27.8343 37.8405C31.9352 33.7884 37.296 31.7599 42.658 31.7599Z" fill="#636978"/>
<path d="M24.2676 58.2172L25.6649 55.6747C26.1306 56.0628 26.7517 56.4315 27.5282 56.4315C28.5763 56.4315 29.2555 55.7523 29.2555 54.6652V46.2031H32.594V54.7041C32.594 57.9066 30.6531 59.3816 27.8193 59.3816C26.519 59.3818 25.2379 59.0712 24.2676 58.2172Z" fill="#004DD1"/>
<path d="M44.3647 54.3726C43.8331 55.6014 42.7034 56.4323 41.1903 56.4323C39.0362 56.4323 37.658 54.7825 37.658 52.6865C37.658 51.2434 38.3002 50.0275 39.3915 49.3994L39.0969 47.6566L37.1405 47.1484C35.3729 48.3128 34.2617 50.2776 34.2617 52.6865C34.2617 56.6266 37.2313 59.3823 41.1905 59.3823C43.5467 59.3823 45.5452 58.4062 46.7776 56.7855L45.9172 54.8559L44.3647 54.3726Z" fill="#004DD1"/>
<path d="M41.1906 48.9403C43.3255 48.9403 44.7037 50.5706 44.7037 52.6861C44.7037 53.2966 44.5837 53.8673 44.365 54.3724L46.7777 56.7851C47.616 55.6823 48.1 54.2812 48.1 52.6861C48.1 48.7463 45.1499 45.9902 41.1906 45.9902C39.652 45.9902 38.2642 46.4079 37.1406 47.148L39.3916 49.399C39.9002 49.1063 40.5058 48.9403 41.1906 48.9403Z" fill="#3371DA"/>
<path d="M49.7871 59.1496V46.2041H57.1235C59.6855 46.2041 60.9082 47.8733 60.9082 49.5036C60.9082 51.1145 59.9184 52.2013 58.6957 52.4732C60.0736 52.6867 61.1606 54.0064 61.1606 55.6368C61.1606 57.5193 59.899 59.1496 57.3565 59.1496H49.7871ZM57.5116 50.0858C57.5116 49.4647 57.0459 49.0182 56.3665 49.0182H53.1253V51.1726H56.3665C57.0459 51.1726 57.5116 50.7264 57.5116 50.0858ZM57.7641 55.1708C57.7641 54.5305 57.2981 54.0064 56.483 54.0064H53.1253V56.3354H56.483C57.2789 56.3354 57.7641 55.8695 57.7641 55.1708Z" fill="#3371DA"/>
<path d="M97.6163 33.4575C99.0191 32.876 99.685 31.2675 99.1036 29.8648C98.5222 28.4621 96.9136 27.7963 95.5108 28.3778C94.1079 28.9593 93.442 30.5678 94.0235 31.9705C94.6049 33.3732 96.2135 34.039 97.6163 33.4575Z" fill="#FF6C52"/>
<path d="M89.4308 33.4604C90.8336 32.8789 91.4995 31.2704 90.9181 29.8677C90.3366 28.465 88.7281 27.7993 87.3252 28.3807C85.9224 28.9622 85.2565 30.5707 85.8379 31.9734C86.4194 33.3762 88.0279 34.0419 89.4308 33.4604Z" fill="#FF6C52"/>
</g>
<defs>
<clipPath id="clip0_417_40844">
<rect width="120" height="120" fill="white" transform="translate(0 0.555664)"/>
</clipPath>
</defs>
</svg>
