<svg width="120" height="121" viewBox="0 0 120 121" fill="none" xmlns="http://www.w3.org/2000/svg">
<g clip-path="url(#clip0_460_60376)">
<path d="M60 120.556C93.1371 120.556 120 93.6927 120 60.5557C120 27.4186 93.1371 0.555664 60 0.555664C26.8629 0.555664 0 27.4186 0 60.5557C0 93.6927 26.8629 120.556 60 120.556Z" fill="#5488E0"/>
<path d="M24.7422 48.9675L65.4241 89.4771L53.8157 101.416L71.8448 119.387C99.3088 113.887 120 89.6379 120 60.5557C120 57.3914 119.755 54.2843 119.283 51.2522L96.2964 28.2656L24.7422 48.9675Z" fill="#004DD1"/>
<path d="M36.0172 22.3125C27.3395 22.3125 20.3047 29.3473 20.3047 38.025C20.3047 46.7027 27.3395 53.7375 36.0172 53.7375H60.1962V22.3125H36.0172Z" fill="white"/>
<path d="M83.982 22.3125H60.084V53.7375H83.982C92.6598 53.7375 99.6945 46.7027 99.6945 38.025C99.6945 29.3473 92.6598 22.3125 83.982 22.3125Z" fill="#E9EDF5"/>
<path d="M27.0527 41.8607L28.557 39.7283C29.3503 40.5217 30.5735 41.1829 32.0777 41.1829C33.053 41.1829 33.648 40.8027 33.648 40.2737C33.648 38.7695 27.3998 39.9761 27.3998 35.728C27.3998 33.8767 28.9702 32.2236 31.7967 32.2236C33.5653 32.2236 35.1026 32.7526 36.2761 33.7609L34.7224 35.7941C33.7969 35.0338 32.5901 34.6534 31.4993 34.6534C30.6729 34.6534 30.3091 34.9841 30.3091 35.4468C30.3091 36.8518 36.5407 35.8269 36.5407 39.9264C36.5407 42.1414 34.9043 43.6126 31.9455 43.6126C29.7141 43.6129 28.1604 42.9184 27.0527 41.8607Z" fill="#636978"/>
<path d="M37.8633 43.4139V32.3887H40.7065V43.4139H37.8633Z" fill="#636978"/>
<path d="M42.1289 37.9096C42.1289 34.4052 44.8066 32.207 48.0961 32.207C50.5589 32.207 52.0467 33.513 52.807 34.8848L50.4267 36.1244C50.0135 35.3971 49.1705 34.7193 48.0961 34.7193C46.2945 34.7193 45.0216 36.1077 45.0216 37.9094C45.0216 39.711 46.2945 41.0995 48.0961 41.0995C48.9061 41.0995 49.7325 40.769 50.1293 40.4383V39.5788H47.6501V37.083H52.9725V41.4632C51.7823 42.7691 50.179 43.6122 48.0963 43.6122C44.8069 43.6124 42.1289 41.4138 42.1289 37.9096Z" fill="#636978"/>
<path d="M57.5683 32.3887H54.6426V43.4139H57.4855V37.0335L60.1959 40.7432V35.9601L57.5683 32.3887Z" fill="#636978"/>
<path d="M62.0321 32.3887V38.455L60.084 35.8068V40.589L62.1479 43.4139H64.8917V32.3887H62.0321Z" fill="#414952"/>
<path d="M71.1074 38.9509V32.3887H74.0001V38.8518C74.0001 40.1577 74.7768 41.0997 76.3307 41.0997C77.8513 41.0997 78.6449 40.1575 78.6449 38.8518V32.3887H81.5209V38.9343C81.5209 41.6781 79.8515 43.6122 76.3307 43.6122C72.7769 43.6124 71.1074 41.6617 71.1074 38.9509Z" fill="#414952"/>
<path d="M83.5059 43.4139V32.3887H89.0268C91.5063 32.3887 92.8616 34.0581 92.8616 36.0583C92.8616 38.0418 91.5063 39.7112 89.0268 39.7112H86.3491V43.4139H83.5059ZM89.969 36.0583C89.969 35.298 89.407 34.8681 88.6466 34.8681H86.3491V37.2318H88.6466C89.407 37.2318 89.969 36.8022 89.969 36.0583Z" fill="#414952"/>
<path d="M59.2685 47.2266C56.7208 47.2266 54.6555 49.2919 54.6555 51.8395V79.2724L49.3912 70.7651C47.9008 68.3564 44.7398 67.612 42.3311 69.1024C39.9225 70.5928 39.1781 73.7538 40.6685 76.1625L51.6855 98.4787C53.3301 101.81 56.5558 104.035 60.1964 104.431V47.3198C59.8968 47.2587 59.5865 47.2266 59.2685 47.2266Z" fill="#FFCDBE"/>
<path d="M86.9466 67.1777C84.399 67.1777 82.3337 69.243 82.3337 71.7909V68.5573C82.3337 66.0096 80.2684 63.9443 77.7207 63.9443C75.173 63.9443 73.1077 66.0096 73.1077 68.5573V66.2984C73.1077 63.7507 71.0424 61.6854 68.4948 61.6854C65.9471 61.6854 63.8818 63.7507 63.8818 66.2984V51.8395C63.8818 49.5705 62.2421 47.6883 60.084 47.3027V104.417C60.5056 104.467 60.9329 104.494 61.3644 104.494H80.7669C86.728 104.494 91.5603 99.6621 91.5603 93.701V71.7909C91.5598 69.243 89.4945 67.1777 86.9466 67.1777Z" fill="#FFBEAA"/>
</g>
<defs>
<clipPath id="clip0_460_60376">
<rect width="120" height="120" fill="white" transform="translate(0 0.555664)"/>
</clipPath>
</defs>
</svg>
