<svg width="120" height="121" viewBox="0 0 120 121" fill="none" xmlns="http://www.w3.org/2000/svg">
<g clip-path="url(#clip0_456_13184)">
<path d="M111.454 88.6422C115.272 80.9568 117.422 72.2969 117.422 63.1338C117.422 31.4205 91.7133 5.71191 60 5.71191C28.2867 5.71191 2.57812 31.4205 2.57812 63.1338C2.57812 72.2969 4.72805 80.9568 8.54531 88.642L111.454 88.6422Z" fill="#3371DA"/>
<path d="M111.257 0.555664C109.266 0.555664 11.6418 0.555664 8.74469 0.555664C8.57055 0.555664 8.42969 0.696758 8.42969 0.870664V12.4031H111.572V0.870664C111.572 0.696758 111.431 0.555664 111.257 0.555664Z" fill="#33BAFE"/>
<path d="M33.7698 0.555664C19.9895 0.555664 9.65805 0.555664 8.74469 0.555664C8.57055 0.555664 8.42969 0.696523 8.42969 0.870664V12.4031H24.3693C24.6592 6.75863 28.5395 2.06598 33.7698 0.555664Z" fill="#00A8FD"/>
<path d="M111.572 17.2656H8.42969V88.4083C17.7787 107.448 37.3577 120.556 60.0009 120.556C82.6441 120.556 102.223 107.448 111.572 88.4083V17.2656Z" fill="#EBF1F7"/>
<path d="M24.3517 17.2646H8.42969V88.4073C12.217 96.1203 17.6833 102.86 24.3517 108.149V17.2646Z" fill="#CEE3F4"/>
<path d="M84.1408 27.1885H33.7188C36.3991 28.913 38.1756 31.92 38.1756 35.344C38.1756 38.768 36.3988 41.7748 33.7188 43.4996H84.1408C88.645 43.4996 92.2963 39.8482 92.2963 35.344C92.2963 30.84 88.645 27.1885 84.1408 27.1885Z" fill="#CEE3F4"/>
<path d="M53.853 27.1885H33.7188C36.3991 28.9132 38.1756 31.92 38.1756 35.344C38.1756 38.768 36.3988 41.7748 33.7188 43.4996H53.853C50.3505 39.9971 53.853 37.3758 53.853 37.3758V33.3125C50.4716 29.9311 53.853 27.1885 53.853 27.1885Z" fill="#B0D4EA"/>
<path d="M16.9477 8.47735C15.6368 8.47735 14.6016 7.40579 14.6016 6.13618C14.6016 5.05196 15.3574 4.06641 16.4883 3.83673C17.9208 3.54587 19.2914 4.65048 19.2914 6.13618C19.2914 7.40087 18.2679 8.47735 16.9477 8.47735Z" fill="#65D2FC"/>
<path d="M24.0957 8.47793C22.7935 8.47793 21.752 7.42113 21.752 6.13676C21.752 5.03918 22.5118 4.06582 23.6363 3.83731C25.0388 3.55254 26.4371 4.61379 26.4371 6.13676C26.4371 7.43145 25.3902 8.47793 24.0957 8.47793Z" fill="#65D2FC"/>
<path d="M30.7848 8.43324C29.6684 8.2066 28.9004 7.23816 28.9004 6.13636C28.9004 4.62769 30.2853 3.55191 31.7012 3.83691C32.8395 4.068 33.5855 5.05261 33.5855 6.13636C33.5855 7.61222 32.233 8.72246 30.7848 8.43324Z" fill="#65D2FC"/>
<path d="M104.8 8.00293H92.4551C91.4841 8.00293 90.6973 7.21613 90.6973 6.24512C90.6973 5.2741 91.4841 4.4873 92.4551 4.4873H104.8C105.771 4.4873 106.557 5.2741 106.557 6.24512C106.557 7.21613 105.77 8.00293 104.8 8.00293Z" fill="#65D2FC"/>
<path d="M47.0103 37.3759H45.0826C43.9606 37.3759 43.0508 36.4662 43.0508 35.3441C43.0508 34.2221 43.9604 33.3125 45.0826 33.3125H47.0103C48.1323 33.3125 49.0421 34.2221 49.0421 35.3441C49.0421 36.4662 48.1323 37.3759 47.0103 37.3759Z" fill="#96C8E2"/>
<path d="M58.8877 37.3759H53.7134C52.5915 37.3759 51.6816 36.4662 51.6816 35.3441C51.6816 34.2221 52.5912 33.3125 53.7134 33.3125H58.8877C60.0097 33.3125 60.9195 34.2221 60.9195 35.3441C60.9195 36.4662 60.0097 37.3759 58.8877 37.3759Z" fill="#96C8E2"/>
<path d="M70.677 37.3759H65.5025C64.3805 37.3759 63.4707 36.4662 63.4707 35.3441C63.4707 34.2221 64.3803 33.3125 65.5025 33.3125H70.677C71.799 33.3125 72.7088 34.2221 72.7088 35.3441C72.7088 36.4662 71.799 37.3759 70.677 37.3759Z" fill="#B0D4EA"/>
<path d="M82.4641 37.3759H77.2896C76.1677 37.3759 75.2578 36.4662 75.2578 35.3441C75.2578 34.2221 76.1674 33.3125 77.2896 33.3125H82.4641C83.5861 33.3125 84.4957 34.2221 84.4957 35.3441C84.4959 36.4662 83.5863 37.3759 82.4641 37.3759Z" fill="#B0D4EA"/>
<path d="M83.6243 8.00293H40.5352C39.5641 8.00293 38.7773 7.21613 38.7773 6.24512C38.7773 5.2741 39.5641 4.4873 40.5352 4.4873H83.6243C84.5953 4.4873 85.3821 5.2741 85.3821 6.24512C85.3821 7.21613 84.5953 8.00293 83.6243 8.00293Z" fill="#65D2FC"/>
<path d="M28.1456 46.5266C34.3217 46.5266 39.3284 41.5199 39.3284 35.3439C39.3284 29.1678 34.3217 24.1611 28.1456 24.1611C21.9696 24.1611 16.9629 29.1678 16.9629 35.3439C16.9629 41.5199 21.9696 46.5266 28.1456 46.5266Z" fill="#D3F4C9"/>
<path d="M84.1408 51.6289H33.7188C36.3991 53.3537 38.1756 56.3605 38.1756 59.7845C38.1756 63.2084 36.3988 66.2152 33.7188 67.94H84.1408C88.645 67.94 92.2963 64.2887 92.2963 59.7845C92.2963 55.2802 88.645 51.6289 84.1408 51.6289Z" fill="#CEE3F4"/>
<path d="M53.853 51.6289H33.7188C36.3991 53.3537 38.1756 56.3605 38.1756 59.7845C38.1756 63.2084 36.3988 66.2152 33.7188 67.94H53.853C50.3505 64.4375 53.853 61.8163 53.853 61.8163V57.7529C50.4716 54.3716 53.853 51.6289 53.853 51.6289Z" fill="#B0D4EA"/>
<path d="M47.0103 61.8165H45.0826C43.9606 61.8165 43.0508 60.9069 43.0508 59.7847C43.0508 58.6625 43.9604 57.7529 45.0826 57.7529H47.0103C48.1323 57.7529 49.0421 58.6625 49.0421 59.7847C49.0421 60.9069 48.1323 61.8165 47.0103 61.8165Z" fill="#96C8E2"/>
<path d="M58.8877 61.8165H53.7134C52.5915 61.8165 51.6816 60.9069 51.6816 59.7847C51.6816 58.6625 52.5912 57.7529 53.7134 57.7529H58.8877C60.0097 57.7529 60.9195 58.6625 60.9195 59.7847C60.9195 60.9069 60.0097 61.8165 58.8877 61.8165Z" fill="#96C8E2"/>
<path d="M28.1454 70.9675C34.3213 70.9675 39.3279 65.961 39.3279 59.785C39.3279 53.6091 34.3213 48.6025 28.1454 48.6025C21.9695 48.6025 16.9629 53.6091 16.9629 59.785C16.9629 65.961 21.9695 70.9675 28.1454 70.9675Z" fill="#94E6FF"/>
<path d="M84.1408 76.0693H33.7188C36.3991 77.7941 38.1756 80.8009 38.1756 84.2249C38.1756 87.6489 36.3988 90.6557 33.7188 92.3804H84.1408C88.645 92.3804 92.2963 88.7291 92.2963 84.2249C92.2963 79.7209 88.645 76.0693 84.1408 76.0693Z" fill="#CEE3F4"/>
<path d="M53.853 76.0693H33.7188C36.3991 77.7941 38.1756 80.8009 38.1756 84.2249C38.1756 87.6489 36.3988 90.6559 33.7188 92.3804H53.853C50.3505 88.8779 53.853 86.2567 53.853 86.2567V82.1933C50.4716 78.812 53.853 76.0693 53.853 76.0693Z" fill="#B0D4EA"/>
<path d="M47.0103 86.2567H45.0826C43.9606 86.2567 43.0508 85.3471 43.0508 84.2252C43.0508 83.1032 43.9604 82.1934 45.0826 82.1934H47.0103C48.1323 82.1934 49.0421 83.103 49.0421 84.2252C49.0421 85.3473 48.1323 86.2567 47.0103 86.2567Z" fill="#96C8E2"/>
<path d="M58.8877 86.2567H53.7134C52.5915 86.2567 51.6816 85.3471 51.6816 84.2252C51.6816 83.1032 52.5912 82.1934 53.7134 82.1934H58.8877C60.0097 82.1934 60.9195 83.103 60.9195 84.2252C60.9195 85.3473 60.0097 86.2567 58.8877 86.2567Z" fill="#96C8E2"/>
<path d="M28.1454 95.407C34.3213 95.407 39.3279 90.4004 39.3279 84.2245C39.3279 78.0486 34.3213 73.042 28.1454 73.042C21.9695 73.042 16.9629 78.0486 16.9629 84.2245C16.9629 90.4004 21.9695 95.407 28.1454 95.407Z" fill="#FFF0B3"/>
<path d="M84.1408 100.51H33.7188C36.3991 102.235 38.1756 105.241 38.1756 108.665C38.1756 111.165 37.2259 113.44 35.6718 115.158C36.955 115.759 38.2642 116.314 39.5971 116.821H80.4037C84.5191 115.256 88.409 113.234 92.0085 110.813C92.1948 110.129 92.2963 109.409 92.2963 108.665C92.2963 104.161 88.6452 100.51 84.1408 100.51Z" fill="#CEE3F4"/>
<path d="M53.853 100.51H33.7188C36.3991 102.234 38.1756 105.241 38.1756 108.665C38.1756 111.165 37.2255 113.44 35.6711 115.159C36.9531 115.76 38.2607 116.314 39.5922 116.821H53.853C50.3505 113.318 53.853 110.697 53.853 110.697V106.634C50.4716 103.252 53.853 100.51 53.853 100.51Z" fill="#B0D4EA"/>
<path d="M47.0103 110.697H45.0826C43.9606 110.697 43.0508 109.787 43.0508 108.665C43.0508 107.543 43.9604 106.634 45.0826 106.634H47.0103C48.1323 106.634 49.0421 107.543 49.0421 108.665C49.0421 109.787 48.1323 110.697 47.0103 110.697Z" fill="#96C8E2"/>
<path d="M58.8877 110.697H53.7134C52.5915 110.697 51.6816 109.787 51.6816 108.665C51.6816 107.543 52.5912 106.634 53.7134 106.634H58.8877C60.0097 106.634 60.9195 107.543 60.9195 108.665C60.9195 109.787 60.0097 110.697 58.8877 110.697Z" fill="#96C8E2"/>
<path d="M28.1454 97.4824C24.0827 97.4824 20.5268 99.6492 18.5684 102.89C23.73 108.267 29.929 112.64 36.843 115.691C38.3963 113.771 39.3281 111.327 39.3281 108.665C39.3279 102.489 34.3214 97.4824 28.1454 97.4824Z" fill="#E779B5"/>
<path d="M70.677 61.8155H65.5025C64.3805 61.8155 63.4707 60.9059 63.4707 59.7838C63.4707 58.6618 64.3803 57.752 65.5025 57.752H70.677C71.799 57.752 72.7088 58.6616 72.7088 59.7838C72.7088 60.9059 71.799 61.8155 70.677 61.8155Z" fill="#B0D4EA"/>
<path d="M82.4661 61.8155H77.2916C76.1696 61.8155 75.2598 60.9059 75.2598 59.7838C75.2598 58.6618 76.1694 57.752 77.2916 57.752H82.4661C83.588 57.752 84.4977 58.6616 84.4977 59.7838C84.4979 60.9059 83.5883 61.8155 82.4661 61.8155Z" fill="#B0D4EA"/>
<path d="M70.677 86.2567H65.5025C64.3805 86.2567 63.4707 85.3471 63.4707 84.2249C63.4707 83.103 64.3803 82.1934 65.5025 82.1934H70.677C71.799 82.1934 72.7088 83.103 72.7088 84.2249C72.7088 85.3469 71.799 86.2567 70.677 86.2567Z" fill="#B0D4EA"/>
<path d="M82.4661 86.2567H77.2916C76.1696 86.2567 75.2598 85.3471 75.2598 84.2249C75.2598 83.103 76.1694 82.1934 77.2916 82.1934H82.4661C83.588 82.1934 84.4977 83.103 84.4977 84.2249C84.4979 85.3469 83.5883 86.2567 82.4661 86.2567Z" fill="#B0D4EA"/>
<path d="M101.465 37.3759H99.0689C97.947 37.3759 97.0371 36.4662 97.0371 35.3441C97.0371 34.2221 97.9467 33.3125 99.0689 33.3125H101.465C102.587 33.3125 103.497 34.2221 103.497 35.3441C103.497 36.4662 102.588 37.3759 101.465 37.3759Z" fill="#B0D4EA"/>
<path d="M101.465 61.8155H99.0689C97.947 61.8155 97.0371 60.9059 97.0371 59.7838C97.0371 58.6618 97.9467 57.752 99.0689 57.752H101.465C102.587 57.752 103.497 58.6616 103.497 59.7838C103.497 60.9059 102.588 61.8155 101.465 61.8155Z" fill="#B0D4EA"/>
<path d="M101.465 86.2567H99.0689C97.947 86.2567 97.0371 85.3471 97.0371 84.2249C97.0371 83.103 97.9467 82.1934 99.0689 82.1934H101.465C102.587 82.1934 103.497 83.103 103.497 84.2249C103.497 85.3469 102.588 86.2567 101.465 86.2567Z" fill="#B0D4EA"/>
<path d="M70.677 110.696H65.5025C64.3805 110.696 63.4707 109.787 63.4707 108.665C63.4707 107.543 64.3803 106.633 65.5025 106.633H70.677C71.799 106.633 72.7088 107.542 72.7088 108.665C72.7088 109.787 71.799 110.696 70.677 110.696Z" fill="#B0D4EA"/>
<path d="M82.4661 110.696H77.2916C76.1696 110.696 75.2598 109.787 75.2598 108.665C75.2598 107.543 76.1694 106.633 77.2916 106.633H82.4661C83.588 106.633 84.4977 107.542 84.4977 108.665C84.4977 109.787 83.5883 110.696 82.4661 110.696Z" fill="#B0D4EA"/>
<path d="M8.42969 11.9346H111.572V17.7339H8.42969V11.9346Z" fill="#CEE3F4"/>
<path d="M35.8415 17.7339H8.42969V11.9346H30.0421C33.2451 11.9346 35.8415 14.5312 35.8415 17.7339Z" fill="#0065C6"/>
<path d="M24.3515 13.0835C24.3515 12.6961 24.3716 12.3136 24.4049 11.9346H8.42969V17.7339H24.3517V13.0835H24.3515Z" fill="#0052A9"/>
<path d="M35.1742 114.918C36.6543 113.256 37.555 111.066 37.555 108.665C37.555 103.469 33.3428 99.2568 28.1467 99.2568C24.5692 99.2568 21.4584 101.254 19.8672 104.194C24.3255 108.552 29.4902 112.188 35.1742 114.918Z" fill="#E25CA5"/>
<path d="M30.9941 110.297C30.8809 109.895 30.4994 109.625 30.0824 109.648C26.9395 109.818 25.5663 107.333 25.1029 106.188C24.9735 105.869 24.685 105.635 24.3421 105.601C20.9688 105.271 21.5383 101.969 21.5383 101.969C20.8771 102.621 20.313 103.371 19.8672 104.195C24.3252 108.552 29.4895 112.188 35.1728 114.917C35.7588 114.259 36.2547 113.519 36.6388 112.715C32.568 113.897 31.3504 111.563 30.9941 110.297Z" fill="#DD3F95"/>
<path d="M29.9391 111.738C29.9351 111.687 29.9519 111.638 29.9848 111.598C30.3637 111.143 30.7544 110.467 30.8529 109.557C30.8632 109.461 30.9375 109.391 31.0326 109.378C31.2591 109.346 31.376 109.111 31.3994 108.938C31.4119 108.845 31.4325 108.754 31.4611 108.665C31.5541 108.374 31.8893 107.875 31.5361 107.552C31.4829 107.503 31.41 107.482 31.3329 107.479C31.3472 106.999 31.3912 106.486 31.3912 106.486C31.9277 103.858 29.4717 102.719 27.5226 102.985C25.7123 103.232 25.5403 104.258 25.5396 104.634C25.5394 104.715 25.4932 104.787 25.4208 104.823C24.5119 105.272 24.9621 107.359 24.9895 107.481C24.8878 107.472 24.7842 107.488 24.7148 107.552C24.4507 107.794 24.5716 108.134 24.6881 108.411C26.3794 109.732 28.1482 110.957 29.9838 112.085C29.9632 111.967 29.948 111.849 29.9391 111.738Z" fill="#E779B5"/>
<path d="M29.9376 111.738C29.9336 111.687 29.9505 111.639 29.9833 111.599C30.3074 111.209 30.6386 110.657 30.7895 109.937C30.6123 109.745 30.3557 109.633 30.0824 109.648C26.9394 109.818 25.5662 107.333 25.1029 106.188C25.0506 106.059 24.9714 105.945 24.8739 105.852C24.7926 106.578 24.9707 107.406 24.9876 107.481C24.8859 107.472 24.7823 107.488 24.7129 107.552C24.4487 107.794 24.5697 108.134 24.6862 108.412C26.3774 109.732 28.1462 110.958 29.9819 112.085C29.9617 111.968 29.9465 111.85 29.9376 111.738Z" fill="#E25CA5"/>
<path d="M28.1463 93.6325C33.3422 93.6325 37.5544 89.4204 37.5544 84.2245C37.5544 79.0285 33.3422 74.8164 28.1463 74.8164C22.9504 74.8164 18.7383 79.0285 18.7383 84.2245C18.7383 89.4204 22.9504 93.6325 28.1463 93.6325Z" fill="#FFC533"/>
<path d="M36.6398 88.2749C32.5687 89.4571 31.3512 87.1227 30.9952 85.8573C30.882 85.4554 30.5004 85.1854 30.0834 85.2079C26.9405 85.3778 25.5673 82.893 25.1039 81.7485C24.9745 81.4291 24.686 81.1952 24.3431 81.1616C20.9698 80.8314 21.5393 77.53 21.5393 77.5293C19.8105 79.2353 18.7383 81.6046 18.7383 84.2252C18.7383 89.4213 22.9505 93.6332 28.1463 93.6332C31.8921 93.6334 35.126 91.4439 36.6398 88.2749Z" fill="#F9A52B"/>
<path d="M21.5391 90.9209C23.238 92.5974 25.5708 93.6331 28.1461 93.6331C30.7214 93.6331 33.0544 92.5974 34.7531 90.9209C34.5295 90.4939 34.2042 90.1133 33.7303 89.8693L33.7305 89.8688C33.334 89.6797 31.8509 89.0302 31.1433 88.8415C31.1468 88.7947 31.1255 88.7485 31.0866 88.7199L30.2416 88.1004C30.1962 88.0672 30.1362 88.0831 30.1095 88.1265C30.0077 87.8637 29.959 87.564 29.9381 87.2984C29.9341 87.2473 29.951 87.1986 29.9838 87.159C30.3628 86.7033 30.7535 86.0274 30.852 85.1175C30.8623 85.0222 30.9366 84.9514 31.0317 84.9383C31.2581 84.9068 31.3751 84.6711 31.3985 84.4981C31.4109 84.4053 31.4316 84.3141 31.4602 84.2251C31.5532 83.9347 31.8884 83.4361 31.5352 83.1125C31.482 83.0637 31.4091 83.0429 31.332 83.0396C31.3463 82.5598 31.3901 82.0465 31.3901 82.0465C31.9266 79.4192 29.4705 78.2797 27.5215 78.5454C25.7112 78.7922 25.5391 79.8186 25.5384 80.1952C25.5382 80.2761 25.492 80.348 25.4196 80.3836C24.5107 80.8325 24.9612 82.9196 24.9884 83.0417C24.8866 83.0325 24.783 83.0487 24.7137 83.1125C24.3605 83.4361 24.6956 83.9349 24.7887 84.2251C24.8173 84.3141 24.8379 84.4055 24.8505 84.4981C24.874 84.6711 24.9909 84.9068 25.2173 84.9383C25.3125 84.9514 25.3868 85.0219 25.3971 85.1175C25.4958 86.0279 25.8865 86.7036 26.265 87.159C26.2978 87.1983 26.3147 87.2473 26.3107 87.2982C26.2896 87.5637 26.2409 87.8637 26.1394 88.1265C26.1335 88.1171 26.1267 88.1084 26.1183 88.1018C26.0876 88.0784 26.0428 88.0744 26.0074 88.1004L25.6087 88.3927L25.1625 88.7199C25.1437 88.7335 25.1295 88.7515 25.1196 88.7715C25.1074 88.7965 25.1027 88.8247 25.1074 88.8528C24.442 89.0375 22.9758 89.6717 22.5616 89.8688L22.5619 89.8693C22.088 90.1133 21.7627 90.4941 21.5391 90.9209Z" fill="#FCE453"/>
<path d="M34.7531 90.9204C34.5295 90.4934 34.2042 90.1128 33.7303 89.8688L33.7305 89.8683C33.334 89.6794 31.8509 89.0297 31.1433 88.8411C31.1468 88.7942 31.1255 88.748 31.0866 88.7194L30.2416 88.1C30.1964 88.0667 30.1362 88.0826 30.1097 88.126C30.008 87.8632 29.9592 87.5635 29.9381 87.2979C29.9341 87.2468 29.951 87.1981 29.9838 87.1585C30.308 86.7689 30.6391 86.2168 30.7901 85.4965C30.6129 85.305 30.3563 85.1925 30.083 85.2073C26.94 85.3772 25.5668 82.8924 25.1034 81.7479C25.0512 81.6188 24.972 81.5049 24.8747 81.4111C24.7934 82.1377 24.9715 82.9653 24.9884 83.041C24.8866 83.0318 24.783 83.048 24.7137 83.1118C24.3605 83.4354 24.6956 83.9342 24.7887 84.2243C24.8173 84.3134 24.8379 84.4048 24.8505 84.4974C24.874 84.6704 24.9909 84.9061 25.2173 84.9375C25.3123 84.9507 25.3868 85.0212 25.3971 85.1168C25.4958 86.0271 25.8865 86.7029 26.265 87.1582C26.2978 87.1976 26.3147 87.2466 26.3107 87.2977C26.2896 87.5632 26.2409 87.8632 26.1394 88.126C26.1335 88.1166 26.1267 88.1079 26.118 88.1014C26.0876 88.0779 26.0426 88.0739 26.0074 88.1L25.6087 88.3922L25.1625 88.7194C25.1437 88.733 25.1292 88.751 25.1196 88.771C25.1074 88.796 25.103 88.8242 25.1074 88.8523C24.442 89.037 22.9758 89.6712 22.5616 89.8683L22.5619 89.8688C22.088 90.1128 21.7627 90.4934 21.5391 90.9204L21.5398 90.9211C23.3224 92.6799 25.6922 93.6329 28.1461 93.6329C30.6984 93.6329 33.0513 92.5976 34.7531 90.9204Z" fill="#FFC533"/>
<path d="M28.1466 44.7521C33.3426 44.7521 37.5548 40.5399 37.5548 35.3438C37.5548 30.1478 33.3426 25.9355 28.1466 25.9355C22.9505 25.9355 18.7383 30.1478 18.7383 35.3438C18.7383 40.5399 22.9505 44.7521 28.1466 44.7521Z" fill="#71C994"/>
<path d="M36.6398 39.3941C32.5687 40.5763 31.3512 38.2419 30.9952 36.9765C30.882 36.5745 30.5004 36.3045 30.0834 36.327C26.9405 36.4972 25.5673 34.0121 25.1039 32.8677C24.9745 32.5482 24.686 32.3143 24.3431 32.2808C20.9698 31.9505 21.5393 28.6491 21.5393 28.6484C19.8105 30.3545 18.7383 32.7238 18.7383 35.3443C18.7383 40.5402 22.9505 44.7523 28.1463 44.7523C31.8921 44.7523 35.126 42.5628 36.6398 39.3941Z" fill="#71C994"/>
<path d="M21.5391 42.0403C23.238 43.7168 25.5708 44.7525 28.1461 44.7525C30.7214 44.7525 33.0544 43.7168 34.7531 42.0403C34.5295 41.6135 34.2042 41.2326 33.7303 40.9887L33.7305 40.9882C33.334 40.799 31.8509 40.1498 31.1433 39.9609C31.1468 39.914 31.1255 39.8676 31.0866 39.8393L30.2416 39.2198C30.1962 39.1865 30.1362 39.2025 30.1095 39.2458C30.0077 38.9831 29.959 38.6833 29.9381 38.4176C29.9341 38.3665 29.951 38.3177 29.9838 38.2781C30.3628 37.8225 30.7535 37.1465 30.852 36.2367C30.8623 36.1411 30.9366 36.0705 31.0317 36.0574C31.2581 36.026 31.3751 35.7902 31.3985 35.6172C31.4109 35.5244 31.4316 35.4333 31.4602 35.3442C31.5532 35.0538 31.8884 34.5553 31.5352 34.2316C31.482 34.1829 31.4091 34.162 31.332 34.1587C31.3463 33.679 31.3901 33.1657 31.3901 33.1657C31.9266 30.5381 29.4705 29.3988 27.5215 29.6646C25.7112 29.9114 25.5391 30.9377 25.5384 31.3144C25.5382 31.3952 25.492 31.4672 25.4196 31.5028C24.5107 31.9516 24.9612 34.0387 24.9884 34.1608C24.8866 34.1517 24.783 34.1679 24.7137 34.2316C24.3605 34.5553 24.6956 35.054 24.7887 35.3442C24.8173 35.4333 24.8379 35.5247 24.8505 35.6172C24.874 35.7902 24.9909 36.026 25.2173 36.0574C25.3125 36.0705 25.3868 36.1411 25.3971 36.2367C25.4958 37.147 25.8865 37.8227 26.265 38.2781C26.2978 38.3175 26.3147 38.3665 26.3107 38.4176C26.2896 38.6831 26.2409 38.9831 26.1394 39.2458C26.1335 39.2365 26.1267 39.2278 26.1183 39.2212C26.0876 39.1976 26.0428 39.1938 26.0074 39.2198L25.6087 39.5121L25.1625 39.8393C25.1437 39.8529 25.1295 39.8709 25.1196 39.8908C25.1074 39.9159 25.1027 39.944 25.1074 39.9722C24.442 40.1569 22.9758 40.7908 22.5616 40.9882L22.5619 40.9887C22.088 41.2326 21.7627 41.6133 21.5391 42.0403Z" fill="#7AF4AB"/>
<path d="M34.7534 42.0398C34.5298 41.613 34.2045 41.2322 33.7305 40.9882L33.7308 40.9877C33.3342 40.7986 31.8511 40.1493 31.1435 39.9604C31.147 39.9136 31.1257 39.8671 31.0868 39.8388L30.2419 39.2193C30.1966 39.1863 30.1364 39.202 30.1099 39.2454C30.0082 38.9826 29.9595 38.6829 29.9384 38.4171C29.9344 38.366 29.9512 38.3172 29.9841 38.2776C30.3082 37.8881 30.6394 37.3359 30.7903 36.6157C30.6131 36.4242 30.3565 36.3117 30.0832 36.3264C26.9402 36.4966 25.567 34.0115 25.1037 32.8671C25.0514 32.7379 24.9722 32.624 24.8749 32.5303C24.7936 33.2568 24.9717 34.0844 24.9886 34.1601C24.8869 34.151 24.7833 34.1671 24.7139 34.2309C24.3607 34.5546 24.6959 35.0533 24.7889 35.3435C24.8175 35.4325 24.8381 35.5239 24.8508 35.6165C24.8742 35.7895 24.9912 36.0253 25.2176 36.0567C25.3125 36.0698 25.387 36.1404 25.3973 36.236C25.496 37.1463 25.8867 37.822 26.2652 38.2774C26.298 38.3168 26.3149 38.3655 26.3109 38.4166C26.2898 38.6821 26.2411 38.9821 26.1396 39.2449C26.1337 39.2355 26.127 39.2268 26.1183 39.2203C26.0878 39.1966 26.0428 39.1929 26.0074 39.2189L25.6087 39.5111L25.1625 39.8383C25.1437 39.8519 25.1292 39.87 25.1196 39.8899C25.1074 39.915 25.103 39.9431 25.1074 39.9712C24.442 40.1559 22.9758 40.7899 22.5616 40.9872L22.5619 40.9877C22.088 41.2317 21.7627 41.6123 21.5391 42.0393C21.5393 42.0396 21.5395 42.0398 21.5398 42.04C23.3224 43.7988 25.6922 44.7518 28.1461 44.7518C30.6987 44.752 33.0516 43.717 34.7534 42.0398Z" fill="#6EDB9A"/>
<path d="M28.1466 69.1925C33.3426 69.1925 37.5548 64.9803 37.5548 59.7843C37.5548 54.5882 33.3426 50.376 28.1466 50.376C22.9505 50.376 18.7383 54.5882 18.7383 59.7843C18.7383 64.9803 22.9505 69.1925 28.1466 69.1925Z" fill="#33BAFE"/>
<path d="M36.6398 63.8347C32.5687 65.0169 31.3512 62.6825 30.9952 61.4172C30.882 61.0152 30.5004 60.7452 30.0834 60.7677C26.9405 60.9376 25.5673 58.4528 25.1039 57.3083C24.9745 56.9889 24.686 56.755 24.3431 56.7214C20.9698 56.3912 21.5393 53.0896 21.5393 53.0889C19.8105 54.7949 18.7383 57.1642 18.7383 59.7847C18.7383 64.9808 22.9505 69.1928 28.1463 69.1928C31.8921 69.193 35.126 67.0035 36.6398 63.8347Z" fill="#00A8FD"/>
<path d="M21.5391 66.4807C23.238 68.1572 25.5708 69.1929 28.1461 69.1929C30.7214 69.1929 33.0544 68.1572 34.7531 66.4807C34.5295 66.0537 34.2042 65.6731 33.7303 65.4291L33.7305 65.4286C33.334 65.2397 31.8509 64.5903 31.1433 64.4013C31.1468 64.3545 31.1255 64.3081 31.0866 64.2797L30.2416 63.6602C30.1962 63.6272 30.1362 63.6429 30.1095 63.6863C30.0077 63.4235 29.959 63.1238 29.9381 62.858C29.9341 62.8069 29.951 62.7581 29.9838 62.7185C30.3628 62.2629 30.7535 61.587 30.852 60.6771C30.8623 60.5817 30.9366 60.511 31.0317 60.4978C31.2581 60.4664 31.3751 60.2306 31.3985 60.0577C31.4109 59.9649 31.4316 59.8737 31.4602 59.7846C31.5532 59.4942 31.8884 58.9957 31.5352 58.672C31.482 58.6233 31.4091 58.6022 31.332 58.5992C31.3463 58.1194 31.3901 57.6061 31.3901 57.6061C31.9266 54.9788 29.4708 53.8392 27.5215 54.105C25.7112 54.3518 25.5391 55.3781 25.5384 55.7548C25.5382 55.8356 25.492 55.9076 25.4196 55.9435C24.5107 56.3923 24.9612 58.4794 24.9884 58.6015C24.8866 58.5924 24.783 58.6085 24.7137 58.6723C24.3605 58.996 24.6956 59.4947 24.7887 59.7849C24.8173 59.8739 24.8379 59.9653 24.8505 60.0579C24.874 60.2309 24.9909 60.4667 25.2173 60.4981C25.3125 60.5112 25.3868 60.5817 25.3971 60.6774C25.4958 61.5877 25.8865 62.2634 26.265 62.7188C26.2978 62.7581 26.3147 62.8071 26.3107 62.858C26.2896 63.1235 26.2409 63.4235 26.1394 63.6863C26.1335 63.6769 26.1267 63.6682 26.1183 63.6617C26.0876 63.6382 26.0428 63.6342 26.0074 63.6602L25.6087 63.9525L25.1625 64.2797C25.1437 64.2933 25.1295 64.3113 25.1196 64.3313C25.1074 64.3563 25.1027 64.3845 25.1074 64.4126C24.442 64.5975 22.9758 65.2315 22.5616 65.4286L22.5619 65.4291C22.088 65.6731 21.7627 66.0539 21.5391 66.4807Z" fill="#94E6FF"/>
<path d="M34.7531 66.48C34.5295 66.0532 34.2042 65.6723 33.7303 65.4284L33.7305 65.4279C33.334 65.239 31.8509 64.5895 31.1433 64.4006C31.1468 64.3538 31.1255 64.3073 31.0866 64.279L30.2416 63.6595C30.1964 63.6265 30.1362 63.6422 30.1097 63.6855C30.008 63.4228 29.9592 63.123 29.9381 62.8573C29.9341 62.8062 29.951 62.7574 29.9838 62.7178C30.3077 62.3283 30.6391 61.7761 30.7901 61.0559C30.6129 60.8644 30.3563 60.7519 30.083 60.7666C26.94 60.9366 25.5668 58.4517 25.1034 57.3073C25.0512 57.1781 24.972 57.0642 24.8747 56.9707C24.7934 57.6973 24.9715 58.5248 24.9884 58.6005C24.8866 58.5914 24.783 58.6076 24.7137 58.6713C24.3605 58.995 24.6956 59.4938 24.7887 59.7839C24.8173 59.873 24.8379 59.9644 24.8505 60.057C24.874 60.2299 24.9909 60.4657 25.2173 60.4971C25.3123 60.5102 25.3868 60.5808 25.3971 60.6764C25.4958 61.5867 25.8865 62.2624 26.265 62.7178C26.2978 62.7572 26.3147 62.8062 26.3107 62.857C26.2896 63.1226 26.2409 63.4226 26.1394 63.6853C26.1335 63.6759 26.1267 63.6673 26.118 63.6607C26.0876 63.637 26.0426 63.6333 26.0074 63.6593L25.6087 63.9516L25.1625 64.2787C25.1437 64.2923 25.1292 64.3104 25.1196 64.3303C25.1074 64.3554 25.103 64.3835 25.1074 64.4116C24.442 64.5963 22.9758 65.2303 22.5616 65.4277L22.5619 65.4281C22.088 65.6721 21.7627 66.0527 21.5391 66.4798C21.5393 66.48 21.5395 66.4802 21.5398 66.4805C23.3224 68.2392 25.6922 69.1922 28.1461 69.1922C30.6984 69.1922 33.0513 68.1572 34.7531 66.48Z" fill="#65D2FC"/>
</g>
<defs>
<clipPath id="clip0_456_13184">
<rect width="120" height="120" fill="white" transform="translate(0 0.555664)"/>
</clipPath>
</defs>
</svg>
