<svg width="120" height="121" viewBox="0 0 120 121" fill="none" xmlns="http://www.w3.org/2000/svg">
<g clip-path="url(#clip0_456_13111)">
<path d="M120 60.5557C120 75.487 114.546 89.1445 105.521 99.6445C94.5175 112.447 78.2057 117.269 59.9999 117.269C54.9829 117.269 51.3283 117.233 46.6705 116.073C46.082 115.926 44.2785 118.478 43.697 118.314C29.9884 114.453 18.2697 105.842 10.4294 94.3706C9.68664 93.2838 12.3904 92.2757 11.7187 91.1393C6.44055 82.2065 3.42578 71.6826 3.42578 60.5557C3.42578 45.8606 8.06008 32.8741 16.8299 22.4423C17.579 21.5514 15.5762 20.208 16.375 19.3624C27.3137 7.78215 42.813 0.555664 59.9999 0.555664C93.137 0.555664 120 27.4186 120 60.5557Z" fill="#3371DA"/>
<path d="M111.75 54.7832V90.9367C101.323 108.66 82.0507 120.555 60 120.555C54.3492 120.555 48.8808 119.774 43.6971 118.314V94.37H10.4295C3.84867 84.7417 0 73.0979 0 60.5554C0 45.4593 5.57508 31.6654 14.7788 21.1201H68.0536V54.7832H111.75Z" fill="#3371DA"/>
<path d="M45.5686 93.7964L42.8843 96.4807C42.5182 96.8468 41.9246 96.8468 41.5585 96.4807L38.8742 93.7964C38.5081 93.4304 38.5081 92.8367 38.8742 92.4706L41.5585 89.7863C41.9246 89.4202 42.5182 89.4202 42.8843 89.7863L45.5686 92.4706C45.9347 92.8369 45.9347 93.4304 45.5686 93.7964Z" fill="#AFE6AF"/>
<path d="M91.3327 24.3125V81.4152C91.3327 82.7096 90.2834 83.7589 88.989 83.7589H18.5117C17.2173 83.7589 16.168 82.7096 16.168 81.4152V24.3125C16.168 23.018 17.2173 21.9688 18.5117 21.9688H88.989C90.2834 21.9688 91.3327 23.018 91.3327 24.3125Z" fill="#FFF5F5"/>
<path d="M19.5101 83.7588H12.9858C12.2859 83.7588 11.7188 83.1916 11.7188 82.492V24.4682C11.7188 23.7686 12.2859 23.2012 12.9858 23.2012H19.5103C18.8107 23.2012 18.2435 23.7684 18.2435 24.4682V82.492C18.2433 83.1916 18.8105 83.7588 19.5101 83.7588Z" fill="#E5F2FD"/>
<path d="M91.3323 14.7133V24.4685H18.3257L16.6405 23.4447H14.7442C14.0528 23.4447 13.4922 22.8841 13.4922 22.1927V18.1968C13.4922 15.5732 15.6191 13.4463 18.2427 13.4463H90.0656C90.7652 13.4463 91.3323 14.0135 91.3323 14.7133Z" fill="#FF5757"/>
<path d="M19.5101 13.4463C18.8105 13.4463 18.2433 14.0135 18.2433 14.7131V24.4682H11.7188V14.7131C11.7188 14.0135 12.2859 13.4463 12.9858 13.4463H19.5101Z" fill="#FF4343"/>
<path d="M85.1953 18.957C85.1953 20.2515 84.146 21.3008 82.8516 21.3008C81.5571 21.3008 80.5078 20.2515 80.5078 18.957C80.5078 17.6626 81.5571 16.6133 82.8516 16.6133C84.146 16.6133 85.1953 17.6628 85.1953 18.957ZM64.1016 16.6133C62.8071 16.6133 61.7578 17.6626 61.7578 18.957C61.7578 20.2515 62.8071 21.3008 64.1016 21.3008C65.396 21.3008 66.4453 20.2515 66.4453 18.957C66.4453 17.6626 65.396 16.6133 64.1016 16.6133ZM73.4766 16.6133C72.1821 16.6133 71.1328 17.6626 71.1328 18.957C71.1328 20.2515 72.1821 21.3008 73.4766 21.3008C74.771 21.3008 75.8203 20.2515 75.8203 18.957C75.8203 17.6626 74.771 16.6133 73.4766 16.6133Z" fill="#FF9A9A"/>
<path d="M75.2824 52.8997C75.2824 54.5471 73.947 55.8826 72.2995 55.8826C70.6521 55.8826 69.3166 54.5471 69.3166 52.8997C69.3166 51.2523 70.6521 49.9168 72.2995 49.9168C73.947 49.9168 75.2824 51.2523 75.2824 52.8997ZM72.2993 38.9082C70.6519 38.9082 69.3164 40.2437 69.3164 41.8911C69.3164 43.5385 70.6519 44.874 72.2993 44.874C73.9467 44.874 75.2822 43.5385 75.2822 41.8911C75.2824 40.2439 73.9467 38.9082 72.2993 38.9082ZM82.2427 38.9082C80.5952 38.9082 79.2598 40.2437 79.2598 41.8911C79.2598 43.5385 80.5952 44.874 82.2427 44.874C83.8901 44.874 85.2256 43.5385 85.2256 41.8911C85.2256 40.2439 83.8901 38.9082 82.2427 38.9082ZM82.2427 49.9168C80.5952 49.9168 79.2598 51.2523 79.2598 52.8997C79.2598 54.5471 80.5952 55.8826 82.2427 55.8826C83.8901 55.8826 85.2256 54.5471 85.2256 52.8997C85.2256 51.2523 83.8901 49.9168 82.2427 49.9168Z" fill="#49B6FC"/>
<path d="M32.5256 66.8912C34.173 66.8912 35.5085 65.5557 35.5085 63.9083C35.5085 62.2609 34.173 60.9254 32.5256 60.9254C30.8782 60.9254 29.5427 62.2609 29.5427 63.9083C29.5427 65.5557 30.8782 66.8912 32.5256 66.8912ZM35.5087 41.8913C35.5087 43.5387 34.1733 44.8742 32.5259 44.8742C30.8784 44.8742 29.543 43.5387 29.543 41.8913C29.543 40.2439 30.8784 38.9084 32.5259 38.9084C34.173 38.9082 35.5087 40.2439 35.5087 41.8913ZM22.5825 38.9082C20.9351 38.9082 19.5996 40.2437 19.5996 41.8911C19.5996 43.5385 20.9351 44.874 22.5825 44.874C24.2299 44.874 25.5654 43.5385 25.5654 41.8911C25.5654 40.2439 24.2299 38.9082 22.5825 38.9082ZM42.469 38.9082C40.8216 38.9082 39.4861 40.2437 39.4861 41.8911C39.4861 43.5385 40.8216 44.874 42.469 44.874C44.1164 44.874 45.4519 43.5385 45.4519 41.8911C45.4519 40.2439 44.1164 38.9082 42.469 38.9082ZM52.4121 38.9082C50.7647 38.9082 49.4292 40.2437 49.4292 41.8911C49.4292 43.5385 50.7647 44.874 52.4121 44.874C54.0595 44.874 55.395 43.5385 55.395 41.8911C55.395 40.2439 54.0595 38.9082 52.4121 38.9082ZM62.3552 38.9082C60.7078 38.9082 59.3723 40.2437 59.3723 41.8911C59.3723 43.5385 60.7078 44.874 62.3552 44.874C64.0027 44.874 65.3381 43.5385 65.3381 41.8911C65.3381 40.2439 64.0027 38.9082 62.3552 38.9082ZM22.5825 49.9168C20.9351 49.9168 19.5996 51.2523 19.5996 52.8997C19.5996 54.5471 20.9351 55.8826 22.5825 55.8826C24.2299 55.8826 25.5654 54.5471 25.5654 52.8997C25.5654 51.2523 24.2299 49.9168 22.5825 49.9168ZM42.469 49.9168C40.8216 49.9168 39.4861 51.2523 39.4861 52.8997C39.4861 54.5471 40.8216 55.8826 42.469 55.8826C44.1164 55.8826 45.4519 54.5471 45.4519 52.8997C45.4519 51.2523 44.1164 49.9168 42.469 49.9168ZM52.4121 49.9168C50.7647 49.9168 49.4292 51.2523 49.4292 52.8997C49.4292 54.5471 50.7647 55.8826 52.4121 55.8826C54.0595 55.8826 55.395 54.5471 55.395 52.8997C55.395 51.2523 54.0595 49.9168 52.4121 49.9168ZM62.3552 49.9168C60.7078 49.9168 59.3723 51.2523 59.3723 52.8997C59.3723 54.5471 60.7078 55.8826 62.3552 55.8826C64.0027 55.8826 65.3381 54.5471 65.3381 52.8997C65.3381 51.2523 64.0027 49.9168 62.3552 49.9168ZM22.5825 60.9254C20.9351 60.9254 19.5996 62.2609 19.5996 63.9083C19.5996 65.5557 20.9351 66.8912 22.5825 66.8912C24.2299 66.8912 25.5654 65.5557 25.5654 63.9083C25.5654 62.2609 24.2299 60.9254 22.5825 60.9254ZM42.469 60.9254C40.8216 60.9254 39.4861 62.2609 39.4861 63.9083C39.4861 65.5557 40.8216 66.8912 42.469 66.8912C44.1164 66.8912 45.4519 65.5557 45.4519 63.9083C45.4519 62.2609 44.1164 60.9254 42.469 60.9254ZM52.4121 60.9254C50.7647 60.9254 49.4292 62.2609 49.4292 63.9083C49.4292 65.5557 50.7647 66.8912 52.4121 66.8912C54.0595 66.8912 55.395 65.5557 55.395 63.9083C55.395 62.2609 54.0595 60.9254 52.4121 60.9254ZM22.5825 71.9338C20.9351 71.9338 19.5996 73.2692 19.5996 74.9166C19.5996 76.5641 20.9351 77.8998 22.5825 77.8998C24.2299 77.8998 25.5654 76.5643 25.5654 74.9169C25.5654 73.2695 24.2299 71.9338 22.5825 71.9338ZM32.5256 71.9338C30.8782 71.9338 29.5427 73.2692 29.5427 74.9166C29.5427 76.5641 30.8782 77.8998 32.5256 77.8998C34.173 77.8998 35.5085 76.5643 35.5085 74.9169C35.5085 73.2695 34.173 71.9338 32.5256 71.9338ZM42.469 71.9338C40.8216 71.9338 39.4861 73.2692 39.4861 74.9166C39.4861 76.5641 40.8216 77.8998 42.469 77.8998C44.1164 77.8998 45.4519 76.5643 45.4519 74.9169C45.4519 73.2695 44.1164 71.9338 42.469 71.9338ZM52.4121 71.9338C50.7647 71.9338 49.4292 73.2692 49.4292 74.9166C49.4292 76.5641 50.7647 77.8998 52.4121 77.8998C54.0595 77.8998 55.395 76.5643 55.395 74.9169C55.395 73.2695 54.0595 71.9338 52.4121 71.9338Z" fill="#93D0FD"/>
<path d="M82.6172 33.3682H67.3828C66.412 33.3682 65.625 32.5811 65.625 31.6104C65.625 30.6396 66.412 29.8525 67.3828 29.8525H82.6172C83.588 29.8525 84.375 30.6396 84.375 31.6104C84.375 32.5811 83.588 33.3682 82.6172 33.3682Z" fill="#49B6FC"/>
<path d="M35.5087 52.8989C35.5087 54.5463 34.1733 55.8818 32.5259 55.8818C30.8784 55.8818 29.543 54.5463 29.543 52.8989C29.543 51.2515 30.8784 49.916 32.5259 49.916C34.1733 49.916 35.5087 51.2515 35.5087 52.8989Z" fill="#FFB509"/>
<path d="M112.753 65.3281V110.712C112.753 112.006 111.704 113.056 110.41 113.056H60.6992C59.4048 113.056 58.3555 112.006 58.3555 110.712V65.3281C58.3555 64.0337 59.4048 62.9844 60.6992 62.9844H110.41C111.704 62.9844 112.753 64.0337 112.753 65.3281Z" fill="#FFCD6B"/>
<path d="M61.6976 113.056H55.173C54.4734 113.056 53.9062 112.488 53.9062 111.789V65.4838C53.9062 64.7842 54.4734 64.2168 55.173 64.2168H61.6976C60.998 64.2168 60.4308 64.784 60.4308 65.4838V111.789C60.4308 112.488 60.998 113.056 61.6976 113.056Z" fill="#FFC143"/>
<path d="M112.753 55.7287V65.4839H60.4307L59.1573 64.4601H56.9317C56.2403 64.4601 55.6797 63.8995 55.6797 63.2081V59.3296C55.6797 56.6411 57.8591 54.4619 60.5474 54.4619H111.486C112.186 54.4619 112.753 55.0291 112.753 55.7287Z" fill="#FFC143"/>
<path d="M61.6976 54.4619C60.998 54.4619 60.4308 55.0291 60.4308 55.7287V65.4839H53.9062V55.7287C53.9062 55.0291 54.4734 54.4619 55.1733 54.4619H61.6976Z" fill="#FFB509"/>
<path d="M97.0113 84.3568L92.0824 89.1613C91.7329 89.5018 91.5736 89.9924 91.6561 90.4733L92.8195 97.2573C93.0272 98.4681 91.7564 99.3915 90.6689 98.8199L84.5763 95.6169C84.1446 95.3898 83.6287 95.3898 83.1968 95.6169L77.1042 98.8199C76.0167 99.3915 74.7459 98.4681 74.9536 97.2573L76.117 90.4733C76.1995 89.9924 76.0401 89.5018 75.6907 89.1613L70.7618 84.3568C69.8819 83.4992 70.3676 82.0051 71.5833 81.8286L78.3949 80.8389C78.8777 80.7688 79.2951 80.4655 79.511 80.0279L82.5572 73.8556C83.1009 72.7538 84.6719 72.7538 85.2154 73.8556L88.2616 80.0279C88.4775 80.4655 88.8949 80.7685 89.3777 80.8389L96.1893 81.8286C97.4055 82.0053 97.8911 83.4992 97.0113 84.3568Z" fill="#FFE7BF"/>
<path d="M97.0104 84.3561L92.0815 89.1605C91.7321 89.5011 91.5727 89.9916 91.6552 90.4726L92.8186 97.2566C93.0263 98.4673 91.7555 99.3908 90.668 98.8191L86.0991 96.417C82.5797 91.7471 80.2348 86.1423 79.5028 80.0417C79.5054 80.0368 79.508 80.0321 79.5103 80.0272L82.5565 73.8549C83.1003 72.7531 84.6713 72.7531 85.2148 73.8549L88.261 80.0272C88.4768 80.4648 88.8943 80.7678 89.3771 80.8381L96.1887 81.8279C97.4046 82.0046 97.8903 83.4985 97.0104 84.3561ZM111.699 63.3146L116.978 68.5934C117.344 68.9595 117.344 69.5532 116.978 69.9193L111.699 75.1981C111.333 75.5642 110.739 75.5642 110.373 75.1981L105.094 69.9193C104.728 69.5532 104.728 68.9595 105.094 68.5934L110.373 63.3146C110.739 62.9485 111.333 62.9485 111.699 63.3146ZM54.5686 108.019L58.2146 104.373C58.5807 104.007 58.5807 103.413 58.2146 103.047L54.5686 99.4009C54.2025 99.0348 53.6089 99.0348 53.2428 99.4009L49.5968 103.047C49.2307 103.413 49.2307 104.007 49.5968 104.373L53.2428 108.019C53.6091 108.385 54.2025 108.385 54.5686 108.019Z" fill="#FFF5F5"/>
<path d="M102.835 51.9169L92.0631 62.6892C91.3767 63.3757 90.2636 63.3757 89.5774 62.6892C88.8909 62.0028 88.8909 60.8897 89.5774 60.2032L100.35 49.4309C101.036 48.7444 102.149 48.7444 102.836 49.4309C103.522 50.1174 103.522 51.2304 102.835 51.9169Z" fill="#E5F2FD"/>
<path d="M96.6325 53.1719L91.2609 47.8002C90.6702 47.2096 91.0886 46.1999 91.9237 46.1999H97.7802L105.238 38.7421C106.153 37.8269 107.637 37.8269 108.553 38.7421L109.98 40.1699C110.45 40.6396 110.466 41.3999 110.009 41.882C106.803 45.2638 103.864 48.9004 101.224 52.7584C100.166 54.3041 97.9572 54.4963 96.6325 53.1719Z" fill="#FF5757"/>
<path d="M109.969 40.1582L113.525 43.7146C114.44 44.6298 114.44 46.1139 113.525 47.0291L106.067 54.487V60.3435C106.067 61.1788 105.057 61.597 104.467 61.0063L96.6211 53.1606C102.343 47.3962 104.676 44.8743 109.969 40.1582Z" fill="#FF7A7A"/>
</g>
<defs>
<clipPath id="clip0_456_13111">
<rect width="120" height="120" fill="white" transform="translate(0 0.555664)"/>
</clipPath>
</defs>
</svg>
