<svg width="120" height="121" viewBox="0 0 120 121" fill="none" xmlns="http://www.w3.org/2000/svg">
<g clip-path="url(#clip0_417_40896)">
<path d="M60 120.556C93.1371 120.556 120 93.6927 120 60.5557C120 27.4186 93.1371 0.555664 60 0.555664C26.8629 0.555664 0 27.4186 0 60.5557C0 93.6927 26.8629 120.556 60 120.556Z" fill="#5488E0"/>
<path d="M120.001 60.5559C120.001 57.7563 119.809 55.0017 119.438 52.3041L86.417 19.2832L24.209 101.829L39.2516 116.871C45.7178 119.254 52.7073 120.556 60.0009 120.556C93.138 120.556 120.001 93.693 120.001 60.5559Z" fill="#3371DA"/>
<path d="M40.5948 19.2832L35.1524 30.7378L24.209 35.6688V101.829H86.417V19.2832H40.5948Z" fill="white"/>
<path d="M55.2305 19.2832H86.4178V101.829H55.2305V19.2832Z" fill="#E9EDF5"/>
<path d="M40.5946 35.6688L40.5944 19.2832L24.209 35.6688H40.5946Z" fill="#636978"/>
<path d="M31.9707 75.5488H78.6526V82.5801H31.9707V75.5488Z" fill="#CDD2E1"/>
<path d="M55.2285 75.5488H78.6529V82.5801H55.2285V75.5488Z" fill="#AFB4C8"/>
<path d="M31.9707 62.873H78.6526V69.9043H31.9707V62.873Z" fill="#CDD2E1"/>
<path d="M55.2285 62.873H78.6529V69.9043H55.2285V62.873Z" fill="#AFB4C8"/>
<path d="M31.9707 50.1973H78.6526V57.2285H31.9707V50.1973Z" fill="#CDD2E1"/>
<path d="M55.2285 50.1973H78.6529V57.2285H55.2285V50.1973Z" fill="#AFB4C8"/>
<path d="M105.348 86.9122H93.2001L86.4168 83.2712L79.6338 86.9122H67.4863V58.5107L86.4168 44.6514L105.348 58.5107V86.9122Z" fill="#FF6C52"/>
<path d="M86.416 44.6562V83.2749L93.1993 86.9131H105.347V58.5116L86.416 44.6562Z" fill="#FF432E"/>
<path d="M107.266 65.2925L86.4162 48.9355L65.5669 65.2925L61.4062 59.9893L86.4162 40.3682L111.426 59.9893L107.266 65.2925Z" fill="#636978"/>
<path d="M111.426 59.9893L86.416 40.3682V48.9355L107.266 65.2925L111.426 59.9893Z" fill="#414952"/>
<path d="M79.6328 69.833H93.1991V86.9131H79.6328V69.833Z" fill="#636978"/>
<path d="M86.416 69.833H93.1993V86.9131H86.416V69.833Z" fill="#414952"/>
</g>
<defs>
<clipPath id="clip0_417_40896">
<rect width="120" height="120" fill="white" transform="translate(0 0.555664)"/>
</clipPath>
</defs>
</svg>
