<svg width="28" height="29" viewBox="0 0 28 29" fill="none" xmlns="http://www.w3.org/2000/svg">
<rect y="0.555664" width="28" height="28" rx="14" fill="#004DD1"/>
<path d="M17.3808 9.86827C18.7607 7.24537 20.7007 7.07423 22.9455 7.24564C19.4536 9.67674 19.4316 12.5281 18.7607 14.826C17.7988 18.1205 17.3667 19.6922 15.7039 20.2182C14.7085 20.5331 13.6475 20.0815 13.084 19.2362C16.4651 14.3055 15.7779 12.9149 17.3808 9.86827Z" fill="#FCFCFD"/>
<path d="M12.8588 19.671C14.1411 21.2592 15.7964 20.7736 16.1833 20.4335C14.608 22.4739 10.0379 22.9892 8.43497 18.109C7.15263 14.2049 6.87957 13.06 4.41992 12.4034C10.9003 11.136 10.2897 16.489 12.8588 19.671Z" fill="#FCFCFD"/>
</svg>
