<svg width="48" height="49" viewBox="0 0 48 49" fill="none" xmlns="http://www.w3.org/2000/svg">
<circle cx="24" cy="24.5557" r="24" fill="#F6F6F6"/>
<path d="M24 37C22.34 37 20.78 36.685 19.32 36.055C17.86 35.425 16.59 34.57 15.51 33.49C14.43 32.41 13.575 31.14 12.945 29.68C12.315 28.22 12 26.66 12 25C12 23.34 12.315 21.78 12.945 20.32C13.575 18.86 14.43 17.59 15.51 16.51C16.59 15.43 17.86 14.575 19.32 13.945C20.78 13.315 22.34 13 24 13C25.66 13 27.22 13.315 28.68 13.945C30.14 14.575 31.41 15.43 32.49 16.51C33.57 17.59 34.425 18.86 35.055 20.32C35.685 21.78 36 23.34 36 25C36 26.66 35.685 28.22 35.055 29.68C34.425 31.14 33.57 32.41 32.49 33.49C31.41 34.57 30.14 35.425 28.68 36.055C27.22 36.685 25.66 37 24 37ZM24 34.6C26.68 34.6 28.95 33.67 30.81 31.81C32.67 29.95 33.6 27.68 33.6 25C33.6 22.32 32.67 20.05 30.81 18.19C28.95 16.33 26.68 15.4 24 15.4C21.32 15.4 19.05 16.33 17.19 18.19C15.33 20.05 14.4 22.32 14.4 25C14.4 27.68 15.33 29.95 17.19 31.81C19.05 33.67 21.32 34.6 24 34.6ZM23.97 33.4C24.25 33.4 24.495 33.295 24.705 33.085C24.915 32.875 25.02 32.63 25.02 32.35V31.9C26.02 31.72 26.88 31.33 27.6 30.73C28.32 30.13 28.68 29.24 28.68 28.06C28.68 27.22 28.44 26.45 27.96 25.75C27.48 25.05 26.52 24.44 25.08 23.92C23.88 23.52 23.05 23.17 22.59 22.87C22.13 22.57 21.9 22.16 21.9 21.64C21.9 21.12 22.085 20.71 22.455 20.41C22.825 20.11 23.36 19.96 24.06 19.96C24.46 19.96 24.81 20.03 25.11 20.17C25.41 20.31 25.66 20.5 25.86 20.74C26.06 20.98 26.285 21.145 26.535 21.235C26.785 21.325 27.02 21.32 27.24 21.22C27.54 21.1 27.745 20.895 27.855 20.605C27.965 20.315 27.94 20.05 27.78 19.81C27.46 19.35 27.065 18.96 26.595 18.64C26.125 18.32 25.62 18.14 25.08 18.1V17.65C25.08 17.37 24.975 17.125 24.765 16.915C24.555 16.705 24.31 16.6 24.03 16.6C23.75 16.6 23.505 16.705 23.295 16.915C23.085 17.125 22.98 17.37 22.98 17.65V18.1C21.98 18.32 21.2 18.76 20.64 19.42C20.08 20.08 19.8 20.82 19.8 21.64C19.8 22.58 20.075 23.34 20.625 23.92C21.175 24.5 22.04 25 23.22 25.42C24.48 25.88 25.355 26.29 25.845 26.65C26.335 27.01 26.58 27.48 26.58 28.06C26.58 28.72 26.345 29.205 25.875 29.515C25.405 29.825 24.84 29.98 24.18 29.98C23.66 29.98 23.19 29.855 22.77 29.605C22.35 29.355 22 28.98 21.72 28.48C21.56 28.2 21.35 28.01 21.09 27.91C20.83 27.81 20.57 27.81 20.31 27.91C20.03 28.01 19.825 28.2 19.695 28.48C19.565 28.76 19.56 29.03 19.68 29.29C20 29.97 20.43 30.525 20.97 30.955C21.51 31.385 22.16 31.68 22.92 31.84V32.35C22.92 32.63 23.025 32.875 23.235 33.085C23.445 33.295 23.69 33.4 23.97 33.4Z" fill="#004DD1"/>
</svg>
