<svg width="190" height="52" viewBox="0 0 190 52" fill="none" xmlns="http://www.w3.org/2000/svg">
<path d="M186.011 47.3003C183.37 49.9416 180.108 51.2363 176.275 51.2363C172.443 51.2363 169.18 49.9416 166.539 47.3003C163.898 44.6591 162.603 41.3965 162.603 37.5641C162.603 33.7318 163.898 30.5208 166.539 27.8796C169.18 25.2384 172.443 23.8919 176.275 23.8919C180.108 23.8919 183.37 25.2384 186.011 27.8796C188.653 30.5208 189.999 33.7318 189.999 37.5641C189.999 41.3965 188.653 44.6591 186.011 47.3003ZM171.252 42.6911C172.598 44.0376 174.255 44.7109 176.275 44.7109C178.295 44.7109 179.952 44.0376 181.299 42.6911C182.645 41.3446 183.318 39.6356 183.318 37.5641C183.318 35.4926 182.645 33.7835 181.299 32.437C179.952 31.0905 178.295 30.4173 176.275 30.4173C174.255 30.4173 172.598 31.0905 171.252 32.437C169.957 33.7835 169.284 35.4926 169.284 37.5641C169.284 39.6356 169.957 41.3446 171.252 42.6911Z" fill="white"/>
<path d="M161.087 13.5353V19.9571C157.41 19.6981 155.398 21.1482 155.398 24.3591V24.6181H161.087V31.0399H155.398V50.5123H148.717V31.0399H143.841V27.1039C143.841 25.731 144.954 24.6181 146.327 24.6181H148.717V24.3591C148.717 17.0569 153.008 13.0692 161.087 13.5353Z" fill="white"/>
<path d="M131.464 23.8919C134.312 23.8919 136.643 24.8241 138.455 26.7403C140.32 28.6565 141.252 31.2459 141.252 34.6121V50.5112H134.571V35.4407C134.571 31.9709 132.551 30.1065 129.444 30.1065C125.974 30.1065 123.747 32.2299 123.747 36.5283V50.5112H117.067V30.7096C117.067 30.4163 117.361 30.2026 117.647 30.2643C118.372 30.4201 119.653 30.5617 120.784 29.9962C122.475 29.1508 122.479 27.8826 123.747 26.1918C125.016 24.5009 127.942 23.8919 131.464 23.8919Z" fill="white"/>
<path d="M112.612 50.512H105.569V24.0955C105.569 23.6397 106.281 23.4629 106.546 23.8333C107.665 25.3929 109.233 26.5087 111.261 26.8514C112 26.9763 112.612 27.5696 112.612 28.3191V50.512Z" fill="white"/>
<path d="M100.479 24.617V31.0387H94.6269V41.8108C94.6269 44.6074 96.6466 44.6591 100.479 44.452V50.5112C91.3124 51.547 87.9461 48.9058 87.9461 41.8108V31.0387H83.4405V24.617H87.9461V21.8469C87.9461 20.3858 88.9029 19.097 90.3014 18.6742L94.6269 17.3665V24.617H100.479Z" fill="white"/>
<path d="M81.5033 40.3089H61.979C62.8594 43.5715 65.2935 45.177 69.2812 45.177C71.8189 45.177 73.7868 44.2966 75.0815 42.5876L80.4675 45.6949C77.9299 49.3719 74.1493 51.2363 69.1776 51.2363C64.8792 51.2363 61.4611 49.9416 58.8717 47.3521C56.2823 44.7627 54.9876 41.5 54.9876 37.5641C54.9876 33.68 56.2823 30.4173 58.8199 27.8278C61.3576 25.1866 64.672 23.8919 68.6597 23.8919C72.4403 23.8919 75.5994 25.1866 78.0335 27.8278C80.5193 30.469 81.7623 33.68 81.7623 37.5641C81.7623 38.4445 81.6587 39.3249 81.5033 40.3089ZM61.8754 35.13H75.0815C74.3047 31.6084 71.7153 29.8993 68.6597 29.8993C65.0863 29.8993 62.6523 31.8156 61.8754 35.13Z" fill="white"/>
<path d="M51.1869 50.912L43.8125 50.9896V37.5641C45.9814 31.6085 45.5503 29.8994 46.849 27.4875C47.844 25.6397 49.8606 25.1281 50.7494 24.9899C50.9873 24.9529 51.1869 25.1414 51.1869 25.3823V50.912Z" fill="white"/>
<path d="M117.169 22.7166C119.12 24.7361 122.237 23.22 119.725 26.7621C117.717 29.5969 114.927 26.4866 114.079 24.4356C115.525 24.1835 116.715 23.2011 117.169 22.7166Z" fill="white"/>
<path d="M115.445 6.95866C114 11.5623 112.796 13.2449 111.637 14.0133C110.479 14.7817 105.661 17.0949 108.633 21.4187C111.011 24.8778 114.727 23.3043 116.286 22.0847C112.655 19.811 112.096 17.0226 112.319 15.6595C113.921 19.7883 116.407 20.7893 117.444 21.3163C119.583 20.3391 120.333 20.2854 124.211 20.6943C130.942 21.4038 127.064 14.0499 124.613 10.4846C122.371 7.22273 116.89 2.35505 115.445 6.95866ZM125.505 18.2426C124.774 18.7814 122.171 17.6852 119.838 14.2913C117.506 10.8975 116.914 8.1849 117.828 7.6461C118.741 7.1073 121.163 8.56419 123.494 11.9565C125.826 15.3489 126.236 17.7038 125.505 18.2426Z" fill="white"/>
<path d="M38.1169 16.1359C42.1751 8.42228 47.8803 7.91898 54.4821 8.42308C44.2127 15.5727 44.1481 23.9582 42.1751 30.716C39.3462 40.4049 38.0755 45.027 33.1853 46.574C30.258 47.5 27.1377 46.1719 25.4805 43.6861C35.4239 29.1852 33.4031 25.0957 38.1169 16.1359Z" fill="white"/>
<path d="M24.8179 44.9653C28.5888 49.636 33.4569 48.2077 34.5948 47.2076C29.9621 53.2082 16.5218 54.7236 11.8078 40.3715C8.0366 28.8899 7.23355 25.5229 0 23.5921C19.0582 19.8648 17.2625 35.6072 24.8179 44.9653Z" fill="white"/>
<path fill-rule="evenodd" clip-rule="evenodd" d="M133.658 4.50607C134.043 5.11198 133.873 5.92384 133.278 6.31942L128.058 9.7919C127.464 10.1875 126.67 10.017 126.284 9.41109C125.899 8.80519 126.069 7.99333 126.664 7.59774L131.884 4.12526C132.479 3.72968 133.273 3.90017 133.658 4.50607Z" fill="white"/>
<path fill-rule="evenodd" clip-rule="evenodd" d="M135.801 12.7266C135.813 13.4322 135.24 14.0118 134.522 14.021L129.069 14.0916C128.351 14.1009 127.76 13.5364 127.749 12.8308C127.738 12.1252 128.311 11.5456 129.029 11.5364L134.481 11.4658C135.199 11.4565 135.79 12.021 135.801 12.7266Z" fill="white"/>
<path fill-rule="evenodd" clip-rule="evenodd" d="M126.914 0.102668C127.539 0.378044 127.829 1.12216 127.561 1.76471L125.797 5.99596C125.529 6.6385 124.805 6.93615 124.18 6.66078C123.555 6.3854 123.266 5.64128 123.533 4.99874L125.297 0.767483C125.565 0.124941 126.289 -0.172707 126.914 0.102668Z" fill="white"/>
</svg>
