<svg width="33" height="33" viewBox="0 0 33 33" fill="none" xmlns="http://www.w3.org/2000/svg">
<rect x="0.5" y="0.555664" width="31.9991" height="32.0004" rx="15.9995" fill="#E6EDFA"/>
<path d="M13.883 21.5834C14.9892 22.7417 16.7575 21.8722 15.3327 23.9035C14.1934 25.5293 12.6108 23.7455 12.13 22.5693C12.95 22.4247 13.6255 21.8613 13.883 21.5834Z" fill="#004DD1"/>
<path d="M12.9047 12.5464C12.0851 15.1865 11.402 16.1515 10.745 16.5922C10.0881 17.0329 7.35517 18.3594 9.04098 20.8391C10.3896 22.8229 12.4978 21.9205 13.3818 21.2211C11.322 19.9171 11.0052 18.318 11.1318 17.5363C12.0401 19.9041 13.4506 20.4781 14.0387 20.7804C15.2519 20.22 15.6774 20.1892 17.8774 20.4237C21.6957 20.8306 19.4955 16.6132 18.1055 14.5685C16.8337 12.6978 13.7243 9.90626 12.9047 12.5464ZM18.6113 19.0176C18.1966 19.3266 16.7201 18.698 15.3969 16.7516C14.0737 14.8053 13.7379 13.2496 14.2563 12.9406C14.7748 12.6316 16.1481 13.4672 17.4707 15.4126C18.7933 17.3581 19.0261 18.7086 18.6113 19.0176Z" fill="#004DD1"/>
<path fill-rule="evenodd" clip-rule="evenodd" d="M23.2337 11.1399C23.4521 11.4873 23.3558 11.9529 23.0185 12.1798L20.0575 14.1712C19.7201 14.3981 19.2696 14.3003 19.0512 13.9529C18.8327 13.6054 18.9291 13.1398 19.2664 12.9129L22.2274 10.9215C22.5647 10.6946 23.0152 10.7924 23.2337 11.1399Z" fill="#004DD1"/>
<path fill-rule="evenodd" clip-rule="evenodd" d="M24.4493 15.8544C24.4557 16.2591 24.1307 16.5914 23.7234 16.5968L20.6306 16.6372C20.2233 16.6425 19.8879 16.3188 19.8816 15.9141C19.8752 15.5095 20.2002 15.1771 20.6075 15.1718L23.7003 15.1314C24.1076 15.126 24.443 15.4498 24.4493 15.8544Z" fill="#004DD1"/>
<path fill-rule="evenodd" clip-rule="evenodd" d="M19.4099 8.61454C19.7644 8.77247 19.9287 9.19922 19.7767 9.56771L18.7761 11.9943C18.6242 12.3628 18.2136 12.5335 17.859 12.3756C17.5045 12.2176 17.3402 11.7909 17.4922 11.4224L18.4928 8.99581C18.6448 8.62732 19.0554 8.45662 19.4099 8.61454Z" fill="#004DD1"/>
</svg>
