<svg width="171" height="170" viewBox="0 0 171 170" fill="none" xmlns="http://www.w3.org/2000/svg">
<circle cx="85.334" cy="85" r="85" fill="#E2F5FF"/>
<path d="M152.834 34.5557H17.834C15.0726 34.5557 12.834 36.7942 12.834 39.5557V144.556C12.834 147.317 15.0726 149.556 17.834 149.556H152.834C155.595 149.556 157.834 147.317 157.834 144.556V39.5557C157.834 36.7942 155.595 34.5557 152.834 34.5557Z" fill="#FFEECF"/>
<path d="M157.834 114.556V144.556C157.834 145.882 157.307 147.154 156.37 148.091C155.432 149.029 154.16 149.556 152.834 149.556H17.834C16.5079 149.556 15.2361 149.029 14.2985 148.091C13.3608 147.154 12.834 145.882 12.834 144.556V39.5557C12.834 38.2296 13.3608 36.9578 14.2985 36.0201C15.2361 35.0824 16.5079 34.5557 17.834 34.5557H57.834V89.5557C57.834 96.1861 60.4679 102.545 65.1563 107.233C69.8447 111.922 76.2036 114.556 82.834 114.556H157.834Z" fill="#FFC688"/>
<path d="M135.334 49.5557H50.334C47.5726 49.5557 45.334 51.7942 45.334 54.5557C45.334 57.3171 47.5726 59.5557 50.334 59.5557H135.334C138.095 59.5557 140.334 57.3171 140.334 54.5557C140.334 51.7942 138.095 49.5557 135.334 49.5557Z" fill="#F75C68"/>
<path d="M22.834 57.0557C24.2147 57.0557 25.334 55.9364 25.334 54.5557C25.334 53.175 24.2147 52.0557 22.834 52.0557C21.4533 52.0557 20.334 53.175 20.334 54.5557C20.334 55.9364 21.4533 57.0557 22.834 57.0557Z" fill="#FF1F1F"/>
<path d="M32.834 57.0557C34.2147 57.0557 35.334 55.9364 35.334 54.5557C35.334 53.175 34.2147 52.0557 32.834 52.0557C31.4533 52.0557 30.334 53.175 30.334 54.5557C30.334 55.9364 31.4533 57.0557 32.834 57.0557Z" fill="#FF1F1F"/>
<path d="M35.334 74.5557H95.334V109.556H35.334V74.5557Z" fill="#F75C68"/>
<path d="M57.834 49.5557V59.5557H50.334C49.0079 59.5557 47.7361 59.0289 46.7985 58.0912C45.8608 57.1535 45.334 55.8817 45.334 54.5557C45.334 53.2296 45.8608 51.9578 46.7985 51.0201C47.7361 50.0824 49.0079 49.5557 50.334 49.5557H57.834Z" fill="#FF1F1F"/>
<path d="M67.834 109.556H35.334V74.5557H57.834V89.5557C57.834 93.4368 58.7376 97.2646 60.4733 100.736C62.209 104.207 64.7291 107.227 67.834 109.556Z" fill="#FF1F1F"/>
<path d="M127.834 127.056H57.834C57.1709 127.056 56.5351 126.792 56.0662 126.323C55.5974 125.855 55.334 125.219 55.334 124.556C55.334 123.893 55.5974 123.257 56.0662 122.788C56.5351 122.319 57.1709 122.056 57.834 122.056H127.834C128.497 122.056 129.133 122.319 129.602 122.788C130.071 123.257 130.334 123.893 130.334 124.556C130.334 125.219 130.071 125.855 129.602 126.323C129.133 126.792 128.497 127.056 127.834 127.056Z" fill="#FF1F1F"/>
<path d="M127.834 137.056H57.834C57.1709 137.056 56.5351 136.792 56.0662 136.323C55.5974 135.855 55.334 135.219 55.334 134.556C55.334 133.893 55.5974 133.257 56.0662 132.788C56.5351 132.319 57.1709 132.056 57.834 132.056H127.834C128.497 132.056 129.133 132.319 129.602 132.788C130.071 133.257 130.334 133.893 130.334 134.556C130.334 135.219 130.071 135.855 129.602 136.323C129.133 136.792 128.497 137.056 127.834 137.056Z" fill="#FF1F1F"/>
<path d="M67.834 104.556L92.834 84.5557H157.834V19.5557H67.834V104.556Z" fill="#5488E0"/>
<path d="M157.834 75.8807V84.5557H92.834L67.834 104.556V19.5557H78.584C81.0391 36.2664 89.6969 51.4399 102.834 62.0557C105.062 63.8873 107.418 65.5582 109.884 67.0557C113.017 69.0034 116.313 70.6763 119.734 72.0557C126.522 74.8519 133.73 76.4913 141.059 76.9057C142.434 76.9057 143.834 77.0557 145.234 77.0557C149.462 77.0659 153.681 76.6724 157.834 75.8807Z" fill="#3371DA"/>
<path d="M97.8335 52.0557C98.4966 52.0557 99.1325 51.7923 99.6013 51.3234C100.07 50.8546 100.334 50.2187 100.334 49.5557V48.3057H105.334V49.5557C105.334 50.2187 105.597 50.8546 106.066 51.3234C106.535 51.7923 107.17 52.0557 107.834 52.0557C108.497 52.0557 109.132 51.7923 109.601 51.3234C110.07 50.8546 110.334 50.2187 110.334 49.5557V38.3057C110.388 36.705 109.805 35.1483 108.713 33.9767C107.621 32.8052 106.109 32.1143 104.509 32.0557H101.159C99.5581 32.1143 98.0462 32.8052 96.9543 33.9767C95.8623 35.1483 95.2795 36.705 95.3335 38.3057V49.5557C95.3335 50.2187 95.5969 50.8546 96.0658 51.3234C96.5346 51.7923 97.1705 52.0557 97.8335 52.0557ZM101.159 37.0557H104.509C104.884 37.0557 105.334 37.5807 105.334 38.3057V43.3057H100.334V38.3057C100.334 37.5807 100.784 37.0557 101.159 37.0557Z" fill="white"/>
<path d="M117.834 52.0557H124.509C126.109 51.997 127.621 51.3062 128.713 50.1346C129.805 48.963 130.388 47.4063 130.334 45.8057V38.3057C130.388 36.705 129.805 35.1483 128.713 33.9767C127.621 32.8052 126.109 32.1143 124.509 32.0557H117.834C117.171 32.0557 116.535 32.3191 116.066 32.7879C115.597 33.2567 115.334 33.8926 115.334 34.5557V49.5557C115.334 50.2187 115.597 50.8546 116.066 51.3234C116.535 51.7923 117.171 52.0557 117.834 52.0557ZM120.334 37.0557H124.509C124.884 37.0557 125.334 37.5807 125.334 38.3057V45.8057C125.334 46.5307 124.884 47.0557 124.509 47.0557H120.334V37.0557Z" fill="white"/>
<path d="M85.334 67.0557H140.334C140.997 67.0557 141.633 66.7923 142.102 66.3234C142.571 65.8546 142.834 65.2187 142.834 64.5557C142.834 63.8926 142.571 63.2567 142.102 62.7879C141.633 62.3191 140.997 62.0557 140.334 62.0557H85.334C84.6709 62.0557 84.0351 62.3191 83.5662 62.7879C83.0974 63.2567 82.834 63.8926 82.834 64.5557C82.834 65.2187 83.0974 65.8546 83.5662 66.3234C84.0351 66.7923 84.6709 67.0557 85.334 67.0557Z" fill="#F75C68"/>
<path d="M140.334 72.0557H85.334C84.6709 72.0557 84.0351 72.3191 83.5662 72.7879C83.0974 73.2567 82.834 73.8926 82.834 74.5557C82.834 75.2187 83.0974 75.8546 83.5662 76.3234C84.0351 76.7923 84.6709 77.0557 85.334 77.0557H140.334C140.997 77.0557 141.633 76.7923 142.102 76.3234C142.571 75.8546 142.834 75.2187 142.834 74.5557C142.834 73.8926 142.571 73.2567 142.102 72.7879C141.633 72.3191 140.997 72.0557 140.334 72.0557Z" fill="#F75C68"/>
<path d="M109.984 67.0557H85.334C84.6709 67.0557 84.0351 66.7923 83.5662 66.3234C83.0974 65.8546 82.834 65.2187 82.834 64.5557C82.834 63.8926 83.0974 63.2567 83.5662 62.7879C84.0351 62.3191 84.6709 62.0557 85.334 62.0557H102.834C105.095 63.8913 107.484 65.5622 109.984 67.0557Z" fill="#FF1F1F"/>
<path d="M141.159 76.9057C140.896 77.0081 140.616 77.059 140.334 77.0557H85.334C84.6709 77.0557 84.0351 76.7923 83.5662 76.3234C83.0974 75.8546 82.834 75.2187 82.834 74.5557C82.834 73.8926 83.0974 73.2567 83.5662 72.7879C84.0351 72.3191 84.6709 72.0557 85.334 72.0557H119.834C126.622 74.8519 133.83 76.4913 141.159 76.9057Z" fill="#FF1F1F"/>
</svg>
