<svg width="170" height="170" viewBox="0 0 170 170" fill="none" xmlns="http://www.w3.org/2000/svg">
<g id="fi_5024475">
<circle id="Ellipse 5" cx="85" cy="85" r="85" fill="#E2F5FF"/>
<g id="Group">
<g id="Group_2">
<path id="Vector" fill-rule="evenodd" clip-rule="evenodd" d="M22.2793 94.7437V120.231L84.0315 126.956L124.756 120.231V104.633C124.756 102.223 126.725 100.255 129.134 100.255H137.108V56.9487C137.108 54.5662 135.157 52.6152 132.775 52.6152H107.657L22.2793 94.7437Z" fill="#8AADEA"/>
</g>
<g id="Group_3">
<path id="Vector_2" fill-rule="evenodd" clip-rule="evenodd" d="M96.5269 132.26L78.0794 128.637L62.8594 132.26L58.625 146.42L79.5447 149.287L100.752 146.42L96.5269 132.26Z" fill="#BEB9DD"/>
</g>
<g id="Group_4">
<path id="Vector_3" fill-rule="evenodd" clip-rule="evenodd" d="M124.756 120.23H22.2793V127.926C22.2793 130.309 24.2302 132.26 26.6124 132.26H62.8599H96.5274H124.756L124.756 120.23Z" fill="#DDDAEC"/>
</g>
<g id="Group_5">
<path id="Vector_4" fill-rule="evenodd" clip-rule="evenodd" d="M100.751 146.419H58.6246H52.0977C49.1849 146.419 46.8027 148.801 46.8027 151.723V155.436C46.8027 156.309 47.513 157.019 48.3849 157.019H111C111.863 157.019 112.582 156.308 112.582 155.436V151.723C112.582 148.801 110.191 146.419 107.278 146.419H100.751Z" fill="#DDDAEC"/>
</g>
<g id="Group_6">
<path id="Vector_5" fill-rule="evenodd" clip-rule="evenodd" d="M98.5679 94.7437C96.8057 104.057 93.4166 112.697 88.7598 120.231H124.756V104.633C124.756 102.223 126.724 100.255 129.134 100.255H137.108V56.9487C137.108 54.5662 135.157 52.6152 132.775 52.6152H107.657V90.554C107.657 92.8555 105.778 94.7434 103.476 94.7434H98.5679V94.7437Z" fill="#5488E0"/>
</g>
<g id="Group_7">
<path id="Vector_6" fill-rule="evenodd" clip-rule="evenodd" d="M124.756 120.23H88.7602C86.0361 124.645 82.8717 128.672 79.3477 132.26H96.5277H124.756V120.23Z" fill="#BEB9DD"/>
</g>
<g id="Group_8">
<path id="Vector_7" fill-rule="evenodd" clip-rule="evenodd" d="M61.043 138.318H85.0733C88.858 138.318 89.5683 139.685 90.557 143.002L91.582 146.418H100.752L96.5264 132.259H79.3464H62.8589L61.043 138.318Z" fill="#A7A2D3"/>
</g>
<g id="Group_9">
<path id="Vector_8" fill-rule="evenodd" clip-rule="evenodd" d="M22.2787 94.7436H103.476C105.778 94.7436 107.657 92.8558 107.657 90.5542V52.6155V31.902L56.9712 25.9414L5 31.902V90.5542C5 92.8558 6.87906 94.7436 9.18031 94.7436H22.2787Z" fill="#EFF6FF"/>
</g>
<g id="Group_10">
<path id="Vector_9" fill-rule="evenodd" clip-rule="evenodd" d="M18.8623 82.4897H43.1082C43.9982 82.4897 44.7263 81.7615 44.7263 80.8715V45.7646C44.7263 44.8746 43.9982 44.1553 43.1082 44.1553H18.8623C17.9723 44.1553 17.2441 44.8743 17.2441 45.7646V80.8715C17.2441 81.7615 17.9723 82.4897 18.8623 82.4897Z" fill="#FFD772"/>
</g>
<g id="Group_11">
<path id="Vector_10" fill-rule="evenodd" clip-rule="evenodd" d="M56.9707 45.7646V56.3821C56.9707 57.2721 57.6988 58.0003 58.5798 58.0003H93.8026C94.6835 58.0003 95.4116 57.2721 95.4116 56.3821V45.7646C95.4116 44.8746 94.6835 44.1553 93.8026 44.1553H58.5798C57.6988 44.1553 56.9707 44.8746 56.9707 45.7646Z" fill="#3BC3A4"/>
</g>
<g id="Group_12">
<path id="Vector_11" fill-rule="evenodd" clip-rule="evenodd" d="M5 31.9017H107.657V13.8942C107.657 11.5926 105.777 9.71387 103.476 9.71387H9.18031C6.87906 9.71355 5 11.5926 5 13.8942L5 31.9017Z" fill="#375E7D"/>
</g>
<g id="Group_13">
<path id="Vector_12" fill-rule="evenodd" clip-rule="evenodd" d="M93.8025 44.1553H84.3359C84.9922 48.2637 85.3338 52.5071 85.3338 56.8315V58.0003H93.8022C94.6831 58.0003 95.4112 57.2721 95.4112 56.3821V45.7646C95.4116 44.8746 94.6834 44.1553 93.8025 44.1553Z" fill="#00A887"/>
</g>
<g id="Group_14">
<path id="Vector_13" fill-rule="evenodd" clip-rule="evenodd" d="M93.8038 57.9998H85.335C85.2631 62.522 84.8225 66.9451 84.0403 71.2245C83.33 75.1082 82.3322 78.8661 81.0825 82.4892C79.5903 86.7954 77.7381 90.8951 75.5625 94.7429H103.476C105.778 94.7429 107.657 92.8551 107.657 90.5536V52.6148V31.9014H81.3256C82.6381 35.8301 83.6541 39.9207 84.3372 44.1551H93.8038C94.6847 44.1551 95.4128 44.8742 95.4128 45.7645V56.382C95.4128 57.2717 94.6847 57.9998 93.8038 57.9998Z" fill="#D9EEFF"/>
</g>
<g id="Group_15">
<path id="Vector_14" fill-rule="evenodd" clip-rule="evenodd" d="M81.3255 31.9017H107.657V13.8942C107.657 11.5926 105.778 9.71387 103.477 9.71387H69.3418C74.4752 16.1326 78.5655 23.6486 81.3255 31.9017Z" fill="#2B4D66"/>
</g>
<g id="Group_16">
<path id="Vector_15" fill-rule="evenodd" clip-rule="evenodd" d="M98.0996 146.419C101.021 146.419 103.404 148.801 103.404 151.723V155.436C103.404 156.3 102.702 157.01 101.839 157.019H111C111.863 157.019 112.582 156.308 112.582 155.436V151.723C112.582 148.801 110.191 146.419 107.278 146.419H100.751H98.0996Z" fill="#BEB9DD"/>
</g>
<g id="Group_17">
<path id="Vector_16" d="M95.0796 23.1946C93.7659 23.1946 92.7012 22.13 92.7012 20.8162C92.7012 19.5025 93.7662 18.4287 95.0796 18.4287C96.393 18.4287 97.4584 19.4846 97.4584 20.7984V20.8162C97.458 22.13 96.393 23.1946 95.0796 23.1946Z" fill="#3BC3A4"/>
</g>
<g id="Group_18">
<path id="Vector_17" d="M83.3198 23.1946C82.0061 23.1946 80.9414 22.13 80.9414 20.8162C80.9414 19.5025 82.0064 18.4287 83.3198 18.4287C84.6336 18.4287 85.6983 19.4846 85.6983 20.7984V20.8162C85.6986 22.13 84.6336 23.1946 83.3198 23.1946Z" fill="#FFD772"/>
</g>
<g id="Group_19">
<path id="Vector_18" d="M71.562 23.1946C70.2483 23.1946 69.1836 22.13 69.1836 20.8162C69.1836 19.5025 70.2486 18.4287 71.562 18.4287C72.8758 18.4287 73.9405 19.4846 73.9405 20.7984V20.8162C73.9408 22.13 72.8758 23.1946 71.562 23.1946Z" fill="#E5384F"/>
</g>
<g id="Group_20">
<path id="Vector_19" d="M41.9227 23.1949C41.922 23.1949 41.9217 23.1949 41.9211 23.1949L17.5761 23.1771C16.2623 23.1762 15.1983 22.1105 15.1992 20.7968C15.2002 19.484 16.2648 18.4199 17.5777 18.4199H17.5792L41.9242 18.4377C43.238 18.4387 44.302 19.5043 44.3011 20.818C44.3005 22.1312 43.2355 23.1949 41.9227 23.1949Z" fill="#EFF6FF"/>
</g>
<g id="Group_21">
<path id="Vector_20" d="M95.4131 73.6036H56.9722C55.6584 73.6036 54.5938 72.5389 54.5938 71.2251C54.5938 69.9114 55.6587 68.8467 56.9722 68.8467H95.4131C96.7269 68.8467 97.7919 69.9114 97.7919 71.2251C97.7919 72.5389 96.7269 73.6036 95.4131 73.6036Z" fill="#2B4D66"/>
</g>
<g id="Group_22">
<path id="Vector_21" d="M95.4131 84.8685H75.7341C74.4203 84.8685 73.3553 83.8038 73.3553 82.4898C73.3553 81.1757 74.4203 80.1113 75.7341 80.1113H95.4131C96.7269 80.1113 97.7919 81.176 97.7919 82.4898C97.7919 83.8035 96.7269 84.8685 95.4131 84.8685ZM62.8425 84.8685H56.9722C55.6584 84.8685 54.5938 83.8038 54.5938 82.4898C54.5938 81.1757 55.6587 80.1113 56.9722 80.1113H62.8425C64.1562 80.1113 65.2209 81.176 65.2209 82.4898C65.2209 83.8035 64.1562 84.8685 62.8425 84.8685Z" fill="#2B4D66"/>
</g>
<g id="Group_23">
<path id="Vector_22" fill-rule="evenodd" clip-rule="evenodd" d="M124.756 132.26V152.632C124.756 155.05 126.725 157.019 129.134 157.019H158.235C160.644 157.019 162.622 155.05 162.622 152.632V104.633C162.622 102.224 160.644 100.255 158.235 100.255H137.108H129.134C126.725 100.255 124.756 102.224 124.756 104.633V120.231V132.26Z" fill="#8AADEA"/>
</g>
<g id="Group_24">
<path id="Vector_23" d="M143.688 149.885H143.607C142.293 149.885 141.229 148.82 141.229 147.507C141.229 146.193 142.294 145.128 143.607 145.128H143.688C145.002 145.128 146.066 146.193 146.066 147.507C146.066 148.821 145.002 149.885 143.688 149.885Z" fill="#2B4D66"/>
</g>
<g id="Group_25">
<path id="Vector_24" fill-rule="evenodd" clip-rule="evenodd" d="M158.234 100.254H143.724C148.47 107.734 151.338 117.497 151.338 128.169C151.338 139.29 148.219 149.421 143.104 157.018H158.234C160.643 157.018 162.621 155.05 162.621 152.631V104.632C162.62 102.223 160.643 100.254 158.234 100.254Z" fill="#5488E0"/>
</g>
<g id="Group_26">
<path id="Vector_25" d="M158.234 159.398H129.134C125.408 159.398 122.377 156.362 122.377 152.632V104.633C122.377 100.907 125.408 97.876 129.134 97.876H158.234C161.965 97.876 165 100.907 165 104.633V152.632C165 156.362 161.965 159.398 158.234 159.398ZM129.134 102.633C128.031 102.633 127.134 103.53 127.134 104.633V152.632C127.134 153.739 128.031 154.64 129.134 154.64H158.234C159.342 154.64 160.243 153.739 160.243 152.632V104.633C160.243 103.53 159.342 102.633 158.234 102.633H129.134V102.633Z" fill="#DDDAEC"/>
</g>
<g id="Group_27">
<path id="Vector_26" fill-rule="evenodd" clip-rule="evenodd" d="M35.9606 45.7646V80.8715C35.9606 81.7615 35.2325 82.4897 34.3516 82.4897H43.1078C43.9978 82.4897 44.7259 81.7615 44.7259 80.8715V45.7646C44.7259 44.8746 43.9978 44.1553 43.1078 44.1553H34.3516C35.2325 44.1553 35.9606 44.8746 35.9606 45.7646Z" fill="#FBBA58"/>
</g>
</g>
</g>
</svg>
