<svg width="171" height="170" viewBox="0 0 171 170" fill="none" xmlns="http://www.w3.org/2000/svg">
<g id="fi_9609591">
<circle id="Ellipse 5" cx="85.668" cy="85" r="85" fill="#E2F5FF"/>
<g id="Layer_x0020_1">
<path id="Vector" fill-rule="evenodd" clip-rule="evenodd" d="M101.317 137.392H26.1627C25.1406 137.392 24.3105 136.561 24.3105 135.54V78.48C24.3105 73.1883 28.6161 68.8828 33.9078 68.8828C60.1575 68.8828 72.7784 68.885 109.75 68.885C115.083 68.885 119.421 73.2234 119.421 78.5554V109.384C119.702 109.915 119.718 110.571 119.412 111.133C119.357 111.68 119.064 112.156 118.638 112.458L104.247 137.054C103.731 137.933 102.6 138.228 101.721 137.713C101.568 137.623 101.433 137.515 101.317 137.392Z" fill="#8AADEA"/>
<path id="Vector_2" fill-rule="evenodd" clip-rule="evenodd" d="M97.6089 129.015H34.5396C33.5172 129.015 32.6875 128.184 32.6875 127.163V79.1119C32.6875 78.0895 33.5172 77.2598 34.5396 77.2598C59.324 77.2598 77.3584 77.2605 109.19 77.2605C110.212 77.2605 111.042 78.0902 111.042 79.1126V118.146C111.042 118.343 111.011 118.531 110.954 118.709C110.967 119.28 110.717 119.849 110.229 120.221L99.1924 128.694C98.7236 129.052 98.1385 129.151 97.6089 129.015Z" fill="#FFFFE6"/>
<path id="Vector_3" fill-rule="evenodd" clip-rule="evenodd" d="M107.718 152.441H26.8162C21.6455 152.441 17.4375 148.233 17.4375 143.064V135.538C17.4375 134.516 18.2676 133.685 19.29 133.685H101.946C102.03 133.644 102.118 133.608 102.21 133.578C103.181 133.267 104.222 133.801 104.533 134.772L109.308 149.634C109.476 149.913 109.572 150.239 109.572 150.586C109.572 151.608 108.741 152.441 107.718 152.441Z" fill="#8AADEA"/>
<path id="Vector_4" fill-rule="evenodd" clip-rule="evenodd" d="M56.2149 133.686H87.5194V142.736C87.5194 143.757 86.6878 144.588 85.6654 144.588H58.067C57.0446 144.588 56.2148 143.757 56.2148 142.736L56.2149 133.686Z" fill="#5488E0"/>
<path id="Vector_5" fill-rule="evenodd" clip-rule="evenodd" d="M142.251 151.565C141.612 151.565 140.989 151.232 140.645 150.637L137.052 144.413C136.737 143.867 136.72 143.198 137.011 142.637C137.769 141.17 136.814 139.489 136.803 139.472C136.294 138.592 136.585 137.46 137.459 136.942C138.333 136.425 139.457 136.701 139.983 137.569C140.653 138.675 141.448 140.998 140.711 143.342L143.854 148.784C144.364 149.669 144.062 150.803 143.176 151.314C142.884 151.485 142.567 151.565 142.251 151.565Z" fill="black"/>
<path id="Vector_6" fill-rule="evenodd" clip-rule="evenodd" d="M84.7933 114.344H80.5974C79.575 114.344 78.7453 113.513 78.7453 112.492C78.7453 111.47 79.575 110.64 80.5974 110.64H84.7933C85.8157 110.64 86.6458 111.47 86.6458 112.492C86.6458 113.513 85.8157 114.344 84.7933 114.344ZM72.6559 114.344H47.6685C46.6461 114.344 45.8164 113.513 45.8164 112.492C45.8164 111.47 46.6461 110.64 47.6685 110.64H72.6559C73.6783 110.64 74.5084 111.47 74.5084 112.492C74.5084 113.513 73.6798 114.344 72.6559 114.344Z" fill="#FE646F"/>
<path id="Vector_7" fill-rule="evenodd" clip-rule="evenodd" d="M84.7933 121.039H59.8044C58.782 121.039 57.9523 120.208 57.9523 119.186C57.9523 118.165 58.782 117.334 59.8044 117.334H84.7922C85.8142 117.334 86.6443 118.165 86.6443 119.186C86.6443 120.208 85.8157 121.039 84.7933 121.039ZM51.8648 121.039H47.6685C46.6461 121.039 45.8164 120.208 45.8164 119.186C45.8164 118.165 46.6461 117.334 47.6685 117.334H51.8648C52.8872 117.334 53.7169 118.165 53.7169 119.186C53.7169 120.208 52.8872 121.039 51.8648 121.039Z" fill="#FE646F"/>
<path id="Vector_8" fill-rule="evenodd" clip-rule="evenodd" d="M94.7233 67.294C94.5679 67.294 94.4107 67.2748 94.2575 67.2349C93.7777 67.1098 93.3672 66.7987 93.1192 66.3683L84.0985 50.7434C83.8497 50.3138 83.784 49.8033 83.9169 49.325C84.0498 48.8463 84.3672 48.4414 84.8009 48.1996C86.4164 47.299 88.2431 46.8232 90.0834 46.8232C93.9615 46.8232 97.572 48.9068 99.5097 52.2619C102.462 57.3772 100.74 64.0017 95.674 67.0308C95.3839 67.2036 95.0547 67.294 94.7233 67.294Z" fill="#FF4974"/>
<path id="Vector_9" fill-rule="evenodd" clip-rule="evenodd" d="M74.5506 106.084C74.0487 106.084 73.5537 105.879 73.192 105.491L56.9167 87.9603C56.5336 87.5476 56.3587 86.9814 56.4424 86.4241C56.5259 85.8675 56.8588 85.3788 57.3478 85.0968L67.2031 79.4072C67.9505 78.9765 68.8987 79.1167 69.4863 79.7505L85.7615 97.2814C86.145 97.6941 86.32 98.2602 86.2362 98.8169C86.1528 99.3742 85.8195 99.8629 85.3308 100.145L75.4752 105.834C75.1858 106.004 74.8669 106.084 74.5506 106.084Z" fill="#FE6A8D"/>
<path id="Vector_10" fill-rule="evenodd" clip-rule="evenodd" d="M55.5829 89.2748C52.9845 89.2748 50.5676 87.8841 49.2747 85.6459L45.4494 79.0217C43.4644 75.5821 44.647 71.1688 48.0862 69.1842L61.1242 61.6572L72.1834 80.8122L59.2016 88.3063C58.1028 88.939 56.8526 89.2745 55.5829 89.2748Z" fill="#FF4974"/>
<path id="Vector_11" fill-rule="evenodd" clip-rule="evenodd" d="M61.1231 61.6572L77.8823 37.8118C78.2477 37.2998 78.8408 37.0116 79.4797 37.0345C80.109 37.0647 80.6815 37.4128 80.9964 37.9583L102.639 75.4459C102.955 75.9925 102.972 76.6613 102.682 77.2205C102.391 77.7823 101.838 78.1565 101.21 78.2152L72.1823 80.8122L61.1231 61.6572Z" fill="#ECECFF"/>
<path id="Vector_12" fill-rule="evenodd" clip-rule="evenodd" d="M103.905 51.9181C103.265 51.9181 102.642 51.5863 102.299 50.992C101.788 50.1058 102.09 48.9727 102.977 48.4619L112.544 42.9387C113.425 42.4283 114.561 42.7295 115.074 43.6164C115.585 44.503 115.283 45.6361 114.396 46.1466L104.829 51.6697C104.538 51.8384 104.22 51.9181 103.905 51.9181Z" fill="#FF4974"/>
<path id="Vector_13" fill-rule="evenodd" clip-rule="evenodd" d="M100.354 45.7671C100.196 45.7671 100.034 45.7464 99.873 45.7036C98.8849 45.4386 98.2984 44.4229 98.5638 43.4348L101.424 32.7638C101.688 31.7758 102.703 31.1919 103.693 31.4528C104.681 31.7178 105.268 32.7339 105.002 33.722L102.142 44.3929C101.921 45.2216 101.173 45.7671 100.354 45.7671Z" fill="#FF4974"/>
<path id="Vector_14" fill-rule="evenodd" clip-rule="evenodd" d="M118.13 60.9283C117.972 60.9283 117.81 60.908 117.649 60.8652L106.977 58.0058C105.988 57.7408 105.402 56.7247 105.667 55.7366C105.931 54.7489 106.944 54.1635 107.936 54.426L118.608 57.2857C119.596 57.5507 120.183 58.5669 119.917 59.5546C119.695 60.3828 118.947 60.9283 118.13 60.9283Z" fill="#FF4974"/>
<path id="Vector_15" fill-rule="evenodd" clip-rule="evenodd" d="M139.06 104.579C130.548 104.579 123.623 97.6541 123.623 89.1405C123.623 80.6281 130.548 73.7031 139.06 73.7031C147.573 73.7031 154.499 80.6281 154.499 89.1405C154.499 97.653 147.573 104.579 139.06 104.579Z" fill="#EB5468"/>
<path id="Vector_16" fill-rule="evenodd" clip-rule="evenodd" d="M136.487 97.5072C134.447 97.5072 132.834 95.9023 132.816 93.855L132.814 84.4371C132.834 82.376 134.444 80.7734 136.479 80.7734C137.122 80.7734 137.756 80.9425 138.31 81.2629L146.455 85.9651C147.584 86.6173 148.285 87.8335 148.285 89.1405C148.285 90.4471 147.583 91.6636 146.455 92.3158L138.309 97.0181C137.755 97.3381 137.124 97.5072 136.487 97.5072Z" fill="#FFE470"/>
<path id="Vector_17" fill-rule="evenodd" clip-rule="evenodd" d="M148.556 61.6206C148.299 61.6206 148.04 61.5556 147.808 61.4272L138.524 56.3148C137.547 56.4765 136.553 56.5596 135.561 56.5596C125.634 56.5596 117.559 48.4841 117.559 38.5576C117.559 28.6311 125.634 20.5557 135.561 20.5557C145.487 20.5557 153.564 28.6311 153.564 38.5576C153.564 42.2689 152.45 45.8144 150.339 48.8402L150.11 60.0984C150.1 60.6421 149.805 61.1408 149.334 61.4124C149.093 61.5501 148.825 61.6206 148.556 61.6206Z" fill="#1AB193"/>
<g id="Group">
<path id="Vector_18" fill-rule="evenodd" clip-rule="evenodd" d="M144.214 36.1874H142.258C141.401 36.1874 140.705 35.4905 140.705 34.6342C140.705 33.7775 141.402 33.0811 142.258 33.0811H144.214C145.071 33.0811 145.767 33.7775 145.767 34.6342C145.767 35.4905 145.071 36.1874 144.214 36.1874ZM138.556 36.1874H126.907C126.049 36.1874 125.354 35.4905 125.354 34.6342C125.354 33.7775 126.05 33.0811 126.907 33.0811H138.556C139.413 33.0811 140.109 33.7775 140.109 34.6342C140.109 35.4905 139.413 36.1874 138.556 36.1874Z" fill="#4FC9AD"/>
<path id="Vector_19" fill-rule="evenodd" clip-rule="evenodd" d="M144.215 41.8596H132.565C131.707 41.8596 131.011 41.1628 131.011 40.3065C131.011 39.4498 131.708 38.7529 132.565 38.7529H144.215C145.072 38.7529 145.768 39.4498 145.768 40.3065C145.768 41.1628 145.072 41.8596 144.215 41.8596ZM128.864 41.8596H126.909C126.052 41.8596 125.355 41.1628 125.355 40.3065C125.355 39.4498 126.052 38.7529 126.909 38.7529H128.864C129.721 38.7529 130.417 39.4498 130.417 40.3065C130.417 41.1628 129.721 41.8596 128.864 41.8596Z" fill="#4FC9AD"/>
<path id="Vector_20" fill-rule="evenodd" clip-rule="evenodd" d="M144.214 47.5292H142.258C141.401 47.5292 140.705 46.8323 140.705 45.976C140.705 45.1193 141.402 44.4229 142.258 44.4229H144.214C145.071 44.4229 145.767 45.1193 145.767 45.976C145.767 46.8323 145.071 47.5292 144.214 47.5292ZM138.556 47.5292H126.907C126.049 47.5292 125.354 46.8323 125.354 45.976C125.354 45.1193 126.05 44.4229 126.907 44.4229H138.556C139.413 44.4229 140.109 45.1193 140.109 45.976C140.109 46.8323 139.413 47.5292 138.556 47.5292Z" fill="#4FC9AD"/>
<path id="Vector_21" fill-rule="evenodd" clip-rule="evenodd" d="M130.445 31.371H129.141C128.284 31.371 127.588 30.6745 127.588 29.8178C127.588 28.9615 128.285 28.2646 129.141 28.2646H130.445C131.302 28.2646 131.999 28.9615 131.999 29.8178C131.999 30.6745 131.303 31.371 130.445 31.371Z" fill="#4FC9AD"/>
<path id="Vector_22" fill-rule="evenodd" clip-rule="evenodd" d="M141.982 31.371H134.217C133.36 31.371 132.664 30.6745 132.664 29.8178C132.664 28.9615 133.361 28.2646 134.217 28.2646H141.982C142.839 28.2646 143.535 28.9615 143.535 29.8178C143.535 30.6745 142.839 31.371 141.982 31.371Z" fill="#4FC9AD"/>
</g>
<path id="Vector_23" fill-rule="evenodd" clip-rule="evenodd" d="M59.1951 37.2543C58.6566 37.2543 58.1572 36.9697 57.8834 36.5057L54.457 30.7043H52.75C49.8068 30.7043 47.4121 28.3107 47.4121 25.3683V9.89206C47.4121 6.94925 49.8068 4.55566 52.75 4.55566H107.065C110.008 4.55566 112.403 6.94962 112.403 9.89206V25.3668C112.403 28.3096 110.008 30.7032 107.065 30.7032H63.9328L60.5065 36.5042C60.2326 36.9697 59.7344 37.2543 59.1951 37.2543Z" fill="#FFBE61"/>
<path id="Vector_24" fill-rule="evenodd" clip-rule="evenodd" d="M64.9825 25.8173C64.7374 25.8173 64.4908 25.7583 64.2664 25.6383L60.6519 23.7124L57.0373 25.6383C56.5232 25.9133 55.8972 25.869 55.4255 25.5276C54.9538 25.1847 54.7198 24.603 54.8213 24.0287L55.5373 19.9963L52.5879 17.1539C52.1682 16.749 52.0158 16.1404 52.1952 15.5864C52.3753 15.0323 52.8566 14.6293 53.4338 14.5485L57.4895 13.9823L59.2803 10.2991C59.5354 9.77457 60.0676 9.44238 60.65 9.44238C61.2325 9.44238 61.7651 9.77457 62.0197 10.2991L63.8102 13.9823L67.8662 14.5485C68.4435 14.6286 68.9237 15.0316 69.1045 15.5864C69.2847 16.1404 69.1322 16.749 68.7122 17.1528L65.7627 19.9952L66.4777 24.0276C66.5796 24.6004 66.3448 25.1836 65.8731 25.5265C65.6118 25.7188 65.2977 25.8173 64.9825 25.8173Z" fill="#FFE8B2"/>
<path id="Vector_25" fill-rule="evenodd" clip-rule="evenodd" d="M84.2382 25.8173C83.9928 25.8173 83.7466 25.7583 83.5222 25.6383L79.9076 23.7124L76.293 25.6383C75.78 25.9133 75.1525 25.869 74.6808 25.5276C74.2091 25.1847 73.9755 24.603 74.077 24.0287L74.7927 19.9963L71.8436 17.1539C71.4239 16.749 71.2715 16.1404 71.4512 15.5864C71.6306 15.0323 72.1123 14.6293 72.6896 14.5485L76.7452 13.9823L78.5357 10.2991C78.7907 9.77457 79.323 9.44238 79.9054 9.44238C80.4882 9.44238 81.0204 9.77457 81.2755 10.2991L83.0659 13.9823L87.1216 14.5485C87.6992 14.6286 88.1794 15.0316 88.3603 15.5864C88.54 16.1404 88.3876 16.749 87.9675 17.1528L85.0218 19.9952L85.7378 24.0276C85.8393 24.6004 85.6057 25.1825 85.134 25.5265C84.8675 25.7188 84.5534 25.8173 84.2382 25.8173Z" fill="#FFE8B2"/>
<path id="Vector_26" fill-rule="evenodd" clip-rule="evenodd" d="M103.491 25.8172C103.246 25.8172 102.999 25.7581 102.775 25.6382L99.1604 23.7122L95.5459 25.6382C95.0328 25.9121 94.4065 25.8689 93.9348 25.5275C93.4627 25.1846 93.2283 24.6029 93.3298 24.0286L94.0451 19.9951L91.0957 17.1527C90.676 16.7485 90.5236 16.1391 90.703 15.5862C90.8827 15.0322 91.364 14.6292 91.9416 14.5483L95.9973 13.9821L97.7881 10.3C98.0428 9.77555 98.575 9.44336 99.1575 9.44336C99.7403 9.44336 100.273 9.77555 100.527 10.3L102.318 13.9821L106.374 14.5483C106.951 14.6284 107.431 15.0315 107.612 15.5862C107.792 16.1402 107.64 16.7489 107.22 17.1527L104.27 19.9951L104.985 24.0286C105.087 24.6018 104.852 25.1846 104.381 25.5275C104.12 25.7187 103.807 25.8172 103.491 25.8172Z" fill="#FFE8B2"/>
<path id="Vector_27" fill-rule="evenodd" clip-rule="evenodd" d="M33.8166 65.3009C24.453 65.3009 16.8359 57.6835 16.8359 48.3199C16.8359 38.9563 24.453 31.3389 33.8166 31.3389C43.1802 31.3389 50.7987 38.9563 50.7987 48.3199C50.7987 57.6835 43.1802 65.3009 33.8166 65.3009Z" fill="#CFE7B4"/>
<path id="Vector_28" fill-rule="evenodd" clip-rule="evenodd" d="M33.8169 65.2999C28.6037 65.2999 23.7516 62.9535 20.5069 58.8632C20.1039 58.3546 20.0825 57.6423 20.4549 57.1111C23.5095 52.7569 28.5049 50.1562 33.8169 50.1562C39.1301 50.1562 44.1258 52.7569 47.179 57.1111C47.5514 57.6423 47.5307 58.3546 47.1269 58.8632C43.8833 62.9543 39.0314 65.2999 33.8169 65.2999Z" fill="#8DBD57"/>
<path id="Vector_29" fill-rule="evenodd" clip-rule="evenodd" d="M33.8175 53.0878C29.7689 53.0878 26.4766 49.7954 26.4766 45.7472C26.4766 41.699 29.7689 38.4062 33.8175 38.4062C37.8661 38.4062 41.1592 41.699 41.1592 45.7472C41.1592 49.7954 37.8661 53.0878 33.8175 53.0878Z" fill="#FFE5C1"/>
<path id="Vector_30" fill-rule="evenodd" clip-rule="evenodd" d="M123.91 162.988L120.582 157.223C112.155 156.707 107.157 153.336 106.94 153.188L95.0389 145.532C94.6462 145.318 90.3289 142.804 89.845 138.931C89.5793 136.799 90.4515 135.623 91.2291 135.012C93.2311 133.443 96.6179 133.995 100.307 135.173L88.895 115.406C87.3083 112.658 88.2531 109.129 91.0007 107.543C93.749 105.957 97.2775 106.902 98.8643 109.65L103.063 116.922C103.496 116.384 104.033 115.916 104.666 115.55C105.974 114.795 107.459 114.613 108.827 114.927C109.239 113.585 110.139 112.39 111.446 111.635C112.754 110.88 114.239 110.699 115.608 111.012C116.02 109.67 116.919 108.475 118.228 107.72C120.975 106.134 124.504 107.079 126.09 109.827L131.774 119.671L131.819 119.754L142.354 138.003C142.435 138.135 144.126 140.989 143.109 144.102L146.478 149.937L147.022 150.88C147.36 151.465 147.158 152.219 146.573 152.556L126.054 164.403C125.506 164.72 124.801 164.53 124.485 163.983L123.91 162.988Z" fill="#FFC6B9"/>
</g>
</g>
</svg>
