<svg width="25" height="24" viewBox="0 0 25 24" fill="none" xmlns="http://www.w3.org/2000/svg">
<path fill-rule="evenodd" clip-rule="evenodd" d="M21.1396 7C21.1396 7.41421 20.8039 7.75 20.3896 7.75L4.38965 7.75C3.97544 7.75 3.63965 7.41421 3.63965 7C3.63965 6.58579 3.97544 6.25 4.38965 6.25L20.3896 6.25C20.8039 6.25 21.1396 6.58579 21.1396 7Z" fill="#1C274C"/>
<path fill-rule="evenodd" clip-rule="evenodd" d="M21.1396 12C21.1396 12.4142 20.8039 12.75 20.3896 12.75L4.38965 12.75C3.97544 12.75 3.63965 12.4142 3.63965 12C3.63965 11.5858 3.97544 11.25 4.38965 11.25L20.3896 11.25C20.8039 11.25 21.1396 11.5858 21.1396 12Z" fill="#1C274C"/>
<path fill-rule="evenodd" clip-rule="evenodd" d="M21.1396 17C21.1396 17.4142 20.8039 17.75 20.3896 17.75L4.38965 17.75C3.97544 17.75 3.63965 17.4142 3.63965 17C3.63965 16.5858 3.97544 16.25 4.38965 16.25L20.3896 16.25C20.8039 16.25 21.1396 16.5858 21.1396 17Z" fill="#1C274C"/>
</svg>
