<svg width="35" height="36" viewBox="0 0 35 36" fill="none" xmlns="http://www.w3.org/2000/svg">
<g style="mix-blend-mode:multiply">
<rect y="0.5" width="35" height="35" rx="17.5" fill="#FEE4E2"/>
<path d="M17.4962 13.5004V18.0004M17.4962 22.5004H17.5075M15.5725 7.71785L6.04371 23.6254C5.84725 23.9656 5.7433 24.3513 5.7422 24.7442C5.7411 25.1371 5.84289 25.5234 6.03744 25.8647C6.23199 26.206 6.51253 26.4904 6.85113 26.6897C7.18974 26.8889 7.57461 26.996 7.96746 27.0004H27.025C27.4178 26.996 27.8027 26.8889 28.1413 26.6897C28.4799 26.4904 28.7604 26.206 28.955 25.8647C29.1495 25.5234 29.2513 25.1371 29.2502 24.7442C29.2491 24.3513 29.1452 23.9656 28.9487 23.6254L19.42 7.71785C19.2194 7.38722 18.937 7.11386 18.6001 6.92415C18.2631 6.73443 17.8829 6.63477 17.4962 6.63477C17.1095 6.63477 16.7293 6.73443 16.3924 6.92415C16.0554 7.11386 15.773 7.38722 15.5725 7.71785Z" stroke="#F04438" stroke-width="3" stroke-linecap="round" stroke-linejoin="round"/>
</g>
</svg>
