<svg width="20" height="21" viewBox="0 0 20 21" fill="none" xmlns="http://www.w3.org/2000/svg">
<g id="bathtub">
<mask id="mask0_2009_11978" style="mask-type:alpha" maskUnits="userSpaceOnUse" x="0" y="0" width="20" height="21">
<rect id="Bounding box" y="0.555664" width="20" height="20" fill="#D9D9D9"/>
</mask>
<g mask="url(#mask0_2009_11978)">
<path id="bathtub_2" d="M5.83268 8.05599C5.37435 8.05599 4.98199 7.8928 4.6556 7.56641C4.32921 7.24002 4.16602 6.84766 4.16602 6.38932C4.16602 5.93099 4.32921 5.53863 4.6556 5.21224C4.98199 4.88585 5.37435 4.72266 5.83268 4.72266C6.29102 4.72266 6.68338 4.88585 7.00977 5.21224C7.33615 5.53863 7.49935 5.93099 7.49935 6.38932C7.49935 6.84766 7.33615 7.24002 7.00977 7.56641C6.68338 7.8928 6.29102 8.05599 5.83268 8.05599ZM4.16602 18.8893C3.9299 18.8893 3.73199 18.8095 3.57227 18.6497C3.41254 18.49 3.33268 18.2921 3.33268 18.056C2.87435 18.056 2.48199 17.8928 2.1556 17.5664C1.82921 17.24 1.66602 16.8477 1.66602 16.3893V11.3893H4.16602V10.7643C4.16602 10.2365 4.34657 9.7921 4.70768 9.43099C5.06879 9.06988 5.51324 8.88932 6.04102 8.88932C6.31879 8.88932 6.57574 8.94488 6.81185 9.05599C7.04796 9.1671 7.26324 9.31988 7.45768 9.51432L8.62435 10.806C8.73546 10.9171 8.8431 11.0213 8.94727 11.1185C9.05143 11.2157 9.16602 11.306 9.29102 11.3893H14.9993V4.59766C14.9993 4.40321 14.9299 4.23655 14.791 4.09766C14.6521 3.95877 14.4855 3.88932 14.291 3.88932C14.2077 3.88932 14.1278 3.90668 14.0514 3.94141C13.975 3.97613 13.9021 4.02821 13.8327 4.09766L12.791 5.13932C12.8605 5.37543 12.8743 5.60807 12.8327 5.83724C12.791 6.06641 12.7077 6.27821 12.5827 6.47266L10.291 4.13932C10.4855 4.01432 10.6938 3.93446 10.916 3.89974C11.1382 3.86502 11.3605 3.88932 11.5827 3.97266L12.6243 2.93099C12.8466 2.70877 13.1 2.53516 13.3848 2.41016C13.6695 2.28516 13.9716 2.22266 14.291 2.22266C14.9577 2.22266 15.5202 2.45182 15.9785 2.91016C16.4369 3.36849 16.666 3.93099 16.666 4.59766V11.3893H18.3327V16.3893C18.3327 16.8477 18.1695 17.24 17.8431 17.5664C17.5167 17.8928 17.1243 18.056 16.666 18.056C16.666 18.2921 16.5862 18.49 16.4264 18.6497C16.2667 18.8095 16.0688 18.8893 15.8327 18.8893H4.16602ZM3.33268 16.3893H16.666V13.056H3.33268V16.3893Z" fill="#667085"/>
</g>
</g>
</svg>
