<svg width="20" height="21" viewBox="0 0 20 21" fill="none" xmlns="http://www.w3.org/2000/svg">
<g id="bed">
<mask id="mask0_2009_11972" style="mask-type:alpha" maskUnits="userSpaceOnUse" x="0" y="0" width="20" height="21">
<rect id="Bounding box" y="0.555664" width="20" height="20" fill="#D9D9D9"/>
</mask>
<g mask="url(#mask0_2009_11972)">
<path id="bed_2" d="M1.66602 16.3893V11.3893C1.66602 11.0143 1.7424 10.674 1.89518 10.3685C2.04796 10.0629 2.24935 9.7921 2.49935 9.55599V7.22266C2.49935 6.52821 2.7424 5.93793 3.22852 5.45182C3.71463 4.96571 4.3049 4.72266 4.99935 4.72266H8.33268C8.65213 4.72266 8.95074 4.78168 9.22852 4.89974C9.50629 5.0178 9.76324 5.18099 9.99935 5.38932C10.2355 5.18099 10.4924 5.0178 10.7702 4.89974C11.048 4.78168 11.3466 4.72266 11.666 4.72266H14.9993C15.6938 4.72266 16.2841 4.96571 16.7702 5.45182C17.2563 5.93793 17.4993 6.52821 17.4993 7.22266V9.55599C17.7493 9.7921 17.9507 10.0629 18.1035 10.3685C18.2563 10.674 18.3327 11.0143 18.3327 11.3893V16.3893H16.666V14.7227H3.33268V16.3893H1.66602ZM10.8327 8.88932H15.8327V7.22266C15.8327 6.98655 15.7528 6.78863 15.5931 6.62891C15.4334 6.46918 15.2355 6.38932 14.9993 6.38932H11.666C11.4299 6.38932 11.232 6.46918 11.0723 6.62891C10.9125 6.78863 10.8327 6.98655 10.8327 7.22266V8.88932ZM4.16602 8.88932H9.16602V7.22266C9.16602 6.98655 9.08616 6.78863 8.92643 6.62891C8.76671 6.46918 8.56879 6.38932 8.33268 6.38932H4.99935C4.76324 6.38932 4.56532 6.46918 4.4056 6.62891C4.24588 6.78863 4.16602 6.98655 4.16602 7.22266V8.88932ZM3.33268 13.056H16.666V11.3893C16.666 11.1532 16.5862 10.9553 16.4264 10.7956C16.2667 10.6359 16.0688 10.556 15.8327 10.556H4.16602C3.9299 10.556 3.73199 10.6359 3.57227 10.7956C3.41254 10.9553 3.33268 11.1532 3.33268 11.3893V13.056Z" fill="#667085"/>
</g>
</g>
</svg>
