<svg width="36" height="36" viewBox="0 0 36 36" fill="none" xmlns="http://www.w3.org/2000/svg">
<circle cx="27" cy="21" r="7" stroke="#2160FD" stroke-width="2.3" stroke-linecap="round" stroke-linejoin="round"/>
<path d="M24.4 10.5002V8.20019C24.4 6.54334 23.0569 5.2002 21.4 5.2002H20M24.4 30.5002V31.0002C24.4 32.657 23.0569 34.0002 21.4 34.0002H5C3.34314 34.0002 2 32.6571 2 31.0002V8.2002C2 6.54334 3.34315 5.2002 5 5.2002H7.5M24.4 21.5002L26 24.0002L30 19.0002" stroke="#2160FD" stroke-width="2.3" stroke-linecap="round" stroke-linejoin="round"/>
<rect x="7.33203" y="2" width="12.8" height="6.4" rx="2" stroke="#2160FD" stroke-width="2.3" stroke-linecap="round" stroke-linejoin="round"/>
<line x1="7.15" y1="12.85" x2="18.85" y2="12.85" stroke="#2160FD" stroke-width="2.3" stroke-linecap="round" stroke-linejoin="round"/>
<path d="M7.14844 16.8496L16.4984 16.8496" stroke="#2160FD" stroke-width="2.3" stroke-linecap="round" stroke-linejoin="round"/>
<path d="M7.14844 21L16.4984 21" stroke="#2160FD" stroke-width="2.3" stroke-linecap="round" stroke-linejoin="round"/>
<path d="M7.14844 25L14.9984 25" stroke="#2160FD" stroke-width="2.3" stroke-linecap="round" stroke-linejoin="round"/>
</svg>
