<svg width="20" height="21" viewBox="0 0 20 21" fill="none" xmlns="http://www.w3.org/2000/svg">
<mask id="mask0_398_87380" style="mask-type:alpha" maskUnits="userSpaceOnUse" x="0" y="0" width="20" height="21">
<rect y="0.555664" width="20" height="20" fill="#D9D9D9"/>
</mask>
<g mask="url(#mask0_398_87380)">
<path d="M4.16667 18.8893C3.70833 18.8893 3.31597 18.7261 2.98958 18.3997C2.66319 18.0734 2.5 17.681 2.5 17.2227V5.55599C2.5 5.09766 2.66319 4.7053 2.98958 4.37891C3.31597 4.05252 3.70833 3.88932 4.16667 3.88932H5V3.05599C5 2.81988 5.07986 2.62196 5.23958 2.46224C5.39931 2.30252 5.59722 2.22266 5.83333 2.22266C6.06944 2.22266 6.26736 2.30252 6.42708 2.46224C6.58681 2.62196 6.66667 2.81988 6.66667 3.05599V3.88932H13.3333V3.05599C13.3333 2.81988 13.4132 2.62196 13.5729 2.46224C13.7326 2.30252 13.9306 2.22266 14.1667 2.22266C14.4028 2.22266 14.6007 2.30252 14.7604 2.46224C14.9201 2.62196 15 2.81988 15 3.05599V3.88932H15.8333C16.2917 3.88932 16.684 4.05252 17.0104 4.37891C17.3368 4.7053 17.5 5.09766 17.5 5.55599V17.2227C17.5 17.681 17.3368 18.0734 17.0104 18.3997C16.684 18.7261 16.2917 18.8893 15.8333 18.8893H4.16667ZM4.16667 17.2227H15.8333V8.88932H4.16667V17.2227ZM4.16667 7.22266H15.8333V5.55599H4.16667V7.22266Z" fill="#667085"/>
</g>
</svg>
