<svg width="50" height="50" viewBox="0 0 50 50" fill="none" xmlns="http://www.w3.org/2000/svg">
<circle cx="25" cy="25" r="25" fill="#004EE8"/>
<path d="M39 35.4238C38.987 35.4343 38.9686 35.4413 38.9618 35.4547C38.6628 36.0457 38.2109 36.1622 37.6859 35.7754C36.5414 34.9379 35.3984 34.0984 34.257 33.2571C33.7792 32.9062 33.3075 32.5454 32.8194 32.2106C32.6747 32.1115 32.5058 32.0563 32.332 32.0513C28.7208 32.0419 25.1099 32.0403 21.4992 32.0463C20.5483 32.0463 19.7796 31.7003 19.3052 30.8307C19.1452 30.5427 19.0487 30.2221 19.0226 29.8916C18.981 29.1693 19.0096 28.4436 19.0096 27.6912H29.6178C31.7292 27.6912 33.2256 26.1576 33.2269 23.9923C33.2269 21.7771 33.2269 19.5618 33.2269 17.3462V17.0345C33.2659 17.022 33.3059 17.0133 33.3464 17.0085C34.4871 17.0085 35.6291 16.9826 36.7691 17.0212C37.9091 17.0598 38.7017 17.7932 38.9536 18.9415C38.9642 18.9734 38.9786 19.0039 38.9966 19.0321L39 35.4238Z" fill="white"/>
<path d="M13 22.7104C13 20.312 13 17.9129 13 15.5132C13 13.9858 13.9595 13 15.4483 13H29.6306C30.8004 13 31.7101 13.7331 31.9481 14.8745C31.9846 15.07 32.0013 15.2689 31.998 15.468C32.0007 18.5255 32.0007 21.5829 31.998 24.6404C31.998 25.9157 31.2394 26.8543 30.0688 27.0591C29.9024 27.0819 29.7344 27.0907 29.5665 27.0855C25.9995 27.0855 22.4328 27.0855 18.8663 27.0855C18.6926 27.0807 18.5237 27.1445 18.3943 27.2639C17.0417 28.433 15.6816 29.5938 14.327 30.7601C14.1146 30.9434 13.8867 31.0378 13.6082 30.9858C13.2427 30.9164 13.0013 30.6012 13.0013 30.1735C13.0013 29.0995 13.0013 28.0255 13.0013 26.9522L13 22.7104ZM17.5636 19.2676C17.4141 19.2655 17.2658 19.2941 17.1273 19.3518C16.9887 19.4094 16.8628 19.495 16.7568 19.6034C16.6508 19.7119 16.5668 19.841 16.5099 19.9832C16.453 20.1255 16.4243 20.278 16.4254 20.4319C16.424 20.6638 16.4896 20.8909 16.6137 21.0844C16.7379 21.2779 16.915 21.4291 17.1227 21.5188C17.3304 21.6085 17.5593 21.6327 17.7804 21.5884C18.0015 21.5441 18.2048 21.4331 18.3646 21.2697C18.5244 21.1062 18.6334 20.8976 18.6779 20.6703C18.7225 20.443 18.7004 20.2072 18.6146 19.9927C18.5288 19.7783 18.3832 19.5949 18.196 19.4658C18.0089 19.3368 17.7888 19.2678 17.5636 19.2676ZM21.3665 20.4242C21.3631 20.7349 21.4794 21.0343 21.69 21.2568C21.9005 21.4793 22.1882 21.6068 22.4899 21.6114C22.7923 21.6118 23.0828 21.4901 23.299 21.2725C23.5153 21.0548 23.6399 20.7585 23.6463 20.4472C23.6479 20.1363 23.5297 19.8374 23.3176 19.6162C23.1055 19.3949 22.8168 19.2693 22.5148 19.2669C22.3651 19.2631 22.2161 19.2903 22.0767 19.3468C21.9373 19.4033 21.8103 19.488 21.7033 19.5959C21.5962 19.7038 21.5113 19.8327 21.4534 19.9749C21.3956 20.1172 21.366 20.27 21.3665 20.4242ZM26.3057 20.4409C26.308 20.7514 26.429 21.0484 26.6426 21.2677C26.8561 21.4869 27.145 21.6106 27.4466 21.6121C27.7481 21.6069 28.0357 21.4805 28.2481 21.2601C28.4605 21.0396 28.5808 20.7424 28.5834 20.4319C28.5802 20.1215 28.4579 19.825 28.2431 19.6071C28.0283 19.3893 27.7386 19.2677 27.4371 19.269C27.2877 19.268 27.1396 19.2977 27.0014 19.3563C26.8632 19.4149 26.7378 19.5013 26.6324 19.6104C26.5271 19.7195 26.4439 19.8492 26.3878 19.9918C26.3317 20.1344 26.3038 20.2871 26.3057 20.4409Z" fill="white"/>
<path d="M17.5009 19.0001C17.698 18.9997 17.8933 19.0382 18.0755 19.1136C18.2578 19.189 18.4233 19.2997 18.5626 19.4394C18.7019 19.579 18.8123 19.7449 18.8873 19.9274C18.9624 20.11 19.0007 20.3056 19 20.503C18.9993 20.7002 18.9599 20.8954 18.8839 21.0774C18.808 21.2593 18.6969 21.4245 18.5572 21.5635C18.4175 21.7026 18.2517 21.8127 18.0695 21.8875C17.8873 21.9624 17.6921 22.0006 17.4951 22C17.2981 21.9993 17.1032 21.9599 16.9215 21.8838C16.7397 21.8077 16.5747 21.6965 16.4359 21.5566C16.2971 21.4167 16.1871 21.2508 16.1123 21.0683C16.0376 20.8858 15.9994 20.6904 16 20.4932C15.9986 20.2959 16.0365 20.1003 16.1116 19.9178C16.1866 19.7354 16.2972 19.5698 16.437 19.4307C16.5768 19.2917 16.7429 19.182 16.9256 19.108C17.1083 19.0341 17.3039 18.9974 17.5009 19.0001Z" fill="#004EE8"/>
<path d="M21.0001 20.4802C20.9996 20.2832 21.0385 20.088 21.1146 19.9063C21.1906 19.7245 21.3023 19.5598 21.443 19.4219C21.5837 19.284 21.7506 19.1756 21.9338 19.1032C22.117 19.0309 22.3129 18.9959 22.5098 19.0004C22.9075 19.0034 23.2877 19.1641 23.5671 19.4472C23.8464 19.7303 24.0021 20.1127 24 20.5104C23.9916 20.9079 23.828 21.2864 23.5442 21.5648C23.2604 21.8432 22.8789 21.9994 22.4814 22C22.0836 21.9946 21.7041 21.8315 21.4264 21.5466C21.1487 21.2617 20.9954 20.8781 21.0001 20.4802Z" fill="#004EE8"/>
<path d="M26.0001 20.5022C25.9974 20.3053 26.034 20.1097 26.1077 19.927C26.1814 19.7444 26.2908 19.5782 26.4295 19.4384C26.5682 19.2985 26.7333 19.1877 26.9153 19.1124C27.0973 19.0372 27.2925 18.9989 27.4894 19C27.8867 18.9984 28.2685 19.154 28.5516 19.4329C28.8346 19.7119 28.9958 20.0915 29 20.4889C28.9966 20.8865 28.838 21.267 28.5582 21.5493C28.2783 21.8315 27.8992 21.9933 27.5018 22C27.1051 21.9977 26.7251 21.8393 26.4441 21.559C26.1631 21.2788 26.0036 20.8992 26.0001 20.5022Z" fill="#004EE8"/>
</svg>
