<svg width="16" height="17" viewBox="0 0 16 17" fill="none" xmlns="http://www.w3.org/2000/svg">
<g id="Img">
<path id="Vector" d="M14.7042 4.8509C14.6113 4.75793 14.501 4.68417 14.3796 4.63384C14.2582 4.58352 14.1281 4.55762 13.9967 4.55762C13.8652 4.55762 13.7351 4.58352 13.6137 4.63384C13.4923 4.68417 13.382 4.75793 13.2892 4.8509L7.99915 10.1409L2.70415 4.8509C2.51651 4.66326 2.26201 4.55785 1.99665 4.55785C1.73129 4.55785 1.47679 4.66326 1.28915 4.8509C1.10151 5.03854 0.996094 5.29304 0.996094 5.5584C0.996094 5.82377 1.10151 6.07826 1.28915 6.2659L7.28915 12.2659C7.47651 12.4522 7.72996 12.5567 7.99415 12.5567C8.25834 12.5567 8.51179 12.4522 8.69915 12.2659L14.6992 6.2659C14.7925 6.17336 14.8666 6.06333 14.9174 5.94211C14.9681 5.82089 14.9945 5.69086 14.9949 5.55944C14.9954 5.42802 14.97 5.29781 14.9201 5.17623C14.8702 5.05465 14.7968 4.94411 14.7042 4.8509Z" fill="#0D4599"/>
</g>
</svg>
