<svg width="20" height="21" viewBox="0 0 20 21" fill="none" xmlns="http://www.w3.org/2000/svg">
<mask id="mask0_398_87384" style="mask-type:alpha" maskUnits="userSpaceOnUse" x="0" y="0" width="20" height="21">
<rect y="0.555664" width="20" height="20" fill="#D9D9D9"/>
</mask>
<g mask="url(#mask0_398_87384)">
<path d="M9.99935 18.8893C8.84657 18.8893 7.76324 18.6706 6.74935 18.2331C5.73546 17.7956 4.85352 17.2018 4.10352 16.4518C3.35352 15.7018 2.75977 14.8199 2.32227 13.806C1.88477 12.7921 1.66602 11.7088 1.66602 10.556C1.66602 9.40321 1.88477 8.31988 2.32227 7.30599C2.75977 6.2921 3.35352 5.41016 4.10352 4.66016C4.85352 3.91016 5.73546 3.31641 6.74935 2.87891C7.76324 2.44141 8.84657 2.22266 9.99935 2.22266C11.166 2.22266 12.2528 2.44141 13.2598 2.87891C14.2667 3.31641 15.1452 3.91016 15.8952 4.66016C16.6452 5.41016 17.2389 6.28863 17.6764 7.29557C18.1139 8.30252 18.3327 9.38932 18.3327 10.556C18.3327 10.6949 18.3292 10.8303 18.3223 10.9622C18.3153 11.0942 18.3049 11.2227 18.291 11.3477C18.2632 11.5838 18.1625 11.7643 17.9889 11.8893C17.8153 12.0143 17.6105 12.056 17.3743 12.0143C17.1382 11.9727 16.9507 11.8546 16.8119 11.6602C16.673 11.4657 16.6174 11.2504 16.6452 11.0143C16.6452 10.9449 16.6487 10.8685 16.6556 10.7852C16.6625 10.7018 16.666 10.6254 16.666 10.556C16.666 9.62543 16.4959 8.75738 16.1556 7.95182C15.8153 7.14627 15.3396 6.43793 14.7285 5.82682C14.1174 5.21571 13.4091 4.74002 12.6035 4.39974C11.798 4.05946 10.9299 3.88932 9.99935 3.88932C8.13824 3.88932 6.56185 4.53516 5.27018 5.82682C3.97852 7.11849 3.33268 8.69488 3.33268 10.556C3.33268 12.4171 3.97852 13.9935 5.27018 15.2852C6.56185 16.5768 8.13824 17.2227 9.99935 17.2227C10.6243 17.2227 11.225 17.1428 11.8014 16.9831C12.3778 16.8234 12.923 16.5838 13.4368 16.2643C13.6313 16.1532 13.8431 16.1115 14.0723 16.1393C14.3014 16.1671 14.4785 16.2782 14.6035 16.4727C14.7424 16.6671 14.7875 16.8789 14.7389 17.1081C14.6903 17.3372 14.5688 17.5143 14.3743 17.6393C13.7216 18.0421 13.0306 18.3511 12.3014 18.5664C11.5723 18.7817 10.8049 18.8893 9.99935 18.8893ZM16.041 15.556C15.7493 15.556 15.5028 15.4553 15.3014 15.2539C15.1 15.0525 14.9993 14.806 14.9993 14.5143C14.9993 14.2227 15.1 13.9761 15.3014 13.7747C15.5028 13.5734 15.7493 13.4727 16.041 13.4727C16.3327 13.4727 16.5792 13.5734 16.7806 13.7747C16.982 13.9761 17.0827 14.2227 17.0827 14.5143C17.0827 14.806 16.982 15.0525 16.7806 15.2539C16.5792 15.4553 16.3327 15.556 16.041 15.556ZM10.8327 10.2227L13.3327 12.7227C13.4855 12.8754 13.5618 13.0699 13.5618 13.306C13.5618 13.5421 13.4855 13.7365 13.3327 13.8893C13.1799 14.0421 12.9855 14.1185 12.7493 14.1185C12.5132 14.1185 12.3188 14.0421 12.166 13.8893L9.41602 11.1393C9.33268 11.056 9.27018 10.9622 9.22852 10.8581C9.18685 10.7539 9.16602 10.6463 9.16602 10.5352V7.22266C9.16602 6.98655 9.24588 6.78863 9.4056 6.62891C9.56532 6.46918 9.76324 6.38932 9.99935 6.38932C10.2355 6.38932 10.4334 6.46918 10.5931 6.62891C10.7528 6.78863 10.8327 6.98655 10.8327 7.22266V10.2227Z" fill="#667085"/>
</g>
</svg>
