<svg width="12" height="12" viewBox="0 0 12 12" fill="none" xmlns="http://www.w3.org/2000/svg">
<g id="vuesax/bold/close-circle">
<path id="Vector" d="M6.0013 0.166992C2.78714 0.166992 0.167969 2.78616 0.167969 6.00033C0.167969 9.21449 2.78714 11.8337 6.0013 11.8337C9.21547 11.8337 11.8346 9.21449 11.8346 6.00033C11.8346 2.78616 9.21547 0.166992 6.0013 0.166992ZM7.9613 7.34199C8.13047 7.51116 8.13047 7.79116 7.9613 7.96033C7.8738 8.04782 7.76297 8.08866 7.65214 8.08866C7.5413 8.08866 7.43047 8.04782 7.34297 7.96033L6.0013 6.61866L4.65964 7.96033C4.57214 8.04782 4.4613 8.08866 4.35047 8.08866C4.23964 8.08866 4.1288 8.04782 4.0413 7.96033C3.87214 7.79116 3.87214 7.51116 4.0413 7.34199L5.38297 6.00033L4.0413 4.65866C3.87214 4.48949 3.87214 4.20949 4.0413 4.04033C4.21047 3.87116 4.49047 3.87116 4.65964 4.04033L6.0013 5.38199L7.34297 4.04033C7.51214 3.87116 7.79213 3.87116 7.9613 4.04033C8.13047 4.20949 8.13047 4.48949 7.9613 4.65866L6.61964 6.00033L7.9613 7.34199Z" fill="#DE0000"/>
</g>
</svg>
