<svg width="20" height="21" viewBox="0 0 20 21" fill="none" xmlns="http://www.w3.org/2000/svg">
<mask id="mask0_2011_8157" style="mask-type:alpha" maskUnits="userSpaceOnUse" x="0" y="0" width="20" height="21">
<rect y="0.0546875" width="20" height="20" fill="#D9D9D9"/>
</mask>
<g mask="url(#mask0_2011_8157)">
<path d="M10.0007 13.0345C9.88954 13.0345 9.78537 13.0171 9.68815 12.9824C9.59093 12.9477 9.50065 12.8887 9.41732 12.8053L6.41732 9.80534C6.25065 9.63867 6.17079 9.44423 6.17773 9.222C6.18468 8.99978 6.26454 8.80534 6.41732 8.63867C6.58398 8.47201 6.7819 8.3852 7.01107 8.37826C7.24023 8.37131 7.43815 8.45117 7.60482 8.61784L9.16732 10.1803V4.22201C9.16732 3.98589 9.24718 3.78798 9.4069 3.62826C9.56662 3.46853 9.76454 3.38867 10.0007 3.38867C10.2368 3.38867 10.4347 3.46853 10.5944 3.62826C10.7541 3.78798 10.834 3.98589 10.834 4.22201V10.1803L12.3965 8.61784C12.5632 8.45117 12.7611 8.37131 12.9902 8.37826C13.2194 8.3852 13.4173 8.47201 13.584 8.63867C13.7368 8.80534 13.8166 8.99978 13.8236 9.222C13.8305 9.44423 13.7507 9.63867 13.584 9.80534L10.584 12.8053C10.5007 12.8887 10.4104 12.9477 10.3132 12.9824C10.2159 13.0171 10.1118 13.0345 10.0007 13.0345ZM5.00065 16.722C4.54232 16.722 4.14996 16.5588 3.82357 16.2324C3.49718 15.906 3.33398 15.5137 3.33398 15.0553V13.3887C3.33398 13.1526 3.41385 12.9546 3.57357 12.7949C3.73329 12.6352 3.93121 12.5553 4.16732 12.5553C4.40343 12.5553 4.60135 12.6352 4.76107 12.7949C4.92079 12.9546 5.00065 13.1526 5.00065 13.3887V15.0553H15.0007V13.3887C15.0007 13.1526 15.0805 12.9546 15.2402 12.7949C15.4 12.6352 15.5979 12.5553 15.834 12.5553C16.0701 12.5553 16.268 12.6352 16.4277 12.7949C16.5875 12.9546 16.6673 13.1526 16.6673 13.3887V15.0553C16.6673 15.5137 16.5041 15.906 16.1777 16.2324C15.8513 16.5588 15.459 16.722 15.0007 16.722H5.00065Z" fill="#004DD1"/>
</g>
</svg>
