<svg width="20" height="20" viewBox="0 0 20 20" fill="none" xmlns="http://www.w3.org/2000/svg">
<g id="Outline / Essentional, UI / Copy">
<path id="Vector" fill-rule="evenodd" clip-rule="evenodd" d="M12.5 1.04199H9.11965C7.58819 1.04198 6.37516 1.04197 5.42582 1.16961C4.4488 1.30096 3.65801 1.57773 3.03437 2.20136C2.41073 2.825 2.13397 3.61579 2.00261 4.59281C1.87498 5.54215 1.87499 6.75518 1.875 8.28664V13.3337C1.875 14.8939 3.01838 16.187 4.51293 16.4209C4.6279 17.0576 4.84794 17.601 5.29029 18.0434C5.79189 18.545 6.42345 18.7607 7.17354 18.8616C7.89602 18.9587 8.81462 18.9587 9.95428 18.9587H12.5457C13.6854 18.9587 14.604 18.9587 15.3265 18.8616C16.0766 18.7607 16.7081 18.545 17.2097 18.0434C17.7113 17.5418 17.9271 16.9102 18.0279 16.1601C18.125 15.4376 18.125 14.519 18.125 13.3794V9.12127C18.125 7.98161 18.125 7.06301 18.0279 6.34053C17.9271 5.59044 17.7113 4.95888 17.2097 4.45728C16.7674 4.01493 16.2239 3.7949 15.5873 3.67992C15.3534 2.18537 14.0602 1.04199 12.5 1.04199ZM14.2744 3.55963C14.0221 2.82219 13.323 2.29199 12.5 2.29199H9.16667C7.57765 2.29199 6.44876 2.29332 5.59238 2.40846C4.75397 2.52118 4.27093 2.73257 3.91825 3.08525C3.56558 3.43792 3.35419 3.92096 3.24147 4.75937C3.12633 5.61575 3.125 6.74464 3.125 8.33366V13.3337C3.125 14.1566 3.6552 14.8558 4.39264 15.1081C4.37498 14.5998 4.37499 14.0251 4.375 13.3794V9.12126C4.37498 7.98161 4.37497 7.06301 4.4721 6.34053C4.57295 5.59044 4.7887 4.95888 5.29029 4.45728C5.79189 3.95569 6.42345 3.73994 7.17354 3.6391C7.89601 3.54196 8.81461 3.54198 9.95427 3.54199H12.5457C13.1914 3.54198 13.7661 3.54197 14.2744 3.55963ZM6.17418 5.34117C6.40481 5.11053 6.72862 4.96016 7.3401 4.87795C7.96956 4.79332 8.80382 4.79199 10 4.79199H12.5C13.6962 4.79199 14.5304 4.79332 15.1599 4.87795C15.7714 4.96016 16.0952 5.11053 16.3258 5.34117C16.5565 5.5718 16.7068 5.89561 16.789 6.50709C16.8737 7.13655 16.875 7.97081 16.875 9.16699V13.3337C16.875 14.5298 16.8737 15.3641 16.789 15.9936C16.7068 16.605 16.5565 16.9288 16.3258 17.1595C16.0952 17.3901 15.7714 17.5405 15.1599 17.6227C14.5304 17.7073 13.6962 17.7087 12.5 17.7087H10C8.80382 17.7087 7.96956 17.7073 7.3401 17.6227C6.72862 17.5405 6.40481 17.3901 6.17418 17.1595C5.94354 16.9288 5.79317 16.605 5.71096 15.9936C5.62633 15.3641 5.625 14.5298 5.625 13.3337V9.16699C5.625 7.97081 5.62633 7.13655 5.71096 6.50709C5.79317 5.89561 5.94354 5.5718 6.17418 5.34117Z" fill="#9CA3AF"/>
</g>
</svg>
