<svg width="24" height="25" viewBox="0 0 24 25" fill="none" xmlns="http://www.w3.org/2000/svg">
<g id="Outline / Security / Eye">
<g id="Vector">
<path fill-rule="evenodd" clip-rule="evenodd" d="M12 8.80566C9.92893 8.80566 8.25 10.4846 8.25 12.5557C8.25 14.6267 9.92893 16.3057 12 16.3057C14.0711 16.3057 15.75 14.6267 15.75 12.5557C15.75 10.4846 14.0711 8.80566 12 8.80566ZM9.75 12.5557C9.75 11.313 10.7574 10.3057 12 10.3057C13.2426 10.3057 14.25 11.313 14.25 12.5557C14.25 13.7983 13.2426 14.8057 12 14.8057C10.7574 14.8057 9.75 13.7983 9.75 12.5557Z" fill="#9CA3AF"/>
<path fill-rule="evenodd" clip-rule="evenodd" d="M12 3.80566C7.48587 3.80566 4.44529 6.50986 2.68057 8.80253L2.64874 8.84386C2.24964 9.3622 1.88206 9.83959 1.63269 10.4041C1.36564 11.0085 1.25 11.6674 1.25 12.5557C1.25 13.444 1.36564 14.1028 1.63269 14.7073C1.88206 15.2717 2.24964 15.7491 2.64875 16.2675L2.68057 16.3088C4.44529 18.6015 7.48587 21.3057 12 21.3057C16.5141 21.3057 19.5547 18.6015 21.3194 16.3088L21.3512 16.2675C21.7504 15.7491 22.1179 15.2718 22.3673 14.7073C22.6344 14.1028 22.75 13.444 22.75 12.5557C22.75 11.6674 22.6344 11.0085 22.3673 10.4041C22.1179 9.83958 21.7504 9.36218 21.3512 8.84384L21.3194 8.80253C19.5547 6.50986 16.5141 3.80566 12 3.80566ZM3.86922 9.71746C5.49864 7.60058 8.15036 5.30566 12 5.30566C15.8496 5.30566 18.5014 7.60058 20.1308 9.71746C20.5694 10.2873 20.8263 10.6277 20.9952 11.0102C21.1532 11.3677 21.25 11.8046 21.25 12.5557C21.25 13.3067 21.1532 13.7436 20.9952 14.1011C20.8263 14.4836 20.5694 14.8241 20.1308 15.3939C18.5014 17.5107 15.8496 19.8057 12 19.8057C8.15036 19.8057 5.49864 17.5107 3.86922 15.3939C3.43064 14.8241 3.17374 14.4836 3.00476 14.1011C2.84684 13.7436 2.75 13.3067 2.75 12.5557C2.75 11.8046 2.84684 11.3677 3.00476 11.0102C3.17374 10.6277 3.43063 10.2873 3.86922 9.71746Z" fill="#9CA3AF"/>
</g>
</g>
</svg>
