<svg width="20" height="21" viewBox="0 0 20 21" fill="none" xmlns="http://www.w3.org/2000/svg">
<g id="visibility">
<mask id="mask0_2009_1006" style="mask-type:alpha" maskUnits="userSpaceOnUse" x="0" y="0" width="20" height="21">
<rect id="Bounding box" y="0.555664" width="20" height="20" fill="#D9D9D9"/>
</mask>
<g mask="url(#mask0_2009_1006)">
<path id="visibility_2" d="M10 13.8887C11.0417 13.8887 11.9271 13.5241 12.6562 12.7949C13.3854 12.0658 13.75 11.1803 13.75 10.1387C13.75 9.097 13.3854 8.21159 12.6562 7.48242C11.9271 6.75326 11.0417 6.38867 10 6.38867C8.95833 6.38867 8.07292 6.75326 7.34375 7.48242C6.61458 8.21159 6.25 9.097 6.25 10.1387C6.25 11.1803 6.61458 12.0658 7.34375 12.7949C8.07292 13.5241 8.95833 13.8887 10 13.8887ZM10 12.3887C9.375 12.3887 8.84375 12.1699 8.40625 11.7324C7.96875 11.2949 7.75 10.7637 7.75 10.1387C7.75 9.51367 7.96875 8.98242 8.40625 8.54492C8.84375 8.10742 9.375 7.88867 10 7.88867C10.625 7.88867 11.1562 8.10742 11.5938 8.54492C12.0312 8.98242 12.25 9.51367 12.25 10.1387C12.25 10.7637 12.0312 11.2949 11.5938 11.7324C11.1562 12.1699 10.625 12.3887 10 12.3887ZM10 16.3887C8.13889 16.3887 6.44097 15.8887 4.90625 14.8887C3.37153 13.8887 2.15972 12.5692 1.27083 10.9303C1.20139 10.8053 1.14931 10.6769 1.11458 10.5449C1.07986 10.413 1.0625 10.2776 1.0625 10.1387C1.0625 9.99978 1.07986 9.86437 1.11458 9.73242C1.14931 9.60048 1.20139 9.47201 1.27083 9.34701C2.15972 7.70812 3.37153 6.38867 4.90625 5.38867C6.44097 4.38867 8.13889 3.88867 10 3.88867C11.8611 3.88867 13.559 4.38867 15.0937 5.38867C16.6285 6.38867 17.8403 7.70812 18.7292 9.34701C18.7986 9.47201 18.8507 9.60048 18.8854 9.73242C18.9201 9.86437 18.9375 9.99978 18.9375 10.1387C18.9375 10.2776 18.9201 10.413 18.8854 10.5449C18.8507 10.6769 18.7986 10.8053 18.7292 10.9303C17.8403 12.5692 16.6285 13.8887 15.0937 14.8887C13.559 15.8887 11.8611 16.3887 10 16.3887ZM10 14.722C11.5694 14.722 13.0104 14.3088 14.3229 13.4824C15.6354 12.656 16.6389 11.5414 17.3333 10.1387C16.6389 8.73589 15.6354 7.62131 14.3229 6.79492C13.0104 5.96853 11.5694 5.55534 10 5.55534C8.43056 5.55534 6.98958 5.96853 5.67708 6.79492C4.36458 7.62131 3.36111 8.73589 2.66667 10.1387C3.36111 11.5414 4.36458 12.656 5.67708 13.4824C6.98958 14.3088 8.43056 14.722 10 14.722Z" fill="#667085"/>
</g>
</g>
</svg>
