<svg width="32" height="33" viewBox="0 0 32 33" fill="none" xmlns="http://www.w3.org/2000/svg">
<path d="M0 16.5557C0 25.3922 7.16344 32.5557 16 32.5557C24.8366 32.5557 32 25.3922 32 16.5557C32 7.71911 24.8366 0.555664 16 0.555664C7.16344 0.555664 0 7.71911 0 16.5557Z" fill="#004DD1"/>
<path d="M24 16.5557C24 12.1557 20.4 8.55566 16 8.55566C11.6 8.55566 8 12.1557 8 16.5557C8 20.5557 10.9 23.8557 14.7 24.4557V18.8557H12.7V16.5557H14.7V14.7557C14.7 12.7557 15.9 11.6557 17.7 11.6557C18.6 11.6557 19.5 11.8557 19.5 11.8557V13.8557H18.5C17.5 13.8557 17.2 14.4557 17.2 15.0557V16.5557H19.4L19 18.8557H17.1V24.5557C21.1 23.9557 24 20.5557 24 16.5557Z" fill="white"/>
</svg>
