<svg width="16" height="17" viewBox="0 0 16 17" fill="none" xmlns="http://www.w3.org/2000/svg">
<g id="file-04">
<path id="Icon" d="M9.33464 2.15132V4.90501C9.33464 5.27838 9.33464 5.46507 9.4073 5.60767C9.47121 5.73311 9.5732 5.8351 9.69864 5.89902C9.84125 5.97168 10.0279 5.97168 10.4013 5.97168H13.155M13.3346 7.29716V12.105C13.3346 13.2251 13.3346 13.7852 13.1166 14.213C12.9249 14.5893 12.6189 14.8953 12.2426 15.087C11.8148 15.305 11.2547 15.305 10.1346 15.305H5.86797C4.74786 15.305 4.18781 15.305 3.75999 15.087C3.38366 14.8953 3.0777 14.5893 2.88596 14.213C2.66797 13.7852 2.66797 13.2251 2.66797 12.105V5.17168C2.66797 4.05157 2.66797 3.49152 2.88596 3.0637C3.0777 2.68737 3.38366 2.38141 3.75999 2.18967C4.18781 1.97168 4.74786 1.97168 5.86797 1.97168H8.00915C8.49833 1.97168 8.74292 1.97168 8.9731 2.02694C9.17717 2.07593 9.37226 2.15674 9.5512 2.2664C9.75304 2.39008 9.92599 2.56303 10.2719 2.90894L12.3974 5.03442C12.7433 5.38032 12.9162 5.55328 13.0399 5.75511C13.1496 5.93405 13.2304 6.12914 13.2794 6.33322C13.3346 6.56339 13.3346 6.80798 13.3346 7.29716Z" stroke="#004DD1" stroke-width="1.33333" stroke-linecap="round" stroke-linejoin="round"/>
</g>
</svg>
