<svg width="33" height="33" viewBox="0 0 33 33" fill="none" xmlns="http://www.w3.org/2000/svg">
<path d="M0.333984 16.6602C0.333984 25.4967 7.49743 32.6602 16.334 32.6602C25.1705 32.6602 32.334 25.4967 32.334 16.6602C32.334 7.8236 25.1705 0.660156 16.334 0.660156C7.49743 0.660156 0.333984 7.8236 0.333984 16.6602Z" fill="#004DD1"/>
<path d="M23.934 12.7605C23.734 12.0605 23.234 11.5605 22.534 11.3605C21.334 11.0605 16.234 11.0605 16.234 11.0605C16.234 11.0605 11.234 11.0605 9.93399 11.3605C9.23399 11.5605 8.73398 12.0605 8.53398 12.7605C8.33398 14.0605 8.33398 16.6605 8.33398 16.6605C8.33398 16.6605 8.33399 19.2605 8.63399 20.5605C8.83399 21.2605 9.33398 21.7605 10.034 21.9605C11.234 22.2605 16.334 22.2605 16.334 22.2605C16.334 22.2605 21.334 22.2605 22.634 21.9605C23.334 21.7605 23.834 21.2605 24.034 20.5605C24.334 19.2605 24.334 16.6605 24.334 16.6605C24.334 16.6605 24.334 14.0605 23.934 12.7605ZM14.734 19.0605V14.2605L18.934 16.6605L14.734 19.0605Z" fill="white"/>
</svg>
