<svg width="33" height="33" viewBox="0 0 33 33" fill="none" xmlns="http://www.w3.org/2000/svg">
<path d="M0.666016 16.6602C0.666016 25.4967 7.82946 32.6602 16.666 32.6602C25.5026 32.6602 32.666 25.4967 32.666 16.6602C32.666 7.8236 25.5026 0.660156 16.666 0.660156C7.82946 0.660156 0.666016 7.8236 0.666016 16.6602Z" fill="#004DD1"/>
<path d="M16.6652 9.85938C18.8652 9.85938 19.1652 9.85938 20.0652 9.85938C20.8652 9.85938 21.2652 10.0594 21.5652 10.1594C21.9652 10.3594 22.2652 10.4594 22.5652 10.7594C22.8652 11.0594 23.0652 11.3594 23.1652 11.7594C23.2652 12.0594 23.3652 12.4594 23.4652 13.2594C23.4652 14.1594 23.4652 14.3594 23.4652 16.6594C23.4652 18.9594 23.4652 19.1594 23.4652 20.0594C23.4652 20.8594 23.2652 21.2594 23.1652 21.5594C22.9652 21.9594 22.8652 22.2594 22.5652 22.5594C22.2652 22.8594 21.9652 23.0594 21.5652 23.1594C21.2652 23.2594 20.8652 23.3594 20.0652 23.4594C19.1652 23.4594 18.9652 23.4594 16.6652 23.4594C14.3652 23.4594 14.1652 23.4594 13.2652 23.4594C12.4652 23.4594 12.0652 23.2594 11.7652 23.1594C11.3652 22.9594 11.0652 22.8594 10.7652 22.5594C10.4652 22.2594 10.2652 21.9594 10.1652 21.5594C10.0652 21.2594 9.96523 20.8594 9.86523 20.0594C9.86523 19.1594 9.86523 18.9594 9.86523 16.6594C9.86523 14.3594 9.86523 14.1594 9.86523 13.2594C9.86523 12.4594 10.0652 12.0594 10.1652 11.7594C10.3652 11.3594 10.4652 11.0594 10.7652 10.7594C11.0652 10.4594 11.3652 10.2594 11.7652 10.1594C12.0652 10.0594 12.4652 9.95938 13.2652 9.85938C14.1652 9.85938 14.4652 9.85938 16.6652 9.85938ZM16.6652 8.35938C14.3652 8.35938 14.1652 8.35938 13.2652 8.35938C12.3652 8.35938 11.7652 8.55938 11.2652 8.75938C10.7652 8.95938 10.2652 9.25938 9.76523 9.75938C9.26523 10.2594 9.06523 10.6594 8.76523 11.2594C8.56523 11.7594 8.46523 12.3594 8.36523 13.2594C8.36523 14.1594 8.36523 14.4594 8.36523 16.6594C8.36523 18.9594 8.36523 19.1594 8.36523 20.0594C8.36523 20.9594 8.56523 21.5594 8.76523 22.0594C8.96523 22.5594 9.26523 23.0594 9.76523 23.5594C10.2652 24.0594 10.6652 24.2594 11.2652 24.5594C11.7652 24.7594 12.3652 24.8594 13.2652 24.9594C14.1652 24.9594 14.4652 24.9594 16.6652 24.9594C18.8652 24.9594 19.1652 24.9594 20.0652 24.9594C20.9652 24.9594 21.5652 24.7594 22.0652 24.5594C22.5652 24.3594 23.0652 24.0594 23.5652 23.5594C24.0652 23.0594 24.2652 22.6594 24.5652 22.0594C24.7652 21.5594 24.8652 20.9594 24.9652 20.0594C24.9652 19.1594 24.9652 18.8594 24.9652 16.6594C24.9652 14.4594 24.9652 14.1594 24.9652 13.2594C24.9652 12.3594 24.7652 11.7594 24.5652 11.2594C24.3652 10.7594 24.0652 10.2594 23.5652 9.75938C23.0652 9.25938 22.6652 9.05938 22.0652 8.75938C21.5652 8.55938 20.9652 8.45938 20.0652 8.35938C19.1652 8.35938 18.9652 8.35938 16.6652 8.35938Z" fill="white"/>
<path d="M16.6652 12.3594C14.2652 12.3594 12.3652 14.2594 12.3652 16.6594C12.3652 19.0594 14.2652 20.9594 16.6652 20.9594C19.0652 20.9594 20.9652 19.0594 20.9652 16.6594C20.9652 14.2594 19.0652 12.3594 16.6652 12.3594ZM16.6652 19.4594C15.1652 19.4594 13.8652 18.2594 13.8652 16.6594C13.8652 15.1594 15.0652 13.8594 16.6652 13.8594C18.1652 13.8594 19.4652 15.0594 19.4652 16.6594C19.4652 18.1594 18.1652 19.4594 16.6652 19.4594Z" fill="white"/>
<path d="M21.0652 13.2594C21.6175 13.2594 22.0652 12.8117 22.0652 12.2594C22.0652 11.7071 21.6175 11.2594 21.0652 11.2594C20.5129 11.2594 20.0652 11.7071 20.0652 12.2594C20.0652 12.8117 20.5129 13.2594 21.0652 13.2594Z" fill="white"/>
</svg>
