<svg width="32" height="33" viewBox="0 0 32 33" fill="none" xmlns="http://www.w3.org/2000/svg">
<path d="M0 16.6602C0 25.4967 7.16344 32.6602 16 32.6602C24.8366 32.6602 32 25.4967 32 16.6602C32 7.8236 24.8366 0.660156 16 0.660156C7.16344 0.660156 0 7.8236 0 16.6602Z" fill="#004DD1"/>
<path d="M17.5222 15.4351L23.4785 8.66016H22.0671L16.8952 14.5427L12.7644 8.66016H8L14.2466 17.5556L8 24.6602H9.41155L14.8732 18.448L19.2356 24.6602H24L17.5218 15.4351H17.5222ZM15.5889 17.634L14.956 16.7482L9.92015 9.6999H12.0882L16.1522 15.3881L16.7851 16.2739L22.0677 23.6677H19.8997L15.5889 17.6343V17.634Z" fill="white"/>
</svg>
