<svg width="32" height="33" viewBox="0 0 32 33" fill="none" xmlns="http://www.w3.org/2000/svg">
<path d="M0 16.6602C0 25.4967 7.16344 32.6602 16 32.6602C24.8366 32.6602 32 25.4967 32 16.6602C32 7.8236 24.8366 0.660156 16 0.660156C7.16344 0.660156 0 7.8236 0 16.6602Z" fill="#004DD1"/>
<path d="M24 16.6602C24 12.2602 20.4 8.66016 16 8.66016C11.6 8.66016 8 12.2602 8 16.6602C8 20.6602 10.9 23.9602 14.7 24.5602V18.9602H12.7V16.6602H14.7V14.8602C14.7 12.8602 15.9 11.7602 17.7 11.7602C18.6 11.7602 19.5 11.9602 19.5 11.9602V13.9602H18.5C17.5 13.9602 17.2 14.5602 17.2 15.1602V16.6602H19.4L19 18.9602H17.1V24.6602C21.1 24.0602 24 20.6602 24 16.6602Z" fill="white"/>
</svg>
