<svg width="36" height="36" viewBox="0 0 36 36" fill="none" xmlns="http://www.w3.org/2000/svg">
<path d="M28.777 11.3066L30.5531 15.6005L34.4 16.58L34.3998 19.7831L30.5393 20.7888L28.7628 25.084L31.164 27.92L27.9281 31.16C27.9281 31.16 25.8197 29.2667 25.1049 28.7551L20.8163 30.5334L19.8382 34.4H16.6023L15.6266 30.5319L11.4104 28.7953L8.51237 31.16L5.27641 27.92L7.63719 25.084L5.86065 20.7887L2.00016 19.783L2 16.58L5.8469 15.6005L7.62793 11.3779L5.27641 8.48L8.51237 5.24L11.2701 7.69586L15.5491 5.88983L16.5715 2H19.7335L20.7407 5.83898L25.1204 7.64238L27.9281 5.24L31.164 8.48L28.777 11.3066Z" stroke="#2160FD" stroke-width="2.3" stroke-linecap="round" stroke-linejoin="round"/>
<circle cx="18" cy="18" r="5" stroke="#2160FD" stroke-width="2.3" stroke-linecap="round" stroke-linejoin="round"/>
</svg>
