<svg width="24" height="25" viewBox="0 0 24 25" fill="none" xmlns="http://www.w3.org/2000/svg">
<mask id="mask0_2002_5213" style="mask-type:alpha" maskUnits="userSpaceOnUse" x="0" y="0" width="24" height="25">
<rect y="0.0556641" width="24" height="24" fill="#D9D9D9"/>
</mask>
<g mask="url(#mask0_2002_5213)">
<path d="M12 19.4057C14.0333 17.539 15.5417 15.8432 16.525 14.3182C17.5083 12.7932 18 11.439 18 10.2557C18 8.439 17.4208 6.9515 16.2625 5.79316C15.1042 4.63483 13.6833 4.05566 12 4.05566C10.3167 4.05566 8.89583 4.63483 7.7375 5.79316C6.57917 6.9515 6 8.439 6 10.2557C6 11.439 6.49167 12.7932 7.475 14.3182C8.45833 15.8432 9.96667 17.539 12 19.4057ZM12 21.3807C11.7667 21.3807 11.5333 21.339 11.3 21.2557C11.0667 21.1723 10.8583 21.0473 10.675 20.8807C9.59167 19.8807 8.63333 18.9057 7.8 17.9557C6.96667 17.0057 6.27083 16.0848 5.7125 15.1932C5.15417 14.3015 4.72917 13.4432 4.4375 12.6182C4.14583 11.7932 4 11.0057 4 10.2557C4 7.75566 4.80417 5.764 6.4125 4.28066C8.02083 2.79733 9.88333 2.05566 12 2.05566C14.1167 2.05566 15.9792 2.79733 17.5875 4.28066C19.1958 5.764 20 7.75566 20 10.2557C20 11.0057 19.8542 11.7932 19.5625 12.6182C19.2708 13.4432 18.8458 14.3015 18.2875 15.1932C17.7292 16.0848 17.0333 17.0057 16.2 17.9557C15.3667 18.9057 14.4083 19.8807 13.325 20.8807C13.1417 21.0473 12.9333 21.1723 12.7 21.2557C12.4667 21.339 12.2333 21.3807 12 21.3807ZM12 12.0557C12.55 12.0557 13.0208 11.8598 13.4125 11.4682C13.8042 11.0765 14 10.6057 14 10.0557C14 9.50566 13.8042 9.03483 13.4125 8.64316C13.0208 8.2515 12.55 8.05566 12 8.05566C11.45 8.05566 10.9792 8.2515 10.5875 8.64316C10.1958 9.03483 10 9.50566 10 10.0557C10 10.6057 10.1958 11.0765 10.5875 11.4682C10.9792 11.8598 11.45 12.0557 12 12.0557Z" fill="#004DD1"/>
</g>
</svg>
