<svg width="20" height="21" viewBox="0 0 20 21" fill="none" xmlns="http://www.w3.org/2000/svg">
<g id="home_work">
<mask id="mask0_2009_988" style="mask-type:alpha" maskUnits="userSpaceOnUse" x="0" y="0" width="20" height="21">
<rect id="Bounding box" y="0.555664" width="20" height="20" fill="#D9D9D9"/>
</mask>
<g mask="url(#mask0_2009_988)">
<path id="home_work_2" d="M19.1673 4.72233V16.389C19.1673 16.8473 19.0041 17.2397 18.6777 17.5661C18.3513 17.8925 17.959 18.0557 17.5006 18.0557H15.0006C14.7645 18.0557 14.5666 17.9758 14.4069 17.8161C14.2472 17.6564 14.1673 17.4584 14.1673 17.2223C14.1673 16.9862 14.2472 16.7883 14.4069 16.6286C14.5666 16.4689 14.7645 16.389 15.0006 16.389H17.5006V4.72233H10.0007V5.139C10.0007 5.37511 9.92079 5.57303 9.76107 5.73275C9.60135 5.89247 9.40343 5.97233 9.16732 5.97233C8.93121 5.97233 8.73329 5.89247 8.57357 5.73275C8.41385 5.57303 8.33398 5.37511 8.33398 5.139V4.68066C8.33398 4.23622 8.49371 3.85428 8.81315 3.53483C9.13259 3.21539 9.51454 3.05566 9.95898 3.05566H17.5006C17.959 3.05566 18.3513 3.21886 18.6777 3.54525C19.0041 3.87164 19.1673 4.264 19.1673 4.72233ZM0.833984 10.5765C0.833984 10.2987 0.896484 10.0418 1.02148 9.80566C1.14648 9.56955 1.3201 9.37511 1.54232 9.22233L5.70898 6.24316C5.86176 6.13205 6.01801 6.05219 6.17773 6.00358C6.33746 5.95497 6.50065 5.93066 6.66732 5.93066C6.83398 5.93066 6.99718 5.95497 7.1569 6.00358C7.31662 6.05219 7.47287 6.13205 7.62565 6.24316L11.7923 9.22233C12.0145 9.37511 12.1882 9.56955 12.3132 9.80566C12.4382 10.0418 12.5007 10.2987 12.5007 10.5765V16.389C12.5007 16.8473 12.3375 17.2397 12.0111 17.5661C11.6847 17.8925 11.2923 18.0557 10.834 18.0557H9.16732C8.70898 18.0557 8.31662 17.8925 7.99023 17.5661C7.66385 17.2397 7.50065 16.8473 7.50065 16.389V13.889H5.83398V16.389C5.83398 16.8473 5.67079 17.2397 5.3444 17.5661C5.01801 17.8925 4.62565 18.0557 4.16732 18.0557H2.50065C2.04232 18.0557 1.64996 17.8925 1.32357 17.5661C0.997179 17.2397 0.833984 16.8473 0.833984 16.389V10.5765ZM2.50065 10.5557V16.389H4.16732V13.889C4.16732 13.4307 4.33051 13.0383 4.6569 12.7119C4.98329 12.3855 5.37565 12.2223 5.83398 12.2223H7.50065C7.95898 12.2223 8.35135 12.3855 8.67773 12.7119C9.00412 13.0383 9.16732 13.4307 9.16732 13.889V16.389H10.834V10.5557L6.66732 7.59733L2.50065 10.5557ZM14.584 8.05566H15.4173C15.5284 8.05566 15.6257 8.014 15.709 7.93066C15.7923 7.84733 15.834 7.75011 15.834 7.639V6.80566C15.834 6.69455 15.7923 6.59733 15.709 6.514C15.6257 6.43066 15.5284 6.389 15.4173 6.389H14.584C14.4729 6.389 14.3756 6.43066 14.2923 6.514C14.209 6.59733 14.1673 6.69455 14.1673 6.80566V7.639C14.1673 7.75011 14.209 7.84733 14.2923 7.93066C14.3756 8.014 14.4729 8.05566 14.584 8.05566ZM14.584 11.389H15.4173C15.5284 11.389 15.6257 11.3473 15.709 11.264C15.7923 11.1807 15.834 11.0834 15.834 10.9723V10.139C15.834 10.0279 15.7923 9.93066 15.709 9.84733C15.6257 9.764 15.5284 9.72233 15.4173 9.72233H14.584C14.4729 9.72233 14.3756 9.764 14.2923 9.84733C14.209 9.93066 14.1673 10.0279 14.1673 10.139V10.9723C14.1673 11.0834 14.209 11.1807 14.2923 11.264C14.3756 11.3473 14.4729 11.389 14.584 11.389ZM14.584 14.7223H15.4173C15.5284 14.7223 15.6257 14.6807 15.709 14.5973C15.7923 14.514 15.834 14.4168 15.834 14.3057V13.4723C15.834 13.3612 15.7923 13.264 15.709 13.1807C15.6257 13.0973 15.5284 13.0557 15.4173 13.0557H14.584C14.4729 13.0557 14.3756 13.0973 14.2923 13.1807C14.209 13.264 14.1673 13.3612 14.1673 13.4723V14.3057C14.1673 14.4168 14.209 14.514 14.2923 14.5973C14.3756 14.6807 14.4729 14.7223 14.584 14.7223Z" fill="#667085"/>
</g>
</g>
</svg>
