<svg width="40" height="39" viewBox="0 0 40 39" fill="none" xmlns="http://www.w3.org/2000/svg">
<path d="M37.5859 19.7929C37.5859 9.96617 29.6196 2 19.7929 2C9.96617 2 2 9.96617 2 19.7929C2 29.6196 9.96617 37.5859 19.7929 37.5859" stroke="#2160FD" stroke-width="2.5" stroke-linecap="round" stroke-linejoin="round"/>
<path d="M21.5703 2.08789C21.5703 2.08789 26.9082 9.11721 26.9082 19.7929" stroke="#2160FD" stroke-width="2.5" stroke-linecap="round" stroke-linejoin="round"/>
<path d="M18.0137 37.4981C18.0137 37.4981 12.6758 30.4687 12.6758 19.7929C12.6758 9.11721 18.0137 2.08789 18.0137 2.08789" stroke="#2160FD" stroke-width="2.5" stroke-linecap="round" stroke-linejoin="round"/>
<path d="M3.11719 26.0205H19.7898" stroke="#2160FD" stroke-width="2.5" stroke-linecap="round" stroke-linejoin="round"/>
<path d="M3.11719 13.5654H36.4625" stroke="#2160FD" stroke-width="2.5" stroke-linecap="round" stroke-linejoin="round"/>
<path fill-rule="evenodd" clip-rule="evenodd" d="M37.3691 30.3216C38.2477 30.862 38.1936 32.1774 37.2887 32.2801L32.7219 32.7977L30.6736 36.9119C30.2677 37.7272 29.0132 37.3281 28.8057 36.3176L26.5721 25.4355C26.3969 24.5814 27.1645 24.0439 27.907 24.5008L37.3691 30.3216Z" stroke="#2160FD" stroke-width="2.5"/>
</svg>
