<svg width="20" height="21" viewBox="0 0 20 21" fill="none" xmlns="http://www.w3.org/2000/svg">
<g id="location_on">
<mask id="mask0_2009_993" style="mask-type:alpha" maskUnits="userSpaceOnUse" x="0" y="0" width="20" height="21">
<rect id="Bounding box" y="0.555664" width="20" height="20" fill="#D9D9D9"/>
</mask>
<g mask="url(#mask0_2009_993)">
<path id="location_on_2" d="M10.0007 16.681C11.6951 15.1254 12.952 13.7122 13.7715 12.4414C14.5909 11.1706 15.0007 10.0421 15.0007 9.05599C15.0007 7.5421 14.518 6.30252 13.5527 5.33724C12.5875 4.37196 11.4034 3.88932 10.0007 3.88932C8.59787 3.88932 7.41385 4.37196 6.44857 5.33724C5.48329 6.30252 5.00065 7.5421 5.00065 9.05599C5.00065 10.0421 5.41037 11.1706 6.22982 12.4414C7.04926 13.7122 8.30621 15.1254 10.0007 16.681ZM10.0007 18.3268C9.80621 18.3268 9.61176 18.2921 9.41732 18.2227C9.22287 18.1532 9.04926 18.049 8.89648 17.9102C7.99371 17.0768 7.1951 16.2643 6.50065 15.4727C5.80621 14.681 5.22635 13.9136 4.76107 13.1706C4.29579 12.4275 3.94162 11.7122 3.69857 11.0247C3.45551 10.3372 3.33398 9.68099 3.33398 9.05599C3.33398 6.97266 4.00412 5.31293 5.3444 4.07682C6.68468 2.84071 8.23676 2.22266 10.0007 2.22266C11.7645 2.22266 13.3166 2.84071 14.6569 4.07682C15.9972 5.31293 16.6673 6.97266 16.6673 9.05599C16.6673 9.68099 16.5458 10.3372 16.3027 11.0247C16.0597 11.7122 15.7055 12.4275 15.2402 13.1706C14.775 13.9136 14.1951 14.681 13.5007 15.4727C12.8062 16.2643 12.0076 17.0768 11.1048 17.9102C10.952 18.049 10.7784 18.1532 10.584 18.2227C10.3895 18.2921 10.1951 18.3268 10.0007 18.3268ZM10.0007 10.556C10.459 10.556 10.8513 10.3928 11.1777 10.0664C11.5041 9.74002 11.6673 9.34766 11.6673 8.88932C11.6673 8.43099 11.5041 8.03863 11.1777 7.71224C10.8513 7.38585 10.459 7.22266 10.0007 7.22266C9.54232 7.22266 9.14996 7.38585 8.82357 7.71224C8.49718 8.03863 8.33398 8.43099 8.33398 8.88932C8.33398 9.34766 8.49718 9.74002 8.82357 10.0664C9.14996 10.3928 9.54232 10.556 10.0007 10.556Z" fill="#667085"/>
</g>
</g>
</svg>
