<svg width="24" height="24" viewBox="0 0 24 24" fill="none" xmlns="http://www.w3.org/2000/svg">
<path fill-rule="evenodd" clip-rule="evenodd" d="M10.1053 0C4.52428 0 0 4.52428 0 10.1053C0 15.6862 4.52428 20.2105 10.1053 20.2105C12.0568 20.2105 13.8792 19.6573 15.4241 18.6991L20.0467 23.3217C20.9511 24.2261 22.4173 24.2261 23.3217 23.3217C24.2261 22.4173 24.2261 20.9511 23.3217 20.0467L18.6991 15.4241C19.6573 13.8792 20.2105 12.0568 20.2105 10.1053C20.2105 4.52428 15.6862 0 10.1053 0ZM3.36842 10.1053C3.36842 6.38461 6.38461 3.36842 10.1053 3.36842C13.8259 3.36842 16.8421 6.38461 16.8421 10.1053C16.8421 13.8259 13.8259 16.8421 10.1053 16.8421C6.38461 16.8421 3.36842 13.8259 3.36842 10.1053Z" fill="#004DD1"/>
</svg>
