<svg width="30" height="30" viewBox="0 0 30 30" fill="none" xmlns="http://www.w3.org/2000/svg">
<g clip-path="url(#clip0_2012_13913)">
<path d="M15 0C6.55125 0 0 6.19125 0 14.55C0 18.9225 1.7925 22.7025 4.71 25.3125C4.95375 25.53 5.10375 25.8375 5.11125 26.1675L5.19375 28.8375C5.19976 29.034 5.25393 29.2259 5.3515 29.3965C5.44907 29.5672 5.58706 29.7112 5.75333 29.816C5.91961 29.9208 6.10908 29.9832 6.3051 29.9976C6.50111 30.012 6.69767 29.9781 6.8775 29.8988L9.855 28.5863C10.1062 28.4738 10.3913 28.455 10.6575 28.5263C12.0263 28.9013 13.4813 29.1038 15 29.1038C23.4488 29.1038 30 22.9125 30 14.5538C30 6.195 23.4488 0 15 0Z" fill="url(#paint0_radial_2012_13913)"/>
<path d="M5.9912 18.8064L10.3975 11.8164C10.5632 11.5532 10.7817 11.3273 11.0392 11.1528C11.2967 10.9783 11.5875 10.8592 11.8934 10.8028C12.1993 10.7464 12.5135 10.754 12.8163 10.8252C13.119 10.8964 13.4038 11.0296 13.6525 11.2164L17.1587 13.8451C17.3152 13.9623 17.5057 14.0253 17.7012 14.0247C17.8967 14.024 18.0867 13.9596 18.2425 13.8414L22.975 10.2489C23.605 9.76887 24.4299 10.5264 24.0099 11.1976L19.6 18.1839C19.4342 18.447 19.2157 18.673 18.9582 18.8474C18.7007 19.0219 18.4099 19.1411 18.104 19.1975C17.7981 19.2538 17.4839 19.2462 17.1811 19.175C16.8784 19.1038 16.5936 18.9706 16.345 18.7839L12.8387 16.1551C12.6822 16.0379 12.4917 15.9749 12.2962 15.9756C12.1007 15.9763 11.9107 16.0406 11.755 16.1589L7.02245 19.7514C6.39245 20.2314 5.56745 19.4776 5.9912 18.8064Z" fill="white"/>
</g>
<defs>
<radialGradient id="paint0_radial_2012_13913" cx="0" cy="0" r="1" gradientUnits="userSpaceOnUse" gradientTransform="translate(5.025 30) scale(33 33)">
<stop stop-color="#0099FF"/>
<stop offset="0.6" stop-color="#A033FF"/>
<stop offset="0.9" stop-color="#FF5280"/>
<stop offset="1" stop-color="#FF7061"/>
</radialGradient>
<clipPath id="clip0_2012_13913">
<rect width="30" height="30" fill="white"/>
</clipPath>
</defs>
</svg>
