<svg width="21" height="20" viewBox="0 0 21 20" fill="none" xmlns="http://www.w3.org/2000/svg">
<g id="rotate-cw" clip-path="url(#clip0_2013_27534)">
<path id="Icon" d="M19.6633 3.33367V8.33367M19.6633 8.33367H14.6633M19.6633 8.33367L15.805 4.70034C14.6555 3.55012 13.1633 2.80466 11.5533 2.57629C9.94325 2.34792 8.30262 2.64902 6.87861 3.4342C5.45459 4.21939 4.32435 5.44613 3.6582 6.92956C2.99204 8.41299 2.82607 10.0727 3.18528 11.6587C3.5445 13.2447 4.40944 14.6709 5.64977 15.7226C6.89011 16.7742 8.43863 17.3942 10.062 17.4892C11.6854 17.5841 13.2956 17.1489 14.6501 16.2491C16.0046 15.3493 17.03 14.0336 17.5716 12.5003" stroke="#475467" stroke-width="1.66667" stroke-linecap="round" stroke-linejoin="round"/>
</g>
<defs>
<clipPath id="clip0_2013_27534">
<rect width="20" height="20" fill="white" transform="translate(0.5)"/>
</clipPath>
</defs>
</svg>
