<svg width="24" height="25" viewBox="0 0 24 25" fill="none" xmlns="http://www.w3.org/2000/svg">
<g id="paid">
<mask id="mask0_2009_999" style="mask-type:alpha" maskUnits="userSpaceOnUse" x="0" y="0" width="24" height="25">
<rect id="Bounding box" y="0.555664" width="24" height="24" fill="#D9D9D9"/>
</mask>
<g mask="url(#mask0_2009_999)">
<path id="paid_2" d="M12 22.5557C10.6167 22.5557 9.31667 22.2932 8.1 21.7682C6.88333 21.2432 5.825 20.5307 4.925 19.6307C4.025 18.7307 3.3125 17.6723 2.7875 16.4557C2.2625 15.239 2 13.939 2 12.5557C2 11.1723 2.2625 9.87233 2.7875 8.65566C3.3125 7.439 4.025 6.38066 4.925 5.48066C5.825 4.58066 6.88333 3.86816 8.1 3.34316C9.31667 2.81816 10.6167 2.55566 12 2.55566C13.3833 2.55566 14.6833 2.81816 15.9 3.34316C17.1167 3.86816 18.175 4.58066 19.075 5.48066C19.975 6.38066 20.6875 7.439 21.2125 8.65566C21.7375 9.87233 22 11.1723 22 12.5557C22 13.939 21.7375 15.239 21.2125 16.4557C20.6875 17.6723 19.975 18.7307 19.075 19.6307C18.175 20.5307 17.1167 21.2432 15.9 21.7682C14.6833 22.2932 13.3833 22.5557 12 22.5557ZM12 20.5557C14.2333 20.5557 16.125 19.7807 17.675 18.2307C19.225 16.6807 20 14.789 20 12.5557C20 10.3223 19.225 8.43066 17.675 6.88066C16.125 5.33066 14.2333 4.55566 12 4.55566C9.76667 4.55566 7.875 5.33066 6.325 6.88066C4.775 8.43066 4 10.3223 4 12.5557C4 14.789 4.775 16.6807 6.325 18.2307C7.875 19.7807 9.76667 20.5557 12 20.5557ZM11.975 19.5557C12.2083 19.5557 12.4125 19.4682 12.5875 19.2932C12.7625 19.1182 12.85 18.914 12.85 18.6807V18.3057C13.6833 18.1557 14.4 17.8307 15 17.3307C15.6 16.8307 15.9 16.089 15.9 15.1057C15.9 14.4057 15.7 13.764 15.3 13.1807C14.9 12.5973 14.1 12.089 12.9 11.6557C11.9 11.3223 11.2083 11.0307 10.825 10.7807C10.4417 10.5307 10.25 10.189 10.25 9.75566C10.25 9.32233 10.4042 8.98066 10.7125 8.73066C11.0208 8.48066 11.4667 8.35566 12.05 8.35566C12.3833 8.35566 12.675 8.414 12.925 8.53066C13.175 8.64733 13.3833 8.80566 13.55 9.00566C13.7167 9.20566 13.9042 9.34316 14.1125 9.41816C14.3208 9.49316 14.5167 9.489 14.7 9.40566C14.95 9.30566 15.1208 9.13483 15.2125 8.89316C15.3042 8.6515 15.2833 8.43066 15.15 8.23066C14.8833 7.84733 14.5542 7.52233 14.1625 7.25566C13.7708 6.989 13.35 6.839 12.9 6.80566V6.43066C12.9 6.19733 12.8125 5.99316 12.6375 5.81816C12.4625 5.64316 12.2583 5.55566 12.025 5.55566C11.7917 5.55566 11.5875 5.64316 11.4125 5.81816C11.2375 5.99316 11.15 6.19733 11.15 6.43066V6.80566C10.3167 6.989 9.66667 7.35566 9.2 7.90566C8.73333 8.45566 8.5 9.07233 8.5 9.75566C8.5 10.539 8.72917 11.1723 9.1875 11.6557C9.64583 12.139 10.3667 12.5557 11.35 12.9057C12.4 13.289 13.1292 13.6307 13.5375 13.9307C13.9458 14.2307 14.15 14.6223 14.15 15.1057C14.15 15.6557 13.9542 16.0598 13.5625 16.3182C13.1708 16.5765 12.7 16.7057 12.15 16.7057C11.7167 16.7057 11.325 16.6015 10.975 16.3932C10.625 16.1848 10.3333 15.8723 10.1 15.4557C9.96667 15.2223 9.79167 15.064 9.575 14.9807C9.35833 14.8973 9.14167 14.8973 8.925 14.9807C8.69167 15.064 8.52083 15.2223 8.4125 15.4557C8.30417 15.689 8.3 15.914 8.4 16.1307C8.66667 16.6973 9.025 17.1598 9.475 17.5182C9.925 17.8765 10.4667 18.1223 11.1 18.2557V18.6807C11.1 18.914 11.1875 19.1182 11.3625 19.2932C11.5375 19.4682 11.7417 19.5557 11.975 19.5557Z" fill="#667085"/>
</g>
</g>
</svg>
