<svg width="24" height="25" viewBox="0 0 24 25" fill="none" xmlns="http://www.w3.org/2000/svg">
<g clip-path="url(#clip0_2002_5526)">
<path d="M24 12.5557C24 5.92824 18.6274 0.555664 12 0.555664C5.37258 0.555664 0 5.92824 0 12.5557C0 18.5451 4.3882 23.5096 10.125 24.4099V16.0244H7.07812V12.5557H10.125V9.91191C10.125 6.90441 11.9166 5.24316 14.6576 5.24316C15.9701 5.24316 17.3438 5.47754 17.3438 5.47754V8.43066H15.8306C14.34 8.43066 13.875 9.35574 13.875 10.3057V12.5557H17.2031L16.6711 16.0244H13.875V24.4099C19.6118 23.5096 24 18.5451 24 12.5557Z" fill="#1877F2"/>
<path d="M16.6711 16.0244L17.2031 12.5557H13.875V10.3057C13.875 9.35668 14.34 8.43066 15.8306 8.43066H17.3438V5.47754C17.3438 5.47754 15.9705 5.24316 14.6576 5.24316C11.9166 5.24316 10.125 6.90441 10.125 9.91191V12.5557H7.07812V16.0244H10.125V24.4099C11.3674 24.6043 12.6326 24.6043 13.875 24.4099V16.0244H16.6711Z" fill="white"/>
</g>
<defs>
<clipPath id="clip0_2002_5526">
<rect width="24" height="24" fill="white" transform="translate(0 0.555664)"/>
</clipPath>
</defs>
</svg>
