<svg width="24" height="25" viewBox="0 0 24 25" fill="none" xmlns="http://www.w3.org/2000/svg">
<g id="Social icon" clip-path="url(#clip0_2002_5531)">
<path id="path4" d="M20.8418 17.7003C20.5091 18.469 20.1153 19.1765 19.659 19.8269C19.0371 20.7137 18.5278 21.3275 18.1354 21.6684C17.527 22.2279 16.8752 22.5144 16.1772 22.5307C15.6761 22.5307 15.0718 22.3881 14.3683 22.0989C13.6626 21.811 13.014 21.6684 12.421 21.6684C11.7991 21.6684 11.132 21.811 10.4185 22.0989C9.70396 22.3881 9.12831 22.5388 8.68819 22.5538C8.01884 22.5823 7.35166 22.2876 6.68571 21.6684C6.26066 21.2976 5.72901 20.6621 5.09212 19.7618C4.40878 18.8003 3.84698 17.6854 3.40686 16.4143C2.93551 15.0414 2.69922 13.7119 2.69922 12.4248C2.69922 10.9505 3.0178 9.67887 3.65592 8.61326C4.15742 7.75733 4.82459 7.08214 5.65962 6.58647C6.49464 6.09081 7.39688 5.83822 8.36852 5.82206C8.90017 5.82206 9.59736 5.98651 10.4637 6.30971C11.3277 6.634 11.8824 6.79845 12.1256 6.79845C12.3075 6.79845 12.9237 6.60616 13.9684 6.2228C14.9564 5.86728 15.7902 5.72008 16.4732 5.77806C18.3241 5.92744 19.7147 6.65709 20.6395 7.97161C18.9841 8.97462 18.1653 10.3795 18.1816 12.1816C18.1965 13.5854 18.7057 14.7535 19.7066 15.681C20.1601 16.1115 20.6667 16.4442 21.2302 16.6805C21.108 17.0349 20.979 17.3744 20.8418 17.7003ZM16.5968 0.995789C16.5968 2.09604 16.1948 3.12334 15.3936 4.0742C14.4267 5.20459 13.2572 5.85778 11.989 5.75471C11.9729 5.62271 11.9635 5.48379 11.9635 5.33781C11.9635 4.28157 12.4233 3.15118 13.2399 2.22694C13.6475 1.75898 14.166 1.36987 14.7948 1.05948C15.4221 0.753715 16.0156 0.584621 16.5737 0.555664C16.59 0.70275 16.5968 0.849846 16.5968 0.995775V0.995789Z" fill="black"/>
</g>
<defs>
<clipPath id="clip0_2002_5531">
<rect width="24" height="24" fill="white" transform="translate(0 0.555664)"/>
</clipPath>
</defs>
</svg>
