<svg width="24" height="25" viewBox="0 0 24 25" fill="none" xmlns="http://www.w3.org/2000/svg">
<g id="Social icon" clip-path="url(#clip0_2002_5519)">
<path id="Vector" d="M23.7643 12.8319C23.7643 12.0162 23.6982 11.1961 23.5571 10.3936H12.2383V15.0145H18.72C18.451 16.5049 17.5868 17.8233 16.3213 18.6611V21.6594H20.1883C22.4591 19.5694 23.7643 16.4828 23.7643 12.8319Z" fill="#4285F4"/>
<path id="Vector_2" d="M12.2391 24.556C15.4756 24.556 18.205 23.4934 20.1936 21.6591L16.3266 18.6607C15.2507 19.3927 13.8618 19.8071 12.2435 19.8071C9.11291 19.8071 6.45849 17.6951 5.50607 14.8555H1.51562V17.9464C3.55274 21.9986 7.70192 24.556 12.2391 24.556Z" fill="#34A853"/>
<path id="Vector_3" d="M5.50082 14.8564C4.99816 13.366 4.99816 11.7522 5.50082 10.2618V7.1709H1.51478C-0.187219 10.5617 -0.187219 14.5565 1.51478 17.9473L5.50082 14.8564Z" fill="#FBBC04"/>
<path id="Vector_4" d="M12.2391 5.30532C13.9499 5.27887 15.6034 5.92263 16.8425 7.10433L20.2685 3.67828C18.0991 1.64117 15.2198 0.521198 12.2391 0.556473C7.70192 0.556473 3.55274 3.11389 1.51562 7.17047L5.50166 10.2614C6.44967 7.41739 9.1085 5.30532 12.2391 5.30532Z" fill="#EA4335"/>
</g>
<defs>
<clipPath id="clip0_2002_5519">
<rect width="24" height="24" fill="white" transform="translate(0 0.555664)"/>
</clipPath>
</defs>
</svg>
