<svg width="32" height="32" viewBox="0 0 32 32" fill="none" xmlns="http://www.w3.org/2000/svg">
<path d="M10.7658 26.0562C12.9783 28.3726 16.5148 26.6336 13.6653 30.6963C11.3866 33.9478 8.22152 30.3803 7.25997 28.0279C8.89981 27.7387 10.2509 26.6119 10.7658 26.0562Z" fill="#004DD1"/>
<path d="M8.80918 7.98241C7.16999 13.2626 5.80382 15.1925 4.48999 16.0739C3.17615 16.9552 -2.28962 19.6083 1.08194 24.5676C3.77919 28.5351 7.99542 26.7304 9.76345 25.3315C5.64384 22.7236 5.01022 19.5254 5.26348 17.962C7.08007 22.6976 9.9011 23.8456 11.0773 24.4502C13.5036 23.3293 14.3545 23.2678 18.7544 23.7367C26.3909 24.5505 21.9907 16.1158 19.2106 12.0265C16.6671 8.28528 10.4484 2.70221 8.80918 7.98241ZM20.2223 20.9247C19.3928 21.5427 16.44 20.2854 13.7936 16.3928C11.1472 12.5001 10.4756 9.38887 11.5124 8.77088C12.5493 8.15289 15.296 9.8239 17.9412 13.7148C20.5863 17.6057 21.0518 20.3067 20.2223 20.9247Z" fill="#004DD1"/>
<path fill-rule="evenodd" clip-rule="evenodd" d="M29.4633 5.16837C29.9002 5.86332 29.7075 6.7945 29.0329 7.24822L23.111 11.231C22.4364 11.6848 21.5353 11.4892 21.0984 10.7943C20.6615 10.0993 20.8542 9.16814 21.5288 8.71442L27.4508 4.73159C28.1254 4.27787 29.0264 4.47342 29.4633 5.16837Z" fill="#004DD1"/>
<path fill-rule="evenodd" clip-rule="evenodd" d="M31.8985 14.5975C31.9113 15.4068 31.2613 16.0715 30.4467 16.0821L24.2611 16.163C23.4466 16.1737 22.7759 15.5262 22.7631 14.7169C22.7503 13.9076 23.4003 13.2429 24.2149 13.2323L30.4005 13.1514C31.2151 13.1407 31.8858 13.7882 31.8985 14.5975Z" fill="#004DD1"/>
<path fill-rule="evenodd" clip-rule="evenodd" d="M21.8158 0.117757C22.5249 0.433604 22.8534 1.28708 22.5495 2.02406L20.5483 6.87717C20.2444 7.61415 19.4232 7.95554 18.7141 7.63969C18.0051 7.32385 17.6766 6.47037 17.9805 5.73339L19.9817 0.880278C20.2856 0.143303 21.1067 -0.198089 21.8158 0.117757Z" fill="#004DD1"/>
</svg>
