<svg width="32" height="33" viewBox="0 0 32 33" fill="none" xmlns="http://www.w3.org/2000/svg">
<g id="Group 1000006532">
<g id="Vector">
<path d="M10.7658 26.6119C12.9783 28.9283 16.5148 27.1893 13.6653 31.252C11.3866 34.5035 8.22152 30.9359 7.25997 28.5836C8.89981 28.2943 10.2509 27.1676 10.7658 26.6119Z" fill="#004DD1"/>
<path d="M8.80918 8.53808C7.16999 13.8183 5.80382 15.7482 4.48999 16.6296C3.17615 17.5109 -2.28962 20.164 1.08194 25.1233C3.77919 29.0908 7.99542 27.286 9.76345 25.8872C5.64384 23.2793 5.01022 20.0811 5.26348 18.5177C7.08007 23.2533 9.9011 24.4013 11.0773 25.0058C13.5036 23.885 14.3545 23.8234 18.7544 24.2924C26.3909 25.1061 21.9907 16.6715 19.2106 12.5822C16.6671 8.84095 10.4484 3.25788 8.80918 8.53808ZM20.2223 21.4803C19.3928 22.0983 16.44 20.8411 13.7936 16.9484C11.1472 13.0558 10.4756 9.94453 11.5124 9.32654C12.5493 8.70855 15.296 10.3796 17.9412 14.2705C20.5863 18.1614 21.0518 20.8624 20.2223 21.4803Z" fill="#004DD1"/>
</g>
<g id="Group 1000006511">
<path id="Vector 219 (Stroke)" fill-rule="evenodd" clip-rule="evenodd" d="M29.4692 5.72404C29.9061 6.41898 29.7134 7.35016 29.0388 7.80388L23.1168 11.7867C22.4422 12.2404 21.5412 12.0449 21.1043 11.3499C20.6674 10.655 20.8601 9.7238 21.5347 9.27008L27.4566 5.28725C28.1312 4.83353 29.0323 5.02909 29.4692 5.72404Z" fill="#004DD1"/>
<path id="Vector 220 (Stroke)" fill-rule="evenodd" clip-rule="evenodd" d="M31.9005 15.1531C31.9133 15.9624 31.2633 16.6271 30.4487 16.6378L24.2631 16.7187C23.4485 16.7293 22.7778 16.0819 22.7651 15.2726C22.7523 14.4633 23.4023 13.7986 24.2169 13.7879L30.4025 13.707C31.217 13.6964 31.8877 14.3438 31.9005 15.1531Z" fill="#004DD1"/>
<path id="Vector 218 (Stroke)" fill-rule="evenodd" clip-rule="evenodd" d="M21.8197 0.673421C22.5288 0.989268 22.8573 1.84275 22.5534 2.57972L20.5522 7.43284C20.2483 8.16981 19.4271 8.51121 18.7181 8.19536C18.009 7.87951 17.6805 7.02603 17.9844 6.28906L19.9856 1.43594C20.2895 0.698967 21.1106 0.357575 21.8197 0.673421Z" fill="#004DD1"/>
</g>
</g>
</svg>
