<svg width="14" height="14" viewBox="0 0 14 14" fill="none" xmlns="http://www.w3.org/2000/svg">
<g id="vuesax/bold/tick-circle">
<g id="tick-circle">
<path id="Vector" d="M7.0013 1.16699C3.78714 1.16699 1.16797 3.78616 1.16797 7.00033C1.16797 10.2145 3.78714 12.8337 7.0013 12.8337C10.2155 12.8337 12.8346 10.2145 12.8346 7.00033C12.8346 3.78616 10.2155 1.16699 7.0013 1.16699ZM9.78964 5.65866L6.48214 8.96616C6.40047 9.04783 6.28964 9.09449 6.17297 9.09449C6.0563 9.09449 5.94547 9.04783 5.8638 8.96616L4.21297 7.31533C4.0438 7.14616 4.0438 6.86616 4.21297 6.69699C4.38214 6.52783 4.66214 6.52783 4.8313 6.69699L6.17297 8.03866L9.1713 5.04033C9.34047 4.87116 9.62047 4.87116 9.78964 5.04033C9.9588 5.20949 9.9588 5.48366 9.78964 5.65866Z" fill="#28BE2D"/>
</g>
</g>
</svg>
