<svg width="24" height="24" viewBox="0 0 24 24" fill="none" xmlns="http://www.w3.org/2000/svg">
<path d="M18.0711 10.3195C17.8811 10.3195 17.6911 10.2495 17.5411 10.0995L12.0011 4.55945L6.46109 10.0995C6.17109 10.3895 5.69109 10.3895 5.40109 10.0995C5.11109 9.80945 5.11109 9.32945 5.40109 9.03945L11.4711 2.96945C11.7611 2.67945 12.2411 2.67945 12.5311 2.96945L18.6011 9.03945C18.8911 9.32945 18.8911 9.80945 18.6011 10.0995C18.4611 10.2495 18.2611 10.3195 18.0711 10.3195Z" fill="#0053CB" stroke="#0053CB"/>
<path d="M12 21.2499C11.59 21.2499 11.25 20.9099 11.25 20.4999V3.66992C11.25 3.25992 11.59 2.91992 12 2.91992C12.41 2.91992 12.75 3.25992 12.75 3.66992V20.4999C12.75 20.9099 12.41 21.2499 12 21.2499Z" fill="#0053CB" stroke="#0053CB"/>
</svg>
