<svg width="46" height="47" viewBox="0 0 46 47" fill="none" xmlns="http://www.w3.org/2000/svg">
<rect x="3" y="3.63867" width="40" height="40" rx="20" fill="#F2F4F7"/>
<rect x="3" y="3.63867" width="40" height="40" rx="20" stroke="#F9FAFB" stroke-width="6"/>
<g clip-path="url(#clip0_470_15052)">
<path d="M26.3326 26.9719L22.9992 23.6386M22.9992 23.6386L19.6659 26.9719M22.9992 23.6386V31.1386M29.9909 28.9636C30.8037 28.5205 31.4458 27.8193 31.8158 26.9708C32.1858 26.1222 32.2627 25.1746 32.0344 24.2775C31.8061 23.3804 31.2855 22.5848 30.5548 22.0164C29.8241 21.4481 28.925 21.1392 27.9992 21.1386H26.9492C26.697 20.1629 26.2269 19.2572 25.5742 18.4894C24.9215 17.7216 24.1033 17.1118 23.181 16.7057C22.2587 16.2997 21.2564 16.108 20.2493 16.1451C19.2423 16.1822 18.2568 16.4472 17.3669 16.92C16.477 17.3928 15.7058 18.0612 15.1114 18.8749C14.517 19.6886 14.1148 20.6265 13.9351 21.6181C13.7553 22.6096 13.8027 23.629 14.0736 24.5996C14.3445 25.5702 14.8319 26.4668 15.4992 27.2219" stroke="#475467" stroke-width="1.66667" stroke-linecap="round" stroke-linejoin="round"/>
</g>
<defs>
<clipPath id="clip0_470_15052">
<rect width="20" height="20" fill="white" transform="translate(13 13.6387)"/>
</clipPath>
</defs>
</svg>
