<svg width="25" height="20" viewBox="0 0 25 20" fill="none" xmlns="http://www.w3.org/2000/svg">
<g id="Group 1000006508">
<path id="Vector 216" d="M17.4652 3.92794C19.253 0.529803 21.7664 0.308082 24.6747 0.530155C20.1506 3.67981 20.1222 7.37394 19.253 10.351C18.0068 14.6193 17.447 16.6555 15.2927 17.337C14.0031 17.7449 12.6285 17.1598 11.8984 16.0647C16.2789 9.67662 15.3886 7.87506 17.4652 3.92794Z" fill="#004DD1"/>
<path id="Vector 217" d="M11.6128 16.6283C13.2741 18.6859 15.4186 18.0567 15.9199 17.6162C13.879 20.2596 7.95812 20.9272 5.88144 14.6046C4.22009 9.54654 3.86632 8.06327 0.679688 7.21266C9.0755 5.57066 8.28441 12.5057 11.6128 16.6283Z" fill="#004DD1"/>
</g>
</svg>
