<svg width="32" height="33" viewBox="0 0 32 33" fill="none" xmlns="http://www.w3.org/2000/svg">
<g id="x">
<path id="bg" d="M0 16.5557C0 25.3922 7.16344 32.5557 16 32.5557C24.8366 32.5557 32 25.3922 32 16.5557C32 7.71911 24.8366 0.555664 16 0.555664C7.16344 0.555664 0 7.71911 0 16.5557Z" fill="#004DD1"/>
<path id="Vector" d="M17.5222 15.3306L23.4785 8.55566H22.0671L16.8952 14.4382L12.7644 8.55566H8L14.2466 17.4511L8 24.5557H9.41155L14.8732 18.3435L19.2356 24.5557H24L17.5218 15.3306H17.5222ZM15.5889 17.5295L14.956 16.6437L9.92015 9.59541H12.0882L16.1522 15.2836L16.7851 16.1694L22.0677 23.5632H19.8997L15.5889 17.5298V17.5295Z" fill="white"/>
</g>
</svg>
